<?xml version="1.0" encoding="UTF-8"?>
<svg xmlns="http://www.w3.org/2000/svg" xmlns:xlink="http://www.w3.org/1999/xlink"
     width="1770" height="960" viewBox="0 0 1770 960">
<defs>
</defs>
<rect x="30" y="840" width="50" height="50" fill="pink" stroke="black" stroke-width="1" />
<text x="55" y="832" font-size="15" fill="black" text-anchor="middle" dominant-baseline="central">kopkwhmeter_H</text>
<circle cx="30" cy="865" r="5" fill="red" />
<text x="30" y="880" font-size="12" fill="black" valign="top" text-anchor="middle" dominant-baseline="central">IN</text>
<circle cx="80" cy="865" r="5" fill="green" />
<text x="80" y="880" font-size="12" fill="black" valign="top" text-anchor="middle" dominant-baseline="central">OUT</text>
<path d="M80,865 L95,865" stroke="black" stroke-width="2" />
<path d="M120,865 L105,865" stroke="black" stroke-width="2" />
<path d="M95,865 L105,865" stroke="black" stroke-width="2" />
<path d="M105,865 L105,865" stroke="black" stroke-width="2" />
<rect x="120" y="840" width="50" height="50" fill="pink" stroke="black" stroke-width="1" />
<text x="145" y="832" font-size="15" fill="black" text-anchor="middle" dominant-baseline="central">Teller_H</text>
<circle cx="120" cy="865" r="5" fill="red" />
<text x="120" y="880" font-size="12" fill="black" valign="top" text-anchor="middle" dominant-baseline="central">IN</text>
<circle cx="170" cy="865" r="5" fill="green" />
<text x="170" y="880" font-size="12" fill="black" valign="top" text-anchor="middle" dominant-baseline="central">OUT</text>
<path d="M170,865 L185,865" stroke="black" stroke-width="2" />
<path d="M235,800 L235,815" stroke="black" stroke-width="2" />
<path d="M170,865 L185,865" stroke="black" stroke-width="2" />
<path d="M415,800 L415,815" stroke="black" stroke-width="2" />
<path d="M170,865 L185,865" stroke="black" stroke-width="2" />
<path d="M505,800 L505,815" stroke="black" stroke-width="2" />
<path d="M185,865 L235,865" stroke="black" stroke-width="2" />
<path d="M235,865 L235,815" stroke="black" stroke-width="2" />
<path d="M185,865 L415,865" stroke="black" stroke-width="2" />
<path d="M415,865 L415,815" stroke="black" stroke-width="2" />
<path d="M185,865 L505,865" stroke="black" stroke-width="2" />
<path d="M505,865 L505,815" stroke="black" stroke-width="2" />
<rect x="210" y="750" width="50" height="50" fill="pink" stroke="black" stroke-width="1" />
<text x="235" y="742" font-size="15" fill="black" text-anchor="middle" dominant-baseline="central">Diff3_V</text>
<circle cx="235" cy="800" r="5" fill="red" />
<text x="235" y="815" font-size="12" fill="black" valign="top" text-anchor="middle" dominant-baseline="central">IN</text>
<circle cx="235" cy="750" r="5" fill="green" />
<text x="235" y="765" font-size="12" fill="black" valign="top" text-anchor="middle" dominant-baseline="central">OUT</text>
<circle cx="203" cy="800" r="5" fill="yellow" />
<text x="203" y="815" font-size="12" fill="black" valign="top" text-anchor="middle" dominant-baseline="central">CUT</text>
<path d="M235,750 L235,735" stroke="black" stroke-width="2" />
<path d="M300,685 L285,685" stroke="black" stroke-width="2" />
<path d="M235,735 L235,685" stroke="black" stroke-width="2" />
<path d="M235,685 L285,685" stroke="black" stroke-width="2" />
<text x="245" y="700" font-size="15" fill="blue" text-anchor="middle" dominant-baseline="central">1</text>
<rect x="300" y="660" width="50" height="50" fill="pink" stroke="black" stroke-width="1" />
<text x="325" y="652" font-size="15" fill="black" text-anchor="middle" dominant-baseline="central">zonnepaneelopdif3_H</text>
<circle cx="300" cy="685" r="5" fill="red" />
<text x="300" y="700" font-size="12" fill="black" valign="top" text-anchor="middle" dominant-baseline="central">IN</text>
<circle cx="350" cy="685" r="5" fill="green" />
<text x="350" y="700" font-size="12" fill="black" valign="top" text-anchor="middle" dominant-baseline="central">OUT</text>
<rect x="390" y="750" width="50" height="50" fill="pink" stroke="black" stroke-width="1" />
<text x="415" y="742" font-size="15" fill="black" text-anchor="middle" dominant-baseline="central">Diff30_V</text>
<circle cx="415" cy="800" r="5" fill="red" />
<text x="415" y="815" font-size="12" fill="black" valign="top" text-anchor="middle" dominant-baseline="central">IN</text>
<circle cx="415" cy="750" r="5" fill="green" />
<text x="415" y="765" font-size="12" fill="black" valign="top" text-anchor="middle" dominant-baseline="central">OUT</text>
<circle cx="383" cy="800" r="5" fill="yellow" />
<text x="383" y="815" font-size="12" fill="black" valign="top" text-anchor="middle" dominant-baseline="central">CUT</text>
<rect x="480" y="750" width="50" height="50" fill="pink" stroke="black" stroke-width="1" />
<text x="505" y="742" font-size="15" fill="black" text-anchor="middle" dominant-baseline="central">Diff300_V</text>
<circle cx="505" cy="800" r="5" fill="red" />
<text x="505" y="815" font-size="12" fill="black" valign="top" text-anchor="middle" dominant-baseline="central">IN</text>
<circle cx="505" cy="750" r="5" fill="green" />
<text x="505" y="765" font-size="12" fill="black" valign="top" text-anchor="middle" dominant-baseline="central">OUT</text>
<circle cx="473" cy="800" r="5" fill="yellow" />
<text x="473" y="815" font-size="12" fill="black" valign="top" text-anchor="middle" dominant-baseline="central">CUT</text>
<path d="M505,750 L505,735" stroke="black" stroke-width="2" />
<path d="M505,710 L505,725" stroke="black" stroke-width="2" />
<path d="M505,750 L505,735" stroke="black" stroke-width="2" />
<path d="M775,710 L775,725" stroke="black" stroke-width="2" />
<path d="M505,750 L505,735" stroke="black" stroke-width="2" />
<path d="M955,710 L955,725" stroke="black" stroke-width="2" />
<path d="M505,750 L505,735" stroke="black" stroke-width="2" />
<path d="M1135,710 L1135,725" stroke="black" stroke-width="2" />
<path d="M505,750 L505,735" stroke="black" stroke-width="2" />
<path d="M1405,710 L1405,725" stroke="black" stroke-width="2" />
<path d="M505,735 L505,725" stroke="black" stroke-width="2" />
<path d="M505,725 L505,725" stroke="black" stroke-width="2" />
<path d="M505,735 L505,725" stroke="black" stroke-width="2" />
<path d="M505,725 L775,725" stroke="black" stroke-width="2" />
<path d="M505,735 L505,725" stroke="black" stroke-width="2" />
<path d="M505,725 L955,725" stroke="black" stroke-width="2" />
<path d="M505,735 L505,725" stroke="black" stroke-width="2" />
<path d="M505,725 L1135,725" stroke="black" stroke-width="2" />
<path d="M505,735 L505,725" stroke="black" stroke-width="2" />
<path d="M505,725 L1405,725" stroke="black" stroke-width="2" />
<rect x="480" y="660" width="50" height="50" fill="pink" stroke="black" stroke-width="1" />
<text x="505" y="652" font-size="15" fill="black" text-anchor="middle" dominant-baseline="central">Diff100_V</text>
<circle cx="505" cy="710" r="5" fill="red" />
<text x="505" y="725" font-size="12" fill="black" valign="top" text-anchor="middle" dominant-baseline="central">IN</text>
<circle cx="505" cy="660" r="5" fill="green" />
<text x="505" y="675" font-size="12" fill="black" valign="top" text-anchor="middle" dominant-baseline="central">OUT</text>
<circle cx="473" cy="710" r="5" fill="yellow" />
<text x="473" y="725" font-size="12" fill="black" valign="top" text-anchor="middle" dominant-baseline="central">CUT</text>
<path d="M505,660 L505,645" stroke="black" stroke-width="2" />
<path d="M505,620 L505,635" stroke="black" stroke-width="2" />
<path d="M505,645 L505,635" stroke="black" stroke-width="2" />
<path d="M505,635 L505,635" stroke="black" stroke-width="2" />
<image x="480" y="570" width="50" height="50" xlink:href="symbolen/CircuitBreaker\circuit_breaker.svg" />
<text x="505.0" y="560" font-size="12" fill="black" text-anchor="middle" dominant-baseline="central">zek1001_V (2p, 16A)</text>
<text x="560" y="620" font-size="20" fill="black" text-anchor="middle" dominant-baseline="central">zek1001_V</text>
<text x="560" y="590" font-size="20" fill="black" text-anchor="middle" dominant-baseline="central">16A</text>
<circle cx="505" cy="470" r="8" fill="ping" />
<text x="505" y="562" font-size="15" fill="black" text-anchor="middle" dominant-baseline="central">zek1001_V</text>
<circle cx="505" cy="620" r="5" fill="red" />
<text x="505" y="635" font-size="12" fill="black" valign="top" text-anchor="middle" dominant-baseline="central">IN</text>
<circle cx="505" cy="570" r="5" fill="green" />
<text x="505" y="585" font-size="12" fill="black" valign="top" text-anchor="middle" dominant-baseline="central">OUT</text>
<circle cx="473" cy="620" r="5" fill="yellow" />
<text x="473" y="635" font-size="12" fill="black" valign="top" text-anchor="middle" dominant-baseline="central">CUT</text>
<path d="M505,570 L505,555" stroke="black" stroke-width="2" />
<path d="M570,415 L555,415" stroke="black" stroke-width="2" />
<path d="M505,570 L505,555" stroke="black" stroke-width="2" />
<path d="M570,325 L555,325" stroke="black" stroke-width="2" />
<path d="M505,570 L505,555" stroke="black" stroke-width="2" />
<path d="M660,415 L645,415" stroke="black" stroke-width="2" />
<path d="M505,570 L505,555" stroke="black" stroke-width="2" />
<path d="M570,145 L555,145" stroke="black" stroke-width="2" />
<path d="M505,555 L505,415" stroke="black" stroke-width="2" />
<path d="M505,415 L555,415" stroke="black" stroke-width="2" />
<text x="515" y="430" font-size="15" fill="blue" text-anchor="middle" dominant-baseline="central">1</text>
<path d="M505,555 L505,325" stroke="black" stroke-width="2" />
<path d="M505,325 L555,325" stroke="black" stroke-width="2" />
<text x="515" y="340" font-size="15" fill="blue" text-anchor="middle" dominant-baseline="central">2</text>
<path d="M505,555 L505,415" stroke="black" stroke-width="2" />
<path d="M505,415 L645,415" stroke="black" stroke-width="2" />
<text x="605" y="430" font-size="15" fill="blue" text-anchor="middle" dominant-baseline="central">3</text>
<path d="M505,555 L505,145" stroke="black" stroke-width="2" />
<path d="M505,145 L555,145" stroke="black" stroke-width="2" />
<text x="515" y="160" font-size="15" fill="blue" text-anchor="middle" dominant-baseline="central">4</text>
<rect x="570" y="390" width="50" height="50" fill="pink" stroke="black" stroke-width="1" />
<text x="595" y="382" font-size="15" fill="black" text-anchor="middle" dominant-baseline="central">Verlichting6_H</text>
<circle cx="570" cy="415" r="5" fill="red" />
<text x="570" y="430" font-size="12" fill="black" valign="top" text-anchor="middle" dominant-baseline="central">IN</text>
<circle cx="620" cy="415" r="5" fill="green" />
<text x="620" y="430" font-size="12" fill="black" valign="top" text-anchor="middle" dominant-baseline="central">OUT</text>
<rect x="570" y="300" width="50" height="50" fill="pink" stroke="black" stroke-width="1" />
<text x="595" y="292" font-size="15" fill="black" text-anchor="middle" dominant-baseline="central">vaatwas301_H</text>
<circle cx="570" cy="325" r="5" fill="red" />
<text x="570" y="340" font-size="12" fill="black" valign="top" text-anchor="middle" dominant-baseline="central">IN</text>
<circle cx="620" cy="325" r="5" fill="green" />
<text x="620" y="340" font-size="12" fill="black" valign="top" text-anchor="middle" dominant-baseline="central">OUT</text>
<image x="660" y="390" width="50" height="50" xlink:href="symbolen/Prieze\prieze_hydro_false_kinder_true_aarding_true_1.svg" />
<text x="685.0" y="415.0" font-size="12" fill="red" text-anchor="middle" dominant-baseline="central">prieze</text>
<text x="685" y="382" font-size="15" fill="black" text-anchor="middle" dominant-baseline="central">prieze</text>
<circle cx="660" cy="415" r="5" fill="red" />
<text x="660" y="430" font-size="12" fill="black" valign="top" text-anchor="middle" dominant-baseline="central">IN</text>
<circle cx="710" cy="415" r="5" fill="green" />
<text x="710" y="430" font-size="12" fill="black" valign="top" text-anchor="middle" dominant-baseline="central">OUT</text>
<image x="570" y="120" width="50" height="50" xlink:href="symbolen/Prieze\prieze_hydro_false_kinder_true_aarding_true_2.svg" />
<text x="595.0" y="145.0" font-size="12" fill="red" text-anchor="middle" dominant-baseline="central">prieze</text>
<text x="595" y="112" font-size="15" fill="black" text-anchor="middle" dominant-baseline="central">prieze</text>
<circle cx="570" cy="145" r="5" fill="red" />
<text x="570" y="160" font-size="12" fill="black" valign="top" text-anchor="middle" dominant-baseline="central">IN</text>
<circle cx="620" cy="145" r="5" fill="green" />
<text x="620" y="160" font-size="12" fill="black" valign="top" text-anchor="middle" dominant-baseline="central">OUT</text>
<image x="750" y="660" width="50" height="50" xlink:href="symbolen/CircuitBreaker\circuit_breaker.svg" />
<text x="775.0" y="650" font-size="12" fill="black" text-anchor="middle" dominant-baseline="central">zek3001_V (2p, 16A)</text>
<text x="830" y="710" font-size="20" fill="black" text-anchor="middle" dominant-baseline="central">zek3001_V</text>
<text x="830" y="680" font-size="20" fill="black" text-anchor="middle" dominant-baseline="central">16A</text>
<circle cx="775" cy="560" r="8" fill="ping" />
<text x="775" y="652" font-size="15" fill="black" text-anchor="middle" dominant-baseline="central">zek3001_V</text>
<circle cx="775" cy="710" r="5" fill="red" />
<text x="775" y="725" font-size="12" fill="black" valign="top" text-anchor="middle" dominant-baseline="central">IN</text>
<circle cx="775" cy="660" r="5" fill="green" />
<text x="775" y="675" font-size="12" fill="black" valign="top" text-anchor="middle" dominant-baseline="central">OUT</text>
<circle cx="743" cy="710" r="5" fill="yellow" />
<text x="743" y="725" font-size="12" fill="black" valign="top" text-anchor="middle" dominant-baseline="central">CUT</text>
<path d="M775,660 L775,645" stroke="black" stroke-width="2" />
<path d="M840,505 L825,505" stroke="black" stroke-width="2" />
<path d="M775,645 L775,505" stroke="black" stroke-width="2" />
<path d="M775,505 L825,505" stroke="black" stroke-width="2" />
<text x="785" y="520" font-size="15" fill="blue" text-anchor="middle" dominant-baseline="central">1</text>
<rect x="840" y="480" width="50" height="50" fill="pink" stroke="black" stroke-width="1" />
<text x="865" y="472" font-size="15" fill="black" text-anchor="middle" dominant-baseline="central">droogkast3002_H</text>
<circle cx="840" cy="505" r="5" fill="red" />
<text x="840" y="520" font-size="12" fill="black" valign="top" text-anchor="middle" dominant-baseline="central">IN</text>
<circle cx="890" cy="505" r="5" fill="green" />
<text x="890" y="520" font-size="12" fill="black" valign="top" text-anchor="middle" dominant-baseline="central">OUT</text>
<image x="930" y="660" width="50" height="50" xlink:href="symbolen/CircuitBreaker\circuit_breaker.svg" />
<text x="955.0" y="650" font-size="12" fill="black" text-anchor="middle" dominant-baseline="central">zek3002_V (2p, 16A)</text>
<text x="1010" y="710" font-size="20" fill="black" text-anchor="middle" dominant-baseline="central">zek3002_V</text>
<text x="1010" y="680" font-size="20" fill="black" text-anchor="middle" dominant-baseline="central">16A</text>
<circle cx="955" cy="560" r="8" fill="ping" />
<text x="955" y="652" font-size="15" fill="black" text-anchor="middle" dominant-baseline="central">zek3002_V</text>
<circle cx="955" cy="710" r="5" fill="red" />
<text x="955" y="725" font-size="12" fill="black" valign="top" text-anchor="middle" dominant-baseline="central">IN</text>
<circle cx="955" cy="660" r="5" fill="green" />
<text x="955" y="675" font-size="12" fill="black" valign="top" text-anchor="middle" dominant-baseline="central">OUT</text>
<circle cx="923" cy="710" r="5" fill="yellow" />
<text x="923" y="725" font-size="12" fill="black" valign="top" text-anchor="middle" dominant-baseline="central">CUT</text>
<path d="M955,660 L955,645" stroke="black" stroke-width="2" />
<path d="M1020,505 L1005,505" stroke="black" stroke-width="2" />
<path d="M955,660 L955,645" stroke="black" stroke-width="2" />
<path d="M1020,415 L1005,415" stroke="black" stroke-width="2" />
<path d="M955,645 L955,505" stroke="black" stroke-width="2" />
<path d="M955,505 L1005,505" stroke="black" stroke-width="2" />
<text x="965" y="520" font-size="15" fill="blue" text-anchor="middle" dominant-baseline="central">1</text>
<path d="M955,645 L955,415" stroke="black" stroke-width="2" />
<path d="M955,415 L1005,415" stroke="black" stroke-width="2" />
<text x="965" y="430" font-size="15" fill="blue" text-anchor="middle" dominant-baseline="central">2</text>
<rect x="1020" y="480" width="50" height="50" fill="pink" stroke="black" stroke-width="1" />
<text x="1045" y="472" font-size="15" fill="black" text-anchor="middle" dominant-baseline="central">microoven3002_H</text>
<circle cx="1020" cy="505" r="5" fill="red" />
<text x="1020" y="520" font-size="12" fill="black" valign="top" text-anchor="middle" dominant-baseline="central">IN</text>
<circle cx="1070" cy="505" r="5" fill="green" />
<text x="1070" y="520" font-size="12" fill="black" valign="top" text-anchor="middle" dominant-baseline="central">OUT</text>
<rect x="1020" y="390" width="50" height="50" fill="pink" stroke="black" stroke-width="1" />
<text x="1045" y="382" font-size="15" fill="black" text-anchor="middle" dominant-baseline="central">oven3002_H</text>
<circle cx="1020" cy="415" r="5" fill="red" />
<text x="1020" y="430" font-size="12" fill="black" valign="top" text-anchor="middle" dominant-baseline="central">IN</text>
<circle cx="1070" cy="415" r="5" fill="green" />
<text x="1070" y="430" font-size="12" fill="black" valign="top" text-anchor="middle" dominant-baseline="central">OUT</text>
<image x="1110" y="660" width="50" height="50" xlink:href="symbolen/CircuitBreaker\circuit_breaker.svg" />
<text x="1135.0" y="650" font-size="12" fill="black" text-anchor="middle" dominant-baseline="central">zek3003_V (2p, 16A)</text>
<text x="1190" y="710" font-size="20" fill="black" text-anchor="middle" dominant-baseline="central">zek3003_V</text>
<text x="1190" y="680" font-size="20" fill="black" text-anchor="middle" dominant-baseline="central">16A</text>
<circle cx="1135" cy="560" r="8" fill="ping" />
<text x="1135" y="652" font-size="15" fill="black" text-anchor="middle" dominant-baseline="central">zek3003_V</text>
<circle cx="1135" cy="710" r="5" fill="red" />
<text x="1135" y="725" font-size="12" fill="black" valign="top" text-anchor="middle" dominant-baseline="central">IN</text>
<circle cx="1135" cy="660" r="5" fill="green" />
<text x="1135" y="675" font-size="12" fill="black" valign="top" text-anchor="middle" dominant-baseline="central">OUT</text>
<circle cx="1103" cy="710" r="5" fill="yellow" />
<text x="1103" y="725" font-size="12" fill="black" valign="top" text-anchor="middle" dominant-baseline="central">CUT</text>
<path d="M1135,660 L1135,645" stroke="black" stroke-width="2" />
<path d="M1200,505 L1185,505" stroke="black" stroke-width="2" />
<path d="M1135,660 L1135,645" stroke="black" stroke-width="2" />
<path d="M1200,145 L1185,145" stroke="black" stroke-width="2" />
<path d="M1135,660 L1135,645" stroke="black" stroke-width="2" />
<path d="M1200,55 L1185,55" stroke="black" stroke-width="2" />
<path d="M1135,645 L1135,505" stroke="black" stroke-width="2" />
<path d="M1135,505 L1185,505" stroke="black" stroke-width="2" />
<text x="1145" y="520" font-size="15" fill="blue" text-anchor="middle" dominant-baseline="central">1</text>
<path d="M1135,645 L1135,145" stroke="black" stroke-width="2" />
<path d="M1135,145 L1185,145" stroke="black" stroke-width="2" />
<text x="1145" y="160" font-size="15" fill="blue" text-anchor="middle" dominant-baseline="central">2</text>
<path d="M1135,645 L1135,55" stroke="black" stroke-width="2" />
<path d="M1135,55 L1185,55" stroke="black" stroke-width="2" />
<text x="1145" y="70" font-size="15" fill="blue" text-anchor="middle" dominant-baseline="central">3</text>
<rect x="1200" y="480" width="50" height="50" fill="pink" stroke="black" stroke-width="1" />
<text x="1225" y="472" font-size="15" fill="black" text-anchor="middle" dominant-baseline="central">domo2_H</text>
<circle cx="1200" cy="505" r="5" fill="red" />
<text x="1200" y="520" font-size="12" fill="black" valign="top" text-anchor="middle" dominant-baseline="central">IN</text>
<circle cx="1250" cy="505" r="5" fill="green" />
<text x="1250" y="520" font-size="12" fill="black" valign="top" text-anchor="middle" dominant-baseline="central">OUT</text>
<path d="M1250,505 L1265,505" stroke="black" stroke-width="2" />
<path d="M1290,505 L1275,505" stroke="black" stroke-width="2" />
<path d="M1250,505 L1265,505" stroke="black" stroke-width="2" />
<path d="M1290,415 L1275,415" stroke="black" stroke-width="2" />
<path d="M1250,505 L1265,505" stroke="black" stroke-width="2" />
<path d="M1290,325 L1275,325" stroke="black" stroke-width="2" />
<path d="M1250,505 L1265,505" stroke="black" stroke-width="2" />
<path d="M1290,235 L1275,235" stroke="black" stroke-width="2" />
<path d="M1265,505 L1275,505" stroke="black" stroke-width="2" />
<path d="M1275,505 L1275,505" stroke="black" stroke-width="2" />
<path d="M1265,505 L1275,505" stroke="black" stroke-width="2" />
<path d="M1275,505 L1275,415" stroke="black" stroke-width="2" />
<path d="M1265,505 L1275,505" stroke="black" stroke-width="2" />
<path d="M1275,505 L1275,325" stroke="black" stroke-width="2" />
<path d="M1265,505 L1275,505" stroke="black" stroke-width="2" />
<path d="M1275,505 L1275,235" stroke="black" stroke-width="2" />
<rect x="1290" y="480" width="50" height="50" fill="pink" stroke="black" stroke-width="1" />
<text x="1315" y="472" font-size="15" fill="black" text-anchor="middle" dominant-baseline="central">Verlichting2_H</text>
<circle cx="1290" cy="505" r="5" fill="red" />
<text x="1290" y="520" font-size="12" fill="black" valign="top" text-anchor="middle" dominant-baseline="central">IN</text>
<circle cx="1340" cy="505" r="5" fill="green" />
<text x="1340" y="520" font-size="12" fill="black" valign="top" text-anchor="middle" dominant-baseline="central">OUT</text>
<rect x="1290" y="390" width="50" height="50" fill="pink" stroke="black" stroke-width="1" />
<text x="1315" y="382" font-size="15" fill="black" text-anchor="middle" dominant-baseline="central">Verlichting3_H</text>
<circle cx="1290" cy="415" r="5" fill="red" />
<text x="1290" y="430" font-size="12" fill="black" valign="top" text-anchor="middle" dominant-baseline="central">IN</text>
<circle cx="1340" cy="415" r="5" fill="green" />
<text x="1340" y="430" font-size="12" fill="black" valign="top" text-anchor="middle" dominant-baseline="central">OUT</text>
<rect x="1290" y="300" width="50" height="50" fill="pink" stroke="black" stroke-width="1" />
<text x="1315" y="292" font-size="15" fill="black" text-anchor="middle" dominant-baseline="central">Verlichting4_H</text>
<circle cx="1290" cy="325" r="5" fill="red" />
<text x="1290" y="340" font-size="12" fill="black" valign="top" text-anchor="middle" dominant-baseline="central">IN</text>
<circle cx="1340" cy="325" r="5" fill="green" />
<text x="1340" y="340" font-size="12" fill="black" valign="top" text-anchor="middle" dominant-baseline="central">OUT</text>
<rect x="1290" y="210" width="50" height="50" fill="pink" stroke="black" stroke-width="1" />
<text x="1315" y="202" font-size="15" fill="black" text-anchor="middle" dominant-baseline="central">Verlichting5_H</text>
<circle cx="1290" cy="235" r="5" fill="red" />
<text x="1290" y="250" font-size="12" fill="black" valign="top" text-anchor="middle" dominant-baseline="central">IN</text>
<circle cx="1340" cy="235" r="5" fill="green" />
<text x="1340" y="250" font-size="12" fill="black" valign="top" text-anchor="middle" dominant-baseline="central">OUT</text>
<rect x="1200" y="120" width="50" height="50" fill="pink" stroke="black" stroke-width="1" />
<text x="1225" y="112" font-size="15" fill="black" text-anchor="middle" dominant-baseline="central">Domomodule_H</text>
<circle cx="1200" cy="145" r="5" fill="red" />
<text x="1200" y="160" font-size="12" fill="black" valign="top" text-anchor="middle" dominant-baseline="central">IN</text>
<circle cx="1250" cy="145" r="5" fill="green" />
<text x="1250" y="160" font-size="12" fill="black" valign="top" text-anchor="middle" dominant-baseline="central">OUT</text>
<path d="M1250,145 L1265,145" stroke="black" stroke-width="2" />
<path d="M1290,145 L1275,145" stroke="black" stroke-width="2" />
<path d="M1265,145 L1275,145" stroke="black" stroke-width="2" />
<path d="M1275,145 L1275,145" stroke="black" stroke-width="2" />
<rect x="1290" y="120" width="50" height="50" fill="pink" stroke="black" stroke-width="1" />
<text x="1315" y="112" font-size="15" fill="black" text-anchor="middle" dominant-baseline="central">Verlichting_H</text>
<circle cx="1290" cy="145" r="5" fill="red" />
<text x="1290" y="160" font-size="12" fill="black" valign="top" text-anchor="middle" dominant-baseline="central">IN</text>
<circle cx="1340" cy="145" r="5" fill="green" />
<text x="1340" y="160" font-size="12" fill="black" valign="top" text-anchor="middle" dominant-baseline="central">OUT</text>
<rect x="1200" y="30" width="50" height="50" fill="pink" stroke="black" stroke-width="1" />
<text x="1225" y="22" font-size="15" fill="black" text-anchor="middle" dominant-baseline="central">tv_H</text>
<circle cx="1200" cy="55" r="5" fill="red" />
<text x="1200" y="70" font-size="12" fill="black" valign="top" text-anchor="middle" dominant-baseline="central">IN</text>
<circle cx="1250" cy="55" r="5" fill="green" />
<text x="1250" y="70" font-size="12" fill="black" valign="top" text-anchor="middle" dominant-baseline="central">OUT</text>
<image x="1380" y="660" width="50" height="50" xlink:href="symbolen/CircuitBreaker\circuit_breaker.svg" />
<text x="1405.0" y="650" font-size="12" fill="black" text-anchor="middle" dominant-baseline="central">zek3004verl_V (2p, 16A)</text>
<text x="1460" y="710" font-size="20" fill="black" text-anchor="middle" dominant-baseline="central">zek3004verl_V</text>
<text x="1460" y="680" font-size="20" fill="black" text-anchor="middle" dominant-baseline="central">16A</text>
<circle cx="1405" cy="560" r="8" fill="ping" />
<text x="1405" y="652" font-size="15" fill="black" text-anchor="middle" dominant-baseline="central">zek3004verl_V</text>
<circle cx="1405" cy="710" r="5" fill="red" />
<text x="1405" y="725" font-size="12" fill="black" valign="top" text-anchor="middle" dominant-baseline="central">IN</text>
<circle cx="1405" cy="660" r="5" fill="green" />
<text x="1405" y="675" font-size="12" fill="black" valign="top" text-anchor="middle" dominant-baseline="central">OUT</text>
<circle cx="1373" cy="710" r="5" fill="yellow" />
<text x="1373" y="725" font-size="12" fill="black" valign="top" text-anchor="middle" dominant-baseline="central">CUT</text>
<path d="M1405,660 L1405,645" stroke="black" stroke-width="2" />
<path d="M1470,505 L1455,505" stroke="black" stroke-width="2" />
<path d="M1405,660 L1405,645" stroke="black" stroke-width="2" />
<path d="M1470,415 L1455,415" stroke="black" stroke-width="2" />
<path d="M1405,660 L1405,645" stroke="black" stroke-width="2" />
<path d="M1470,325 L1455,325" stroke="black" stroke-width="2" />
<path d="M1405,660 L1405,645" stroke="black" stroke-width="2" />
<path d="M1470,235 L1455,235" stroke="black" stroke-width="2" />
<path d="M1405,660 L1405,645" stroke="black" stroke-width="2" />
<path d="M1470,145 L1455,145" stroke="black" stroke-width="2" />
<path d="M1405,645 L1405,505" stroke="black" stroke-width="2" />
<path d="M1405,505 L1455,505" stroke="black" stroke-width="2" />
<text x="1415" y="520" font-size="15" fill="blue" text-anchor="middle" dominant-baseline="central">1</text>
<path d="M1405,645 L1405,415" stroke="black" stroke-width="2" />
<path d="M1405,415 L1455,415" stroke="black" stroke-width="2" />
<text x="1415" y="430" font-size="15" fill="blue" text-anchor="middle" dominant-baseline="central">2</text>
<path d="M1405,645 L1405,325" stroke="black" stroke-width="2" />
<path d="M1405,325 L1455,325" stroke="black" stroke-width="2" />
<text x="1415" y="340" font-size="15" fill="blue" text-anchor="middle" dominant-baseline="central">3</text>
<path d="M1405,645 L1405,235" stroke="black" stroke-width="2" />
<path d="M1405,235 L1455,235" stroke="black" stroke-width="2" />
<text x="1415" y="250" font-size="15" fill="blue" text-anchor="middle" dominant-baseline="central">4</text>
<path d="M1405,645 L1405,145" stroke="black" stroke-width="2" />
<path d="M1405,145 L1455,145" stroke="black" stroke-width="2" />
<text x="1415" y="160" font-size="15" fill="blue" text-anchor="middle" dominant-baseline="central">5</text>
<rect x="1470" y="480" width="50" height="50" fill="pink" stroke="black" stroke-width="1" />
<text x="1495" y="472" font-size="15" fill="black" text-anchor="middle" dominant-baseline="central">Verlicht1_H</text>
<circle cx="1470" cy="505" r="5" fill="red" />
<text x="1470" y="520" font-size="12" fill="black" valign="top" text-anchor="middle" dominant-baseline="central">IN</text>
<circle cx="1520" cy="505" r="5" fill="green" />
<text x="1520" y="520" font-size="12" fill="black" valign="top" text-anchor="middle" dominant-baseline="central">OUT</text>
<rect x="1470" y="390" width="50" height="50" fill="pink" stroke="black" stroke-width="1" />
<text x="1495" y="382" font-size="15" fill="black" text-anchor="middle" dominant-baseline="central">Verlicht2_H</text>
<circle cx="1470" cy="415" r="5" fill="red" />
<text x="1470" y="430" font-size="12" fill="black" valign="top" text-anchor="middle" dominant-baseline="central">IN</text>
<circle cx="1520" cy="415" r="5" fill="green" />
<text x="1520" y="430" font-size="12" fill="black" valign="top" text-anchor="middle" dominant-baseline="central">OUT</text>
<rect x="1470" y="300" width="50" height="50" fill="pink" stroke="black" stroke-width="1" />
<text x="1495" y="292" font-size="15" fill="black" text-anchor="middle" dominant-baseline="central">Verlicht3_H</text>
<circle cx="1470" cy="325" r="5" fill="red" />
<text x="1470" y="340" font-size="12" fill="black" valign="top" text-anchor="middle" dominant-baseline="central">IN</text>
<circle cx="1520" cy="325" r="5" fill="green" />
<text x="1520" y="340" font-size="12" fill="black" valign="top" text-anchor="middle" dominant-baseline="central">OUT</text>
<rect x="1470" y="210" width="50" height="50" fill="pink" stroke="black" stroke-width="1" />
<text x="1495" y="202" font-size="15" fill="black" text-anchor="middle" dominant-baseline="central">contaxop3004_H</text>
<circle cx="1470" cy="235" r="5" fill="red" />
<text x="1470" y="250" font-size="12" fill="black" valign="top" text-anchor="middle" dominant-baseline="central">IN</text>
<circle cx="1520" cy="235" r="5" fill="green" />
<text x="1520" y="250" font-size="12" fill="black" valign="top" text-anchor="middle" dominant-baseline="central">OUT</text>
<path d="M1520,235 L1535,235" stroke="black" stroke-width="2" />
<path d="M1560,235 L1545,235" stroke="black" stroke-width="2" />
<path d="M1535,235 L1545,235" stroke="black" stroke-width="2" />
<path d="M1545,235 L1545,235" stroke="black" stroke-width="2" />
<rect x="1560" y="210" width="50" height="50" fill="pink" stroke="black" stroke-width="1" />
<text x="1585" y="202" font-size="15" fill="black" text-anchor="middle" dominant-baseline="central">contaxopcontax_H</text>
<circle cx="1560" cy="235" r="5" fill="red" />
<text x="1560" y="250" font-size="12" fill="black" valign="top" text-anchor="middle" dominant-baseline="central">IN</text>
<circle cx="1610" cy="235" r="5" fill="green" />
<text x="1610" y="250" font-size="12" fill="black" valign="top" text-anchor="middle" dominant-baseline="central">OUT</text>
<path d="M1610,235 L1625,235" stroke="black" stroke-width="2" />
<path d="M1650,235 L1635,235" stroke="black" stroke-width="2" />
<path d="M1625,235 L1635,235" stroke="black" stroke-width="2" />
<path d="M1635,235 L1635,235" stroke="black" stroke-width="2" />
<rect x="1650" y="210" width="50" height="50" fill="pink" stroke="black" stroke-width="1" />
<text x="1675" y="202" font-size="15" fill="black" text-anchor="middle" dominant-baseline="central">faaropcontax_H</text>
<circle cx="1650" cy="235" r="5" fill="red" />
<text x="1650" y="250" font-size="12" fill="black" valign="top" text-anchor="middle" dominant-baseline="central">IN</text>
<circle cx="1700" cy="235" r="5" fill="green" />
<text x="1700" y="250" font-size="12" fill="black" valign="top" text-anchor="middle" dominant-baseline="central">OUT</text>
<rect x="1470" y="120" width="50" height="50" fill="pink" stroke="black" stroke-width="1" />
<text x="1495" y="112" font-size="15" fill="black" text-anchor="middle" dominant-baseline="central">lamp3004_H</text>
<circle cx="1470" cy="145" r="5" fill="red" />
<text x="1470" y="160" font-size="12" fill="black" valign="top" text-anchor="middle" dominant-baseline="central">IN</text>
<circle cx="1520" cy="145" r="5" fill="green" />
<text x="1520" y="160" font-size="12" fill="black" valign="top" text-anchor="middle" dominant-baseline="central">OUT</text>
</svg>