<?xml version="1.0" encoding="UTF-8"?>
<svg xmlns="http://www.w3.org/2000/svg" xmlns:xlink="http://www.w3.org/1999/xlink"
     width="180" height="960" viewBox="0 0 180 960">
<defs>
</defs>
<rect x="-173" y="840" width="50" height="50" fill="pink" stroke="black" stroke-width="1" />
<text x="-148" y="832" font-size="15" fill="black" text-anchor="middle" dominant-baseline="central">kopkwhmeter_H</text>
<circle cx="-173" cy="865" r="5" fill="red" />
<text x="-173" y="880" font-size="12" fill="black" valign="top" text-anchor="middle" dominant-baseline="central">IN</text>
<circle cx="-123" cy="865" r="5" fill="green" />
<text x="-123" y="880" font-size="12" fill="black" valign="top" text-anchor="middle" dominant-baseline="central">OUT</text>
<path d="M-123,865 L-108,865" stroke="black" stroke-width="2" />
<path d="M-83,865 L-98,865" stroke="black" stroke-width="2" />
<path d="M-108,865 L-98,865" stroke="black" stroke-width="2" />
<path d="M-98,865 L-98,865" stroke="black" stroke-width="2" />
<rect x="-83" y="840" width="50" height="50" fill="pink" stroke="black" stroke-width="1" />
<text x="-58" y="832" font-size="15" fill="black" text-anchor="middle" dominant-baseline="central">Teller_H</text>
<circle cx="-83" cy="865" r="5" fill="red" />
<text x="-83" y="880" font-size="12" fill="black" valign="top" text-anchor="middle" dominant-baseline="central">IN</text>
<circle cx="-33" cy="865" r="5" fill="green" />
<text x="-33" y="880" font-size="12" fill="black" valign="top" text-anchor="middle" dominant-baseline="central">OUT</text>
<path d="M-33,865 L-18,865" stroke="black" stroke-width="2" />
<path d="M32,800 L32,815" stroke="black" stroke-width="2" />
<path d="M-33,865 L-18,865" stroke="black" stroke-width="2" />
<path d="M212,800 L212,815" stroke="black" stroke-width="2" />
<path d="M-33,865 L-18,865" stroke="black" stroke-width="2" />
<path d="M302,800 L302,815" stroke="black" stroke-width="2" />
<path d="M-18,865 L32,865" stroke="black" stroke-width="2" />
<path d="M32,865 L32,815" stroke="black" stroke-width="2" />
<path d="M-18,865 L212,865" stroke="black" stroke-width="2" />
<path d="M212,865 L212,815" stroke="black" stroke-width="2" />
<path d="M-18,865 L302,865" stroke="black" stroke-width="2" />
<path d="M302,865 L302,815" stroke="black" stroke-width="2" />
<rect x="7" y="750" width="50" height="50" fill="pink" stroke="black" stroke-width="1" />
<text x="32" y="742" font-size="15" fill="black" text-anchor="middle" dominant-baseline="central">Diff3_V</text>
<circle cx="32" cy="800" r="5" fill="red" />
<text x="32" y="815" font-size="12" fill="black" valign="top" text-anchor="middle" dominant-baseline="central">IN</text>
<circle cx="32" cy="750" r="5" fill="green" />
<text x="32" y="765" font-size="12" fill="black" valign="top" text-anchor="middle" dominant-baseline="central">OUT</text>
<circle cx="0" cy="800" r="5" fill="yellow" />
<text x="0" y="815" font-size="12" fill="black" valign="top" text-anchor="middle" dominant-baseline="central">CUT</text>
<path d="M32,750 L32,735" stroke="black" stroke-width="2" />
<path d="M97,685 L82,685" stroke="black" stroke-width="2" />
<path d="M32,735 L32,685" stroke="black" stroke-width="2" />
<path d="M32,685 L82,685" stroke="black" stroke-width="2" />
<text x="42" y="700" font-size="15" fill="blue" text-anchor="middle" dominant-baseline="central">1</text>
<rect x="97" y="660" width="50" height="50" fill="pink" stroke="black" stroke-width="1" />
<text x="122" y="652" font-size="15" fill="black" text-anchor="middle" dominant-baseline="central">zonnepaneelopdif3_H</text>
<circle cx="97" cy="685" r="5" fill="red" />
<text x="97" y="700" font-size="12" fill="black" valign="top" text-anchor="middle" dominant-baseline="central">IN</text>
<circle cx="147" cy="685" r="5" fill="green" />
<text x="147" y="700" font-size="12" fill="black" valign="top" text-anchor="middle" dominant-baseline="central">OUT</text>
<rect x="187" y="750" width="50" height="50" fill="pink" stroke="black" stroke-width="1" />
<text x="212" y="742" font-size="15" fill="black" text-anchor="middle" dominant-baseline="central">Diff30_V</text>
<circle cx="212" cy="800" r="5" fill="red" />
<text x="212" y="815" font-size="12" fill="black" valign="top" text-anchor="middle" dominant-baseline="central">IN</text>
<circle cx="212" cy="750" r="5" fill="green" />
<text x="212" y="765" font-size="12" fill="black" valign="top" text-anchor="middle" dominant-baseline="central">OUT</text>
<circle cx="180" cy="800" r="5" fill="yellow" />
<text x="180" y="815" font-size="12" fill="black" valign="top" text-anchor="middle" dominant-baseline="central">CUT</text>
<rect x="277" y="750" width="50" height="50" fill="pink" stroke="black" stroke-width="1" />
<text x="302" y="742" font-size="15" fill="black" text-anchor="middle" dominant-baseline="central">Diff300_V</text>
<circle cx="302" cy="800" r="5" fill="red" />
<text x="302" y="815" font-size="12" fill="black" valign="top" text-anchor="middle" dominant-baseline="central">IN</text>
<circle cx="302" cy="750" r="5" fill="green" />
<text x="302" y="765" font-size="12" fill="black" valign="top" text-anchor="middle" dominant-baseline="central">OUT</text>
<circle cx="270" cy="800" r="5" fill="yellow" />
<text x="270" y="815" font-size="12" fill="black" valign="top" text-anchor="middle" dominant-baseline="central">CUT</text>
<path d="M302,750 L302,735" stroke="black" stroke-width="2" />
<path d="M302,710 L302,725" stroke="black" stroke-width="2" />
<path d="M302,750 L302,735" stroke="black" stroke-width="2" />
<path d="M572,710 L572,725" stroke="black" stroke-width="2" />
<path d="M302,750 L302,735" stroke="black" stroke-width="2" />
<path d="M752,710 L752,725" stroke="black" stroke-width="2" />
<path d="M302,750 L302,735" stroke="black" stroke-width="2" />
<path d="M932,710 L932,725" stroke="black" stroke-width="2" />
<path d="M302,750 L302,735" stroke="black" stroke-width="2" />
<path d="M1202,710 L1202,725" stroke="black" stroke-width="2" />
<path d="M302,735 L302,725" stroke="black" stroke-width="2" />
<path d="M302,725 L302,725" stroke="black" stroke-width="2" />
<path d="M302,735 L302,725" stroke="black" stroke-width="2" />
<path d="M302,725 L572,725" stroke="black" stroke-width="2" />
<path d="M302,735 L302,725" stroke="black" stroke-width="2" />
<path d="M302,725 L752,725" stroke="black" stroke-width="2" />
<path d="M302,735 L302,725" stroke="black" stroke-width="2" />
<path d="M302,725 L932,725" stroke="black" stroke-width="2" />
<path d="M302,735 L302,725" stroke="black" stroke-width="2" />
<path d="M302,725 L1202,725" stroke="black" stroke-width="2" />
<rect x="277" y="660" width="50" height="50" fill="pink" stroke="black" stroke-width="1" />
<text x="302" y="652" font-size="15" fill="black" text-anchor="middle" dominant-baseline="central">Diff100_V</text>
<circle cx="302" cy="710" r="5" fill="red" />
<text x="302" y="725" font-size="12" fill="black" valign="top" text-anchor="middle" dominant-baseline="central">IN</text>
<circle cx="302" cy="660" r="5" fill="green" />
<text x="302" y="675" font-size="12" fill="black" valign="top" text-anchor="middle" dominant-baseline="central">OUT</text>
<circle cx="270" cy="710" r="5" fill="yellow" />
<text x="270" y="725" font-size="12" fill="black" valign="top" text-anchor="middle" dominant-baseline="central">CUT</text>
<path d="M302,660 L302,645" stroke="black" stroke-width="2" />
<path d="M302,620 L302,635" stroke="black" stroke-width="2" />
<path d="M302,645 L302,635" stroke="black" stroke-width="2" />
<path d="M302,635 L302,635" stroke="black" stroke-width="2" />
<image x="277" y="570" width="50" height="50" xlink:href="symbolen/CircuitBreaker\circuit_breaker.svg" />
<text x="302.0" y="560" font-size="12" fill="black" text-anchor="middle" dominant-baseline="central">zek1001_V (2p, 16A)</text>
<text x="357" y="620" font-size="20" fill="black" text-anchor="middle" dominant-baseline="central">zek1001_V</text>
<text x="357" y="590" font-size="20" fill="black" text-anchor="middle" dominant-baseline="central">16A</text>
<circle cx="302" cy="470" r="8" fill="ping" />
<text x="302" y="562" font-size="15" fill="black" text-anchor="middle" dominant-baseline="central">zek1001_V</text>
<circle cx="302" cy="620" r="5" fill="red" />
<text x="302" y="635" font-size="12" fill="black" valign="top" text-anchor="middle" dominant-baseline="central">IN</text>
<circle cx="302" cy="570" r="5" fill="green" />
<text x="302" y="585" font-size="12" fill="black" valign="top" text-anchor="middle" dominant-baseline="central">OUT</text>
<circle cx="270" cy="620" r="5" fill="yellow" />
<text x="270" y="635" font-size="12" fill="black" valign="top" text-anchor="middle" dominant-baseline="central">CUT</text>
<path d="M302,570 L302,555" stroke="black" stroke-width="2" />
<path d="M367,415 L352,415" stroke="black" stroke-width="2" />
<path d="M302,570 L302,555" stroke="black" stroke-width="2" />
<path d="M367,325 L352,325" stroke="black" stroke-width="2" />
<path d="M302,570 L302,555" stroke="black" stroke-width="2" />
<path d="M457,415 L442,415" stroke="black" stroke-width="2" />
<path d="M302,570 L302,555" stroke="black" stroke-width="2" />
<path d="M367,145 L352,145" stroke="black" stroke-width="2" />
<path d="M302,555 L302,415" stroke="black" stroke-width="2" />
<path d="M302,415 L352,415" stroke="black" stroke-width="2" />
<text x="312" y="430" font-size="15" fill="blue" text-anchor="middle" dominant-baseline="central">1</text>
<path d="M302,555 L302,325" stroke="black" stroke-width="2" />
<path d="M302,325 L352,325" stroke="black" stroke-width="2" />
<text x="312" y="340" font-size="15" fill="blue" text-anchor="middle" dominant-baseline="central">2</text>
<path d="M302,555 L302,415" stroke="black" stroke-width="2" />
<path d="M302,415 L442,415" stroke="black" stroke-width="2" />
<text x="402" y="430" font-size="15" fill="blue" text-anchor="middle" dominant-baseline="central">3</text>
<path d="M302,555 L302,145" stroke="black" stroke-width="2" />
<path d="M302,145 L352,145" stroke="black" stroke-width="2" />
<text x="312" y="160" font-size="15" fill="blue" text-anchor="middle" dominant-baseline="central">4</text>
<rect x="367" y="390" width="50" height="50" fill="pink" stroke="black" stroke-width="1" />
<text x="392" y="382" font-size="15" fill="black" text-anchor="middle" dominant-baseline="central">Verlichting6_H</text>
<circle cx="367" cy="415" r="5" fill="red" />
<text x="367" y="430" font-size="12" fill="black" valign="top" text-anchor="middle" dominant-baseline="central">IN</text>
<circle cx="417" cy="415" r="5" fill="green" />
<text x="417" y="430" font-size="12" fill="black" valign="top" text-anchor="middle" dominant-baseline="central">OUT</text>
<rect x="367" y="300" width="50" height="50" fill="pink" stroke="black" stroke-width="1" />
<text x="392" y="292" font-size="15" fill="black" text-anchor="middle" dominant-baseline="central">vaatwas301_H</text>
<circle cx="367" cy="325" r="5" fill="red" />
<text x="367" y="340" font-size="12" fill="black" valign="top" text-anchor="middle" dominant-baseline="central">IN</text>
<circle cx="417" cy="325" r="5" fill="green" />
<text x="417" y="340" font-size="12" fill="black" valign="top" text-anchor="middle" dominant-baseline="central">OUT</text>
<image x="457" y="390" width="50" height="50" xlink:href="symbolen/Prieze\prieze_hydro_false_kinder_true_aarding_true_1.svg" />
<text x="482.0" y="415.0" font-size="12" fill="red" text-anchor="middle" dominant-baseline="central">prieze</text>
<text x="482" y="382" font-size="15" fill="black" text-anchor="middle" dominant-baseline="central">prieze</text>
<circle cx="457" cy="415" r="5" fill="red" />
<text x="457" y="430" font-size="12" fill="black" valign="top" text-anchor="middle" dominant-baseline="central">IN</text>
<circle cx="507" cy="415" r="5" fill="green" />
<text x="507" y="430" font-size="12" fill="black" valign="top" text-anchor="middle" dominant-baseline="central">OUT</text>
<image x="367" y="120" width="50" height="50" xlink:href="symbolen/Prieze\prieze_hydro_false_kinder_true_aarding_true_2.svg" />
<text x="392.0" y="145.0" font-size="12" fill="red" text-anchor="middle" dominant-baseline="central">prieze</text>
<text x="392" y="112" font-size="15" fill="black" text-anchor="middle" dominant-baseline="central">prieze</text>
<circle cx="367" cy="145" r="5" fill="red" />
<text x="367" y="160" font-size="12" fill="black" valign="top" text-anchor="middle" dominant-baseline="central">IN</text>
<circle cx="417" cy="145" r="5" fill="green" />
<text x="417" y="160" font-size="12" fill="black" valign="top" text-anchor="middle" dominant-baseline="central">OUT</text>
<image x="547" y="660" width="50" height="50" xlink:href="symbolen/CircuitBreaker\circuit_breaker.svg" />
<text x="572.0" y="650" font-size="12" fill="black" text-anchor="middle" dominant-baseline="central">zek3001_V (2p, 16A)</text>
<text x="627" y="710" font-size="20" fill="black" text-anchor="middle" dominant-baseline="central">zek3001_V</text>
<text x="627" y="680" font-size="20" fill="black" text-anchor="middle" dominant-baseline="central">16A</text>
<circle cx="572" cy="560" r="8" fill="ping" />
<text x="572" y="652" font-size="15" fill="black" text-anchor="middle" dominant-baseline="central">zek3001_V</text>
<circle cx="572" cy="710" r="5" fill="red" />
<text x="572" y="725" font-size="12" fill="black" valign="top" text-anchor="middle" dominant-baseline="central">IN</text>
<circle cx="572" cy="660" r="5" fill="green" />
<text x="572" y="675" font-size="12" fill="black" valign="top" text-anchor="middle" dominant-baseline="central">OUT</text>
<circle cx="540" cy="710" r="5" fill="yellow" />
<text x="540" y="725" font-size="12" fill="black" valign="top" text-anchor="middle" dominant-baseline="central">CUT</text>
<path d="M572,660 L572,645" stroke="black" stroke-width="2" />
<path d="M637,505 L622,505" stroke="black" stroke-width="2" />
<path d="M572,645 L572,505" stroke="black" stroke-width="2" />
<path d="M572,505 L622,505" stroke="black" stroke-width="2" />
<text x="582" y="520" font-size="15" fill="blue" text-anchor="middle" dominant-baseline="central">1</text>
<rect x="637" y="480" width="50" height="50" fill="pink" stroke="black" stroke-width="1" />
<text x="662" y="472" font-size="15" fill="black" text-anchor="middle" dominant-baseline="central">droogkast3002_H</text>
<circle cx="637" cy="505" r="5" fill="red" />
<text x="637" y="520" font-size="12" fill="black" valign="top" text-anchor="middle" dominant-baseline="central">IN</text>
<circle cx="687" cy="505" r="5" fill="green" />
<text x="687" y="520" font-size="12" fill="black" valign="top" text-anchor="middle" dominant-baseline="central">OUT</text>
<image x="727" y="660" width="50" height="50" xlink:href="symbolen/CircuitBreaker\circuit_breaker.svg" />
<text x="752.0" y="650" font-size="12" fill="black" text-anchor="middle" dominant-baseline="central">zek3002_V (2p, 16A)</text>
<text x="807" y="710" font-size="20" fill="black" text-anchor="middle" dominant-baseline="central">zek3002_V</text>
<text x="807" y="680" font-size="20" fill="black" text-anchor="middle" dominant-baseline="central">16A</text>
<circle cx="752" cy="560" r="8" fill="ping" />
<text x="752" y="652" font-size="15" fill="black" text-anchor="middle" dominant-baseline="central">zek3002_V</text>
<circle cx="752" cy="710" r="5" fill="red" />
<text x="752" y="725" font-size="12" fill="black" valign="top" text-anchor="middle" dominant-baseline="central">IN</text>
<circle cx="752" cy="660" r="5" fill="green" />
<text x="752" y="675" font-size="12" fill="black" valign="top" text-anchor="middle" dominant-baseline="central">OUT</text>
<circle cx="720" cy="710" r="5" fill="yellow" />
<text x="720" y="725" font-size="12" fill="black" valign="top" text-anchor="middle" dominant-baseline="central">CUT</text>
<path d="M752,660 L752,645" stroke="black" stroke-width="2" />
<path d="M817,505 L802,505" stroke="black" stroke-width="2" />
<path d="M752,660 L752,645" stroke="black" stroke-width="2" />
<path d="M817,415 L802,415" stroke="black" stroke-width="2" />
<path d="M752,645 L752,505" stroke="black" stroke-width="2" />
<path d="M752,505 L802,505" stroke="black" stroke-width="2" />
<text x="762" y="520" font-size="15" fill="blue" text-anchor="middle" dominant-baseline="central">1</text>
<path d="M752,645 L752,415" stroke="black" stroke-width="2" />
<path d="M752,415 L802,415" stroke="black" stroke-width="2" />
<text x="762" y="430" font-size="15" fill="blue" text-anchor="middle" dominant-baseline="central">2</text>
<rect x="817" y="480" width="50" height="50" fill="pink" stroke="black" stroke-width="1" />
<text x="842" y="472" font-size="15" fill="black" text-anchor="middle" dominant-baseline="central">microoven3002_H</text>
<circle cx="817" cy="505" r="5" fill="red" />
<text x="817" y="520" font-size="12" fill="black" valign="top" text-anchor="middle" dominant-baseline="central">IN</text>
<circle cx="867" cy="505" r="5" fill="green" />
<text x="867" y="520" font-size="12" fill="black" valign="top" text-anchor="middle" dominant-baseline="central">OUT</text>
<rect x="817" y="390" width="50" height="50" fill="pink" stroke="black" stroke-width="1" />
<text x="842" y="382" font-size="15" fill="black" text-anchor="middle" dominant-baseline="central">oven3002_H</text>
<circle cx="817" cy="415" r="5" fill="red" />
<text x="817" y="430" font-size="12" fill="black" valign="top" text-anchor="middle" dominant-baseline="central">IN</text>
<circle cx="867" cy="415" r="5" fill="green" />
<text x="867" y="430" font-size="12" fill="black" valign="top" text-anchor="middle" dominant-baseline="central">OUT</text>
<image x="907" y="660" width="50" height="50" xlink:href="symbolen/CircuitBreaker\circuit_breaker.svg" />
<text x="932.0" y="650" font-size="12" fill="black" text-anchor="middle" dominant-baseline="central">zek3003_V (2p, 16A)</text>
<text x="987" y="710" font-size="20" fill="black" text-anchor="middle" dominant-baseline="central">zek3003_V</text>
<text x="987" y="680" font-size="20" fill="black" text-anchor="middle" dominant-baseline="central">16A</text>
<circle cx="932" cy="560" r="8" fill="ping" />
<text x="932" y="652" font-size="15" fill="black" text-anchor="middle" dominant-baseline="central">zek3003_V</text>
<circle cx="932" cy="710" r="5" fill="red" />
<text x="932" y="725" font-size="12" fill="black" valign="top" text-anchor="middle" dominant-baseline="central">IN</text>
<circle cx="932" cy="660" r="5" fill="green" />
<text x="932" y="675" font-size="12" fill="black" valign="top" text-anchor="middle" dominant-baseline="central">OUT</text>
<circle cx="900" cy="710" r="5" fill="yellow" />
<text x="900" y="725" font-size="12" fill="black" valign="top" text-anchor="middle" dominant-baseline="central">CUT</text>
<path d="M932,660 L932,645" stroke="black" stroke-width="2" />
<path d="M997,505 L982,505" stroke="black" stroke-width="2" />
<path d="M932,660 L932,645" stroke="black" stroke-width="2" />
<path d="M997,145 L982,145" stroke="black" stroke-width="2" />
<path d="M932,660 L932,645" stroke="black" stroke-width="2" />
<path d="M997,55 L982,55" stroke="black" stroke-width="2" />
<path d="M932,645 L932,505" stroke="black" stroke-width="2" />
<path d="M932,505 L982,505" stroke="black" stroke-width="2" />
<text x="942" y="520" font-size="15" fill="blue" text-anchor="middle" dominant-baseline="central">1</text>
<path d="M932,645 L932,145" stroke="black" stroke-width="2" />
<path d="M932,145 L982,145" stroke="black" stroke-width="2" />
<text x="942" y="160" font-size="15" fill="blue" text-anchor="middle" dominant-baseline="central">2</text>
<path d="M932,645 L932,55" stroke="black" stroke-width="2" />
<path d="M932,55 L982,55" stroke="black" stroke-width="2" />
<text x="942" y="70" font-size="15" fill="blue" text-anchor="middle" dominant-baseline="central">3</text>
<rect x="997" y="480" width="50" height="50" fill="pink" stroke="black" stroke-width="1" />
<text x="1022" y="472" font-size="15" fill="black" text-anchor="middle" dominant-baseline="central">domo2_H</text>
<circle cx="997" cy="505" r="5" fill="red" />
<text x="997" y="520" font-size="12" fill="black" valign="top" text-anchor="middle" dominant-baseline="central">IN</text>
<circle cx="1047" cy="505" r="5" fill="green" />
<text x="1047" y="520" font-size="12" fill="black" valign="top" text-anchor="middle" dominant-baseline="central">OUT</text>
<path d="M1047,505 L1062,505" stroke="black" stroke-width="2" />
<path d="M1087,505 L1072,505" stroke="black" stroke-width="2" />
<path d="M1047,505 L1062,505" stroke="black" stroke-width="2" />
<path d="M1087,415 L1072,415" stroke="black" stroke-width="2" />
<path d="M1047,505 L1062,505" stroke="black" stroke-width="2" />
<path d="M1087,325 L1072,325" stroke="black" stroke-width="2" />
<path d="M1047,505 L1062,505" stroke="black" stroke-width="2" />
<path d="M1087,235 L1072,235" stroke="black" stroke-width="2" />
<path d="M1062,505 L1072,505" stroke="black" stroke-width="2" />
<path d="M1072,505 L1072,505" stroke="black" stroke-width="2" />
<path d="M1062,505 L1072,505" stroke="black" stroke-width="2" />
<path d="M1072,505 L1072,415" stroke="black" stroke-width="2" />
<path d="M1062,505 L1072,505" stroke="black" stroke-width="2" />
<path d="M1072,505 L1072,325" stroke="black" stroke-width="2" />
<path d="M1062,505 L1072,505" stroke="black" stroke-width="2" />
<path d="M1072,505 L1072,235" stroke="black" stroke-width="2" />
<rect x="1087" y="480" width="50" height="50" fill="pink" stroke="black" stroke-width="1" />
<text x="1112" y="472" font-size="15" fill="black" text-anchor="middle" dominant-baseline="central">Verlichting2_H</text>
<circle cx="1087" cy="505" r="5" fill="red" />
<text x="1087" y="520" font-size="12" fill="black" valign="top" text-anchor="middle" dominant-baseline="central">IN</text>
<circle cx="1137" cy="505" r="5" fill="green" />
<text x="1137" y="520" font-size="12" fill="black" valign="top" text-anchor="middle" dominant-baseline="central">OUT</text>
<rect x="1087" y="390" width="50" height="50" fill="pink" stroke="black" stroke-width="1" />
<text x="1112" y="382" font-size="15" fill="black" text-anchor="middle" dominant-baseline="central">Verlichting3_H</text>
<circle cx="1087" cy="415" r="5" fill="red" />
<text x="1087" y="430" font-size="12" fill="black" valign="top" text-anchor="middle" dominant-baseline="central">IN</text>
<circle cx="1137" cy="415" r="5" fill="green" />
<text x="1137" y="430" font-size="12" fill="black" valign="top" text-anchor="middle" dominant-baseline="central">OUT</text>
<rect x="1087" y="300" width="50" height="50" fill="pink" stroke="black" stroke-width="1" />
<text x="1112" y="292" font-size="15" fill="black" text-anchor="middle" dominant-baseline="central">Verlichting4_H</text>
<circle cx="1087" cy="325" r="5" fill="red" />
<text x="1087" y="340" font-size="12" fill="black" valign="top" text-anchor="middle" dominant-baseline="central">IN</text>
<circle cx="1137" cy="325" r="5" fill="green" />
<text x="1137" y="340" font-size="12" fill="black" valign="top" text-anchor="middle" dominant-baseline="central">OUT</text>
<rect x="1087" y="210" width="50" height="50" fill="pink" stroke="black" stroke-width="1" />
<text x="1112" y="202" font-size="15" fill="black" text-anchor="middle" dominant-baseline="central">Verlichting5_H</text>
<circle cx="1087" cy="235" r="5" fill="red" />
<text x="1087" y="250" font-size="12" fill="black" valign="top" text-anchor="middle" dominant-baseline="central">IN</text>
<circle cx="1137" cy="235" r="5" fill="green" />
<text x="1137" y="250" font-size="12" fill="black" valign="top" text-anchor="middle" dominant-baseline="central">OUT</text>
<rect x="997" y="120" width="50" height="50" fill="pink" stroke="black" stroke-width="1" />
<text x="1022" y="112" font-size="15" fill="black" text-anchor="middle" dominant-baseline="central">Domomodule_H</text>
<circle cx="997" cy="145" r="5" fill="red" />
<text x="997" y="160" font-size="12" fill="black" valign="top" text-anchor="middle" dominant-baseline="central">IN</text>
<circle cx="1047" cy="145" r="5" fill="green" />
<text x="1047" y="160" font-size="12" fill="black" valign="top" text-anchor="middle" dominant-baseline="central">OUT</text>
<path d="M1047,145 L1062,145" stroke="black" stroke-width="2" />
<path d="M1087,145 L1072,145" stroke="black" stroke-width="2" />
<path d="M1062,145 L1072,145" stroke="black" stroke-width="2" />
<path d="M1072,145 L1072,145" stroke="black" stroke-width="2" />
<rect x="1087" y="120" width="50" height="50" fill="pink" stroke="black" stroke-width="1" />
<text x="1112" y="112" font-size="15" fill="black" text-anchor="middle" dominant-baseline="central">Verlichting_H</text>
<circle cx="1087" cy="145" r="5" fill="red" />
<text x="1087" y="160" font-size="12" fill="black" valign="top" text-anchor="middle" dominant-baseline="central">IN</text>
<circle cx="1137" cy="145" r="5" fill="green" />
<text x="1137" y="160" font-size="12" fill="black" valign="top" text-anchor="middle" dominant-baseline="central">OUT</text>
<rect x="997" y="30" width="50" height="50" fill="pink" stroke="black" stroke-width="1" />
<text x="1022" y="22" font-size="15" fill="black" text-anchor="middle" dominant-baseline="central">tv_H</text>
<circle cx="997" cy="55" r="5" fill="red" />
<text x="997" y="70" font-size="12" fill="black" valign="top" text-anchor="middle" dominant-baseline="central">IN</text>
<circle cx="1047" cy="55" r="5" fill="green" />
<text x="1047" y="70" font-size="12" fill="black" valign="top" text-anchor="middle" dominant-baseline="central">OUT</text>
<image x="1177" y="660" width="50" height="50" xlink:href="symbolen/CircuitBreaker\circuit_breaker.svg" />
<text x="1202.0" y="650" font-size="12" fill="black" text-anchor="middle" dominant-baseline="central">zek3004verl_V (2p, 16A)</text>
<text x="1257" y="710" font-size="20" fill="black" text-anchor="middle" dominant-baseline="central">zek3004verl_V</text>
<text x="1257" y="680" font-size="20" fill="black" text-anchor="middle" dominant-baseline="central">16A</text>
<circle cx="1202" cy="560" r="8" fill="ping" />
<text x="1202" y="652" font-size="15" fill="black" text-anchor="middle" dominant-baseline="central">zek3004verl_V</text>
<circle cx="1202" cy="710" r="5" fill="red" />
<text x="1202" y="725" font-size="12" fill="black" valign="top" text-anchor="middle" dominant-baseline="central">IN</text>
<circle cx="1202" cy="660" r="5" fill="green" />
<text x="1202" y="675" font-size="12" fill="black" valign="top" text-anchor="middle" dominant-baseline="central">OUT</text>
<circle cx="1170" cy="710" r="5" fill="yellow" />
<text x="1170" y="725" font-size="12" fill="black" valign="top" text-anchor="middle" dominant-baseline="central">CUT</text>
<path d="M1202,660 L1202,645" stroke="black" stroke-width="2" />
<path d="M1267,505 L1252,505" stroke="black" stroke-width="2" />
<path d="M1202,660 L1202,645" stroke="black" stroke-width="2" />
<path d="M1267,415 L1252,415" stroke="black" stroke-width="2" />
<path d="M1202,660 L1202,645" stroke="black" stroke-width="2" />
<path d="M1267,325 L1252,325" stroke="black" stroke-width="2" />
<path d="M1202,660 L1202,645" stroke="black" stroke-width="2" />
<path d="M1267,235 L1252,235" stroke="black" stroke-width="2" />
<path d="M1202,660 L1202,645" stroke="black" stroke-width="2" />
<path d="M1267,145 L1252,145" stroke="black" stroke-width="2" />
<path d="M1202,645 L1202,505" stroke="black" stroke-width="2" />
<path d="M1202,505 L1252,505" stroke="black" stroke-width="2" />
<text x="1212" y="520" font-size="15" fill="blue" text-anchor="middle" dominant-baseline="central">1</text>
<path d="M1202,645 L1202,415" stroke="black" stroke-width="2" />
<path d="M1202,415 L1252,415" stroke="black" stroke-width="2" />
<text x="1212" y="430" font-size="15" fill="blue" text-anchor="middle" dominant-baseline="central">2</text>
<path d="M1202,645 L1202,325" stroke="black" stroke-width="2" />
<path d="M1202,325 L1252,325" stroke="black" stroke-width="2" />
<text x="1212" y="340" font-size="15" fill="blue" text-anchor="middle" dominant-baseline="central">3</text>
<path d="M1202,645 L1202,235" stroke="black" stroke-width="2" />
<path d="M1202,235 L1252,235" stroke="black" stroke-width="2" />
<text x="1212" y="250" font-size="15" fill="blue" text-anchor="middle" dominant-baseline="central">4</text>
<path d="M1202,645 L1202,145" stroke="black" stroke-width="2" />
<path d="M1202,145 L1252,145" stroke="black" stroke-width="2" />
<text x="1212" y="160" font-size="15" fill="blue" text-anchor="middle" dominant-baseline="central">5</text>
<rect x="1267" y="480" width="50" height="50" fill="pink" stroke="black" stroke-width="1" />
<text x="1292" y="472" font-size="15" fill="black" text-anchor="middle" dominant-baseline="central">Verlicht1_H</text>
<circle cx="1267" cy="505" r="5" fill="red" />
<text x="1267" y="520" font-size="12" fill="black" valign="top" text-anchor="middle" dominant-baseline="central">IN</text>
<circle cx="1317" cy="505" r="5" fill="green" />
<text x="1317" y="520" font-size="12" fill="black" valign="top" text-anchor="middle" dominant-baseline="central">OUT</text>
<rect x="1267" y="390" width="50" height="50" fill="pink" stroke="black" stroke-width="1" />
<text x="1292" y="382" font-size="15" fill="black" text-anchor="middle" dominant-baseline="central">Verlicht2_H</text>
<circle cx="1267" cy="415" r="5" fill="red" />
<text x="1267" y="430" font-size="12" fill="black" valign="top" text-anchor="middle" dominant-baseline="central">IN</text>
<circle cx="1317" cy="415" r="5" fill="green" />
<text x="1317" y="430" font-size="12" fill="black" valign="top" text-anchor="middle" dominant-baseline="central">OUT</text>
<rect x="1267" y="300" width="50" height="50" fill="pink" stroke="black" stroke-width="1" />
<text x="1292" y="292" font-size="15" fill="black" text-anchor="middle" dominant-baseline="central">Verlicht3_H</text>
<circle cx="1267" cy="325" r="5" fill="red" />
<text x="1267" y="340" font-size="12" fill="black" valign="top" text-anchor="middle" dominant-baseline="central">IN</text>
<circle cx="1317" cy="325" r="5" fill="green" />
<text x="1317" y="340" font-size="12" fill="black" valign="top" text-anchor="middle" dominant-baseline="central">OUT</text>
<rect x="1267" y="210" width="50" height="50" fill="pink" stroke="black" stroke-width="1" />
<text x="1292" y="202" font-size="15" fill="black" text-anchor="middle" dominant-baseline="central">contaxop3004_H</text>
<circle cx="1267" cy="235" r="5" fill="red" />
<text x="1267" y="250" font-size="12" fill="black" valign="top" text-anchor="middle" dominant-baseline="central">IN</text>
<circle cx="1317" cy="235" r="5" fill="green" />
<text x="1317" y="250" font-size="12" fill="black" valign="top" text-anchor="middle" dominant-baseline="central">OUT</text>
<path d="M1317,235 L1332,235" stroke="black" stroke-width="2" />
<path d="M1357,235 L1342,235" stroke="black" stroke-width="2" />
<path d="M1332,235 L1342,235" stroke="black" stroke-width="2" />
<path d="M1342,235 L1342,235" stroke="black" stroke-width="2" />
<rect x="1357" y="210" width="50" height="50" fill="pink" stroke="black" stroke-width="1" />
<text x="1382" y="202" font-size="15" fill="black" text-anchor="middle" dominant-baseline="central">contaxopcontax_H</text>
<circle cx="1357" cy="235" r="5" fill="red" />
<text x="1357" y="250" font-size="12" fill="black" valign="top" text-anchor="middle" dominant-baseline="central">IN</text>
<circle cx="1407" cy="235" r="5" fill="green" />
<text x="1407" y="250" font-size="12" fill="black" valign="top" text-anchor="middle" dominant-baseline="central">OUT</text>
<path d="M1407,235 L1422,235" stroke="black" stroke-width="2" />
<path d="M1447,235 L1432,235" stroke="black" stroke-width="2" />
<path d="M1422,235 L1432,235" stroke="black" stroke-width="2" />
<path d="M1432,235 L1432,235" stroke="black" stroke-width="2" />
<rect x="1447" y="210" width="50" height="50" fill="pink" stroke="black" stroke-width="1" />
<text x="1472" y="202" font-size="15" fill="black" text-anchor="middle" dominant-baseline="central">faaropcontax_H</text>
<circle cx="1447" cy="235" r="5" fill="red" />
<text x="1447" y="250" font-size="12" fill="black" valign="top" text-anchor="middle" dominant-baseline="central">IN</text>
<circle cx="1497" cy="235" r="5" fill="green" />
<text x="1497" y="250" font-size="12" fill="black" valign="top" text-anchor="middle" dominant-baseline="central">OUT</text>
<rect x="1267" y="120" width="50" height="50" fill="pink" stroke="black" stroke-width="1" />
<text x="1292" y="112" font-size="15" fill="black" text-anchor="middle" dominant-baseline="central">lamp3004_H</text>
<circle cx="1267" cy="145" r="5" fill="red" />
<text x="1267" y="160" font-size="12" fill="black" valign="top" text-anchor="middle" dominant-baseline="central">IN</text>
<circle cx="1317" cy="145" r="5" fill="green" />
<text x="1317" y="160" font-size="12" fill="black" valign="top" text-anchor="middle" dominant-baseline="central">OUT</text>
</svg>