<?xml version="1.0" encoding="UTF-8"?>
<svg xmlns="http://www.w3.org/2000/svg" xmlns:xlink="http://www.w3.org/1999/xlink"
     width="270" height="960" viewBox="0 0 270 960">
<defs>
</defs>
<rect x="-983" y="30" width="50" height="50" fill="pink" stroke="black" stroke-width="1" />
<text x="-958" y="22" font-size="15" fill="black" text-anchor="middle" dominant-baseline="central">kopkwhmeter_H</text>
<circle cx="-983" cy="55" r="5" fill="red" />
<text x="-983" y="70" font-size="12" fill="black" valign="top" text-anchor="middle" dominant-baseline="central">IN</text>
<circle cx="-933" cy="55" r="5" fill="green" />
<text x="-933" y="70" font-size="12" fill="black" valign="top" text-anchor="middle" dominant-baseline="central">OUT</text>
<path d="M-933,55 L-918,55" stroke="black" stroke-width="2" />
<path d="M-893,55 L-908,55" stroke="black" stroke-width="2" />
<path d="M-918,55 L-908,55" stroke="black" stroke-width="2" />
<path d="M-908,55 L-908,55" stroke="black" stroke-width="2" />
<rect x="-893" y="30" width="50" height="50" fill="pink" stroke="black" stroke-width="1" />
<text x="-868" y="22" font-size="15" fill="black" text-anchor="middle" dominant-baseline="central">Teller_H</text>
<circle cx="-893" cy="55" r="5" fill="red" />
<text x="-893" y="70" font-size="12" fill="black" valign="top" text-anchor="middle" dominant-baseline="central">IN</text>
<circle cx="-843" cy="55" r="5" fill="green" />
<text x="-843" y="70" font-size="12" fill="black" valign="top" text-anchor="middle" dominant-baseline="central">OUT</text>
<path d="M-843,55 L-828,55" stroke="black" stroke-width="2" />
<path d="M-778,170 L-778,185" stroke="black" stroke-width="2" />
<path d="M-843,55 L-828,55" stroke="black" stroke-width="2" />
<path d="M-598,170 L-598,185" stroke="black" stroke-width="2" />
<path d="M-843,55 L-828,55" stroke="black" stroke-width="2" />
<path d="M-508,170 L-508,185" stroke="black" stroke-width="2" />
<path d="M-828,55 L-778,55" stroke="black" stroke-width="2" />
<path d="M-778,55 L-778,185" stroke="black" stroke-width="2" />
<path d="M-828,55 L-598,55" stroke="black" stroke-width="2" />
<path d="M-598,55 L-598,185" stroke="black" stroke-width="2" />
<path d="M-828,55 L-508,55" stroke="black" stroke-width="2" />
<path d="M-508,55 L-508,185" stroke="black" stroke-width="2" />
<rect x="-803" y="120" width="50" height="50" fill="pink" stroke="black" stroke-width="1" />
<text x="-778" y="112" font-size="15" fill="black" text-anchor="middle" dominant-baseline="central">Diff3_V</text>
<circle cx="-778" cy="170" r="5" fill="red" />
<text x="-778" y="185" font-size="12" fill="black" valign="top" text-anchor="middle" dominant-baseline="central">IN</text>
<circle cx="-778" cy="120" r="5" fill="green" />
<text x="-778" y="135" font-size="12" fill="black" valign="top" text-anchor="middle" dominant-baseline="central">OUT</text>
<circle cx="-810" cy="170" r="5" fill="yellow" />
<text x="-810" y="185" font-size="12" fill="black" valign="top" text-anchor="middle" dominant-baseline="central">CUT</text>
<path d="M-778,120 L-778,105" stroke="black" stroke-width="2" />
<path d="M-713,235 L-728,235" stroke="black" stroke-width="2" />
<path d="M-778,105 L-778,235" stroke="black" stroke-width="2" />
<path d="M-778,235 L-728,235" stroke="black" stroke-width="2" />
<text x="-768" y="250" font-size="15" fill="blue" text-anchor="middle" dominant-baseline="central">1</text>
<rect x="-713" y="210" width="50" height="50" fill="pink" stroke="black" stroke-width="1" />
<text x="-688" y="202" font-size="15" fill="black" text-anchor="middle" dominant-baseline="central">zonnepaneelopdif3_H</text>
<circle cx="-713" cy="235" r="5" fill="red" />
<text x="-713" y="250" font-size="12" fill="black" valign="top" text-anchor="middle" dominant-baseline="central">IN</text>
<circle cx="-663" cy="235" r="5" fill="green" />
<text x="-663" y="250" font-size="12" fill="black" valign="top" text-anchor="middle" dominant-baseline="central">OUT</text>
<rect x="-623" y="120" width="50" height="50" fill="pink" stroke="black" stroke-width="1" />
<text x="-598" y="112" font-size="15" fill="black" text-anchor="middle" dominant-baseline="central">Diff30_V</text>
<circle cx="-598" cy="170" r="5" fill="red" />
<text x="-598" y="185" font-size="12" fill="black" valign="top" text-anchor="middle" dominant-baseline="central">IN</text>
<circle cx="-598" cy="120" r="5" fill="green" />
<text x="-598" y="135" font-size="12" fill="black" valign="top" text-anchor="middle" dominant-baseline="central">OUT</text>
<circle cx="-630" cy="170" r="5" fill="yellow" />
<text x="-630" y="185" font-size="12" fill="black" valign="top" text-anchor="middle" dominant-baseline="central">CUT</text>
<rect x="-533" y="120" width="50" height="50" fill="pink" stroke="black" stroke-width="1" />
<text x="-508" y="112" font-size="15" fill="black" text-anchor="middle" dominant-baseline="central">Diff300_V</text>
<circle cx="-508" cy="170" r="5" fill="red" />
<text x="-508" y="185" font-size="12" fill="black" valign="top" text-anchor="middle" dominant-baseline="central">IN</text>
<circle cx="-508" cy="120" r="5" fill="green" />
<text x="-508" y="135" font-size="12" fill="black" valign="top" text-anchor="middle" dominant-baseline="central">OUT</text>
<circle cx="-540" cy="170" r="5" fill="yellow" />
<text x="-540" y="185" font-size="12" fill="black" valign="top" text-anchor="middle" dominant-baseline="central">CUT</text>
<path d="M-508,120 L-508,105" stroke="black" stroke-width="2" />
<path d="M-508,260 L-508,275" stroke="black" stroke-width="2" />
<path d="M-508,120 L-508,105" stroke="black" stroke-width="2" />
<path d="M-328,260 L-328,275" stroke="black" stroke-width="2" />
<path d="M-508,120 L-508,105" stroke="black" stroke-width="2" />
<path d="M-148,260 L-148,275" stroke="black" stroke-width="2" />
<path d="M-508,120 L-508,105" stroke="black" stroke-width="2" />
<path d="M32,260 L32,275" stroke="black" stroke-width="2" />
<path d="M-508,120 L-508,105" stroke="black" stroke-width="2" />
<path d="M302,260 L302,275" stroke="black" stroke-width="2" />
<path d="M-508,105 L-508,275" stroke="black" stroke-width="2" />
<path d="M-508,275 L-508,275" stroke="black" stroke-width="2" />
<path d="M-508,105 L-508,275" stroke="black" stroke-width="2" />
<path d="M-508,275 L-328,275" stroke="black" stroke-width="2" />
<path d="M-508,105 L-508,275" stroke="black" stroke-width="2" />
<path d="M-508,275 L-148,275" stroke="black" stroke-width="2" />
<path d="M-508,105 L-508,275" stroke="black" stroke-width="2" />
<path d="M-508,275 L32,275" stroke="black" stroke-width="2" />
<path d="M-508,105 L-508,275" stroke="black" stroke-width="2" />
<path d="M-508,275 L302,275" stroke="black" stroke-width="2" />
<rect x="-533" y="210" width="50" height="50" fill="pink" stroke="black" stroke-width="1" />
<text x="-508" y="202" font-size="15" fill="black" text-anchor="middle" dominant-baseline="central">Diff100_V</text>
<circle cx="-508" cy="260" r="5" fill="red" />
<text x="-508" y="275" font-size="12" fill="black" valign="top" text-anchor="middle" dominant-baseline="central">IN</text>
<circle cx="-508" cy="210" r="5" fill="green" />
<text x="-508" y="225" font-size="12" fill="black" valign="top" text-anchor="middle" dominant-baseline="central">OUT</text>
<circle cx="-540" cy="260" r="5" fill="yellow" />
<text x="-540" y="275" font-size="12" fill="black" valign="top" text-anchor="middle" dominant-baseline="central">CUT</text>
<path d="M-508,210 L-508,195" stroke="black" stroke-width="2" />
<path d="M-508,350 L-508,365" stroke="black" stroke-width="2" />
<path d="M-508,195 L-508,365" stroke="black" stroke-width="2" />
<path d="M-508,365 L-508,365" stroke="black" stroke-width="2" />
<image x="-533" y="300" width="50" height="50" xlink:href="symbolen/CircuitBreaker\circuit_breaker.svg" />
<text x="-508.0" y="290" font-size="12" fill="black" text-anchor="middle" dominant-baseline="central">zek1001_V (2p, 16A)</text>
<text x="-453" y="350" font-size="20" fill="black" text-anchor="middle" dominant-baseline="central">zek1001_V</text>
<text x="-453" y="320" font-size="20" fill="black" text-anchor="middle" dominant-baseline="central">16A</text>
<circle cx="-508" cy="200" r="8" fill="ping" />
<text x="-508" y="292" font-size="15" fill="black" text-anchor="middle" dominant-baseline="central">zek1001_V</text>
<circle cx="-508" cy="350" r="5" fill="red" />
<text x="-508" y="365" font-size="12" fill="black" valign="top" text-anchor="middle" dominant-baseline="central">IN</text>
<circle cx="-508" cy="300" r="5" fill="green" />
<text x="-508" y="315" font-size="12" fill="black" valign="top" text-anchor="middle" dominant-baseline="central">OUT</text>
<circle cx="-540" cy="350" r="5" fill="yellow" />
<text x="-540" y="365" font-size="12" fill="black" valign="top" text-anchor="middle" dominant-baseline="central">CUT</text>
<path d="M-508,300 L-508,285" stroke="black" stroke-width="2" />
<path d="M-443,505 L-458,505" stroke="black" stroke-width="2" />
<path d="M-508,300 L-508,285" stroke="black" stroke-width="2" />
<path d="M-443,595 L-458,595" stroke="black" stroke-width="2" />
<path d="M-508,300 L-508,285" stroke="black" stroke-width="2" />
<path d="M-353,685 L-368,685" stroke="black" stroke-width="2" />
<path d="M-508,300 L-508,285" stroke="black" stroke-width="2" />
<path d="M-443,775 L-458,775" stroke="black" stroke-width="2" />
<path d="M-508,285 L-508,505" stroke="black" stroke-width="2" />
<path d="M-508,505 L-458,505" stroke="black" stroke-width="2" />
<text x="-498" y="520" font-size="15" fill="blue" text-anchor="middle" dominant-baseline="central">1</text>
<path d="M-508,285 L-508,595" stroke="black" stroke-width="2" />
<path d="M-508,595 L-458,595" stroke="black" stroke-width="2" />
<text x="-498" y="610" font-size="15" fill="blue" text-anchor="middle" dominant-baseline="central">2</text>
<path d="M-508,285 L-508,685" stroke="black" stroke-width="2" />
<path d="M-508,685 L-368,685" stroke="black" stroke-width="2" />
<text x="-408" y="700" font-size="15" fill="blue" text-anchor="middle" dominant-baseline="central">3</text>
<path d="M-508,285 L-508,775" stroke="black" stroke-width="2" />
<path d="M-508,775 L-458,775" stroke="black" stroke-width="2" />
<text x="-498" y="790" font-size="15" fill="blue" text-anchor="middle" dominant-baseline="central">4</text>
<rect x="-443" y="480" width="50" height="50" fill="pink" stroke="black" stroke-width="1" />
<text x="-418" y="472" font-size="15" fill="black" text-anchor="middle" dominant-baseline="central">Verlichting6_H</text>
<circle cx="-443" cy="505" r="5" fill="red" />
<text x="-443" y="520" font-size="12" fill="black" valign="top" text-anchor="middle" dominant-baseline="central">IN</text>
<circle cx="-393" cy="505" r="5" fill="green" />
<text x="-393" y="520" font-size="12" fill="black" valign="top" text-anchor="middle" dominant-baseline="central">OUT</text>
<rect x="-443" y="570" width="50" height="50" fill="pink" stroke="black" stroke-width="1" />
<text x="-418" y="562" font-size="15" fill="black" text-anchor="middle" dominant-baseline="central">vaatwas301_H</text>
<circle cx="-443" cy="595" r="5" fill="red" />
<text x="-443" y="610" font-size="12" fill="black" valign="top" text-anchor="middle" dominant-baseline="central">IN</text>
<circle cx="-393" cy="595" r="5" fill="green" />
<text x="-393" y="610" font-size="12" fill="black" valign="top" text-anchor="middle" dominant-baseline="central">OUT</text>
<image x="-353" y="660" width="50" height="50" xlink:href="symbolen/Prieze\prieze_hydro_false_kinder_true_aarding_true_1.svg" />
<text x="-328.0" y="685.0" font-size="12" fill="red" text-anchor="middle" dominant-baseline="central">prieze</text>
<text x="-328" y="652" font-size="15" fill="black" text-anchor="middle" dominant-baseline="central">prieze</text>
<circle cx="-353" cy="685" r="5" fill="red" />
<text x="-353" y="700" font-size="12" fill="black" valign="top" text-anchor="middle" dominant-baseline="central">IN</text>
<circle cx="-303" cy="685" r="5" fill="green" />
<text x="-303" y="700" font-size="12" fill="black" valign="top" text-anchor="middle" dominant-baseline="central">OUT</text>
<image x="-443" y="750" width="50" height="50" xlink:href="symbolen/Prieze\prieze_hydro_false_kinder_true_aarding_true_2.svg" />
<text x="-418.0" y="775.0" font-size="12" fill="red" text-anchor="middle" dominant-baseline="central">priezedub</text>
<text x="-418" y="742" font-size="15" fill="black" text-anchor="middle" dominant-baseline="central">priezedub</text>
<circle cx="-443" cy="775" r="5" fill="red" />
<text x="-443" y="790" font-size="12" fill="black" valign="top" text-anchor="middle" dominant-baseline="central">IN</text>
<circle cx="-393" cy="775" r="5" fill="green" />
<text x="-393" y="790" font-size="12" fill="black" valign="top" text-anchor="middle" dominant-baseline="central">OUT</text>
<image x="-353" y="210" width="50" height="50" xlink:href="symbolen/CircuitBreaker\circuit_breaker.svg" />
<text x="-328.0" y="200" font-size="12" fill="black" text-anchor="middle" dominant-baseline="central">zek3001_V (2p, 16A)</text>
<text x="-273" y="260" font-size="20" fill="black" text-anchor="middle" dominant-baseline="central">zek3001_V</text>
<text x="-273" y="230" font-size="20" fill="black" text-anchor="middle" dominant-baseline="central">16A</text>
<circle cx="-328" cy="110" r="8" fill="ping" />
<text x="-328" y="202" font-size="15" fill="black" text-anchor="middle" dominant-baseline="central">zek3001_V</text>
<circle cx="-328" cy="260" r="5" fill="red" />
<text x="-328" y="275" font-size="12" fill="black" valign="top" text-anchor="middle" dominant-baseline="central">IN</text>
<circle cx="-328" cy="210" r="5" fill="green" />
<text x="-328" y="225" font-size="12" fill="black" valign="top" text-anchor="middle" dominant-baseline="central">OUT</text>
<circle cx="-360" cy="260" r="5" fill="yellow" />
<text x="-360" y="275" font-size="12" fill="black" valign="top" text-anchor="middle" dominant-baseline="central">CUT</text>
<path d="M-328,210 L-328,195" stroke="black" stroke-width="2" />
<path d="M-263,415 L-278,415" stroke="black" stroke-width="2" />
<path d="M-328,195 L-328,415" stroke="black" stroke-width="2" />
<path d="M-328,415 L-278,415" stroke="black" stroke-width="2" />
<text x="-318" y="430" font-size="15" fill="blue" text-anchor="middle" dominant-baseline="central">1</text>
<rect x="-263" y="390" width="50" height="50" fill="pink" stroke="black" stroke-width="1" />
<text x="-238" y="382" font-size="15" fill="black" text-anchor="middle" dominant-baseline="central">droogkast3002_H</text>
<circle cx="-263" cy="415" r="5" fill="red" />
<text x="-263" y="430" font-size="12" fill="black" valign="top" text-anchor="middle" dominant-baseline="central">IN</text>
<circle cx="-213" cy="415" r="5" fill="green" />
<text x="-213" y="430" font-size="12" fill="black" valign="top" text-anchor="middle" dominant-baseline="central">OUT</text>
<image x="-173" y="210" width="50" height="50" xlink:href="symbolen/CircuitBreaker\circuit_breaker.svg" />
<text x="-148.0" y="200" font-size="12" fill="black" text-anchor="middle" dominant-baseline="central">zek3002_V (2p, 16A)</text>
<text x="-93" y="260" font-size="20" fill="black" text-anchor="middle" dominant-baseline="central">zek3002_V</text>
<text x="-93" y="230" font-size="20" fill="black" text-anchor="middle" dominant-baseline="central">16A</text>
<circle cx="-148" cy="110" r="8" fill="ping" />
<text x="-148" y="202" font-size="15" fill="black" text-anchor="middle" dominant-baseline="central">zek3002_V</text>
<circle cx="-148" cy="260" r="5" fill="red" />
<text x="-148" y="275" font-size="12" fill="black" valign="top" text-anchor="middle" dominant-baseline="central">IN</text>
<circle cx="-148" cy="210" r="5" fill="green" />
<text x="-148" y="225" font-size="12" fill="black" valign="top" text-anchor="middle" dominant-baseline="central">OUT</text>
<circle cx="-180" cy="260" r="5" fill="yellow" />
<text x="-180" y="275" font-size="12" fill="black" valign="top" text-anchor="middle" dominant-baseline="central">CUT</text>
<path d="M-148,210 L-148,195" stroke="black" stroke-width="2" />
<path d="M-83,415 L-98,415" stroke="black" stroke-width="2" />
<path d="M-148,210 L-148,195" stroke="black" stroke-width="2" />
<path d="M-83,505 L-98,505" stroke="black" stroke-width="2" />
<path d="M-148,195 L-148,415" stroke="black" stroke-width="2" />
<path d="M-148,415 L-98,415" stroke="black" stroke-width="2" />
<text x="-138" y="430" font-size="15" fill="blue" text-anchor="middle" dominant-baseline="central">1</text>
<path d="M-148,195 L-148,505" stroke="black" stroke-width="2" />
<path d="M-148,505 L-98,505" stroke="black" stroke-width="2" />
<text x="-138" y="520" font-size="15" fill="blue" text-anchor="middle" dominant-baseline="central">2</text>
<rect x="-83" y="390" width="50" height="50" fill="pink" stroke="black" stroke-width="1" />
<text x="-58" y="382" font-size="15" fill="black" text-anchor="middle" dominant-baseline="central">microoven3002_H</text>
<circle cx="-83" cy="415" r="5" fill="red" />
<text x="-83" y="430" font-size="12" fill="black" valign="top" text-anchor="middle" dominant-baseline="central">IN</text>
<circle cx="-33" cy="415" r="5" fill="green" />
<text x="-33" y="430" font-size="12" fill="black" valign="top" text-anchor="middle" dominant-baseline="central">OUT</text>
<rect x="-83" y="480" width="50" height="50" fill="pink" stroke="black" stroke-width="1" />
<text x="-58" y="472" font-size="15" fill="black" text-anchor="middle" dominant-baseline="central">oven3002_H</text>
<circle cx="-83" cy="505" r="5" fill="red" />
<text x="-83" y="520" font-size="12" fill="black" valign="top" text-anchor="middle" dominant-baseline="central">IN</text>
<circle cx="-33" cy="505" r="5" fill="green" />
<text x="-33" y="520" font-size="12" fill="black" valign="top" text-anchor="middle" dominant-baseline="central">OUT</text>
<image x="7" y="210" width="50" height="50" xlink:href="symbolen/CircuitBreaker\circuit_breaker.svg" />
<text x="32.0" y="200" font-size="12" fill="black" text-anchor="middle" dominant-baseline="central">zek3003_V (2p, 16A)</text>
<text x="87" y="260" font-size="20" fill="black" text-anchor="middle" dominant-baseline="central">zek3003_V</text>
<text x="87" y="230" font-size="20" fill="black" text-anchor="middle" dominant-baseline="central">16A</text>
<circle cx="32" cy="110" r="8" fill="ping" />
<text x="32" y="202" font-size="15" fill="black" text-anchor="middle" dominant-baseline="central">zek3003_V</text>
<circle cx="32" cy="260" r="5" fill="red" />
<text x="32" y="275" font-size="12" fill="black" valign="top" text-anchor="middle" dominant-baseline="central">IN</text>
<circle cx="32" cy="210" r="5" fill="green" />
<text x="32" y="225" font-size="12" fill="black" valign="top" text-anchor="middle" dominant-baseline="central">OUT</text>
<circle cx="0" cy="260" r="5" fill="yellow" />
<text x="0" y="275" font-size="12" fill="black" valign="top" text-anchor="middle" dominant-baseline="central">CUT</text>
<path d="M32,210 L32,195" stroke="black" stroke-width="2" />
<path d="M97,415 L82,415" stroke="black" stroke-width="2" />
<path d="M32,210 L32,195" stroke="black" stroke-width="2" />
<path d="M97,775 L82,775" stroke="black" stroke-width="2" />
<path d="M32,210 L32,195" stroke="black" stroke-width="2" />
<path d="M97,865 L82,865" stroke="black" stroke-width="2" />
<path d="M32,195 L32,415" stroke="black" stroke-width="2" />
<path d="M32,415 L82,415" stroke="black" stroke-width="2" />
<text x="42" y="430" font-size="15" fill="blue" text-anchor="middle" dominant-baseline="central">1</text>
<path d="M32,195 L32,775" stroke="black" stroke-width="2" />
<path d="M32,775 L82,775" stroke="black" stroke-width="2" />
<text x="42" y="790" font-size="15" fill="blue" text-anchor="middle" dominant-baseline="central">2</text>
<path d="M32,195 L32,865" stroke="black" stroke-width="2" />
<path d="M32,865 L82,865" stroke="black" stroke-width="2" />
<text x="42" y="880" font-size="15" fill="blue" text-anchor="middle" dominant-baseline="central">3</text>
<rect x="97" y="390" width="50" height="50" fill="pink" stroke="black" stroke-width="1" />
<text x="122" y="382" font-size="15" fill="black" text-anchor="middle" dominant-baseline="central">domo2_H</text>
<circle cx="97" cy="415" r="5" fill="red" />
<text x="97" y="430" font-size="12" fill="black" valign="top" text-anchor="middle" dominant-baseline="central">IN</text>
<circle cx="147" cy="415" r="5" fill="green" />
<text x="147" y="430" font-size="12" fill="black" valign="top" text-anchor="middle" dominant-baseline="central">OUT</text>
<path d="M147,415 L162,415" stroke="black" stroke-width="2" />
<path d="M187,415 L172,415" stroke="black" stroke-width="2" />
<path d="M147,415 L162,415" stroke="black" stroke-width="2" />
<path d="M187,505 L172,505" stroke="black" stroke-width="2" />
<path d="M147,415 L162,415" stroke="black" stroke-width="2" />
<path d="M187,595 L172,595" stroke="black" stroke-width="2" />
<path d="M147,415 L162,415" stroke="black" stroke-width="2" />
<path d="M187,685 L172,685" stroke="black" stroke-width="2" />
<path d="M162,415 L172,415" stroke="black" stroke-width="2" />
<path d="M172,415 L172,415" stroke="black" stroke-width="2" />
<path d="M162,415 L172,415" stroke="black" stroke-width="2" />
<path d="M172,415 L172,505" stroke="black" stroke-width="2" />
<path d="M162,415 L172,415" stroke="black" stroke-width="2" />
<path d="M172,415 L172,595" stroke="black" stroke-width="2" />
<path d="M162,415 L172,415" stroke="black" stroke-width="2" />
<path d="M172,415 L172,685" stroke="black" stroke-width="2" />
<rect x="187" y="390" width="50" height="50" fill="pink" stroke="black" stroke-width="1" />
<text x="212" y="382" font-size="15" fill="black" text-anchor="middle" dominant-baseline="central">Verlichting2_H</text>
<circle cx="187" cy="415" r="5" fill="red" />
<text x="187" y="430" font-size="12" fill="black" valign="top" text-anchor="middle" dominant-baseline="central">IN</text>
<circle cx="237" cy="415" r="5" fill="green" />
<text x="237" y="430" font-size="12" fill="black" valign="top" text-anchor="middle" dominant-baseline="central">OUT</text>
<rect x="187" y="480" width="50" height="50" fill="pink" stroke="black" stroke-width="1" />
<text x="212" y="472" font-size="15" fill="black" text-anchor="middle" dominant-baseline="central">Verlichting3_H</text>
<circle cx="187" cy="505" r="5" fill="red" />
<text x="187" y="520" font-size="12" fill="black" valign="top" text-anchor="middle" dominant-baseline="central">IN</text>
<circle cx="237" cy="505" r="5" fill="green" />
<text x="237" y="520" font-size="12" fill="black" valign="top" text-anchor="middle" dominant-baseline="central">OUT</text>
<rect x="187" y="570" width="50" height="50" fill="pink" stroke="black" stroke-width="1" />
<text x="212" y="562" font-size="15" fill="black" text-anchor="middle" dominant-baseline="central">Verlichting4_H</text>
<circle cx="187" cy="595" r="5" fill="red" />
<text x="187" y="610" font-size="12" fill="black" valign="top" text-anchor="middle" dominant-baseline="central">IN</text>
<circle cx="237" cy="595" r="5" fill="green" />
<text x="237" y="610" font-size="12" fill="black" valign="top" text-anchor="middle" dominant-baseline="central">OUT</text>
<rect x="187" y="660" width="50" height="50" fill="pink" stroke="black" stroke-width="1" />
<text x="212" y="652" font-size="15" fill="black" text-anchor="middle" dominant-baseline="central">Verlichting5_H</text>
<circle cx="187" cy="685" r="5" fill="red" />
<text x="187" y="700" font-size="12" fill="black" valign="top" text-anchor="middle" dominant-baseline="central">IN</text>
<circle cx="237" cy="685" r="5" fill="green" />
<text x="237" y="700" font-size="12" fill="black" valign="top" text-anchor="middle" dominant-baseline="central">OUT</text>
<rect x="97" y="750" width="50" height="50" fill="pink" stroke="black" stroke-width="1" />
<text x="122" y="742" font-size="15" fill="black" text-anchor="middle" dominant-baseline="central">Domomodule_H</text>
<circle cx="97" cy="775" r="5" fill="red" />
<text x="97" y="790" font-size="12" fill="black" valign="top" text-anchor="middle" dominant-baseline="central">IN</text>
<circle cx="147" cy="775" r="5" fill="green" />
<text x="147" y="790" font-size="12" fill="black" valign="top" text-anchor="middle" dominant-baseline="central">OUT</text>
<path d="M147,775 L162,775" stroke="black" stroke-width="2" />
<path d="M187,775 L172,775" stroke="black" stroke-width="2" />
<path d="M162,775 L172,775" stroke="black" stroke-width="2" />
<path d="M172,775 L172,775" stroke="black" stroke-width="2" />
<rect x="187" y="750" width="50" height="50" fill="pink" stroke="black" stroke-width="1" />
<text x="212" y="742" font-size="15" fill="black" text-anchor="middle" dominant-baseline="central">Verlichting_H</text>
<circle cx="187" cy="775" r="5" fill="red" />
<text x="187" y="790" font-size="12" fill="black" valign="top" text-anchor="middle" dominant-baseline="central">IN</text>
<circle cx="237" cy="775" r="5" fill="green" />
<text x="237" y="790" font-size="12" fill="black" valign="top" text-anchor="middle" dominant-baseline="central">OUT</text>
<rect x="97" y="840" width="50" height="50" fill="pink" stroke="black" stroke-width="1" />
<text x="122" y="832" font-size="15" fill="black" text-anchor="middle" dominant-baseline="central">tv_H</text>
<circle cx="97" cy="865" r="5" fill="red" />
<text x="97" y="880" font-size="12" fill="black" valign="top" text-anchor="middle" dominant-baseline="central">IN</text>
<circle cx="147" cy="865" r="5" fill="green" />
<text x="147" y="880" font-size="12" fill="black" valign="top" text-anchor="middle" dominant-baseline="central">OUT</text>
<image x="277" y="210" width="50" height="50" xlink:href="symbolen/CircuitBreaker\circuit_breaker.svg" />
<text x="302.0" y="200" font-size="12" fill="black" text-anchor="middle" dominant-baseline="central">zek3004verl_V (2p, 16A)</text>
<text x="357" y="260" font-size="20" fill="black" text-anchor="middle" dominant-baseline="central">zek3004verl_V</text>
<text x="357" y="230" font-size="20" fill="black" text-anchor="middle" dominant-baseline="central">16A</text>
<circle cx="302" cy="110" r="8" fill="ping" />
<text x="302" y="202" font-size="15" fill="black" text-anchor="middle" dominant-baseline="central">zek3004verl_V</text>
<circle cx="302" cy="260" r="5" fill="red" />
<text x="302" y="275" font-size="12" fill="black" valign="top" text-anchor="middle" dominant-baseline="central">IN</text>
<circle cx="302" cy="210" r="5" fill="green" />
<text x="302" y="225" font-size="12" fill="black" valign="top" text-anchor="middle" dominant-baseline="central">OUT</text>
<circle cx="270" cy="260" r="5" fill="yellow" />
<text x="270" y="275" font-size="12" fill="black" valign="top" text-anchor="middle" dominant-baseline="central">CUT</text>
<path d="M302,210 L302,195" stroke="black" stroke-width="2" />
<path d="M367,415 L352,415" stroke="black" stroke-width="2" />
<path d="M302,210 L302,195" stroke="black" stroke-width="2" />
<path d="M367,505 L352,505" stroke="black" stroke-width="2" />
<path d="M302,210 L302,195" stroke="black" stroke-width="2" />
<path d="M367,595 L352,595" stroke="black" stroke-width="2" />
<path d="M302,210 L302,195" stroke="black" stroke-width="2" />
<path d="M367,685 L352,685" stroke="black" stroke-width="2" />
<path d="M302,210 L302,195" stroke="black" stroke-width="2" />
<path d="M367,775 L352,775" stroke="black" stroke-width="2" />
<path d="M302,195 L302,415" stroke="black" stroke-width="2" />
<path d="M302,415 L352,415" stroke="black" stroke-width="2" />
<text x="312" y="430" font-size="15" fill="blue" text-anchor="middle" dominant-baseline="central">1</text>
<path d="M302,195 L302,505" stroke="black" stroke-width="2" />
<path d="M302,505 L352,505" stroke="black" stroke-width="2" />
<text x="312" y="520" font-size="15" fill="blue" text-anchor="middle" dominant-baseline="central">2</text>
<path d="M302,195 L302,595" stroke="black" stroke-width="2" />
<path d="M302,595 L352,595" stroke="black" stroke-width="2" />
<text x="312" y="610" font-size="15" fill="blue" text-anchor="middle" dominant-baseline="central">3</text>
<path d="M302,195 L302,685" stroke="black" stroke-width="2" />
<path d="M302,685 L352,685" stroke="black" stroke-width="2" />
<text x="312" y="700" font-size="15" fill="blue" text-anchor="middle" dominant-baseline="central">4</text>
<path d="M302,195 L302,775" stroke="black" stroke-width="2" />
<path d="M302,775 L352,775" stroke="black" stroke-width="2" />
<text x="312" y="790" font-size="15" fill="blue" text-anchor="middle" dominant-baseline="central">5</text>
<rect x="367" y="390" width="50" height="50" fill="pink" stroke="black" stroke-width="1" />
<text x="392" y="382" font-size="15" fill="black" text-anchor="middle" dominant-baseline="central">Verlicht1_H</text>
<circle cx="367" cy="415" r="5" fill="red" />
<text x="367" y="430" font-size="12" fill="black" valign="top" text-anchor="middle" dominant-baseline="central">IN</text>
<circle cx="417" cy="415" r="5" fill="green" />
<text x="417" y="430" font-size="12" fill="black" valign="top" text-anchor="middle" dominant-baseline="central">OUT</text>
<rect x="367" y="480" width="50" height="50" fill="pink" stroke="black" stroke-width="1" />
<text x="392" y="472" font-size="15" fill="black" text-anchor="middle" dominant-baseline="central">Verlicht2_H</text>
<circle cx="367" cy="505" r="5" fill="red" />
<text x="367" y="520" font-size="12" fill="black" valign="top" text-anchor="middle" dominant-baseline="central">IN</text>
<circle cx="417" cy="505" r="5" fill="green" />
<text x="417" y="520" font-size="12" fill="black" valign="top" text-anchor="middle" dominant-baseline="central">OUT</text>
<rect x="367" y="570" width="50" height="50" fill="pink" stroke="black" stroke-width="1" />
<text x="392" y="562" font-size="15" fill="black" text-anchor="middle" dominant-baseline="central">Verlicht3_H</text>
<circle cx="367" cy="595" r="5" fill="red" />
<text x="367" y="610" font-size="12" fill="black" valign="top" text-anchor="middle" dominant-baseline="central">IN</text>
<circle cx="417" cy="595" r="5" fill="green" />
<text x="417" y="610" font-size="12" fill="black" valign="top" text-anchor="middle" dominant-baseline="central">OUT</text>
<rect x="367" y="660" width="50" height="50" fill="pink" stroke="black" stroke-width="1" />
<text x="392" y="652" font-size="15" fill="black" text-anchor="middle" dominant-baseline="central">contaxop3004_H</text>
<circle cx="367" cy="685" r="5" fill="red" />
<text x="367" y="700" font-size="12" fill="black" valign="top" text-anchor="middle" dominant-baseline="central">IN</text>
<circle cx="417" cy="685" r="5" fill="green" />
<text x="417" y="700" font-size="12" fill="black" valign="top" text-anchor="middle" dominant-baseline="central">OUT</text>
<path d="M417,685 L432,685" stroke="black" stroke-width="2" />
<path d="M457,685 L442,685" stroke="black" stroke-width="2" />
<path d="M432,685 L442,685" stroke="black" stroke-width="2" />
<path d="M442,685 L442,685" stroke="black" stroke-width="2" />
<rect x="457" y="660" width="50" height="50" fill="pink" stroke="black" stroke-width="1" />
<text x="482" y="652" font-size="15" fill="black" text-anchor="middle" dominant-baseline="central">contaxopcontax_H</text>
<circle cx="457" cy="685" r="5" fill="red" />
<text x="457" y="700" font-size="12" fill="black" valign="top" text-anchor="middle" dominant-baseline="central">IN</text>
<circle cx="507" cy="685" r="5" fill="green" />
<text x="507" y="700" font-size="12" fill="black" valign="top" text-anchor="middle" dominant-baseline="central">OUT</text>
<path d="M507,685 L522,685" stroke="black" stroke-width="2" />
<path d="M547,685 L532,685" stroke="black" stroke-width="2" />
<path d="M522,685 L532,685" stroke="black" stroke-width="2" />
<path d="M532,685 L532,685" stroke="black" stroke-width="2" />
<rect x="547" y="660" width="50" height="50" fill="pink" stroke="black" stroke-width="1" />
<text x="572" y="652" font-size="15" fill="black" text-anchor="middle" dominant-baseline="central">faaropcontax_H</text>
<circle cx="547" cy="685" r="5" fill="red" />
<text x="547" y="700" font-size="12" fill="black" valign="top" text-anchor="middle" dominant-baseline="central">IN</text>
<circle cx="597" cy="685" r="5" fill="green" />
<text x="597" y="700" font-size="12" fill="black" valign="top" text-anchor="middle" dominant-baseline="central">OUT</text>
<rect x="367" y="750" width="50" height="50" fill="pink" stroke="black" stroke-width="1" />
<text x="392" y="742" font-size="15" fill="black" text-anchor="middle" dominant-baseline="central">lamp3004_H</text>
<circle cx="367" cy="775" r="5" fill="red" />
<text x="367" y="790" font-size="12" fill="black" valign="top" text-anchor="middle" dominant-baseline="central">IN</text>
<circle cx="417" cy="775" r="5" fill="green" />
<text x="417" y="790" font-size="12" fill="black" valign="top" text-anchor="middle" dominant-baseline="central">OUT</text>
</svg>