<?xml version="1.0" encoding="UTF-8"?>
<svg xmlns="http://www.w3.org/2000/svg" xmlns:xlink="http://www.w3.org/1999/xlink"
     width="297" height="960" viewBox="0 0 297 960">
<defs>
</defs>
<rect x="-1343" y="840" width="50" height="50" fill="pink" stroke="black" stroke-width="1" />
<text x="-1318" y="832" font-size="15" fill="black" text-anchor="middle" dominant-baseline="central">kopkwhmeter_H</text>
<circle cx="-1343" cy="865" r="5" fill="red" />
<text x="-1343" y="880" font-size="12" fill="black" valign="top" text-anchor="middle" dominant-baseline="central">IN</text>
<circle cx="-1293" cy="865" r="5" fill="green" />
<text x="-1293" y="880" font-size="12" fill="black" valign="top" text-anchor="middle" dominant-baseline="central">OUT</text>
<path d="M-1293,865 L-1278,865" stroke="black" stroke-width="2" />
<path d="M-1253,865 L-1268,865" stroke="black" stroke-width="2" />
<path d="M-1278,865 L-1268,865" stroke="black" stroke-width="2" />
<path d="M-1268,865 L-1268,865" stroke="black" stroke-width="2" />
<rect x="-1253" y="840" width="50" height="50" fill="pink" stroke="black" stroke-width="1" />
<text x="-1228" y="832" font-size="15" fill="black" text-anchor="middle" dominant-baseline="central">Teller_H</text>
<circle cx="-1253" cy="865" r="5" fill="red" />
<text x="-1253" y="880" font-size="12" fill="black" valign="top" text-anchor="middle" dominant-baseline="central">IN</text>
<circle cx="-1203" cy="865" r="5" fill="green" />
<text x="-1203" y="880" font-size="12" fill="black" valign="top" text-anchor="middle" dominant-baseline="central">OUT</text>
<path d="M-1203,865 L-1188,865" stroke="black" stroke-width="2" />
<path d="M-1138,800 L-1138,815" stroke="black" stroke-width="2" />
<path d="M-1203,865 L-1188,865" stroke="black" stroke-width="2" />
<path d="M-958,800 L-958,815" stroke="black" stroke-width="2" />
<path d="M-1203,865 L-1188,865" stroke="black" stroke-width="2" />
<path d="M-868,800 L-868,815" stroke="black" stroke-width="2" />
<path d="M-1188,865 L-1138,865" stroke="black" stroke-width="2" />
<path d="M-1138,865 L-1138,815" stroke="black" stroke-width="2" />
<path d="M-1188,865 L-958,865" stroke="black" stroke-width="2" />
<path d="M-958,865 L-958,815" stroke="black" stroke-width="2" />
<path d="M-1188,865 L-868,865" stroke="black" stroke-width="2" />
<path d="M-868,865 L-868,815" stroke="black" stroke-width="2" />
<rect x="-1163" y="750" width="50" height="50" fill="pink" stroke="black" stroke-width="1" />
<text x="-1138" y="742" font-size="15" fill="black" text-anchor="middle" dominant-baseline="central">Diff3_V</text>
<circle cx="-1138" cy="800" r="5" fill="red" />
<text x="-1138" y="815" font-size="12" fill="black" valign="top" text-anchor="middle" dominant-baseline="central">IN</text>
<circle cx="-1138" cy="750" r="5" fill="green" />
<text x="-1138" y="765" font-size="12" fill="black" valign="top" text-anchor="middle" dominant-baseline="central">OUT</text>
<circle cx="-1170" cy="800" r="5" fill="yellow" />
<text x="-1170" y="815" font-size="12" fill="black" valign="top" text-anchor="middle" dominant-baseline="central">CUT</text>
<path d="M-1138,750 L-1138,735" stroke="black" stroke-width="2" />
<path d="M-1073,685 L-1088,685" stroke="black" stroke-width="2" />
<path d="M-1138,735 L-1138,685" stroke="black" stroke-width="2" />
<path d="M-1138,685 L-1088,685" stroke="black" stroke-width="2" />
<text x="-1128" y="700" font-size="15" fill="blue" text-anchor="middle" dominant-baseline="central">1</text>
<rect x="-1073" y="660" width="50" height="50" fill="pink" stroke="black" stroke-width="1" />
<text x="-1048" y="652" font-size="15" fill="black" text-anchor="middle" dominant-baseline="central">zonnepaneelopdif3_H</text>
<circle cx="-1073" cy="685" r="5" fill="red" />
<text x="-1073" y="700" font-size="12" fill="black" valign="top" text-anchor="middle" dominant-baseline="central">IN</text>
<circle cx="-1023" cy="685" r="5" fill="green" />
<text x="-1023" y="700" font-size="12" fill="black" valign="top" text-anchor="middle" dominant-baseline="central">OUT</text>
<rect x="-983" y="750" width="50" height="50" fill="pink" stroke="black" stroke-width="1" />
<text x="-958" y="742" font-size="15" fill="black" text-anchor="middle" dominant-baseline="central">Diff30_V</text>
<circle cx="-958" cy="800" r="5" fill="red" />
<text x="-958" y="815" font-size="12" fill="black" valign="top" text-anchor="middle" dominant-baseline="central">IN</text>
<circle cx="-958" cy="750" r="5" fill="green" />
<text x="-958" y="765" font-size="12" fill="black" valign="top" text-anchor="middle" dominant-baseline="central">OUT</text>
<circle cx="-990" cy="800" r="5" fill="yellow" />
<text x="-990" y="815" font-size="12" fill="black" valign="top" text-anchor="middle" dominant-baseline="central">CUT</text>
<rect x="-893" y="750" width="50" height="50" fill="pink" stroke="black" stroke-width="1" />
<text x="-868" y="742" font-size="15" fill="black" text-anchor="middle" dominant-baseline="central">Diff300_V</text>
<circle cx="-868" cy="800" r="5" fill="red" />
<text x="-868" y="815" font-size="12" fill="black" valign="top" text-anchor="middle" dominant-baseline="central">IN</text>
<circle cx="-868" cy="750" r="5" fill="green" />
<text x="-868" y="765" font-size="12" fill="black" valign="top" text-anchor="middle" dominant-baseline="central">OUT</text>
<circle cx="-900" cy="800" r="5" fill="yellow" />
<text x="-900" y="815" font-size="12" fill="black" valign="top" text-anchor="middle" dominant-baseline="central">CUT</text>
<path d="M-868,750 L-868,735" stroke="black" stroke-width="2" />
<path d="M-868,710 L-868,725" stroke="black" stroke-width="2" />
<path d="M-868,750 L-868,735" stroke="black" stroke-width="2" />
<path d="M-598,710 L-598,725" stroke="black" stroke-width="2" />
<path d="M-868,750 L-868,735" stroke="black" stroke-width="2" />
<path d="M-418,710 L-418,725" stroke="black" stroke-width="2" />
<path d="M-868,750 L-868,735" stroke="black" stroke-width="2" />
<path d="M-238,710 L-238,725" stroke="black" stroke-width="2" />
<path d="M-868,750 L-868,735" stroke="black" stroke-width="2" />
<path d="M32,710 L32,725" stroke="black" stroke-width="2" />
<path d="M-868,735 L-868,725" stroke="black" stroke-width="2" />
<path d="M-868,725 L-868,725" stroke="black" stroke-width="2" />
<path d="M-868,735 L-868,725" stroke="black" stroke-width="2" />
<path d="M-868,725 L-598,725" stroke="black" stroke-width="2" />
<path d="M-868,735 L-868,725" stroke="black" stroke-width="2" />
<path d="M-868,725 L-418,725" stroke="black" stroke-width="2" />
<path d="M-868,735 L-868,725" stroke="black" stroke-width="2" />
<path d="M-868,725 L-238,725" stroke="black" stroke-width="2" />
<path d="M-868,735 L-868,725" stroke="black" stroke-width="2" />
<path d="M-868,725 L32,725" stroke="black" stroke-width="2" />
<rect x="-893" y="660" width="50" height="50" fill="pink" stroke="black" stroke-width="1" />
<text x="-868" y="652" font-size="15" fill="black" text-anchor="middle" dominant-baseline="central">Diff100_V</text>
<circle cx="-868" cy="710" r="5" fill="red" />
<text x="-868" y="725" font-size="12" fill="black" valign="top" text-anchor="middle" dominant-baseline="central">IN</text>
<circle cx="-868" cy="660" r="5" fill="green" />
<text x="-868" y="675" font-size="12" fill="black" valign="top" text-anchor="middle" dominant-baseline="central">OUT</text>
<circle cx="-900" cy="710" r="5" fill="yellow" />
<text x="-900" y="725" font-size="12" fill="black" valign="top" text-anchor="middle" dominant-baseline="central">CUT</text>
<path d="M-868,660 L-868,645" stroke="black" stroke-width="2" />
<path d="M-868,620 L-868,635" stroke="black" stroke-width="2" />
<path d="M-868,645 L-868,635" stroke="black" stroke-width="2" />
<path d="M-868,635 L-868,635" stroke="black" stroke-width="2" />
<image x="-893" y="570" width="50" height="50" xlink:href="symbolen/CircuitBreaker\circuit_breaker.svg" />
<text x="-868.0" y="560" font-size="12" fill="black" text-anchor="middle" dominant-baseline="central">zek1001_V (2p, 16A)</text>
<text x="-813" y="620" font-size="20" fill="black" text-anchor="middle" dominant-baseline="central">zek1001_V</text>
<text x="-813" y="590" font-size="20" fill="black" text-anchor="middle" dominant-baseline="central">16A</text>
<circle cx="-868" cy="470" r="8" fill="ping" />
<text x="-868" y="562" font-size="15" fill="black" text-anchor="middle" dominant-baseline="central">zek1001_V</text>
<circle cx="-868" cy="620" r="5" fill="red" />
<text x="-868" y="635" font-size="12" fill="black" valign="top" text-anchor="middle" dominant-baseline="central">IN</text>
<circle cx="-868" cy="570" r="5" fill="green" />
<text x="-868" y="585" font-size="12" fill="black" valign="top" text-anchor="middle" dominant-baseline="central">OUT</text>
<circle cx="-900" cy="620" r="5" fill="yellow" />
<text x="-900" y="635" font-size="12" fill="black" valign="top" text-anchor="middle" dominant-baseline="central">CUT</text>
<path d="M-868,570 L-868,555" stroke="black" stroke-width="2" />
<path d="M-803,415 L-818,415" stroke="black" stroke-width="2" />
<path d="M-868,570 L-868,555" stroke="black" stroke-width="2" />
<path d="M-803,325 L-818,325" stroke="black" stroke-width="2" />
<path d="M-868,570 L-868,555" stroke="black" stroke-width="2" />
<path d="M-713,415 L-728,415" stroke="black" stroke-width="2" />
<path d="M-868,570 L-868,555" stroke="black" stroke-width="2" />
<path d="M-803,145 L-818,145" stroke="black" stroke-width="2" />
<path d="M-868,555 L-868,415" stroke="black" stroke-width="2" />
<path d="M-868,415 L-818,415" stroke="black" stroke-width="2" />
<text x="-858" y="430" font-size="15" fill="blue" text-anchor="middle" dominant-baseline="central">1</text>
<path d="M-868,555 L-868,325" stroke="black" stroke-width="2" />
<path d="M-868,325 L-818,325" stroke="black" stroke-width="2" />
<text x="-858" y="340" font-size="15" fill="blue" text-anchor="middle" dominant-baseline="central">2</text>
<path d="M-868,555 L-868,415" stroke="black" stroke-width="2" />
<path d="M-868,415 L-728,415" stroke="black" stroke-width="2" />
<text x="-768" y="430" font-size="15" fill="blue" text-anchor="middle" dominant-baseline="central">3</text>
<path d="M-868,555 L-868,145" stroke="black" stroke-width="2" />
<path d="M-868,145 L-818,145" stroke="black" stroke-width="2" />
<text x="-858" y="160" font-size="15" fill="blue" text-anchor="middle" dominant-baseline="central">4</text>
<rect x="-803" y="390" width="50" height="50" fill="pink" stroke="black" stroke-width="1" />
<text x="-778" y="382" font-size="15" fill="black" text-anchor="middle" dominant-baseline="central">Verlichting6_H</text>
<circle cx="-803" cy="415" r="5" fill="red" />
<text x="-803" y="430" font-size="12" fill="black" valign="top" text-anchor="middle" dominant-baseline="central">IN</text>
<circle cx="-753" cy="415" r="5" fill="green" />
<text x="-753" y="430" font-size="12" fill="black" valign="top" text-anchor="middle" dominant-baseline="central">OUT</text>
<rect x="-803" y="300" width="50" height="50" fill="pink" stroke="black" stroke-width="1" />
<text x="-778" y="292" font-size="15" fill="black" text-anchor="middle" dominant-baseline="central">vaatwas301_H</text>
<circle cx="-803" cy="325" r="5" fill="red" />
<text x="-803" y="340" font-size="12" fill="black" valign="top" text-anchor="middle" dominant-baseline="central">IN</text>
<circle cx="-753" cy="325" r="5" fill="green" />
<text x="-753" y="340" font-size="12" fill="black" valign="top" text-anchor="middle" dominant-baseline="central">OUT</text>
<image x="-713" y="390" width="50" height="50" xlink:href="symbolen/Prieze\prieze_hydro_false_kinder_true_aarding_true_1.svg" />
<text x="-688.0" y="415.0" font-size="12" fill="red" text-anchor="middle" dominant-baseline="central">prieze</text>
<text x="-688" y="382" font-size="15" fill="black" text-anchor="middle" dominant-baseline="central">prieze</text>
<circle cx="-713" cy="415" r="5" fill="red" />
<text x="-713" y="430" font-size="12" fill="black" valign="top" text-anchor="middle" dominant-baseline="central">IN</text>
<circle cx="-663" cy="415" r="5" fill="green" />
<text x="-663" y="430" font-size="12" fill="black" valign="top" text-anchor="middle" dominant-baseline="central">OUT</text>
<image x="-803" y="120" width="50" height="50" xlink:href="symbolen/Prieze\prieze_hydro_false_kinder_true_aarding_true_2.svg" />
<text x="-778.0" y="145.0" font-size="12" fill="red" text-anchor="middle" dominant-baseline="central">prieze</text>
<text x="-778" y="112" font-size="15" fill="black" text-anchor="middle" dominant-baseline="central">prieze</text>
<circle cx="-803" cy="145" r="5" fill="red" />
<text x="-803" y="160" font-size="12" fill="black" valign="top" text-anchor="middle" dominant-baseline="central">IN</text>
<circle cx="-753" cy="145" r="5" fill="green" />
<text x="-753" y="160" font-size="12" fill="black" valign="top" text-anchor="middle" dominant-baseline="central">OUT</text>
<image x="-623" y="660" width="50" height="50" xlink:href="symbolen/CircuitBreaker\circuit_breaker.svg" />
<text x="-598.0" y="650" font-size="12" fill="black" text-anchor="middle" dominant-baseline="central">zek3001_V (2p, 16A)</text>
<text x="-543" y="710" font-size="20" fill="black" text-anchor="middle" dominant-baseline="central">zek3001_V</text>
<text x="-543" y="680" font-size="20" fill="black" text-anchor="middle" dominant-baseline="central">16A</text>
<circle cx="-598" cy="560" r="8" fill="ping" />
<text x="-598" y="652" font-size="15" fill="black" text-anchor="middle" dominant-baseline="central">zek3001_V</text>
<circle cx="-598" cy="710" r="5" fill="red" />
<text x="-598" y="725" font-size="12" fill="black" valign="top" text-anchor="middle" dominant-baseline="central">IN</text>
<circle cx="-598" cy="660" r="5" fill="green" />
<text x="-598" y="675" font-size="12" fill="black" valign="top" text-anchor="middle" dominant-baseline="central">OUT</text>
<circle cx="-630" cy="710" r="5" fill="yellow" />
<text x="-630" y="725" font-size="12" fill="black" valign="top" text-anchor="middle" dominant-baseline="central">CUT</text>
<path d="M-598,660 L-598,645" stroke="black" stroke-width="2" />
<path d="M-533,505 L-548,505" stroke="black" stroke-width="2" />
<path d="M-598,645 L-598,505" stroke="black" stroke-width="2" />
<path d="M-598,505 L-548,505" stroke="black" stroke-width="2" />
<text x="-588" y="520" font-size="15" fill="blue" text-anchor="middle" dominant-baseline="central">1</text>
<rect x="-533" y="480" width="50" height="50" fill="pink" stroke="black" stroke-width="1" />
<text x="-508" y="472" font-size="15" fill="black" text-anchor="middle" dominant-baseline="central">droogkast3002_H</text>
<circle cx="-533" cy="505" r="5" fill="red" />
<text x="-533" y="520" font-size="12" fill="black" valign="top" text-anchor="middle" dominant-baseline="central">IN</text>
<circle cx="-483" cy="505" r="5" fill="green" />
<text x="-483" y="520" font-size="12" fill="black" valign="top" text-anchor="middle" dominant-baseline="central">OUT</text>
<image x="-443" y="660" width="50" height="50" xlink:href="symbolen/CircuitBreaker\circuit_breaker.svg" />
<text x="-418.0" y="650" font-size="12" fill="black" text-anchor="middle" dominant-baseline="central">zek3002_V (2p, 16A)</text>
<text x="-363" y="710" font-size="20" fill="black" text-anchor="middle" dominant-baseline="central">zek3002_V</text>
<text x="-363" y="680" font-size="20" fill="black" text-anchor="middle" dominant-baseline="central">16A</text>
<circle cx="-418" cy="560" r="8" fill="ping" />
<text x="-418" y="652" font-size="15" fill="black" text-anchor="middle" dominant-baseline="central">zek3002_V</text>
<circle cx="-418" cy="710" r="5" fill="red" />
<text x="-418" y="725" font-size="12" fill="black" valign="top" text-anchor="middle" dominant-baseline="central">IN</text>
<circle cx="-418" cy="660" r="5" fill="green" />
<text x="-418" y="675" font-size="12" fill="black" valign="top" text-anchor="middle" dominant-baseline="central">OUT</text>
<circle cx="-450" cy="710" r="5" fill="yellow" />
<text x="-450" y="725" font-size="12" fill="black" valign="top" text-anchor="middle" dominant-baseline="central">CUT</text>
<path d="M-418,660 L-418,645" stroke="black" stroke-width="2" />
<path d="M-353,505 L-368,505" stroke="black" stroke-width="2" />
<path d="M-418,660 L-418,645" stroke="black" stroke-width="2" />
<path d="M-353,415 L-368,415" stroke="black" stroke-width="2" />
<path d="M-418,645 L-418,505" stroke="black" stroke-width="2" />
<path d="M-418,505 L-368,505" stroke="black" stroke-width="2" />
<text x="-408" y="520" font-size="15" fill="blue" text-anchor="middle" dominant-baseline="central">1</text>
<path d="M-418,645 L-418,415" stroke="black" stroke-width="2" />
<path d="M-418,415 L-368,415" stroke="black" stroke-width="2" />
<text x="-408" y="430" font-size="15" fill="blue" text-anchor="middle" dominant-baseline="central">2</text>
<rect x="-353" y="480" width="50" height="50" fill="pink" stroke="black" stroke-width="1" />
<text x="-328" y="472" font-size="15" fill="black" text-anchor="middle" dominant-baseline="central">microoven3002_H</text>
<circle cx="-353" cy="505" r="5" fill="red" />
<text x="-353" y="520" font-size="12" fill="black" valign="top" text-anchor="middle" dominant-baseline="central">IN</text>
<circle cx="-303" cy="505" r="5" fill="green" />
<text x="-303" y="520" font-size="12" fill="black" valign="top" text-anchor="middle" dominant-baseline="central">OUT</text>
<rect x="-353" y="390" width="50" height="50" fill="pink" stroke="black" stroke-width="1" />
<text x="-328" y="382" font-size="15" fill="black" text-anchor="middle" dominant-baseline="central">oven3002_H</text>
<circle cx="-353" cy="415" r="5" fill="red" />
<text x="-353" y="430" font-size="12" fill="black" valign="top" text-anchor="middle" dominant-baseline="central">IN</text>
<circle cx="-303" cy="415" r="5" fill="green" />
<text x="-303" y="430" font-size="12" fill="black" valign="top" text-anchor="middle" dominant-baseline="central">OUT</text>
<image x="-263" y="660" width="50" height="50" xlink:href="symbolen/CircuitBreaker\circuit_breaker.svg" />
<text x="-238.0" y="650" font-size="12" fill="black" text-anchor="middle" dominant-baseline="central">zek3003_V (2p, 16A)</text>
<text x="-183" y="710" font-size="20" fill="black" text-anchor="middle" dominant-baseline="central">zek3003_V</text>
<text x="-183" y="680" font-size="20" fill="black" text-anchor="middle" dominant-baseline="central">16A</text>
<circle cx="-238" cy="560" r="8" fill="ping" />
<text x="-238" y="652" font-size="15" fill="black" text-anchor="middle" dominant-baseline="central">zek3003_V</text>
<circle cx="-238" cy="710" r="5" fill="red" />
<text x="-238" y="725" font-size="12" fill="black" valign="top" text-anchor="middle" dominant-baseline="central">IN</text>
<circle cx="-238" cy="660" r="5" fill="green" />
<text x="-238" y="675" font-size="12" fill="black" valign="top" text-anchor="middle" dominant-baseline="central">OUT</text>
<circle cx="-270" cy="710" r="5" fill="yellow" />
<text x="-270" y="725" font-size="12" fill="black" valign="top" text-anchor="middle" dominant-baseline="central">CUT</text>
<path d="M-238,660 L-238,645" stroke="black" stroke-width="2" />
<path d="M-173,505 L-188,505" stroke="black" stroke-width="2" />
<path d="M-238,660 L-238,645" stroke="black" stroke-width="2" />
<path d="M-173,145 L-188,145" stroke="black" stroke-width="2" />
<path d="M-238,660 L-238,645" stroke="black" stroke-width="2" />
<path d="M-173,55 L-188,55" stroke="black" stroke-width="2" />
<path d="M-238,645 L-238,505" stroke="black" stroke-width="2" />
<path d="M-238,505 L-188,505" stroke="black" stroke-width="2" />
<text x="-228" y="520" font-size="15" fill="blue" text-anchor="middle" dominant-baseline="central">1</text>
<path d="M-238,645 L-238,145" stroke="black" stroke-width="2" />
<path d="M-238,145 L-188,145" stroke="black" stroke-width="2" />
<text x="-228" y="160" font-size="15" fill="blue" text-anchor="middle" dominant-baseline="central">2</text>
<path d="M-238,645 L-238,55" stroke="black" stroke-width="2" />
<path d="M-238,55 L-188,55" stroke="black" stroke-width="2" />
<text x="-228" y="70" font-size="15" fill="blue" text-anchor="middle" dominant-baseline="central">3</text>
<rect x="-173" y="480" width="50" height="50" fill="pink" stroke="black" stroke-width="1" />
<text x="-148" y="472" font-size="15" fill="black" text-anchor="middle" dominant-baseline="central">domo2_H</text>
<circle cx="-173" cy="505" r="5" fill="red" />
<text x="-173" y="520" font-size="12" fill="black" valign="top" text-anchor="middle" dominant-baseline="central">IN</text>
<circle cx="-123" cy="505" r="5" fill="green" />
<text x="-123" y="520" font-size="12" fill="black" valign="top" text-anchor="middle" dominant-baseline="central">OUT</text>
<path d="M-123,505 L-108,505" stroke="black" stroke-width="2" />
<path d="M-83,505 L-98,505" stroke="black" stroke-width="2" />
<path d="M-123,505 L-108,505" stroke="black" stroke-width="2" />
<path d="M-83,415 L-98,415" stroke="black" stroke-width="2" />
<path d="M-123,505 L-108,505" stroke="black" stroke-width="2" />
<path d="M-83,325 L-98,325" stroke="black" stroke-width="2" />
<path d="M-123,505 L-108,505" stroke="black" stroke-width="2" />
<path d="M-83,235 L-98,235" stroke="black" stroke-width="2" />
<path d="M-108,505 L-98,505" stroke="black" stroke-width="2" />
<path d="M-98,505 L-98,505" stroke="black" stroke-width="2" />
<path d="M-108,505 L-98,505" stroke="black" stroke-width="2" />
<path d="M-98,505 L-98,415" stroke="black" stroke-width="2" />
<path d="M-108,505 L-98,505" stroke="black" stroke-width="2" />
<path d="M-98,505 L-98,325" stroke="black" stroke-width="2" />
<path d="M-108,505 L-98,505" stroke="black" stroke-width="2" />
<path d="M-98,505 L-98,235" stroke="black" stroke-width="2" />
<rect x="-83" y="480" width="50" height="50" fill="pink" stroke="black" stroke-width="1" />
<text x="-58" y="472" font-size="15" fill="black" text-anchor="middle" dominant-baseline="central">Verlichting2_H</text>
<circle cx="-83" cy="505" r="5" fill="red" />
<text x="-83" y="520" font-size="12" fill="black" valign="top" text-anchor="middle" dominant-baseline="central">IN</text>
<circle cx="-33" cy="505" r="5" fill="green" />
<text x="-33" y="520" font-size="12" fill="black" valign="top" text-anchor="middle" dominant-baseline="central">OUT</text>
<rect x="-83" y="390" width="50" height="50" fill="pink" stroke="black" stroke-width="1" />
<text x="-58" y="382" font-size="15" fill="black" text-anchor="middle" dominant-baseline="central">Verlichting3_H</text>
<circle cx="-83" cy="415" r="5" fill="red" />
<text x="-83" y="430" font-size="12" fill="black" valign="top" text-anchor="middle" dominant-baseline="central">IN</text>
<circle cx="-33" cy="415" r="5" fill="green" />
<text x="-33" y="430" font-size="12" fill="black" valign="top" text-anchor="middle" dominant-baseline="central">OUT</text>
<rect x="-83" y="300" width="50" height="50" fill="pink" stroke="black" stroke-width="1" />
<text x="-58" y="292" font-size="15" fill="black" text-anchor="middle" dominant-baseline="central">Verlichting4_H</text>
<circle cx="-83" cy="325" r="5" fill="red" />
<text x="-83" y="340" font-size="12" fill="black" valign="top" text-anchor="middle" dominant-baseline="central">IN</text>
<circle cx="-33" cy="325" r="5" fill="green" />
<text x="-33" y="340" font-size="12" fill="black" valign="top" text-anchor="middle" dominant-baseline="central">OUT</text>
<rect x="-83" y="210" width="50" height="50" fill="pink" stroke="black" stroke-width="1" />
<text x="-58" y="202" font-size="15" fill="black" text-anchor="middle" dominant-baseline="central">Verlichting5_H</text>
<circle cx="-83" cy="235" r="5" fill="red" />
<text x="-83" y="250" font-size="12" fill="black" valign="top" text-anchor="middle" dominant-baseline="central">IN</text>
<circle cx="-33" cy="235" r="5" fill="green" />
<text x="-33" y="250" font-size="12" fill="black" valign="top" text-anchor="middle" dominant-baseline="central">OUT</text>
<rect x="-173" y="120" width="50" height="50" fill="pink" stroke="black" stroke-width="1" />
<text x="-148" y="112" font-size="15" fill="black" text-anchor="middle" dominant-baseline="central">Domomodule_H</text>
<circle cx="-173" cy="145" r="5" fill="red" />
<text x="-173" y="160" font-size="12" fill="black" valign="top" text-anchor="middle" dominant-baseline="central">IN</text>
<circle cx="-123" cy="145" r="5" fill="green" />
<text x="-123" y="160" font-size="12" fill="black" valign="top" text-anchor="middle" dominant-baseline="central">OUT</text>
<path d="M-123,145 L-108,145" stroke="black" stroke-width="2" />
<path d="M-83,145 L-98,145" stroke="black" stroke-width="2" />
<path d="M-108,145 L-98,145" stroke="black" stroke-width="2" />
<path d="M-98,145 L-98,145" stroke="black" stroke-width="2" />
<rect x="-83" y="120" width="50" height="50" fill="pink" stroke="black" stroke-width="1" />
<text x="-58" y="112" font-size="15" fill="black" text-anchor="middle" dominant-baseline="central">Verlichting_H</text>
<circle cx="-83" cy="145" r="5" fill="red" />
<text x="-83" y="160" font-size="12" fill="black" valign="top" text-anchor="middle" dominant-baseline="central">IN</text>
<circle cx="-33" cy="145" r="5" fill="green" />
<text x="-33" y="160" font-size="12" fill="black" valign="top" text-anchor="middle" dominant-baseline="central">OUT</text>
<rect x="-173" y="30" width="50" height="50" fill="pink" stroke="black" stroke-width="1" />
<text x="-148" y="22" font-size="15" fill="black" text-anchor="middle" dominant-baseline="central">tv_H</text>
<circle cx="-173" cy="55" r="5" fill="red" />
<text x="-173" y="70" font-size="12" fill="black" valign="top" text-anchor="middle" dominant-baseline="central">IN</text>
<circle cx="-123" cy="55" r="5" fill="green" />
<text x="-123" y="70" font-size="12" fill="black" valign="top" text-anchor="middle" dominant-baseline="central">OUT</text>
<image x="7" y="660" width="50" height="50" xlink:href="symbolen/CircuitBreaker\circuit_breaker.svg" />
<text x="32.0" y="650" font-size="12" fill="black" text-anchor="middle" dominant-baseline="central">zek3004verl_V (2p, 16A)</text>
<text x="87" y="710" font-size="20" fill="black" text-anchor="middle" dominant-baseline="central">zek3004verl_V</text>
<text x="87" y="680" font-size="20" fill="black" text-anchor="middle" dominant-baseline="central">16A</text>
<circle cx="32" cy="560" r="8" fill="ping" />
<text x="32" y="652" font-size="15" fill="black" text-anchor="middle" dominant-baseline="central">zek3004verl_V</text>
<circle cx="32" cy="710" r="5" fill="red" />
<text x="32" y="725" font-size="12" fill="black" valign="top" text-anchor="middle" dominant-baseline="central">IN</text>
<circle cx="32" cy="660" r="5" fill="green" />
<text x="32" y="675" font-size="12" fill="black" valign="top" text-anchor="middle" dominant-baseline="central">OUT</text>
<circle cx="0" cy="710" r="5" fill="yellow" />
<text x="0" y="725" font-size="12" fill="black" valign="top" text-anchor="middle" dominant-baseline="central">CUT</text>
<path d="M32,660 L32,645" stroke="black" stroke-width="2" />
<path d="M97,505 L82,505" stroke="black" stroke-width="2" />
<path d="M32,660 L32,645" stroke="black" stroke-width="2" />
<path d="M97,415 L82,415" stroke="black" stroke-width="2" />
<path d="M32,660 L32,645" stroke="black" stroke-width="2" />
<path d="M97,325 L82,325" stroke="black" stroke-width="2" />
<path d="M32,660 L32,645" stroke="black" stroke-width="2" />
<path d="M97,235 L82,235" stroke="black" stroke-width="2" />
<path d="M32,660 L32,645" stroke="black" stroke-width="2" />
<path d="M97,145 L82,145" stroke="black" stroke-width="2" />
<path d="M32,645 L32,505" stroke="black" stroke-width="2" />
<path d="M32,505 L82,505" stroke="black" stroke-width="2" />
<text x="42" y="520" font-size="15" fill="blue" text-anchor="middle" dominant-baseline="central">1</text>
<path d="M32,645 L32,415" stroke="black" stroke-width="2" />
<path d="M32,415 L82,415" stroke="black" stroke-width="2" />
<text x="42" y="430" font-size="15" fill="blue" text-anchor="middle" dominant-baseline="central">2</text>
<path d="M32,645 L32,325" stroke="black" stroke-width="2" />
<path d="M32,325 L82,325" stroke="black" stroke-width="2" />
<text x="42" y="340" font-size="15" fill="blue" text-anchor="middle" dominant-baseline="central">3</text>
<path d="M32,645 L32,235" stroke="black" stroke-width="2" />
<path d="M32,235 L82,235" stroke="black" stroke-width="2" />
<text x="42" y="250" font-size="15" fill="blue" text-anchor="middle" dominant-baseline="central">4</text>
<path d="M32,645 L32,145" stroke="black" stroke-width="2" />
<path d="M32,145 L82,145" stroke="black" stroke-width="2" />
<text x="42" y="160" font-size="15" fill="blue" text-anchor="middle" dominant-baseline="central">5</text>
<rect x="97" y="480" width="50" height="50" fill="pink" stroke="black" stroke-width="1" />
<text x="122" y="472" font-size="15" fill="black" text-anchor="middle" dominant-baseline="central">Verlicht1_H</text>
<circle cx="97" cy="505" r="5" fill="red" />
<text x="97" y="520" font-size="12" fill="black" valign="top" text-anchor="middle" dominant-baseline="central">IN</text>
<circle cx="147" cy="505" r="5" fill="green" />
<text x="147" y="520" font-size="12" fill="black" valign="top" text-anchor="middle" dominant-baseline="central">OUT</text>
<rect x="97" y="390" width="50" height="50" fill="pink" stroke="black" stroke-width="1" />
<text x="122" y="382" font-size="15" fill="black" text-anchor="middle" dominant-baseline="central">Verlicht2_H</text>
<circle cx="97" cy="415" r="5" fill="red" />
<text x="97" y="430" font-size="12" fill="black" valign="top" text-anchor="middle" dominant-baseline="central">IN</text>
<circle cx="147" cy="415" r="5" fill="green" />
<text x="147" y="430" font-size="12" fill="black" valign="top" text-anchor="middle" dominant-baseline="central">OUT</text>
<rect x="97" y="300" width="50" height="50" fill="pink" stroke="black" stroke-width="1" />
<text x="122" y="292" font-size="15" fill="black" text-anchor="middle" dominant-baseline="central">Verlicht3_H</text>
<circle cx="97" cy="325" r="5" fill="red" />
<text x="97" y="340" font-size="12" fill="black" valign="top" text-anchor="middle" dominant-baseline="central">IN</text>
<circle cx="147" cy="325" r="5" fill="green" />
<text x="147" y="340" font-size="12" fill="black" valign="top" text-anchor="middle" dominant-baseline="central">OUT</text>
<rect x="97" y="210" width="50" height="50" fill="pink" stroke="black" stroke-width="1" />
<text x="122" y="202" font-size="15" fill="black" text-anchor="middle" dominant-baseline="central">contaxop3004_H</text>
<circle cx="97" cy="235" r="5" fill="red" />
<text x="97" y="250" font-size="12" fill="black" valign="top" text-anchor="middle" dominant-baseline="central">IN</text>
<circle cx="147" cy="235" r="5" fill="green" />
<text x="147" y="250" font-size="12" fill="black" valign="top" text-anchor="middle" dominant-baseline="central">OUT</text>
<path d="M147,235 L162,235" stroke="black" stroke-width="2" />
<path d="M187,235 L172,235" stroke="black" stroke-width="2" />
<path d="M162,235 L172,235" stroke="black" stroke-width="2" />
<path d="M172,235 L172,235" stroke="black" stroke-width="2" />
<rect x="187" y="210" width="50" height="50" fill="pink" stroke="black" stroke-width="1" />
<text x="212" y="202" font-size="15" fill="black" text-anchor="middle" dominant-baseline="central">contaxopcontax_H</text>
<circle cx="187" cy="235" r="5" fill="red" />
<text x="187" y="250" font-size="12" fill="black" valign="top" text-anchor="middle" dominant-baseline="central">IN</text>
<circle cx="237" cy="235" r="5" fill="green" />
<text x="237" y="250" font-size="12" fill="black" valign="top" text-anchor="middle" dominant-baseline="central">OUT</text>
<path d="M237,235 L252,235" stroke="black" stroke-width="2" />
<path d="M277,235 L262,235" stroke="black" stroke-width="2" />
<path d="M252,235 L262,235" stroke="black" stroke-width="2" />
<path d="M262,235 L262,235" stroke="black" stroke-width="2" />
<rect x="277" y="210" width="50" height="50" fill="pink" stroke="black" stroke-width="1" />
<text x="302" y="202" font-size="15" fill="black" text-anchor="middle" dominant-baseline="central">faaropcontax_H</text>
<circle cx="277" cy="235" r="5" fill="red" />
<text x="277" y="250" font-size="12" fill="black" valign="top" text-anchor="middle" dominant-baseline="central">IN</text>
<circle cx="327" cy="235" r="5" fill="green" />
<text x="327" y="250" font-size="12" fill="black" valign="top" text-anchor="middle" dominant-baseline="central">OUT</text>
<rect x="97" y="120" width="50" height="50" fill="pink" stroke="black" stroke-width="1" />
<text x="122" y="112" font-size="15" fill="black" text-anchor="middle" dominant-baseline="central">lamp3004_H</text>
<circle cx="97" cy="145" r="5" fill="red" />
<text x="97" y="160" font-size="12" fill="black" valign="top" text-anchor="middle" dominant-baseline="central">IN</text>
<circle cx="147" cy="145" r="5" fill="green" />
<text x="147" y="160" font-size="12" fill="black" valign="top" text-anchor="middle" dominant-baseline="central">OUT</text>
</svg>