<?xml version="1.0" encoding="UTF-8"?>
<svg xmlns="http://www.w3.org/2000/svg" xmlns:xlink="http://www.w3.org/1999/xlink"
     width="90" height="960" viewBox="0 0 90 960">
<defs>
</defs>
<rect x="-353" y="30" width="50" height="50" fill="pink" stroke="black" stroke-width="1" />
<text x="-328" y="22" font-size="15" fill="black" text-anchor="middle" dominant-baseline="central">kopkwhmeter_H</text>
<circle cx="-353" cy="55" r="5" fill="red" />
<text x="-353" y="70" font-size="12" fill="black" valign="top" text-anchor="middle" dominant-baseline="central">IN</text>
<circle cx="-303" cy="55" r="5" fill="green" />
<text x="-303" y="70" font-size="12" fill="black" valign="top" text-anchor="middle" dominant-baseline="central">OUT</text>
<path d="M-303,55 L-288,55" stroke="black" stroke-width="2" />
<path d="M-263,55 L-278,55" stroke="black" stroke-width="2" />
<path d="M-288,55 L-278,55" stroke="black" stroke-width="2" />
<path d="M-278,55 L-278,55" stroke="black" stroke-width="2" />
<rect x="-263" y="30" width="50" height="50" fill="pink" stroke="black" stroke-width="1" />
<text x="-238" y="22" font-size="15" fill="black" text-anchor="middle" dominant-baseline="central">Teller_H</text>
<circle cx="-263" cy="55" r="5" fill="red" />
<text x="-263" y="70" font-size="12" fill="black" valign="top" text-anchor="middle" dominant-baseline="central">IN</text>
<circle cx="-213" cy="55" r="5" fill="green" />
<text x="-213" y="70" font-size="12" fill="black" valign="top" text-anchor="middle" dominant-baseline="central">OUT</text>
<path d="M-213,55 L-198,55" stroke="black" stroke-width="2" />
<path d="M-148,170 L-148,185" stroke="black" stroke-width="2" />
<path d="M-213,55 L-198,55" stroke="black" stroke-width="2" />
<path d="M32,170 L32,185" stroke="black" stroke-width="2" />
<path d="M-213,55 L-198,55" stroke="black" stroke-width="2" />
<path d="M122,170 L122,185" stroke="black" stroke-width="2" />
<path d="M-198,55 L-148,55" stroke="black" stroke-width="2" />
<path d="M-148,55 L-148,185" stroke="black" stroke-width="2" />
<path d="M-198,55 L32,55" stroke="black" stroke-width="2" />
<path d="M32,55 L32,185" stroke="black" stroke-width="2" />
<path d="M-198,55 L122,55" stroke="black" stroke-width="2" />
<path d="M122,55 L122,185" stroke="black" stroke-width="2" />
<rect x="-173" y="120" width="50" height="50" fill="pink" stroke="black" stroke-width="1" />
<text x="-148" y="112" font-size="15" fill="black" text-anchor="middle" dominant-baseline="central">Diff3_V</text>
<circle cx="-148" cy="170" r="5" fill="red" />
<text x="-148" y="185" font-size="12" fill="black" valign="top" text-anchor="middle" dominant-baseline="central">IN</text>
<circle cx="-148" cy="120" r="5" fill="green" />
<text x="-148" y="135" font-size="12" fill="black" valign="top" text-anchor="middle" dominant-baseline="central">OUT</text>
<circle cx="-180" cy="170" r="5" fill="yellow" />
<text x="-180" y="185" font-size="12" fill="black" valign="top" text-anchor="middle" dominant-baseline="central">CUT</text>
<path d="M-148,120 L-148,105" stroke="black" stroke-width="2" />
<path d="M-83,235 L-98,235" stroke="black" stroke-width="2" />
<path d="M-148,105 L-148,235" stroke="black" stroke-width="2" />
<path d="M-148,235 L-98,235" stroke="black" stroke-width="2" />
<text x="-138" y="250" font-size="15" fill="blue" text-anchor="middle" dominant-baseline="central">1</text>
<rect x="-83" y="210" width="50" height="50" fill="pink" stroke="black" stroke-width="1" />
<text x="-58" y="202" font-size="15" fill="black" text-anchor="middle" dominant-baseline="central">zonnepaneelopdif3_H</text>
<circle cx="-83" cy="235" r="5" fill="red" />
<text x="-83" y="250" font-size="12" fill="black" valign="top" text-anchor="middle" dominant-baseline="central">IN</text>
<circle cx="-33" cy="235" r="5" fill="green" />
<text x="-33" y="250" font-size="12" fill="black" valign="top" text-anchor="middle" dominant-baseline="central">OUT</text>
<rect x="7" y="120" width="50" height="50" fill="pink" stroke="black" stroke-width="1" />
<text x="32" y="112" font-size="15" fill="black" text-anchor="middle" dominant-baseline="central">Diff30_V</text>
<circle cx="32" cy="170" r="5" fill="red" />
<text x="32" y="185" font-size="12" fill="black" valign="top" text-anchor="middle" dominant-baseline="central">IN</text>
<circle cx="32" cy="120" r="5" fill="green" />
<text x="32" y="135" font-size="12" fill="black" valign="top" text-anchor="middle" dominant-baseline="central">OUT</text>
<circle cx="0" cy="170" r="5" fill="yellow" />
<text x="0" y="185" font-size="12" fill="black" valign="top" text-anchor="middle" dominant-baseline="central">CUT</text>
<rect x="97" y="120" width="50" height="50" fill="pink" stroke="black" stroke-width="1" />
<text x="122" y="112" font-size="15" fill="black" text-anchor="middle" dominant-baseline="central">Diff300_V</text>
<circle cx="122" cy="170" r="5" fill="red" />
<text x="122" y="185" font-size="12" fill="black" valign="top" text-anchor="middle" dominant-baseline="central">IN</text>
<circle cx="122" cy="120" r="5" fill="green" />
<text x="122" y="135" font-size="12" fill="black" valign="top" text-anchor="middle" dominant-baseline="central">OUT</text>
<circle cx="90" cy="170" r="5" fill="yellow" />
<text x="90" y="185" font-size="12" fill="black" valign="top" text-anchor="middle" dominant-baseline="central">CUT</text>
<path d="M122,120 L122,105" stroke="black" stroke-width="2" />
<path d="M122,260 L122,275" stroke="black" stroke-width="2" />
<path d="M122,120 L122,105" stroke="black" stroke-width="2" />
<path d="M392,260 L392,275" stroke="black" stroke-width="2" />
<path d="M122,120 L122,105" stroke="black" stroke-width="2" />
<path d="M572,260 L572,275" stroke="black" stroke-width="2" />
<path d="M122,120 L122,105" stroke="black" stroke-width="2" />
<path d="M752,260 L752,275" stroke="black" stroke-width="2" />
<path d="M122,120 L122,105" stroke="black" stroke-width="2" />
<path d="M1022,260 L1022,275" stroke="black" stroke-width="2" />
<path d="M122,105 L122,275" stroke="black" stroke-width="2" />
<path d="M122,275 L122,275" stroke="black" stroke-width="2" />
<path d="M122,105 L122,275" stroke="black" stroke-width="2" />
<path d="M122,275 L392,275" stroke="black" stroke-width="2" />
<path d="M122,105 L122,275" stroke="black" stroke-width="2" />
<path d="M122,275 L572,275" stroke="black" stroke-width="2" />
<path d="M122,105 L122,275" stroke="black" stroke-width="2" />
<path d="M122,275 L752,275" stroke="black" stroke-width="2" />
<path d="M122,105 L122,275" stroke="black" stroke-width="2" />
<path d="M122,275 L1022,275" stroke="black" stroke-width="2" />
<rect x="97" y="210" width="50" height="50" fill="pink" stroke="black" stroke-width="1" />
<text x="122" y="202" font-size="15" fill="black" text-anchor="middle" dominant-baseline="central">Diff100_V</text>
<circle cx="122" cy="260" r="5" fill="red" />
<text x="122" y="275" font-size="12" fill="black" valign="top" text-anchor="middle" dominant-baseline="central">IN</text>
<circle cx="122" cy="210" r="5" fill="green" />
<text x="122" y="225" font-size="12" fill="black" valign="top" text-anchor="middle" dominant-baseline="central">OUT</text>
<circle cx="90" cy="260" r="5" fill="yellow" />
<text x="90" y="275" font-size="12" fill="black" valign="top" text-anchor="middle" dominant-baseline="central">CUT</text>
<path d="M122,210 L122,195" stroke="black" stroke-width="2" />
<path d="M122,350 L122,365" stroke="black" stroke-width="2" />
<path d="M122,195 L122,365" stroke="black" stroke-width="2" />
<path d="M122,365 L122,365" stroke="black" stroke-width="2" />
<image x="97" y="300" width="50" height="50" xlink:href="symbolen/CircuitBreaker\circuit_breaker.svg" />
<text x="122.0" y="290" font-size="12" fill="black" text-anchor="middle" dominant-baseline="central">zek1001_V (2p, 16A)</text>
<text x="177" y="350" font-size="20" fill="black" text-anchor="middle" dominant-baseline="central">zek1001_V</text>
<text x="177" y="320" font-size="20" fill="black" text-anchor="middle" dominant-baseline="central">16A</text>
<circle cx="122" cy="200" r="8" fill="ping" />
<text x="122" y="292" font-size="15" fill="black" text-anchor="middle" dominant-baseline="central">zek1001_V</text>
<circle cx="122" cy="350" r="5" fill="red" />
<text x="122" y="365" font-size="12" fill="black" valign="top" text-anchor="middle" dominant-baseline="central">IN</text>
<circle cx="122" cy="300" r="5" fill="green" />
<text x="122" y="315" font-size="12" fill="black" valign="top" text-anchor="middle" dominant-baseline="central">OUT</text>
<circle cx="90" cy="350" r="5" fill="yellow" />
<text x="90" y="365" font-size="12" fill="black" valign="top" text-anchor="middle" dominant-baseline="central">CUT</text>
<path d="M122,300 L122,285" stroke="black" stroke-width="2" />
<path d="M187,505 L172,505" stroke="black" stroke-width="2" />
<path d="M122,300 L122,285" stroke="black" stroke-width="2" />
<path d="M187,595 L172,595" stroke="black" stroke-width="2" />
<path d="M122,300 L122,285" stroke="black" stroke-width="2" />
<path d="M277,505 L262,505" stroke="black" stroke-width="2" />
<path d="M122,300 L122,285" stroke="black" stroke-width="2" />
<path d="M187,775 L172,775" stroke="black" stroke-width="2" />
<path d="M122,285 L122,505" stroke="black" stroke-width="2" />
<path d="M122,505 L172,505" stroke="black" stroke-width="2" />
<text x="132" y="520" font-size="15" fill="blue" text-anchor="middle" dominant-baseline="central">1</text>
<path d="M122,285 L122,595" stroke="black" stroke-width="2" />
<path d="M122,595 L172,595" stroke="black" stroke-width="2" />
<text x="132" y="610" font-size="15" fill="blue" text-anchor="middle" dominant-baseline="central">2</text>
<path d="M122,285 L122,505" stroke="black" stroke-width="2" />
<path d="M122,505 L262,505" stroke="black" stroke-width="2" />
<text x="222" y="520" font-size="15" fill="blue" text-anchor="middle" dominant-baseline="central">3</text>
<path d="M122,285 L122,775" stroke="black" stroke-width="2" />
<path d="M122,775 L172,775" stroke="black" stroke-width="2" />
<text x="132" y="790" font-size="15" fill="blue" text-anchor="middle" dominant-baseline="central">4</text>
<rect x="187" y="480" width="50" height="50" fill="pink" stroke="black" stroke-width="1" />
<text x="212" y="472" font-size="15" fill="black" text-anchor="middle" dominant-baseline="central">Verlichting6_H</text>
<circle cx="187" cy="505" r="5" fill="red" />
<text x="187" y="520" font-size="12" fill="black" valign="top" text-anchor="middle" dominant-baseline="central">IN</text>
<circle cx="237" cy="505" r="5" fill="green" />
<text x="237" y="520" font-size="12" fill="black" valign="top" text-anchor="middle" dominant-baseline="central">OUT</text>
<rect x="187" y="570" width="50" height="50" fill="pink" stroke="black" stroke-width="1" />
<text x="212" y="562" font-size="15" fill="black" text-anchor="middle" dominant-baseline="central">vaatwas301_H</text>
<circle cx="187" cy="595" r="5" fill="red" />
<text x="187" y="610" font-size="12" fill="black" valign="top" text-anchor="middle" dominant-baseline="central">IN</text>
<circle cx="237" cy="595" r="5" fill="green" />
<text x="237" y="610" font-size="12" fill="black" valign="top" text-anchor="middle" dominant-baseline="central">OUT</text>
<image x="277" y="480" width="50" height="50" xlink:href="symbolen/Prieze\prieze_hydro_false_kinder_true_aarding_true_1.svg" />
<text x="302.0" y="505.0" font-size="12" fill="red" text-anchor="middle" dominant-baseline="central">prieze</text>
<text x="302" y="472" font-size="15" fill="black" text-anchor="middle" dominant-baseline="central">prieze</text>
<circle cx="277" cy="505" r="5" fill="red" />
<text x="277" y="520" font-size="12" fill="black" valign="top" text-anchor="middle" dominant-baseline="central">IN</text>
<circle cx="327" cy="505" r="5" fill="green" />
<text x="327" y="520" font-size="12" fill="black" valign="top" text-anchor="middle" dominant-baseline="central">OUT</text>
<image x="187" y="750" width="50" height="50" xlink:href="symbolen/Prieze\prieze_hydro_false_kinder_true_aarding_true_2.svg" />
<text x="212.0" y="775.0" font-size="12" fill="red" text-anchor="middle" dominant-baseline="central">prieze</text>
<text x="212" y="742" font-size="15" fill="black" text-anchor="middle" dominant-baseline="central">prieze</text>
<circle cx="187" cy="775" r="5" fill="red" />
<text x="187" y="790" font-size="12" fill="black" valign="top" text-anchor="middle" dominant-baseline="central">IN</text>
<circle cx="237" cy="775" r="5" fill="green" />
<text x="237" y="790" font-size="12" fill="black" valign="top" text-anchor="middle" dominant-baseline="central">OUT</text>
<image x="367" y="210" width="50" height="50" xlink:href="symbolen/CircuitBreaker\circuit_breaker.svg" />
<text x="392.0" y="200" font-size="12" fill="black" text-anchor="middle" dominant-baseline="central">zek3001_V (2p, 16A)</text>
<text x="447" y="260" font-size="20" fill="black" text-anchor="middle" dominant-baseline="central">zek3001_V</text>
<text x="447" y="230" font-size="20" fill="black" text-anchor="middle" dominant-baseline="central">16A</text>
<circle cx="392" cy="110" r="8" fill="ping" />
<text x="392" y="202" font-size="15" fill="black" text-anchor="middle" dominant-baseline="central">zek3001_V</text>
<circle cx="392" cy="260" r="5" fill="red" />
<text x="392" y="275" font-size="12" fill="black" valign="top" text-anchor="middle" dominant-baseline="central">IN</text>
<circle cx="392" cy="210" r="5" fill="green" />
<text x="392" y="225" font-size="12" fill="black" valign="top" text-anchor="middle" dominant-baseline="central">OUT</text>
<circle cx="360" cy="260" r="5" fill="yellow" />
<text x="360" y="275" font-size="12" fill="black" valign="top" text-anchor="middle" dominant-baseline="central">CUT</text>
<path d="M392,210 L392,195" stroke="black" stroke-width="2" />
<path d="M457,415 L442,415" stroke="black" stroke-width="2" />
<path d="M392,195 L392,415" stroke="black" stroke-width="2" />
<path d="M392,415 L442,415" stroke="black" stroke-width="2" />
<text x="402" y="430" font-size="15" fill="blue" text-anchor="middle" dominant-baseline="central">1</text>
<rect x="457" y="390" width="50" height="50" fill="pink" stroke="black" stroke-width="1" />
<text x="482" y="382" font-size="15" fill="black" text-anchor="middle" dominant-baseline="central">droogkast3002_H</text>
<circle cx="457" cy="415" r="5" fill="red" />
<text x="457" y="430" font-size="12" fill="black" valign="top" text-anchor="middle" dominant-baseline="central">IN</text>
<circle cx="507" cy="415" r="5" fill="green" />
<text x="507" y="430" font-size="12" fill="black" valign="top" text-anchor="middle" dominant-baseline="central">OUT</text>
<image x="547" y="210" width="50" height="50" xlink:href="symbolen/CircuitBreaker\circuit_breaker.svg" />
<text x="572.0" y="200" font-size="12" fill="black" text-anchor="middle" dominant-baseline="central">zek3002_V (2p, 16A)</text>
<text x="627" y="260" font-size="20" fill="black" text-anchor="middle" dominant-baseline="central">zek3002_V</text>
<text x="627" y="230" font-size="20" fill="black" text-anchor="middle" dominant-baseline="central">16A</text>
<circle cx="572" cy="110" r="8" fill="ping" />
<text x="572" y="202" font-size="15" fill="black" text-anchor="middle" dominant-baseline="central">zek3002_V</text>
<circle cx="572" cy="260" r="5" fill="red" />
<text x="572" y="275" font-size="12" fill="black" valign="top" text-anchor="middle" dominant-baseline="central">IN</text>
<circle cx="572" cy="210" r="5" fill="green" />
<text x="572" y="225" font-size="12" fill="black" valign="top" text-anchor="middle" dominant-baseline="central">OUT</text>
<circle cx="540" cy="260" r="5" fill="yellow" />
<text x="540" y="275" font-size="12" fill="black" valign="top" text-anchor="middle" dominant-baseline="central">CUT</text>
<path d="M572,210 L572,195" stroke="black" stroke-width="2" />
<path d="M637,415 L622,415" stroke="black" stroke-width="2" />
<path d="M572,210 L572,195" stroke="black" stroke-width="2" />
<path d="M637,505 L622,505" stroke="black" stroke-width="2" />
<path d="M572,195 L572,415" stroke="black" stroke-width="2" />
<path d="M572,415 L622,415" stroke="black" stroke-width="2" />
<text x="582" y="430" font-size="15" fill="blue" text-anchor="middle" dominant-baseline="central">1</text>
<path d="M572,195 L572,505" stroke="black" stroke-width="2" />
<path d="M572,505 L622,505" stroke="black" stroke-width="2" />
<text x="582" y="520" font-size="15" fill="blue" text-anchor="middle" dominant-baseline="central">2</text>
<rect x="637" y="390" width="50" height="50" fill="pink" stroke="black" stroke-width="1" />
<text x="662" y="382" font-size="15" fill="black" text-anchor="middle" dominant-baseline="central">microoven3002_H</text>
<circle cx="637" cy="415" r="5" fill="red" />
<text x="637" y="430" font-size="12" fill="black" valign="top" text-anchor="middle" dominant-baseline="central">IN</text>
<circle cx="687" cy="415" r="5" fill="green" />
<text x="687" y="430" font-size="12" fill="black" valign="top" text-anchor="middle" dominant-baseline="central">OUT</text>
<rect x="637" y="480" width="50" height="50" fill="pink" stroke="black" stroke-width="1" />
<text x="662" y="472" font-size="15" fill="black" text-anchor="middle" dominant-baseline="central">oven3002_H</text>
<circle cx="637" cy="505" r="5" fill="red" />
<text x="637" y="520" font-size="12" fill="black" valign="top" text-anchor="middle" dominant-baseline="central">IN</text>
<circle cx="687" cy="505" r="5" fill="green" />
<text x="687" y="520" font-size="12" fill="black" valign="top" text-anchor="middle" dominant-baseline="central">OUT</text>
<image x="727" y="210" width="50" height="50" xlink:href="symbolen/CircuitBreaker\circuit_breaker.svg" />
<text x="752.0" y="200" font-size="12" fill="black" text-anchor="middle" dominant-baseline="central">zek3003_V (2p, 16A)</text>
<text x="807" y="260" font-size="20" fill="black" text-anchor="middle" dominant-baseline="central">zek3003_V</text>
<text x="807" y="230" font-size="20" fill="black" text-anchor="middle" dominant-baseline="central">16A</text>
<circle cx="752" cy="110" r="8" fill="ping" />
<text x="752" y="202" font-size="15" fill="black" text-anchor="middle" dominant-baseline="central">zek3003_V</text>
<circle cx="752" cy="260" r="5" fill="red" />
<text x="752" y="275" font-size="12" fill="black" valign="top" text-anchor="middle" dominant-baseline="central">IN</text>
<circle cx="752" cy="210" r="5" fill="green" />
<text x="752" y="225" font-size="12" fill="black" valign="top" text-anchor="middle" dominant-baseline="central">OUT</text>
<circle cx="720" cy="260" r="5" fill="yellow" />
<text x="720" y="275" font-size="12" fill="black" valign="top" text-anchor="middle" dominant-baseline="central">CUT</text>
<path d="M752,210 L752,195" stroke="black" stroke-width="2" />
<path d="M817,415 L802,415" stroke="black" stroke-width="2" />
<path d="M752,210 L752,195" stroke="black" stroke-width="2" />
<path d="M817,775 L802,775" stroke="black" stroke-width="2" />
<path d="M752,210 L752,195" stroke="black" stroke-width="2" />
<path d="M817,865 L802,865" stroke="black" stroke-width="2" />
<path d="M752,195 L752,415" stroke="black" stroke-width="2" />
<path d="M752,415 L802,415" stroke="black" stroke-width="2" />
<text x="762" y="430" font-size="15" fill="blue" text-anchor="middle" dominant-baseline="central">1</text>
<path d="M752,195 L752,775" stroke="black" stroke-width="2" />
<path d="M752,775 L802,775" stroke="black" stroke-width="2" />
<text x="762" y="790" font-size="15" fill="blue" text-anchor="middle" dominant-baseline="central">2</text>
<path d="M752,195 L752,865" stroke="black" stroke-width="2" />
<path d="M752,865 L802,865" stroke="black" stroke-width="2" />
<text x="762" y="880" font-size="15" fill="blue" text-anchor="middle" dominant-baseline="central">3</text>
<rect x="817" y="390" width="50" height="50" fill="pink" stroke="black" stroke-width="1" />
<text x="842" y="382" font-size="15" fill="black" text-anchor="middle" dominant-baseline="central">domo2_H</text>
<circle cx="817" cy="415" r="5" fill="red" />
<text x="817" y="430" font-size="12" fill="black" valign="top" text-anchor="middle" dominant-baseline="central">IN</text>
<circle cx="867" cy="415" r="5" fill="green" />
<text x="867" y="430" font-size="12" fill="black" valign="top" text-anchor="middle" dominant-baseline="central">OUT</text>
<path d="M867,415 L882,415" stroke="black" stroke-width="2" />
<path d="M907,415 L892,415" stroke="black" stroke-width="2" />
<path d="M867,415 L882,415" stroke="black" stroke-width="2" />
<path d="M907,505 L892,505" stroke="black" stroke-width="2" />
<path d="M867,415 L882,415" stroke="black" stroke-width="2" />
<path d="M907,595 L892,595" stroke="black" stroke-width="2" />
<path d="M867,415 L882,415" stroke="black" stroke-width="2" />
<path d="M907,685 L892,685" stroke="black" stroke-width="2" />
<path d="M882,415 L892,415" stroke="black" stroke-width="2" />
<path d="M892,415 L892,415" stroke="black" stroke-width="2" />
<path d="M882,415 L892,415" stroke="black" stroke-width="2" />
<path d="M892,415 L892,505" stroke="black" stroke-width="2" />
<path d="M882,415 L892,415" stroke="black" stroke-width="2" />
<path d="M892,415 L892,595" stroke="black" stroke-width="2" />
<path d="M882,415 L892,415" stroke="black" stroke-width="2" />
<path d="M892,415 L892,685" stroke="black" stroke-width="2" />
<rect x="907" y="390" width="50" height="50" fill="pink" stroke="black" stroke-width="1" />
<text x="932" y="382" font-size="15" fill="black" text-anchor="middle" dominant-baseline="central">Verlichting2_H</text>
<circle cx="907" cy="415" r="5" fill="red" />
<text x="907" y="430" font-size="12" fill="black" valign="top" text-anchor="middle" dominant-baseline="central">IN</text>
<circle cx="957" cy="415" r="5" fill="green" />
<text x="957" y="430" font-size="12" fill="black" valign="top" text-anchor="middle" dominant-baseline="central">OUT</text>
<rect x="907" y="480" width="50" height="50" fill="pink" stroke="black" stroke-width="1" />
<text x="932" y="472" font-size="15" fill="black" text-anchor="middle" dominant-baseline="central">Verlichting3_H</text>
<circle cx="907" cy="505" r="5" fill="red" />
<text x="907" y="520" font-size="12" fill="black" valign="top" text-anchor="middle" dominant-baseline="central">IN</text>
<circle cx="957" cy="505" r="5" fill="green" />
<text x="957" y="520" font-size="12" fill="black" valign="top" text-anchor="middle" dominant-baseline="central">OUT</text>
<rect x="907" y="570" width="50" height="50" fill="pink" stroke="black" stroke-width="1" />
<text x="932" y="562" font-size="15" fill="black" text-anchor="middle" dominant-baseline="central">Verlichting4_H</text>
<circle cx="907" cy="595" r="5" fill="red" />
<text x="907" y="610" font-size="12" fill="black" valign="top" text-anchor="middle" dominant-baseline="central">IN</text>
<circle cx="957" cy="595" r="5" fill="green" />
<text x="957" y="610" font-size="12" fill="black" valign="top" text-anchor="middle" dominant-baseline="central">OUT</text>
<rect x="907" y="660" width="50" height="50" fill="pink" stroke="black" stroke-width="1" />
<text x="932" y="652" font-size="15" fill="black" text-anchor="middle" dominant-baseline="central">Verlichting5_H</text>
<circle cx="907" cy="685" r="5" fill="red" />
<text x="907" y="700" font-size="12" fill="black" valign="top" text-anchor="middle" dominant-baseline="central">IN</text>
<circle cx="957" cy="685" r="5" fill="green" />
<text x="957" y="700" font-size="12" fill="black" valign="top" text-anchor="middle" dominant-baseline="central">OUT</text>
<rect x="817" y="750" width="50" height="50" fill="pink" stroke="black" stroke-width="1" />
<text x="842" y="742" font-size="15" fill="black" text-anchor="middle" dominant-baseline="central">Domomodule_H</text>
<circle cx="817" cy="775" r="5" fill="red" />
<text x="817" y="790" font-size="12" fill="black" valign="top" text-anchor="middle" dominant-baseline="central">IN</text>
<circle cx="867" cy="775" r="5" fill="green" />
<text x="867" y="790" font-size="12" fill="black" valign="top" text-anchor="middle" dominant-baseline="central">OUT</text>
<path d="M867,775 L882,775" stroke="black" stroke-width="2" />
<path d="M907,775 L892,775" stroke="black" stroke-width="2" />
<path d="M882,775 L892,775" stroke="black" stroke-width="2" />
<path d="M892,775 L892,775" stroke="black" stroke-width="2" />
<rect x="907" y="750" width="50" height="50" fill="pink" stroke="black" stroke-width="1" />
<text x="932" y="742" font-size="15" fill="black" text-anchor="middle" dominant-baseline="central">Verlichting_H</text>
<circle cx="907" cy="775" r="5" fill="red" />
<text x="907" y="790" font-size="12" fill="black" valign="top" text-anchor="middle" dominant-baseline="central">IN</text>
<circle cx="957" cy="775" r="5" fill="green" />
<text x="957" y="790" font-size="12" fill="black" valign="top" text-anchor="middle" dominant-baseline="central">OUT</text>
<rect x="817" y="840" width="50" height="50" fill="pink" stroke="black" stroke-width="1" />
<text x="842" y="832" font-size="15" fill="black" text-anchor="middle" dominant-baseline="central">tv_H</text>
<circle cx="817" cy="865" r="5" fill="red" />
<text x="817" y="880" font-size="12" fill="black" valign="top" text-anchor="middle" dominant-baseline="central">IN</text>
<circle cx="867" cy="865" r="5" fill="green" />
<text x="867" y="880" font-size="12" fill="black" valign="top" text-anchor="middle" dominant-baseline="central">OUT</text>
<image x="997" y="210" width="50" height="50" xlink:href="symbolen/CircuitBreaker\circuit_breaker.svg" />
<text x="1022.0" y="200" font-size="12" fill="black" text-anchor="middle" dominant-baseline="central">zek3004verl_V (2p, 16A)</text>
<text x="1077" y="260" font-size="20" fill="black" text-anchor="middle" dominant-baseline="central">zek3004verl_V</text>
<text x="1077" y="230" font-size="20" fill="black" text-anchor="middle" dominant-baseline="central">16A</text>
<circle cx="1022" cy="110" r="8" fill="ping" />
<text x="1022" y="202" font-size="15" fill="black" text-anchor="middle" dominant-baseline="central">zek3004verl_V</text>
<circle cx="1022" cy="260" r="5" fill="red" />
<text x="1022" y="275" font-size="12" fill="black" valign="top" text-anchor="middle" dominant-baseline="central">IN</text>
<circle cx="1022" cy="210" r="5" fill="green" />
<text x="1022" y="225" font-size="12" fill="black" valign="top" text-anchor="middle" dominant-baseline="central">OUT</text>
<circle cx="990" cy="260" r="5" fill="yellow" />
<text x="990" y="275" font-size="12" fill="black" valign="top" text-anchor="middle" dominant-baseline="central">CUT</text>
<path d="M1022,210 L1022,195" stroke="black" stroke-width="2" />
<path d="M1087,415 L1072,415" stroke="black" stroke-width="2" />
<path d="M1022,210 L1022,195" stroke="black" stroke-width="2" />
<path d="M1087,505 L1072,505" stroke="black" stroke-width="2" />
<path d="M1022,210 L1022,195" stroke="black" stroke-width="2" />
<path d="M1087,595 L1072,595" stroke="black" stroke-width="2" />
<path d="M1022,210 L1022,195" stroke="black" stroke-width="2" />
<path d="M1087,685 L1072,685" stroke="black" stroke-width="2" />
<path d="M1022,210 L1022,195" stroke="black" stroke-width="2" />
<path d="M1087,775 L1072,775" stroke="black" stroke-width="2" />
<path d="M1022,195 L1022,415" stroke="black" stroke-width="2" />
<path d="M1022,415 L1072,415" stroke="black" stroke-width="2" />
<text x="1032" y="430" font-size="15" fill="blue" text-anchor="middle" dominant-baseline="central">1</text>
<path d="M1022,195 L1022,505" stroke="black" stroke-width="2" />
<path d="M1022,505 L1072,505" stroke="black" stroke-width="2" />
<text x="1032" y="520" font-size="15" fill="blue" text-anchor="middle" dominant-baseline="central">2</text>
<path d="M1022,195 L1022,595" stroke="black" stroke-width="2" />
<path d="M1022,595 L1072,595" stroke="black" stroke-width="2" />
<text x="1032" y="610" font-size="15" fill="blue" text-anchor="middle" dominant-baseline="central">3</text>
<path d="M1022,195 L1022,685" stroke="black" stroke-width="2" />
<path d="M1022,685 L1072,685" stroke="black" stroke-width="2" />
<text x="1032" y="700" font-size="15" fill="blue" text-anchor="middle" dominant-baseline="central">4</text>
<path d="M1022,195 L1022,775" stroke="black" stroke-width="2" />
<path d="M1022,775 L1072,775" stroke="black" stroke-width="2" />
<text x="1032" y="790" font-size="15" fill="blue" text-anchor="middle" dominant-baseline="central">5</text>
<rect x="1087" y="390" width="50" height="50" fill="pink" stroke="black" stroke-width="1" />
<text x="1112" y="382" font-size="15" fill="black" text-anchor="middle" dominant-baseline="central">Verlicht1_H</text>
<circle cx="1087" cy="415" r="5" fill="red" />
<text x="1087" y="430" font-size="12" fill="black" valign="top" text-anchor="middle" dominant-baseline="central">IN</text>
<circle cx="1137" cy="415" r="5" fill="green" />
<text x="1137" y="430" font-size="12" fill="black" valign="top" text-anchor="middle" dominant-baseline="central">OUT</text>
<rect x="1087" y="480" width="50" height="50" fill="pink" stroke="black" stroke-width="1" />
<text x="1112" y="472" font-size="15" fill="black" text-anchor="middle" dominant-baseline="central">Verlicht2_H</text>
<circle cx="1087" cy="505" r="5" fill="red" />
<text x="1087" y="520" font-size="12" fill="black" valign="top" text-anchor="middle" dominant-baseline="central">IN</text>
<circle cx="1137" cy="505" r="5" fill="green" />
<text x="1137" y="520" font-size="12" fill="black" valign="top" text-anchor="middle" dominant-baseline="central">OUT</text>
<rect x="1087" y="570" width="50" height="50" fill="pink" stroke="black" stroke-width="1" />
<text x="1112" y="562" font-size="15" fill="black" text-anchor="middle" dominant-baseline="central">Verlicht3_H</text>
<circle cx="1087" cy="595" r="5" fill="red" />
<text x="1087" y="610" font-size="12" fill="black" valign="top" text-anchor="middle" dominant-baseline="central">IN</text>
<circle cx="1137" cy="595" r="5" fill="green" />
<text x="1137" y="610" font-size="12" fill="black" valign="top" text-anchor="middle" dominant-baseline="central">OUT</text>
<rect x="1087" y="660" width="50" height="50" fill="pink" stroke="black" stroke-width="1" />
<text x="1112" y="652" font-size="15" fill="black" text-anchor="middle" dominant-baseline="central">contaxop3004_H</text>
<circle cx="1087" cy="685" r="5" fill="red" />
<text x="1087" y="700" font-size="12" fill="black" valign="top" text-anchor="middle" dominant-baseline="central">IN</text>
<circle cx="1137" cy="685" r="5" fill="green" />
<text x="1137" y="700" font-size="12" fill="black" valign="top" text-anchor="middle" dominant-baseline="central">OUT</text>
<path d="M1137,685 L1152,685" stroke="black" stroke-width="2" />
<path d="M1177,685 L1162,685" stroke="black" stroke-width="2" />
<path d="M1152,685 L1162,685" stroke="black" stroke-width="2" />
<path d="M1162,685 L1162,685" stroke="black" stroke-width="2" />
<rect x="1177" y="660" width="50" height="50" fill="pink" stroke="black" stroke-width="1" />
<text x="1202" y="652" font-size="15" fill="black" text-anchor="middle" dominant-baseline="central">contaxopcontax_H</text>
<circle cx="1177" cy="685" r="5" fill="red" />
<text x="1177" y="700" font-size="12" fill="black" valign="top" text-anchor="middle" dominant-baseline="central">IN</text>
<circle cx="1227" cy="685" r="5" fill="green" />
<text x="1227" y="700" font-size="12" fill="black" valign="top" text-anchor="middle" dominant-baseline="central">OUT</text>
<path d="M1227,685 L1242,685" stroke="black" stroke-width="2" />
<path d="M1267,685 L1252,685" stroke="black" stroke-width="2" />
<path d="M1242,685 L1252,685" stroke="black" stroke-width="2" />
<path d="M1252,685 L1252,685" stroke="black" stroke-width="2" />
<rect x="1267" y="660" width="50" height="50" fill="pink" stroke="black" stroke-width="1" />
<text x="1292" y="652" font-size="15" fill="black" text-anchor="middle" dominant-baseline="central">faaropcontax_H</text>
<circle cx="1267" cy="685" r="5" fill="red" />
<text x="1267" y="700" font-size="12" fill="black" valign="top" text-anchor="middle" dominant-baseline="central">IN</text>
<circle cx="1317" cy="685" r="5" fill="green" />
<text x="1317" y="700" font-size="12" fill="black" valign="top" text-anchor="middle" dominant-baseline="central">OUT</text>
<rect x="1087" y="750" width="50" height="50" fill="pink" stroke="black" stroke-width="1" />
<text x="1112" y="742" font-size="15" fill="black" text-anchor="middle" dominant-baseline="central">lamp3004_H</text>
<circle cx="1087" cy="775" r="5" fill="red" />
<text x="1087" y="790" font-size="12" fill="black" valign="top" text-anchor="middle" dominant-baseline="central">IN</text>
<circle cx="1137" cy="775" r="5" fill="green" />
<text x="1137" y="790" font-size="12" fill="black" valign="top" text-anchor="middle" dominant-baseline="central">OUT</text>
</svg>