<?xml version="1.0" encoding="UTF-8"?>
<svg xmlns="http://www.w3.org/2000/svg" xmlns:xlink="http://www.w3.org/1999/xlink"
     width="180" height="960" viewBox="0 0 180 960">
<defs>
</defs>
<rect x="-623" y="30" width="50" height="50" fill="pink" stroke="black" stroke-width="1" />
<text x="-598" y="22" font-size="15" fill="black" text-anchor="middle" dominant-baseline="central">kopkwhmeter_H</text>
<circle cx="-623" cy="55" r="5" fill="red" />
<text x="-623" y="70" font-size="12" fill="black" valign="top" text-anchor="middle" dominant-baseline="central">IN</text>
<circle cx="-573" cy="55" r="5" fill="green" />
<text x="-573" y="70" font-size="12" fill="black" valign="top" text-anchor="middle" dominant-baseline="central">OUT</text>
<path d="M-573,55 L-558,55" stroke="black" stroke-width="2" />
<path d="M-533,55 L-548,55" stroke="black" stroke-width="2" />
<path d="M-558,55 L-548,55" stroke="black" stroke-width="2" />
<path d="M-548,55 L-548,55" stroke="black" stroke-width="2" />
<rect x="-533" y="30" width="50" height="50" fill="pink" stroke="black" stroke-width="1" />
<text x="-508" y="22" font-size="15" fill="black" text-anchor="middle" dominant-baseline="central">Teller_H</text>
<circle cx="-533" cy="55" r="5" fill="red" />
<text x="-533" y="70" font-size="12" fill="black" valign="top" text-anchor="middle" dominant-baseline="central">IN</text>
<circle cx="-483" cy="55" r="5" fill="green" />
<text x="-483" y="70" font-size="12" fill="black" valign="top" text-anchor="middle" dominant-baseline="central">OUT</text>
<path d="M-483,55 L-468,55" stroke="black" stroke-width="2" />
<path d="M-418,170 L-418,185" stroke="black" stroke-width="2" />
<path d="M-483,55 L-468,55" stroke="black" stroke-width="2" />
<path d="M-238,170 L-238,185" stroke="black" stroke-width="2" />
<path d="M-483,55 L-468,55" stroke="black" stroke-width="2" />
<path d="M-148,170 L-148,185" stroke="black" stroke-width="2" />
<path d="M-468,55 L-418,55" stroke="black" stroke-width="2" />
<path d="M-418,55 L-418,185" stroke="black" stroke-width="2" />
<path d="M-468,55 L-238,55" stroke="black" stroke-width="2" />
<path d="M-238,55 L-238,185" stroke="black" stroke-width="2" />
<path d="M-468,55 L-148,55" stroke="black" stroke-width="2" />
<path d="M-148,55 L-148,185" stroke="black" stroke-width="2" />
<rect x="-443" y="120" width="50" height="50" fill="pink" stroke="black" stroke-width="1" />
<text x="-418" y="112" font-size="15" fill="black" text-anchor="middle" dominant-baseline="central">Diff3_V</text>
<circle cx="-418" cy="170" r="5" fill="red" />
<text x="-418" y="185" font-size="12" fill="black" valign="top" text-anchor="middle" dominant-baseline="central">IN</text>
<circle cx="-418" cy="120" r="5" fill="green" />
<text x="-418" y="135" font-size="12" fill="black" valign="top" text-anchor="middle" dominant-baseline="central">OUT</text>
<circle cx="-450" cy="170" r="5" fill="yellow" />
<text x="-450" y="185" font-size="12" fill="black" valign="top" text-anchor="middle" dominant-baseline="central">CUT</text>
<path d="M-418,120 L-418,105" stroke="black" stroke-width="2" />
<path d="M-353,235 L-368,235" stroke="black" stroke-width="2" />
<path d="M-418,105 L-418,235" stroke="black" stroke-width="2" />
<path d="M-418,235 L-368,235" stroke="black" stroke-width="2" />
<text x="-408" y="250" font-size="15" fill="blue" text-anchor="middle" dominant-baseline="central">1</text>
<rect x="-353" y="210" width="50" height="50" fill="pink" stroke="black" stroke-width="1" />
<text x="-328" y="202" font-size="15" fill="black" text-anchor="middle" dominant-baseline="central">zonnepaneelopdif3_H</text>
<circle cx="-353" cy="235" r="5" fill="red" />
<text x="-353" y="250" font-size="12" fill="black" valign="top" text-anchor="middle" dominant-baseline="central">IN</text>
<circle cx="-303" cy="235" r="5" fill="green" />
<text x="-303" y="250" font-size="12" fill="black" valign="top" text-anchor="middle" dominant-baseline="central">OUT</text>
<rect x="-263" y="120" width="50" height="50" fill="pink" stroke="black" stroke-width="1" />
<text x="-238" y="112" font-size="15" fill="black" text-anchor="middle" dominant-baseline="central">Diff30_V</text>
<circle cx="-238" cy="170" r="5" fill="red" />
<text x="-238" y="185" font-size="12" fill="black" valign="top" text-anchor="middle" dominant-baseline="central">IN</text>
<circle cx="-238" cy="120" r="5" fill="green" />
<text x="-238" y="135" font-size="12" fill="black" valign="top" text-anchor="middle" dominant-baseline="central">OUT</text>
<circle cx="-270" cy="170" r="5" fill="yellow" />
<text x="-270" y="185" font-size="12" fill="black" valign="top" text-anchor="middle" dominant-baseline="central">CUT</text>
<rect x="-173" y="120" width="50" height="50" fill="pink" stroke="black" stroke-width="1" />
<text x="-148" y="112" font-size="15" fill="black" text-anchor="middle" dominant-baseline="central">Diff300_V</text>
<circle cx="-148" cy="170" r="5" fill="red" />
<text x="-148" y="185" font-size="12" fill="black" valign="top" text-anchor="middle" dominant-baseline="central">IN</text>
<circle cx="-148" cy="120" r="5" fill="green" />
<text x="-148" y="135" font-size="12" fill="black" valign="top" text-anchor="middle" dominant-baseline="central">OUT</text>
<circle cx="-180" cy="170" r="5" fill="yellow" />
<text x="-180" y="185" font-size="12" fill="black" valign="top" text-anchor="middle" dominant-baseline="central">CUT</text>
<path d="M-148,120 L-148,105" stroke="black" stroke-width="2" />
<path d="M-148,260 L-148,275" stroke="black" stroke-width="2" />
<path d="M-148,120 L-148,105" stroke="black" stroke-width="2" />
<path d="M32,260 L32,275" stroke="black" stroke-width="2" />
<path d="M-148,120 L-148,105" stroke="black" stroke-width="2" />
<path d="M212,260 L212,275" stroke="black" stroke-width="2" />
<path d="M-148,120 L-148,105" stroke="black" stroke-width="2" />
<path d="M392,260 L392,275" stroke="black" stroke-width="2" />
<path d="M-148,120 L-148,105" stroke="black" stroke-width="2" />
<path d="M662,260 L662,275" stroke="black" stroke-width="2" />
<path d="M-148,105 L-148,275" stroke="black" stroke-width="2" />
<path d="M-148,275 L-148,275" stroke="black" stroke-width="2" />
<path d="M-148,105 L-148,275" stroke="black" stroke-width="2" />
<path d="M-148,275 L32,275" stroke="black" stroke-width="2" />
<path d="M-148,105 L-148,275" stroke="black" stroke-width="2" />
<path d="M-148,275 L212,275" stroke="black" stroke-width="2" />
<path d="M-148,105 L-148,275" stroke="black" stroke-width="2" />
<path d="M-148,275 L392,275" stroke="black" stroke-width="2" />
<path d="M-148,105 L-148,275" stroke="black" stroke-width="2" />
<path d="M-148,275 L662,275" stroke="black" stroke-width="2" />
<rect x="-173" y="210" width="50" height="50" fill="pink" stroke="black" stroke-width="1" />
<text x="-148" y="202" font-size="15" fill="black" text-anchor="middle" dominant-baseline="central">Diff100_V</text>
<circle cx="-148" cy="260" r="5" fill="red" />
<text x="-148" y="275" font-size="12" fill="black" valign="top" text-anchor="middle" dominant-baseline="central">IN</text>
<circle cx="-148" cy="210" r="5" fill="green" />
<text x="-148" y="225" font-size="12" fill="black" valign="top" text-anchor="middle" dominant-baseline="central">OUT</text>
<circle cx="-180" cy="260" r="5" fill="yellow" />
<text x="-180" y="275" font-size="12" fill="black" valign="top" text-anchor="middle" dominant-baseline="central">CUT</text>
<path d="M-148,210 L-148,195" stroke="black" stroke-width="2" />
<path d="M-148,350 L-148,365" stroke="black" stroke-width="2" />
<path d="M-148,195 L-148,365" stroke="black" stroke-width="2" />
<path d="M-148,365 L-148,365" stroke="black" stroke-width="2" />
<image x="-173" y="300" width="50" height="50" xlink:href="symbolen/CircuitBreaker\circuit_breaker.svg" />
<text x="-148.0" y="290" font-size="12" fill="black" text-anchor="middle" dominant-baseline="central">zek1001_V (2p, 16A)</text>
<text x="-93" y="350" font-size="20" fill="black" text-anchor="middle" dominant-baseline="central">zek1001_V</text>
<text x="-93" y="320" font-size="20" fill="black" text-anchor="middle" dominant-baseline="central">16A</text>
<circle cx="-148" cy="200" r="8" fill="ping" />
<text x="-148" y="292" font-size="15" fill="black" text-anchor="middle" dominant-baseline="central">zek1001_V</text>
<circle cx="-148" cy="350" r="5" fill="red" />
<text x="-148" y="365" font-size="12" fill="black" valign="top" text-anchor="middle" dominant-baseline="central">IN</text>
<circle cx="-148" cy="300" r="5" fill="green" />
<text x="-148" y="315" font-size="12" fill="black" valign="top" text-anchor="middle" dominant-baseline="central">OUT</text>
<circle cx="-180" cy="350" r="5" fill="yellow" />
<text x="-180" y="365" font-size="12" fill="black" valign="top" text-anchor="middle" dominant-baseline="central">CUT</text>
<path d="M-148,300 L-148,285" stroke="black" stroke-width="2" />
<path d="M-83,505 L-98,505" stroke="black" stroke-width="2" />
<path d="M-148,300 L-148,285" stroke="black" stroke-width="2" />
<path d="M-83,595 L-98,595" stroke="black" stroke-width="2" />
<path d="M-148,300 L-148,285" stroke="black" stroke-width="2" />
<path d="M7,685 L-8,685" stroke="black" stroke-width="2" />
<path d="M-148,300 L-148,285" stroke="black" stroke-width="2" />
<path d="M-83,775 L-98,775" stroke="black" stroke-width="2" />
<path d="M-148,285 L-148,505" stroke="black" stroke-width="2" />
<path d="M-148,505 L-98,505" stroke="black" stroke-width="2" />
<text x="-138" y="520" font-size="15" fill="blue" text-anchor="middle" dominant-baseline="central">1</text>
<path d="M-148,285 L-148,595" stroke="black" stroke-width="2" />
<path d="M-148,595 L-98,595" stroke="black" stroke-width="2" />
<text x="-138" y="610" font-size="15" fill="blue" text-anchor="middle" dominant-baseline="central">2</text>
<path d="M-148,285 L-148,685" stroke="black" stroke-width="2" />
<path d="M-148,685 L-8,685" stroke="black" stroke-width="2" />
<text x="-48" y="700" font-size="15" fill="blue" text-anchor="middle" dominant-baseline="central">3</text>
<path d="M-148,285 L-148,775" stroke="black" stroke-width="2" />
<path d="M-148,775 L-98,775" stroke="black" stroke-width="2" />
<text x="-138" y="790" font-size="15" fill="blue" text-anchor="middle" dominant-baseline="central">4</text>
<rect x="-83" y="480" width="50" height="50" fill="pink" stroke="black" stroke-width="1" />
<text x="-58" y="472" font-size="15" fill="black" text-anchor="middle" dominant-baseline="central">Verlichting6_H</text>
<circle cx="-83" cy="505" r="5" fill="red" />
<text x="-83" y="520" font-size="12" fill="black" valign="top" text-anchor="middle" dominant-baseline="central">IN</text>
<circle cx="-33" cy="505" r="5" fill="green" />
<text x="-33" y="520" font-size="12" fill="black" valign="top" text-anchor="middle" dominant-baseline="central">OUT</text>
<rect x="-83" y="570" width="50" height="50" fill="pink" stroke="black" stroke-width="1" />
<text x="-58" y="562" font-size="15" fill="black" text-anchor="middle" dominant-baseline="central">vaatwas301_H</text>
<circle cx="-83" cy="595" r="5" fill="red" />
<text x="-83" y="610" font-size="12" fill="black" valign="top" text-anchor="middle" dominant-baseline="central">IN</text>
<circle cx="-33" cy="595" r="5" fill="green" />
<text x="-33" y="610" font-size="12" fill="black" valign="top" text-anchor="middle" dominant-baseline="central">OUT</text>
<image x="7" y="660" width="50" height="50" xlink:href="symbolen/Prieze\prieze_hydro_false_kinder_true_aarding_true_1.svg" />
<text x="32.0" y="685.0" font-size="12" fill="red" text-anchor="middle" dominant-baseline="central">prieze</text>
<text x="32" y="652" font-size="15" fill="black" text-anchor="middle" dominant-baseline="central">prieze</text>
<circle cx="7" cy="685" r="5" fill="red" />
<text x="7" y="700" font-size="12" fill="black" valign="top" text-anchor="middle" dominant-baseline="central">IN</text>
<circle cx="57" cy="685" r="5" fill="green" />
<text x="57" y="700" font-size="12" fill="black" valign="top" text-anchor="middle" dominant-baseline="central">OUT</text>
<image x="-83" y="750" width="50" height="50" xlink:href="symbolen/Prieze\prieze_hydro_false_kinder_true_aarding_true_2.svg" />
<text x="-58.0" y="775.0" font-size="12" fill="red" text-anchor="middle" dominant-baseline="central">priezedub</text>
<text x="-58" y="742" font-size="15" fill="black" text-anchor="middle" dominant-baseline="central">priezedub</text>
<circle cx="-83" cy="775" r="5" fill="red" />
<text x="-83" y="790" font-size="12" fill="black" valign="top" text-anchor="middle" dominant-baseline="central">IN</text>
<circle cx="-33" cy="775" r="5" fill="green" />
<text x="-33" y="790" font-size="12" fill="black" valign="top" text-anchor="middle" dominant-baseline="central">OUT</text>
<image x="7" y="210" width="50" height="50" xlink:href="symbolen/CircuitBreaker\circuit_breaker.svg" />
<text x="32.0" y="200" font-size="12" fill="black" text-anchor="middle" dominant-baseline="central">zek3001_V (2p, 16A)</text>
<text x="87" y="260" font-size="20" fill="black" text-anchor="middle" dominant-baseline="central">zek3001_V</text>
<text x="87" y="230" font-size="20" fill="black" text-anchor="middle" dominant-baseline="central">16A</text>
<circle cx="32" cy="110" r="8" fill="ping" />
<text x="32" y="202" font-size="15" fill="black" text-anchor="middle" dominant-baseline="central">zek3001_V</text>
<circle cx="32" cy="260" r="5" fill="red" />
<text x="32" y="275" font-size="12" fill="black" valign="top" text-anchor="middle" dominant-baseline="central">IN</text>
<circle cx="32" cy="210" r="5" fill="green" />
<text x="32" y="225" font-size="12" fill="black" valign="top" text-anchor="middle" dominant-baseline="central">OUT</text>
<circle cx="0" cy="260" r="5" fill="yellow" />
<text x="0" y="275" font-size="12" fill="black" valign="top" text-anchor="middle" dominant-baseline="central">CUT</text>
<path d="M32,210 L32,195" stroke="black" stroke-width="2" />
<path d="M97,415 L82,415" stroke="black" stroke-width="2" />
<path d="M32,195 L32,415" stroke="black" stroke-width="2" />
<path d="M32,415 L82,415" stroke="black" stroke-width="2" />
<text x="42" y="430" font-size="15" fill="blue" text-anchor="middle" dominant-baseline="central">1</text>
<rect x="97" y="390" width="50" height="50" fill="pink" stroke="black" stroke-width="1" />
<text x="122" y="382" font-size="15" fill="black" text-anchor="middle" dominant-baseline="central">droogkast3002_H</text>
<circle cx="97" cy="415" r="5" fill="red" />
<text x="97" y="430" font-size="12" fill="black" valign="top" text-anchor="middle" dominant-baseline="central">IN</text>
<circle cx="147" cy="415" r="5" fill="green" />
<text x="147" y="430" font-size="12" fill="black" valign="top" text-anchor="middle" dominant-baseline="central">OUT</text>
<image x="187" y="210" width="50" height="50" xlink:href="symbolen/CircuitBreaker\circuit_breaker.svg" />
<text x="212.0" y="200" font-size="12" fill="black" text-anchor="middle" dominant-baseline="central">zek3002_V (2p, 16A)</text>
<text x="267" y="260" font-size="20" fill="black" text-anchor="middle" dominant-baseline="central">zek3002_V</text>
<text x="267" y="230" font-size="20" fill="black" text-anchor="middle" dominant-baseline="central">16A</text>
<circle cx="212" cy="110" r="8" fill="ping" />
<text x="212" y="202" font-size="15" fill="black" text-anchor="middle" dominant-baseline="central">zek3002_V</text>
<circle cx="212" cy="260" r="5" fill="red" />
<text x="212" y="275" font-size="12" fill="black" valign="top" text-anchor="middle" dominant-baseline="central">IN</text>
<circle cx="212" cy="210" r="5" fill="green" />
<text x="212" y="225" font-size="12" fill="black" valign="top" text-anchor="middle" dominant-baseline="central">OUT</text>
<circle cx="180" cy="260" r="5" fill="yellow" />
<text x="180" y="275" font-size="12" fill="black" valign="top" text-anchor="middle" dominant-baseline="central">CUT</text>
<path d="M212,210 L212,195" stroke="black" stroke-width="2" />
<path d="M277,415 L262,415" stroke="black" stroke-width="2" />
<path d="M212,210 L212,195" stroke="black" stroke-width="2" />
<path d="M277,505 L262,505" stroke="black" stroke-width="2" />
<path d="M212,195 L212,415" stroke="black" stroke-width="2" />
<path d="M212,415 L262,415" stroke="black" stroke-width="2" />
<text x="222" y="430" font-size="15" fill="blue" text-anchor="middle" dominant-baseline="central">1</text>
<path d="M212,195 L212,505" stroke="black" stroke-width="2" />
<path d="M212,505 L262,505" stroke="black" stroke-width="2" />
<text x="222" y="520" font-size="15" fill="blue" text-anchor="middle" dominant-baseline="central">2</text>
<rect x="277" y="390" width="50" height="50" fill="pink" stroke="black" stroke-width="1" />
<text x="302" y="382" font-size="15" fill="black" text-anchor="middle" dominant-baseline="central">microoven3002_H</text>
<circle cx="277" cy="415" r="5" fill="red" />
<text x="277" y="430" font-size="12" fill="black" valign="top" text-anchor="middle" dominant-baseline="central">IN</text>
<circle cx="327" cy="415" r="5" fill="green" />
<text x="327" y="430" font-size="12" fill="black" valign="top" text-anchor="middle" dominant-baseline="central">OUT</text>
<rect x="277" y="480" width="50" height="50" fill="pink" stroke="black" stroke-width="1" />
<text x="302" y="472" font-size="15" fill="black" text-anchor="middle" dominant-baseline="central">oven3002_H</text>
<circle cx="277" cy="505" r="5" fill="red" />
<text x="277" y="520" font-size="12" fill="black" valign="top" text-anchor="middle" dominant-baseline="central">IN</text>
<circle cx="327" cy="505" r="5" fill="green" />
<text x="327" y="520" font-size="12" fill="black" valign="top" text-anchor="middle" dominant-baseline="central">OUT</text>
<image x="367" y="210" width="50" height="50" xlink:href="symbolen/CircuitBreaker\circuit_breaker.svg" />
<text x="392.0" y="200" font-size="12" fill="black" text-anchor="middle" dominant-baseline="central">zek3003_V (2p, 16A)</text>
<text x="447" y="260" font-size="20" fill="black" text-anchor="middle" dominant-baseline="central">zek3003_V</text>
<text x="447" y="230" font-size="20" fill="black" text-anchor="middle" dominant-baseline="central">16A</text>
<circle cx="392" cy="110" r="8" fill="ping" />
<text x="392" y="202" font-size="15" fill="black" text-anchor="middle" dominant-baseline="central">zek3003_V</text>
<circle cx="392" cy="260" r="5" fill="red" />
<text x="392" y="275" font-size="12" fill="black" valign="top" text-anchor="middle" dominant-baseline="central">IN</text>
<circle cx="392" cy="210" r="5" fill="green" />
<text x="392" y="225" font-size="12" fill="black" valign="top" text-anchor="middle" dominant-baseline="central">OUT</text>
<circle cx="360" cy="260" r="5" fill="yellow" />
<text x="360" y="275" font-size="12" fill="black" valign="top" text-anchor="middle" dominant-baseline="central">CUT</text>
<path d="M392,210 L392,195" stroke="black" stroke-width="2" />
<path d="M457,415 L442,415" stroke="black" stroke-width="2" />
<path d="M392,210 L392,195" stroke="black" stroke-width="2" />
<path d="M457,775 L442,775" stroke="black" stroke-width="2" />
<path d="M392,210 L392,195" stroke="black" stroke-width="2" />
<path d="M457,865 L442,865" stroke="black" stroke-width="2" />
<path d="M392,195 L392,415" stroke="black" stroke-width="2" />
<path d="M392,415 L442,415" stroke="black" stroke-width="2" />
<text x="402" y="430" font-size="15" fill="blue" text-anchor="middle" dominant-baseline="central">1</text>
<path d="M392,195 L392,775" stroke="black" stroke-width="2" />
<path d="M392,775 L442,775" stroke="black" stroke-width="2" />
<text x="402" y="790" font-size="15" fill="blue" text-anchor="middle" dominant-baseline="central">2</text>
<path d="M392,195 L392,865" stroke="black" stroke-width="2" />
<path d="M392,865 L442,865" stroke="black" stroke-width="2" />
<text x="402" y="880" font-size="15" fill="blue" text-anchor="middle" dominant-baseline="central">3</text>
<rect x="457" y="390" width="50" height="50" fill="pink" stroke="black" stroke-width="1" />
<text x="482" y="382" font-size="15" fill="black" text-anchor="middle" dominant-baseline="central">domo2_H</text>
<circle cx="457" cy="415" r="5" fill="red" />
<text x="457" y="430" font-size="12" fill="black" valign="top" text-anchor="middle" dominant-baseline="central">IN</text>
<circle cx="507" cy="415" r="5" fill="green" />
<text x="507" y="430" font-size="12" fill="black" valign="top" text-anchor="middle" dominant-baseline="central">OUT</text>
<path d="M507,415 L522,415" stroke="black" stroke-width="2" />
<path d="M547,415 L532,415" stroke="black" stroke-width="2" />
<path d="M507,415 L522,415" stroke="black" stroke-width="2" />
<path d="M547,505 L532,505" stroke="black" stroke-width="2" />
<path d="M507,415 L522,415" stroke="black" stroke-width="2" />
<path d="M547,595 L532,595" stroke="black" stroke-width="2" />
<path d="M507,415 L522,415" stroke="black" stroke-width="2" />
<path d="M547,685 L532,685" stroke="black" stroke-width="2" />
<path d="M522,415 L532,415" stroke="black" stroke-width="2" />
<path d="M532,415 L532,415" stroke="black" stroke-width="2" />
<path d="M522,415 L532,415" stroke="black" stroke-width="2" />
<path d="M532,415 L532,505" stroke="black" stroke-width="2" />
<path d="M522,415 L532,415" stroke="black" stroke-width="2" />
<path d="M532,415 L532,595" stroke="black" stroke-width="2" />
<path d="M522,415 L532,415" stroke="black" stroke-width="2" />
<path d="M532,415 L532,685" stroke="black" stroke-width="2" />
<rect x="547" y="390" width="50" height="50" fill="pink" stroke="black" stroke-width="1" />
<text x="572" y="382" font-size="15" fill="black" text-anchor="middle" dominant-baseline="central">Verlichting2_H</text>
<circle cx="547" cy="415" r="5" fill="red" />
<text x="547" y="430" font-size="12" fill="black" valign="top" text-anchor="middle" dominant-baseline="central">IN</text>
<circle cx="597" cy="415" r="5" fill="green" />
<text x="597" y="430" font-size="12" fill="black" valign="top" text-anchor="middle" dominant-baseline="central">OUT</text>
<rect x="547" y="480" width="50" height="50" fill="pink" stroke="black" stroke-width="1" />
<text x="572" y="472" font-size="15" fill="black" text-anchor="middle" dominant-baseline="central">Verlichting3_H</text>
<circle cx="547" cy="505" r="5" fill="red" />
<text x="547" y="520" font-size="12" fill="black" valign="top" text-anchor="middle" dominant-baseline="central">IN</text>
<circle cx="597" cy="505" r="5" fill="green" />
<text x="597" y="520" font-size="12" fill="black" valign="top" text-anchor="middle" dominant-baseline="central">OUT</text>
<rect x="547" y="570" width="50" height="50" fill="pink" stroke="black" stroke-width="1" />
<text x="572" y="562" font-size="15" fill="black" text-anchor="middle" dominant-baseline="central">Verlichting4_H</text>
<circle cx="547" cy="595" r="5" fill="red" />
<text x="547" y="610" font-size="12" fill="black" valign="top" text-anchor="middle" dominant-baseline="central">IN</text>
<circle cx="597" cy="595" r="5" fill="green" />
<text x="597" y="610" font-size="12" fill="black" valign="top" text-anchor="middle" dominant-baseline="central">OUT</text>
<rect x="547" y="660" width="50" height="50" fill="pink" stroke="black" stroke-width="1" />
<text x="572" y="652" font-size="15" fill="black" text-anchor="middle" dominant-baseline="central">Verlichting5_H</text>
<circle cx="547" cy="685" r="5" fill="red" />
<text x="547" y="700" font-size="12" fill="black" valign="top" text-anchor="middle" dominant-baseline="central">IN</text>
<circle cx="597" cy="685" r="5" fill="green" />
<text x="597" y="700" font-size="12" fill="black" valign="top" text-anchor="middle" dominant-baseline="central">OUT</text>
<rect x="457" y="750" width="50" height="50" fill="pink" stroke="black" stroke-width="1" />
<text x="482" y="742" font-size="15" fill="black" text-anchor="middle" dominant-baseline="central">Domomodule_H</text>
<circle cx="457" cy="775" r="5" fill="red" />
<text x="457" y="790" font-size="12" fill="black" valign="top" text-anchor="middle" dominant-baseline="central">IN</text>
<circle cx="507" cy="775" r="5" fill="green" />
<text x="507" y="790" font-size="12" fill="black" valign="top" text-anchor="middle" dominant-baseline="central">OUT</text>
<path d="M507,775 L522,775" stroke="black" stroke-width="2" />
<path d="M547,775 L532,775" stroke="black" stroke-width="2" />
<path d="M522,775 L532,775" stroke="black" stroke-width="2" />
<path d="M532,775 L532,775" stroke="black" stroke-width="2" />
<rect x="547" y="750" width="50" height="50" fill="pink" stroke="black" stroke-width="1" />
<text x="572" y="742" font-size="15" fill="black" text-anchor="middle" dominant-baseline="central">Verlichting_H</text>
<circle cx="547" cy="775" r="5" fill="red" />
<text x="547" y="790" font-size="12" fill="black" valign="top" text-anchor="middle" dominant-baseline="central">IN</text>
<circle cx="597" cy="775" r="5" fill="green" />
<text x="597" y="790" font-size="12" fill="black" valign="top" text-anchor="middle" dominant-baseline="central">OUT</text>
<rect x="457" y="840" width="50" height="50" fill="pink" stroke="black" stroke-width="1" />
<text x="482" y="832" font-size="15" fill="black" text-anchor="middle" dominant-baseline="central">tv_H</text>
<circle cx="457" cy="865" r="5" fill="red" />
<text x="457" y="880" font-size="12" fill="black" valign="top" text-anchor="middle" dominant-baseline="central">IN</text>
<circle cx="507" cy="865" r="5" fill="green" />
<text x="507" y="880" font-size="12" fill="black" valign="top" text-anchor="middle" dominant-baseline="central">OUT</text>
<image x="637" y="210" width="50" height="50" xlink:href="symbolen/CircuitBreaker\circuit_breaker.svg" />
<text x="662.0" y="200" font-size="12" fill="black" text-anchor="middle" dominant-baseline="central">zek3004verl_V (2p, 16A)</text>
<text x="717" y="260" font-size="20" fill="black" text-anchor="middle" dominant-baseline="central">zek3004verl_V</text>
<text x="717" y="230" font-size="20" fill="black" text-anchor="middle" dominant-baseline="central">16A</text>
<circle cx="662" cy="110" r="8" fill="ping" />
<text x="662" y="202" font-size="15" fill="black" text-anchor="middle" dominant-baseline="central">zek3004verl_V</text>
<circle cx="662" cy="260" r="5" fill="red" />
<text x="662" y="275" font-size="12" fill="black" valign="top" text-anchor="middle" dominant-baseline="central">IN</text>
<circle cx="662" cy="210" r="5" fill="green" />
<text x="662" y="225" font-size="12" fill="black" valign="top" text-anchor="middle" dominant-baseline="central">OUT</text>
<circle cx="630" cy="260" r="5" fill="yellow" />
<text x="630" y="275" font-size="12" fill="black" valign="top" text-anchor="middle" dominant-baseline="central">CUT</text>
<path d="M662,210 L662,195" stroke="black" stroke-width="2" />
<path d="M727,415 L712,415" stroke="black" stroke-width="2" />
<path d="M662,210 L662,195" stroke="black" stroke-width="2" />
<path d="M727,505 L712,505" stroke="black" stroke-width="2" />
<path d="M662,210 L662,195" stroke="black" stroke-width="2" />
<path d="M727,595 L712,595" stroke="black" stroke-width="2" />
<path d="M662,210 L662,195" stroke="black" stroke-width="2" />
<path d="M727,685 L712,685" stroke="black" stroke-width="2" />
<path d="M662,210 L662,195" stroke="black" stroke-width="2" />
<path d="M727,775 L712,775" stroke="black" stroke-width="2" />
<path d="M662,195 L662,415" stroke="black" stroke-width="2" />
<path d="M662,415 L712,415" stroke="black" stroke-width="2" />
<text x="672" y="430" font-size="15" fill="blue" text-anchor="middle" dominant-baseline="central">1</text>
<path d="M662,195 L662,505" stroke="black" stroke-width="2" />
<path d="M662,505 L712,505" stroke="black" stroke-width="2" />
<text x="672" y="520" font-size="15" fill="blue" text-anchor="middle" dominant-baseline="central">2</text>
<path d="M662,195 L662,595" stroke="black" stroke-width="2" />
<path d="M662,595 L712,595" stroke="black" stroke-width="2" />
<text x="672" y="610" font-size="15" fill="blue" text-anchor="middle" dominant-baseline="central">3</text>
<path d="M662,195 L662,685" stroke="black" stroke-width="2" />
<path d="M662,685 L712,685" stroke="black" stroke-width="2" />
<text x="672" y="700" font-size="15" fill="blue" text-anchor="middle" dominant-baseline="central">4</text>
<path d="M662,195 L662,775" stroke="black" stroke-width="2" />
<path d="M662,775 L712,775" stroke="black" stroke-width="2" />
<text x="672" y="790" font-size="15" fill="blue" text-anchor="middle" dominant-baseline="central">5</text>
<rect x="727" y="390" width="50" height="50" fill="pink" stroke="black" stroke-width="1" />
<text x="752" y="382" font-size="15" fill="black" text-anchor="middle" dominant-baseline="central">Verlicht1_H</text>
<circle cx="727" cy="415" r="5" fill="red" />
<text x="727" y="430" font-size="12" fill="black" valign="top" text-anchor="middle" dominant-baseline="central">IN</text>
<circle cx="777" cy="415" r="5" fill="green" />
<text x="777" y="430" font-size="12" fill="black" valign="top" text-anchor="middle" dominant-baseline="central">OUT</text>
<rect x="727" y="480" width="50" height="50" fill="pink" stroke="black" stroke-width="1" />
<text x="752" y="472" font-size="15" fill="black" text-anchor="middle" dominant-baseline="central">Verlicht2_H</text>
<circle cx="727" cy="505" r="5" fill="red" />
<text x="727" y="520" font-size="12" fill="black" valign="top" text-anchor="middle" dominant-baseline="central">IN</text>
<circle cx="777" cy="505" r="5" fill="green" />
<text x="777" y="520" font-size="12" fill="black" valign="top" text-anchor="middle" dominant-baseline="central">OUT</text>
<rect x="727" y="570" width="50" height="50" fill="pink" stroke="black" stroke-width="1" />
<text x="752" y="562" font-size="15" fill="black" text-anchor="middle" dominant-baseline="central">Verlicht3_H</text>
<circle cx="727" cy="595" r="5" fill="red" />
<text x="727" y="610" font-size="12" fill="black" valign="top" text-anchor="middle" dominant-baseline="central">IN</text>
<circle cx="777" cy="595" r="5" fill="green" />
<text x="777" y="610" font-size="12" fill="black" valign="top" text-anchor="middle" dominant-baseline="central">OUT</text>
<rect x="727" y="660" width="50" height="50" fill="pink" stroke="black" stroke-width="1" />
<text x="752" y="652" font-size="15" fill="black" text-anchor="middle" dominant-baseline="central">contaxop3004_H</text>
<circle cx="727" cy="685" r="5" fill="red" />
<text x="727" y="700" font-size="12" fill="black" valign="top" text-anchor="middle" dominant-baseline="central">IN</text>
<circle cx="777" cy="685" r="5" fill="green" />
<text x="777" y="700" font-size="12" fill="black" valign="top" text-anchor="middle" dominant-baseline="central">OUT</text>
<path d="M777,685 L792,685" stroke="black" stroke-width="2" />
<path d="M817,685 L802,685" stroke="black" stroke-width="2" />
<path d="M792,685 L802,685" stroke="black" stroke-width="2" />
<path d="M802,685 L802,685" stroke="black" stroke-width="2" />
<rect x="817" y="660" width="50" height="50" fill="pink" stroke="black" stroke-width="1" />
<text x="842" y="652" font-size="15" fill="black" text-anchor="middle" dominant-baseline="central">contaxopcontax_H</text>
<circle cx="817" cy="685" r="5" fill="red" />
<text x="817" y="700" font-size="12" fill="black" valign="top" text-anchor="middle" dominant-baseline="central">IN</text>
<circle cx="867" cy="685" r="5" fill="green" />
<text x="867" y="700" font-size="12" fill="black" valign="top" text-anchor="middle" dominant-baseline="central">OUT</text>
<path d="M867,685 L882,685" stroke="black" stroke-width="2" />
<path d="M907,685 L892,685" stroke="black" stroke-width="2" />
<path d="M882,685 L892,685" stroke="black" stroke-width="2" />
<path d="M892,685 L892,685" stroke="black" stroke-width="2" />
<rect x="907" y="660" width="50" height="50" fill="pink" stroke="black" stroke-width="1" />
<text x="932" y="652" font-size="15" fill="black" text-anchor="middle" dominant-baseline="central">faaropcontax_H</text>
<circle cx="907" cy="685" r="5" fill="red" />
<text x="907" y="700" font-size="12" fill="black" valign="top" text-anchor="middle" dominant-baseline="central">IN</text>
<circle cx="957" cy="685" r="5" fill="green" />
<text x="957" y="700" font-size="12" fill="black" valign="top" text-anchor="middle" dominant-baseline="central">OUT</text>
<rect x="727" y="750" width="50" height="50" fill="pink" stroke="black" stroke-width="1" />
<text x="752" y="742" font-size="15" fill="black" text-anchor="middle" dominant-baseline="central">lamp3004_H</text>
<circle cx="727" cy="775" r="5" fill="red" />
<text x="727" y="790" font-size="12" fill="black" valign="top" text-anchor="middle" dominant-baseline="central">IN</text>
<circle cx="777" cy="775" r="5" fill="green" />
<text x="777" y="790" font-size="12" fill="black" valign="top" text-anchor="middle" dominant-baseline="central">OUT</text>
</svg>