<?xml version="1.0" encoding="UTF-8"?>
<svg xmlns="http://www.w3.org/2000/svg" xmlns:xlink="http://www.w3.org/1999/xlink"
     width="180" height="870" viewBox="0 0 180 870">
<defs>
</defs>
<rect x="-173" y="750" width="50" height="50" fill="pink" stroke="black" stroke-width="1" />
<text x="-148" y="742" font-size="15" fill="black" text-anchor="middle" dominant-baseline="central">kopkwhmeter_H</text>
<circle cx="-173" cy="775" r="5" fill="red" />
<text x="-173" y="790" font-size="12" fill="black" valign="top" text-anchor="middle" dominant-baseline="central">IN</text>
<circle cx="-123" cy="775" r="5" fill="green" />
<text x="-123" y="790" font-size="12" fill="black" valign="top" text-anchor="middle" dominant-baseline="central">OUT</text>
<path d="M-123,775 L-103,775" stroke="black" stroke-width="2" />
<path d="M-83,775 L-103,775" stroke="black" stroke-width="2" />
<rect x="-83" y="750" width="50" height="50" fill="pink" stroke="black" stroke-width="1" />
<text x="-58" y="742" font-size="15" fill="black" text-anchor="middle" dominant-baseline="central">Teller_H</text>
<circle cx="-83" cy="775" r="5" fill="red" />
<text x="-83" y="790" font-size="12" fill="black" valign="top" text-anchor="middle" dominant-baseline="central">IN</text>
<circle cx="-33" cy="775" r="5" fill="green" />
<text x="-33" y="790" font-size="12" fill="black" valign="top" text-anchor="middle" dominant-baseline="central">OUT</text>
<path d="M-33,775 L-13,775" stroke="black" stroke-width="2" />
<path d="M32,710 L32,730" stroke="black" stroke-width="2" />
<path d="M-33,775 L-13,775" stroke="black" stroke-width="2" />
<path d="M212,710 L212,730" stroke="black" stroke-width="2" />
<path d="M-33,775 L-13,775" stroke="black" stroke-width="2" />
<path d="M302,710 L302,730" stroke="black" stroke-width="2" />
<path d="M-13,775 L32,775" stroke="black" stroke-width="2" />
<path d="M32,775 L32,730" stroke="black" stroke-width="2" />
<path d="M-13,775 L212,775" stroke="black" stroke-width="2" />
<path d="M212,775 L212,730" stroke="black" stroke-width="2" />
<path d="M-13,775 L302,775" stroke="black" stroke-width="2" />
<path d="M302,775 L302,730" stroke="black" stroke-width="2" />
<rect x="7" y="660" width="50" height="50" fill="pink" stroke="black" stroke-width="1" />
<text x="32" y="652" font-size="15" fill="black" text-anchor="middle" dominant-baseline="central">Diff3_V</text>
<circle cx="32" cy="710" r="5" fill="red" />
<text x="32" y="725" font-size="12" fill="black" valign="top" text-anchor="middle" dominant-baseline="central">IN</text>
<circle cx="32" cy="660" r="5" fill="green" />
<text x="32" y="675" font-size="12" fill="black" valign="top" text-anchor="middle" dominant-baseline="central">OUT</text>
<circle cx="0" cy="710" r="5" fill="yellow" />
<text x="0" y="725" font-size="12" fill="black" valign="top" text-anchor="middle" dominant-baseline="central">CUT</text>
<path d="M32,660 L32,640" stroke="black" stroke-width="2" />
<path d="M97,595 L77,595" stroke="black" stroke-width="2" />
<path d="M32,640 L32,595" stroke="black" stroke-width="2" />
<path d="M32,595 L77,595" stroke="black" stroke-width="2" />
<text x="42" y="610" font-size="15" fill="blue" text-anchor="middle" dominant-baseline="central">1</text>
<rect x="97" y="570" width="50" height="50" fill="pink" stroke="black" stroke-width="1" />
<text x="122" y="562" font-size="15" fill="black" text-anchor="middle" dominant-baseline="central">zonnepaneelopdif3_H</text>
<circle cx="97" cy="595" r="5" fill="red" />
<text x="97" y="610" font-size="12" fill="black" valign="top" text-anchor="middle" dominant-baseline="central">IN</text>
<circle cx="147" cy="595" r="5" fill="green" />
<text x="147" y="610" font-size="12" fill="black" valign="top" text-anchor="middle" dominant-baseline="central">OUT</text>
<rect x="187" y="660" width="50" height="50" fill="pink" stroke="black" stroke-width="1" />
<text x="212" y="652" font-size="15" fill="black" text-anchor="middle" dominant-baseline="central">Diff30_V</text>
<circle cx="212" cy="710" r="5" fill="red" />
<text x="212" y="725" font-size="12" fill="black" valign="top" text-anchor="middle" dominant-baseline="central">IN</text>
<circle cx="212" cy="660" r="5" fill="green" />
<text x="212" y="675" font-size="12" fill="black" valign="top" text-anchor="middle" dominant-baseline="central">OUT</text>
<circle cx="180" cy="710" r="5" fill="yellow" />
<text x="180" y="725" font-size="12" fill="black" valign="top" text-anchor="middle" dominant-baseline="central">CUT</text>
<rect x="277" y="660" width="50" height="50" fill="pink" stroke="black" stroke-width="1" />
<text x="302" y="652" font-size="15" fill="black" text-anchor="middle" dominant-baseline="central">Diff300_V</text>
<circle cx="302" cy="710" r="5" fill="red" />
<text x="302" y="725" font-size="12" fill="black" valign="top" text-anchor="middle" dominant-baseline="central">IN</text>
<circle cx="302" cy="660" r="5" fill="green" />
<text x="302" y="675" font-size="12" fill="black" valign="top" text-anchor="middle" dominant-baseline="central">OUT</text>
<circle cx="270" cy="710" r="5" fill="yellow" />
<text x="270" y="725" font-size="12" fill="black" valign="top" text-anchor="middle" dominant-baseline="central">CUT</text>
<path d="M302,660 L302,640" stroke="black" stroke-width="2" />
<path d="M302,620 L302,640" stroke="black" stroke-width="2" />
<path d="M302,660 L302,640" stroke="black" stroke-width="2" />
<path d="M482,620 L482,640" stroke="black" stroke-width="2" />
<path d="M302,660 L302,640" stroke="black" stroke-width="2" />
<path d="M662,620 L662,640" stroke="black" stroke-width="2" />
<path d="M302,660 L302,640" stroke="black" stroke-width="2" />
<path d="M842,620 L842,640" stroke="black" stroke-width="2" />
<path d="M302,660 L302,640" stroke="black" stroke-width="2" />
<path d="M1112,620 L1112,640" stroke="black" stroke-width="2" />
<path d="M302,640 L302,640" stroke="black" stroke-width="2" />
<path d="M302,640 L302,640" stroke="black" stroke-width="2" />
<path d="M302,640 L302,640" stroke="black" stroke-width="2" />
<path d="M302,640 L482,640" stroke="black" stroke-width="2" />
<path d="M302,640 L302,640" stroke="black" stroke-width="2" />
<path d="M302,640 L662,640" stroke="black" stroke-width="2" />
<path d="M302,640 L302,640" stroke="black" stroke-width="2" />
<path d="M302,640 L842,640" stroke="black" stroke-width="2" />
<path d="M302,640 L302,640" stroke="black" stroke-width="2" />
<path d="M302,640 L1112,640" stroke="black" stroke-width="2" />
<rect x="277" y="570" width="50" height="50" fill="pink" stroke="black" stroke-width="1" />
<text x="302" y="562" font-size="15" fill="black" text-anchor="middle" dominant-baseline="central">Diff100_V</text>
<circle cx="302" cy="620" r="5" fill="red" />
<text x="302" y="635" font-size="12" fill="black" valign="top" text-anchor="middle" dominant-baseline="central">IN</text>
<circle cx="302" cy="570" r="5" fill="green" />
<text x="302" y="585" font-size="12" fill="black" valign="top" text-anchor="middle" dominant-baseline="central">OUT</text>
<circle cx="270" cy="620" r="5" fill="yellow" />
<text x="270" y="635" font-size="12" fill="black" valign="top" text-anchor="middle" dominant-baseline="central">CUT</text>
<path d="M302,570 L302,550" stroke="black" stroke-width="2" />
<path d="M302,530 L302,550" stroke="black" stroke-width="2" />
<path d="M302,550 L302,550" stroke="black" stroke-width="2" />
<path d="M302,550 L302,550" stroke="black" stroke-width="2" />
<rect x="277" y="480" width="50" height="50" fill="pink" stroke="black" stroke-width="1" />
<text x="302" y="472" font-size="15" fill="black" text-anchor="middle" dominant-baseline="central">zek1001_V</text>
<circle cx="302" cy="530" r="5" fill="red" />
<text x="302" y="545" font-size="12" fill="black" valign="top" text-anchor="middle" dominant-baseline="central">IN</text>
<circle cx="302" cy="480" r="5" fill="green" />
<text x="302" y="495" font-size="12" fill="black" valign="top" text-anchor="middle" dominant-baseline="central">OUT</text>
<circle cx="270" cy="530" r="5" fill="yellow" />
<text x="270" y="545" font-size="12" fill="black" valign="top" text-anchor="middle" dominant-baseline="central">CUT</text>
<path d="M302,480 L302,460" stroke="black" stroke-width="2" />
<path d="M367,415 L347,415" stroke="black" stroke-width="2" />
<path d="M302,480 L302,460" stroke="black" stroke-width="2" />
<path d="M367,325 L347,325" stroke="black" stroke-width="2" />
<path d="M302,480 L302,460" stroke="black" stroke-width="2" />
<path d="M367,235 L347,235" stroke="black" stroke-width="2" />
<path d="M302,480 L302,460" stroke="black" stroke-width="2" />
<path d="M367,145 L347,145" stroke="black" stroke-width="2" />
<path d="M302,460 L302,415" stroke="black" stroke-width="2" />
<path d="M302,415 L347,415" stroke="black" stroke-width="2" />
<text x="312" y="430" font-size="15" fill="blue" text-anchor="middle" dominant-baseline="central">1</text>
<path d="M302,460 L302,325" stroke="black" stroke-width="2" />
<path d="M302,325 L347,325" stroke="black" stroke-width="2" />
<text x="312" y="340" font-size="15" fill="blue" text-anchor="middle" dominant-baseline="central">2</text>
<path d="M302,460 L302,235" stroke="black" stroke-width="2" />
<path d="M302,235 L347,235" stroke="black" stroke-width="2" />
<text x="312" y="250" font-size="15" fill="blue" text-anchor="middle" dominant-baseline="central">3</text>
<path d="M302,460 L302,145" stroke="black" stroke-width="2" />
<path d="M302,145 L347,145" stroke="black" stroke-width="2" />
<text x="312" y="160" font-size="15" fill="blue" text-anchor="middle" dominant-baseline="central">4</text>
<rect x="367" y="390" width="50" height="50" fill="pink" stroke="black" stroke-width="1" />
<text x="392" y="382" font-size="15" fill="black" text-anchor="middle" dominant-baseline="central">Verlichting6_H</text>
<circle cx="367" cy="415" r="5" fill="red" />
<text x="367" y="430" font-size="12" fill="black" valign="top" text-anchor="middle" dominant-baseline="central">IN</text>
<circle cx="417" cy="415" r="5" fill="green" />
<text x="417" y="430" font-size="12" fill="black" valign="top" text-anchor="middle" dominant-baseline="central">OUT</text>
<rect x="367" y="300" width="50" height="50" fill="pink" stroke="black" stroke-width="1" />
<text x="392" y="292" font-size="15" fill="black" text-anchor="middle" dominant-baseline="central">vaatwas301_H</text>
<circle cx="367" cy="325" r="5" fill="red" />
<text x="367" y="340" font-size="12" fill="black" valign="top" text-anchor="middle" dominant-baseline="central">IN</text>
<circle cx="417" cy="325" r="5" fill="green" />
<text x="417" y="340" font-size="12" fill="black" valign="top" text-anchor="middle" dominant-baseline="central">OUT</text>
<image x="367" y="210" width="50" height="50" xlink:href="symbolen/Prieze\prieze_hydro_false_kinder_true_aarding_true_1.svg" />
<text x="392.0" y="235.0" font-size="12" fill="red" text-anchor="middle" dominant-baseline="central">prieze</text>
<text x="392" y="202" font-size="15" fill="black" text-anchor="middle" dominant-baseline="central">prieze</text>
<circle cx="367" cy="235" r="5" fill="red" />
<text x="367" y="250" font-size="12" fill="black" valign="top" text-anchor="middle" dominant-baseline="central">IN</text>
<circle cx="417" cy="235" r="5" fill="green" />
<text x="417" y="250" font-size="12" fill="black" valign="top" text-anchor="middle" dominant-baseline="central">OUT</text>
<image x="367" y="120" width="50" height="50" xlink:href="symbolen/Prieze\prieze_hydro_false_kinder_true_aarding_true_2.svg" />
<text x="392.0" y="145.0" font-size="12" fill="red" text-anchor="middle" dominant-baseline="central">prieze</text>
<text x="392" y="112" font-size="15" fill="black" text-anchor="middle" dominant-baseline="central">prieze</text>
<circle cx="367" cy="145" r="5" fill="red" />
<text x="367" y="160" font-size="12" fill="black" valign="top" text-anchor="middle" dominant-baseline="central">IN</text>
<circle cx="417" cy="145" r="5" fill="green" />
<text x="417" y="160" font-size="12" fill="black" valign="top" text-anchor="middle" dominant-baseline="central">OUT</text>
<rect x="457" y="570" width="50" height="50" fill="pink" stroke="black" stroke-width="1" />
<text x="482" y="562" font-size="15" fill="black" text-anchor="middle" dominant-baseline="central">zek3001_V</text>
<circle cx="482" cy="620" r="5" fill="red" />
<text x="482" y="635" font-size="12" fill="black" valign="top" text-anchor="middle" dominant-baseline="central">IN</text>
<circle cx="482" cy="570" r="5" fill="green" />
<text x="482" y="585" font-size="12" fill="black" valign="top" text-anchor="middle" dominant-baseline="central">OUT</text>
<circle cx="450" cy="620" r="5" fill="yellow" />
<text x="450" y="635" font-size="12" fill="black" valign="top" text-anchor="middle" dominant-baseline="central">CUT</text>
<path d="M482,570 L482,550" stroke="black" stroke-width="2" />
<path d="M547,505 L527,505" stroke="black" stroke-width="2" />
<path d="M482,550 L482,505" stroke="black" stroke-width="2" />
<path d="M482,505 L527,505" stroke="black" stroke-width="2" />
<text x="492" y="520" font-size="15" fill="blue" text-anchor="middle" dominant-baseline="central">1</text>
<rect x="547" y="480" width="50" height="50" fill="pink" stroke="black" stroke-width="1" />
<text x="572" y="472" font-size="15" fill="black" text-anchor="middle" dominant-baseline="central">droogkast3002_H</text>
<circle cx="547" cy="505" r="5" fill="red" />
<text x="547" y="520" font-size="12" fill="black" valign="top" text-anchor="middle" dominant-baseline="central">IN</text>
<circle cx="597" cy="505" r="5" fill="green" />
<text x="597" y="520" font-size="12" fill="black" valign="top" text-anchor="middle" dominant-baseline="central">OUT</text>
<rect x="637" y="570" width="50" height="50" fill="pink" stroke="black" stroke-width="1" />
<text x="662" y="562" font-size="15" fill="black" text-anchor="middle" dominant-baseline="central">zek3002_V</text>
<circle cx="662" cy="620" r="5" fill="red" />
<text x="662" y="635" font-size="12" fill="black" valign="top" text-anchor="middle" dominant-baseline="central">IN</text>
<circle cx="662" cy="570" r="5" fill="green" />
<text x="662" y="585" font-size="12" fill="black" valign="top" text-anchor="middle" dominant-baseline="central">OUT</text>
<circle cx="630" cy="620" r="5" fill="yellow" />
<text x="630" y="635" font-size="12" fill="black" valign="top" text-anchor="middle" dominant-baseline="central">CUT</text>
<path d="M662,570 L662,550" stroke="black" stroke-width="2" />
<path d="M727,505 L707,505" stroke="black" stroke-width="2" />
<path d="M662,570 L662,550" stroke="black" stroke-width="2" />
<path d="M727,415 L707,415" stroke="black" stroke-width="2" />
<path d="M662,550 L662,505" stroke="black" stroke-width="2" />
<path d="M662,505 L707,505" stroke="black" stroke-width="2" />
<text x="672" y="520" font-size="15" fill="blue" text-anchor="middle" dominant-baseline="central">1</text>
<path d="M662,550 L662,415" stroke="black" stroke-width="2" />
<path d="M662,415 L707,415" stroke="black" stroke-width="2" />
<text x="672" y="430" font-size="15" fill="blue" text-anchor="middle" dominant-baseline="central">2</text>
<rect x="727" y="480" width="50" height="50" fill="pink" stroke="black" stroke-width="1" />
<text x="752" y="472" font-size="15" fill="black" text-anchor="middle" dominant-baseline="central">microoven3002_H</text>
<circle cx="727" cy="505" r="5" fill="red" />
<text x="727" y="520" font-size="12" fill="black" valign="top" text-anchor="middle" dominant-baseline="central">IN</text>
<circle cx="777" cy="505" r="5" fill="green" />
<text x="777" y="520" font-size="12" fill="black" valign="top" text-anchor="middle" dominant-baseline="central">OUT</text>
<rect x="727" y="390" width="50" height="50" fill="pink" stroke="black" stroke-width="1" />
<text x="752" y="382" font-size="15" fill="black" text-anchor="middle" dominant-baseline="central">oven3002_H</text>
<circle cx="727" cy="415" r="5" fill="red" />
<text x="727" y="430" font-size="12" fill="black" valign="top" text-anchor="middle" dominant-baseline="central">IN</text>
<circle cx="777" cy="415" r="5" fill="green" />
<text x="777" y="430" font-size="12" fill="black" valign="top" text-anchor="middle" dominant-baseline="central">OUT</text>
<rect x="817" y="570" width="50" height="50" fill="pink" stroke="black" stroke-width="1" />
<text x="842" y="562" font-size="15" fill="black" text-anchor="middle" dominant-baseline="central">zek3003_V</text>
<circle cx="842" cy="620" r="5" fill="red" />
<text x="842" y="635" font-size="12" fill="black" valign="top" text-anchor="middle" dominant-baseline="central">IN</text>
<circle cx="842" cy="570" r="5" fill="green" />
<text x="842" y="585" font-size="12" fill="black" valign="top" text-anchor="middle" dominant-baseline="central">OUT</text>
<circle cx="810" cy="620" r="5" fill="yellow" />
<text x="810" y="635" font-size="12" fill="black" valign="top" text-anchor="middle" dominant-baseline="central">CUT</text>
<path d="M842,570 L842,550" stroke="black" stroke-width="2" />
<path d="M907,505 L887,505" stroke="black" stroke-width="2" />
<path d="M842,570 L842,550" stroke="black" stroke-width="2" />
<path d="M907,145 L887,145" stroke="black" stroke-width="2" />
<path d="M842,570 L842,550" stroke="black" stroke-width="2" />
<path d="M907,55 L887,55" stroke="black" stroke-width="2" />
<path d="M842,550 L842,505" stroke="black" stroke-width="2" />
<path d="M842,505 L887,505" stroke="black" stroke-width="2" />
<text x="852" y="520" font-size="15" fill="blue" text-anchor="middle" dominant-baseline="central">1</text>
<path d="M842,550 L842,145" stroke="black" stroke-width="2" />
<path d="M842,145 L887,145" stroke="black" stroke-width="2" />
<text x="852" y="160" font-size="15" fill="blue" text-anchor="middle" dominant-baseline="central">2</text>
<path d="M842,550 L842,55" stroke="black" stroke-width="2" />
<path d="M842,55 L887,55" stroke="black" stroke-width="2" />
<text x="852" y="70" font-size="15" fill="blue" text-anchor="middle" dominant-baseline="central">3</text>
<rect x="907" y="480" width="50" height="50" fill="pink" stroke="black" stroke-width="1" />
<text x="932" y="472" font-size="15" fill="black" text-anchor="middle" dominant-baseline="central">domo2_H</text>
<circle cx="907" cy="505" r="5" fill="red" />
<text x="907" y="520" font-size="12" fill="black" valign="top" text-anchor="middle" dominant-baseline="central">IN</text>
<circle cx="957" cy="505" r="5" fill="green" />
<text x="957" y="520" font-size="12" fill="black" valign="top" text-anchor="middle" dominant-baseline="central">OUT</text>
<path d="M957,505 L977,505" stroke="black" stroke-width="2" />
<path d="M997,505 L977,505" stroke="black" stroke-width="2" />
<path d="M957,505 L977,505" stroke="black" stroke-width="2" />
<path d="M997,415 L977,415" stroke="black" stroke-width="2" />
<path d="M957,505 L977,505" stroke="black" stroke-width="2" />
<path d="M997,325 L977,325" stroke="black" stroke-width="2" />
<path d="M957,505 L977,505" stroke="black" stroke-width="2" />
<path d="M997,235 L977,235" stroke="black" stroke-width="2" />
<path d="M977,505 L977,505" stroke="black" stroke-width="2" />
<path d="M977,505 L977,415" stroke="black" stroke-width="2" />
<path d="M977,505 L977,505" stroke="black" stroke-width="2" />
<path d="M977,505 L977,325" stroke="black" stroke-width="2" />
<path d="M977,505 L977,505" stroke="black" stroke-width="2" />
<path d="M977,505 L977,235" stroke="black" stroke-width="2" />
<rect x="997" y="480" width="50" height="50" fill="pink" stroke="black" stroke-width="1" />
<text x="1022" y="472" font-size="15" fill="black" text-anchor="middle" dominant-baseline="central">Verlichting2_H</text>
<circle cx="997" cy="505" r="5" fill="red" />
<text x="997" y="520" font-size="12" fill="black" valign="top" text-anchor="middle" dominant-baseline="central">IN</text>
<circle cx="1047" cy="505" r="5" fill="green" />
<text x="1047" y="520" font-size="12" fill="black" valign="top" text-anchor="middle" dominant-baseline="central">OUT</text>
<rect x="997" y="390" width="50" height="50" fill="pink" stroke="black" stroke-width="1" />
<text x="1022" y="382" font-size="15" fill="black" text-anchor="middle" dominant-baseline="central">Verlichting3_H</text>
<circle cx="997" cy="415" r="5" fill="red" />
<text x="997" y="430" font-size="12" fill="black" valign="top" text-anchor="middle" dominant-baseline="central">IN</text>
<circle cx="1047" cy="415" r="5" fill="green" />
<text x="1047" y="430" font-size="12" fill="black" valign="top" text-anchor="middle" dominant-baseline="central">OUT</text>
<rect x="997" y="300" width="50" height="50" fill="pink" stroke="black" stroke-width="1" />
<text x="1022" y="292" font-size="15" fill="black" text-anchor="middle" dominant-baseline="central">Verlichting4_H</text>
<circle cx="997" cy="325" r="5" fill="red" />
<text x="997" y="340" font-size="12" fill="black" valign="top" text-anchor="middle" dominant-baseline="central">IN</text>
<circle cx="1047" cy="325" r="5" fill="green" />
<text x="1047" y="340" font-size="12" fill="black" valign="top" text-anchor="middle" dominant-baseline="central">OUT</text>
<rect x="997" y="210" width="50" height="50" fill="pink" stroke="black" stroke-width="1" />
<text x="1022" y="202" font-size="15" fill="black" text-anchor="middle" dominant-baseline="central">Verlichting5_H</text>
<circle cx="997" cy="235" r="5" fill="red" />
<text x="997" y="250" font-size="12" fill="black" valign="top" text-anchor="middle" dominant-baseline="central">IN</text>
<circle cx="1047" cy="235" r="5" fill="green" />
<text x="1047" y="250" font-size="12" fill="black" valign="top" text-anchor="middle" dominant-baseline="central">OUT</text>
<rect x="907" y="120" width="50" height="50" fill="pink" stroke="black" stroke-width="1" />
<text x="932" y="112" font-size="15" fill="black" text-anchor="middle" dominant-baseline="central">Domomodule_H</text>
<circle cx="907" cy="145" r="5" fill="red" />
<text x="907" y="160" font-size="12" fill="black" valign="top" text-anchor="middle" dominant-baseline="central">IN</text>
<circle cx="957" cy="145" r="5" fill="green" />
<text x="957" y="160" font-size="12" fill="black" valign="top" text-anchor="middle" dominant-baseline="central">OUT</text>
<path d="M957,145 L977,145" stroke="black" stroke-width="2" />
<path d="M997,145 L977,145" stroke="black" stroke-width="2" />
<rect x="997" y="120" width="50" height="50" fill="pink" stroke="black" stroke-width="1" />
<text x="1022" y="112" font-size="15" fill="black" text-anchor="middle" dominant-baseline="central">Verlichting_H</text>
<circle cx="997" cy="145" r="5" fill="red" />
<text x="997" y="160" font-size="12" fill="black" valign="top" text-anchor="middle" dominant-baseline="central">IN</text>
<circle cx="1047" cy="145" r="5" fill="green" />
<text x="1047" y="160" font-size="12" fill="black" valign="top" text-anchor="middle" dominant-baseline="central">OUT</text>
<rect x="907" y="30" width="50" height="50" fill="pink" stroke="black" stroke-width="1" />
<text x="932" y="22" font-size="15" fill="black" text-anchor="middle" dominant-baseline="central">tv_H</text>
<circle cx="907" cy="55" r="5" fill="red" />
<text x="907" y="70" font-size="12" fill="black" valign="top" text-anchor="middle" dominant-baseline="central">IN</text>
<circle cx="957" cy="55" r="5" fill="green" />
<text x="957" y="70" font-size="12" fill="black" valign="top" text-anchor="middle" dominant-baseline="central">OUT</text>
<rect x="1087" y="570" width="50" height="50" fill="pink" stroke="black" stroke-width="1" />
<text x="1112" y="562" font-size="15" fill="black" text-anchor="middle" dominant-baseline="central">zek3004verl_V</text>
<circle cx="1112" cy="620" r="5" fill="red" />
<text x="1112" y="635" font-size="12" fill="black" valign="top" text-anchor="middle" dominant-baseline="central">IN</text>
<circle cx="1112" cy="570" r="5" fill="green" />
<text x="1112" y="585" font-size="12" fill="black" valign="top" text-anchor="middle" dominant-baseline="central">OUT</text>
<circle cx="1080" cy="620" r="5" fill="yellow" />
<text x="1080" y="635" font-size="12" fill="black" valign="top" text-anchor="middle" dominant-baseline="central">CUT</text>
<path d="M1112,570 L1112,550" stroke="black" stroke-width="2" />
<path d="M1177,505 L1157,505" stroke="black" stroke-width="2" />
<path d="M1112,570 L1112,550" stroke="black" stroke-width="2" />
<path d="M1177,415 L1157,415" stroke="black" stroke-width="2" />
<path d="M1112,570 L1112,550" stroke="black" stroke-width="2" />
<path d="M1177,325 L1157,325" stroke="black" stroke-width="2" />
<path d="M1112,570 L1112,550" stroke="black" stroke-width="2" />
<path d="M1177,235 L1157,235" stroke="black" stroke-width="2" />
<path d="M1112,570 L1112,550" stroke="black" stroke-width="2" />
<path d="M1177,145 L1157,145" stroke="black" stroke-width="2" />
<path d="M1112,550 L1112,505" stroke="black" stroke-width="2" />
<path d="M1112,505 L1157,505" stroke="black" stroke-width="2" />
<text x="1122" y="520" font-size="15" fill="blue" text-anchor="middle" dominant-baseline="central">1</text>
<path d="M1112,550 L1112,415" stroke="black" stroke-width="2" />
<path d="M1112,415 L1157,415" stroke="black" stroke-width="2" />
<text x="1122" y="430" font-size="15" fill="blue" text-anchor="middle" dominant-baseline="central">2</text>
<path d="M1112,550 L1112,325" stroke="black" stroke-width="2" />
<path d="M1112,325 L1157,325" stroke="black" stroke-width="2" />
<text x="1122" y="340" font-size="15" fill="blue" text-anchor="middle" dominant-baseline="central">3</text>
<path d="M1112,550 L1112,235" stroke="black" stroke-width="2" />
<path d="M1112,235 L1157,235" stroke="black" stroke-width="2" />
<text x="1122" y="250" font-size="15" fill="blue" text-anchor="middle" dominant-baseline="central">4</text>
<path d="M1112,550 L1112,145" stroke="black" stroke-width="2" />
<path d="M1112,145 L1157,145" stroke="black" stroke-width="2" />
<text x="1122" y="160" font-size="15" fill="blue" text-anchor="middle" dominant-baseline="central">5</text>
<rect x="1177" y="480" width="50" height="50" fill="pink" stroke="black" stroke-width="1" />
<text x="1202" y="472" font-size="15" fill="black" text-anchor="middle" dominant-baseline="central">Verlicht1_H</text>
<circle cx="1177" cy="505" r="5" fill="red" />
<text x="1177" y="520" font-size="12" fill="black" valign="top" text-anchor="middle" dominant-baseline="central">IN</text>
<circle cx="1227" cy="505" r="5" fill="green" />
<text x="1227" y="520" font-size="12" fill="black" valign="top" text-anchor="middle" dominant-baseline="central">OUT</text>
<rect x="1177" y="390" width="50" height="50" fill="pink" stroke="black" stroke-width="1" />
<text x="1202" y="382" font-size="15" fill="black" text-anchor="middle" dominant-baseline="central">Verlicht2_H</text>
<circle cx="1177" cy="415" r="5" fill="red" />
<text x="1177" y="430" font-size="12" fill="black" valign="top" text-anchor="middle" dominant-baseline="central">IN</text>
<circle cx="1227" cy="415" r="5" fill="green" />
<text x="1227" y="430" font-size="12" fill="black" valign="top" text-anchor="middle" dominant-baseline="central">OUT</text>
<rect x="1177" y="300" width="50" height="50" fill="pink" stroke="black" stroke-width="1" />
<text x="1202" y="292" font-size="15" fill="black" text-anchor="middle" dominant-baseline="central">Verlicht3_H</text>
<circle cx="1177" cy="325" r="5" fill="red" />
<text x="1177" y="340" font-size="12" fill="black" valign="top" text-anchor="middle" dominant-baseline="central">IN</text>
<circle cx="1227" cy="325" r="5" fill="green" />
<text x="1227" y="340" font-size="12" fill="black" valign="top" text-anchor="middle" dominant-baseline="central">OUT</text>
<rect x="1177" y="210" width="50" height="50" fill="pink" stroke="black" stroke-width="1" />
<text x="1202" y="202" font-size="15" fill="black" text-anchor="middle" dominant-baseline="central">contaxop3004_H</text>
<circle cx="1177" cy="235" r="5" fill="red" />
<text x="1177" y="250" font-size="12" fill="black" valign="top" text-anchor="middle" dominant-baseline="central">IN</text>
<circle cx="1227" cy="235" r="5" fill="green" />
<text x="1227" y="250" font-size="12" fill="black" valign="top" text-anchor="middle" dominant-baseline="central">OUT</text>
<path d="M1227,235 L1247,235" stroke="black" stroke-width="2" />
<path d="M1267,235 L1247,235" stroke="black" stroke-width="2" />
<rect x="1267" y="210" width="50" height="50" fill="pink" stroke="black" stroke-width="1" />
<text x="1292" y="202" font-size="15" fill="black" text-anchor="middle" dominant-baseline="central">contaxopcontax_H</text>
<circle cx="1267" cy="235" r="5" fill="red" />
<text x="1267" y="250" font-size="12" fill="black" valign="top" text-anchor="middle" dominant-baseline="central">IN</text>
<circle cx="1317" cy="235" r="5" fill="green" />
<text x="1317" y="250" font-size="12" fill="black" valign="top" text-anchor="middle" dominant-baseline="central">OUT</text>
<path d="M1317,235 L1337,235" stroke="black" stroke-width="2" />
<path d="M1357,235 L1337,235" stroke="black" stroke-width="2" />
<rect x="1357" y="210" width="50" height="50" fill="pink" stroke="black" stroke-width="1" />
<text x="1382" y="202" font-size="15" fill="black" text-anchor="middle" dominant-baseline="central">faaropcontax_H</text>
<circle cx="1357" cy="235" r="5" fill="red" />
<text x="1357" y="250" font-size="12" fill="black" valign="top" text-anchor="middle" dominant-baseline="central">IN</text>
<circle cx="1407" cy="235" r="5" fill="green" />
<text x="1407" y="250" font-size="12" fill="black" valign="top" text-anchor="middle" dominant-baseline="central">OUT</text>
<rect x="1177" y="120" width="50" height="50" fill="pink" stroke="black" stroke-width="1" />
<text x="1202" y="112" font-size="15" fill="black" text-anchor="middle" dominant-baseline="central">lamp3004_H</text>
<circle cx="1177" cy="145" r="5" fill="red" />
<text x="1177" y="160" font-size="12" fill="black" valign="top" text-anchor="middle" dominant-baseline="central">IN</text>
<circle cx="1227" cy="145" r="5" fill="green" />
<text x="1227" y="160" font-size="12" fill="black" valign="top" text-anchor="middle" dominant-baseline="central">OUT</text>
</svg>