<?xml version="1.0" encoding="UTF-8"?>
<svg xmlns="http://www.w3.org/2000/svg" xmlns:xlink="http://www.w3.org/1999/xlink"
     width="270" height="960" viewBox="0 0 270 960">
<defs>
</defs>
<rect x="-443" y="840" width="50" height="50" fill="pink" stroke="black" stroke-width="1" />
<text x="-418" y="832" font-size="15" fill="black" text-anchor="middle" dominant-baseline="central">kopkwhmeter_H</text>
<circle cx="-443" cy="865" r="5" fill="red" />
<text x="-443" y="880" font-size="12" fill="black" valign="top" text-anchor="middle" dominant-baseline="central">IN</text>
<circle cx="-393" cy="865" r="5" fill="green" />
<text x="-393" y="880" font-size="12" fill="black" valign="top" text-anchor="middle" dominant-baseline="central">OUT</text>
<path d="M-393,865 L-378,865" stroke="black" stroke-width="2" />
<path d="M-353,865 L-368,865" stroke="black" stroke-width="2" />
<path d="M-378,865 L-368,865" stroke="black" stroke-width="2" />
<path d="M-368,865 L-368,865" stroke="black" stroke-width="2" />
<rect x="-353" y="840" width="50" height="50" fill="pink" stroke="black" stroke-width="1" />
<text x="-328" y="832" font-size="15" fill="black" text-anchor="middle" dominant-baseline="central">Teller_H</text>
<circle cx="-353" cy="865" r="5" fill="red" />
<text x="-353" y="880" font-size="12" fill="black" valign="top" text-anchor="middle" dominant-baseline="central">IN</text>
<circle cx="-303" cy="865" r="5" fill="green" />
<text x="-303" y="880" font-size="12" fill="black" valign="top" text-anchor="middle" dominant-baseline="central">OUT</text>
<path d="M-303,865 L-288,865" stroke="black" stroke-width="2" />
<path d="M-238,800 L-238,815" stroke="black" stroke-width="2" />
<path d="M-303,865 L-288,865" stroke="black" stroke-width="2" />
<path d="M-58,800 L-58,815" stroke="black" stroke-width="2" />
<path d="M-303,865 L-288,865" stroke="black" stroke-width="2" />
<path d="M32,800 L32,815" stroke="black" stroke-width="2" />
<path d="M-288,865 L-238,865" stroke="black" stroke-width="2" />
<path d="M-238,865 L-238,815" stroke="black" stroke-width="2" />
<path d="M-288,865 L-58,865" stroke="black" stroke-width="2" />
<path d="M-58,865 L-58,815" stroke="black" stroke-width="2" />
<path d="M-288,865 L32,865" stroke="black" stroke-width="2" />
<path d="M32,865 L32,815" stroke="black" stroke-width="2" />
<rect x="-263" y="750" width="50" height="50" fill="pink" stroke="black" stroke-width="1" />
<text x="-238" y="742" font-size="15" fill="black" text-anchor="middle" dominant-baseline="central">Diff3_V</text>
<circle cx="-238" cy="800" r="5" fill="red" />
<text x="-238" y="815" font-size="12" fill="black" valign="top" text-anchor="middle" dominant-baseline="central">IN</text>
<circle cx="-238" cy="750" r="5" fill="green" />
<text x="-238" y="765" font-size="12" fill="black" valign="top" text-anchor="middle" dominant-baseline="central">OUT</text>
<circle cx="-270" cy="800" r="5" fill="yellow" />
<text x="-270" y="815" font-size="12" fill="black" valign="top" text-anchor="middle" dominant-baseline="central">CUT</text>
<path d="M-238,750 L-238,735" stroke="black" stroke-width="2" />
<path d="M-173,685 L-188,685" stroke="black" stroke-width="2" />
<path d="M-238,735 L-238,685" stroke="black" stroke-width="2" />
<path d="M-238,685 L-188,685" stroke="black" stroke-width="2" />
<text x="-228" y="700" font-size="15" fill="blue" text-anchor="middle" dominant-baseline="central">1</text>
<rect x="-173" y="660" width="50" height="50" fill="pink" stroke="black" stroke-width="1" />
<text x="-148" y="652" font-size="15" fill="black" text-anchor="middle" dominant-baseline="central">zonnepaneelopdif3_H</text>
<circle cx="-173" cy="685" r="5" fill="red" />
<text x="-173" y="700" font-size="12" fill="black" valign="top" text-anchor="middle" dominant-baseline="central">IN</text>
<circle cx="-123" cy="685" r="5" fill="green" />
<text x="-123" y="700" font-size="12" fill="black" valign="top" text-anchor="middle" dominant-baseline="central">OUT</text>
<rect x="-83" y="750" width="50" height="50" fill="pink" stroke="black" stroke-width="1" />
<text x="-58" y="742" font-size="15" fill="black" text-anchor="middle" dominant-baseline="central">Diff30_V</text>
<circle cx="-58" cy="800" r="5" fill="red" />
<text x="-58" y="815" font-size="12" fill="black" valign="top" text-anchor="middle" dominant-baseline="central">IN</text>
<circle cx="-58" cy="750" r="5" fill="green" />
<text x="-58" y="765" font-size="12" fill="black" valign="top" text-anchor="middle" dominant-baseline="central">OUT</text>
<circle cx="-90" cy="800" r="5" fill="yellow" />
<text x="-90" y="815" font-size="12" fill="black" valign="top" text-anchor="middle" dominant-baseline="central">CUT</text>
<rect x="7" y="750" width="50" height="50" fill="pink" stroke="black" stroke-width="1" />
<text x="32" y="742" font-size="15" fill="black" text-anchor="middle" dominant-baseline="central">Diff300_V</text>
<circle cx="32" cy="800" r="5" fill="red" />
<text x="32" y="815" font-size="12" fill="black" valign="top" text-anchor="middle" dominant-baseline="central">IN</text>
<circle cx="32" cy="750" r="5" fill="green" />
<text x="32" y="765" font-size="12" fill="black" valign="top" text-anchor="middle" dominant-baseline="central">OUT</text>
<circle cx="0" cy="800" r="5" fill="yellow" />
<text x="0" y="815" font-size="12" fill="black" valign="top" text-anchor="middle" dominant-baseline="central">CUT</text>
<path d="M32,750 L32,735" stroke="black" stroke-width="2" />
<path d="M32,710 L32,725" stroke="black" stroke-width="2" />
<path d="M32,750 L32,735" stroke="black" stroke-width="2" />
<path d="M302,710 L302,725" stroke="black" stroke-width="2" />
<path d="M32,750 L32,735" stroke="black" stroke-width="2" />
<path d="M482,710 L482,725" stroke="black" stroke-width="2" />
<path d="M32,750 L32,735" stroke="black" stroke-width="2" />
<path d="M662,710 L662,725" stroke="black" stroke-width="2" />
<path d="M32,750 L32,735" stroke="black" stroke-width="2" />
<path d="M932,710 L932,725" stroke="black" stroke-width="2" />
<path d="M32,735 L32,725" stroke="black" stroke-width="2" />
<path d="M32,725 L32,725" stroke="black" stroke-width="2" />
<path d="M32,735 L32,725" stroke="black" stroke-width="2" />
<path d="M32,725 L302,725" stroke="black" stroke-width="2" />
<path d="M32,735 L32,725" stroke="black" stroke-width="2" />
<path d="M32,725 L482,725" stroke="black" stroke-width="2" />
<path d="M32,735 L32,725" stroke="black" stroke-width="2" />
<path d="M32,725 L662,725" stroke="black" stroke-width="2" />
<path d="M32,735 L32,725" stroke="black" stroke-width="2" />
<path d="M32,725 L932,725" stroke="black" stroke-width="2" />
<rect x="7" y="660" width="50" height="50" fill="pink" stroke="black" stroke-width="1" />
<text x="32" y="652" font-size="15" fill="black" text-anchor="middle" dominant-baseline="central">Diff100_V</text>
<circle cx="32" cy="710" r="5" fill="red" />
<text x="32" y="725" font-size="12" fill="black" valign="top" text-anchor="middle" dominant-baseline="central">IN</text>
<circle cx="32" cy="660" r="5" fill="green" />
<text x="32" y="675" font-size="12" fill="black" valign="top" text-anchor="middle" dominant-baseline="central">OUT</text>
<circle cx="0" cy="710" r="5" fill="yellow" />
<text x="0" y="725" font-size="12" fill="black" valign="top" text-anchor="middle" dominant-baseline="central">CUT</text>
<path d="M32,660 L32,645" stroke="black" stroke-width="2" />
<path d="M32,620 L32,635" stroke="black" stroke-width="2" />
<path d="M32,645 L32,635" stroke="black" stroke-width="2" />
<path d="M32,635 L32,635" stroke="black" stroke-width="2" />
<image x="7" y="570" width="50" height="50" xlink:href="symbolen/CircuitBreaker\circuit_breaker.svg" />
<text x="32.0" y="560" font-size="12" fill="black" text-anchor="middle" dominant-baseline="central">zek1001_V (2p, 16A)</text>
<text x="87" y="620" font-size="20" fill="black" text-anchor="middle" dominant-baseline="central">zek1001_V</text>
<text x="87" y="590" font-size="20" fill="black" text-anchor="middle" dominant-baseline="central">16A</text>
<circle cx="32" cy="470" r="8" fill="ping" />
<text x="32" y="562" font-size="15" fill="black" text-anchor="middle" dominant-baseline="central">zek1001_V</text>
<circle cx="32" cy="620" r="5" fill="red" />
<text x="32" y="635" font-size="12" fill="black" valign="top" text-anchor="middle" dominant-baseline="central">IN</text>
<circle cx="32" cy="570" r="5" fill="green" />
<text x="32" y="585" font-size="12" fill="black" valign="top" text-anchor="middle" dominant-baseline="central">OUT</text>
<circle cx="0" cy="620" r="5" fill="yellow" />
<text x="0" y="635" font-size="12" fill="black" valign="top" text-anchor="middle" dominant-baseline="central">CUT</text>
<path d="M32,570 L32,555" stroke="black" stroke-width="2" />
<path d="M97,415 L82,415" stroke="black" stroke-width="2" />
<path d="M32,570 L32,555" stroke="black" stroke-width="2" />
<path d="M97,325 L82,325" stroke="black" stroke-width="2" />
<path d="M32,570 L32,555" stroke="black" stroke-width="2" />
<path d="M187,415 L172,415" stroke="black" stroke-width="2" />
<path d="M32,570 L32,555" stroke="black" stroke-width="2" />
<path d="M97,145 L82,145" stroke="black" stroke-width="2" />
<path d="M32,555 L32,415" stroke="black" stroke-width="2" />
<path d="M32,415 L82,415" stroke="black" stroke-width="2" />
<text x="42" y="430" font-size="15" fill="blue" text-anchor="middle" dominant-baseline="central">1</text>
<path d="M32,555 L32,325" stroke="black" stroke-width="2" />
<path d="M32,325 L82,325" stroke="black" stroke-width="2" />
<text x="42" y="340" font-size="15" fill="blue" text-anchor="middle" dominant-baseline="central">2</text>
<path d="M32,555 L32,415" stroke="black" stroke-width="2" />
<path d="M32,415 L172,415" stroke="black" stroke-width="2" />
<text x="132" y="430" font-size="15" fill="blue" text-anchor="middle" dominant-baseline="central">3</text>
<path d="M32,555 L32,145" stroke="black" stroke-width="2" />
<path d="M32,145 L82,145" stroke="black" stroke-width="2" />
<text x="42" y="160" font-size="15" fill="blue" text-anchor="middle" dominant-baseline="central">4</text>
<rect x="97" y="390" width="50" height="50" fill="pink" stroke="black" stroke-width="1" />
<text x="122" y="382" font-size="15" fill="black" text-anchor="middle" dominant-baseline="central">Verlichting6_H</text>
<circle cx="97" cy="415" r="5" fill="red" />
<text x="97" y="430" font-size="12" fill="black" valign="top" text-anchor="middle" dominant-baseline="central">IN</text>
<circle cx="147" cy="415" r="5" fill="green" />
<text x="147" y="430" font-size="12" fill="black" valign="top" text-anchor="middle" dominant-baseline="central">OUT</text>
<rect x="97" y="300" width="50" height="50" fill="pink" stroke="black" stroke-width="1" />
<text x="122" y="292" font-size="15" fill="black" text-anchor="middle" dominant-baseline="central">vaatwas301_H</text>
<circle cx="97" cy="325" r="5" fill="red" />
<text x="97" y="340" font-size="12" fill="black" valign="top" text-anchor="middle" dominant-baseline="central">IN</text>
<circle cx="147" cy="325" r="5" fill="green" />
<text x="147" y="340" font-size="12" fill="black" valign="top" text-anchor="middle" dominant-baseline="central">OUT</text>
<image x="187" y="390" width="50" height="50" xlink:href="symbolen/Prieze\prieze_hydro_false_kinder_true_aarding_true_1.svg" />
<text x="212.0" y="415.0" font-size="12" fill="red" text-anchor="middle" dominant-baseline="central">prieze</text>
<text x="212" y="382" font-size="15" fill="black" text-anchor="middle" dominant-baseline="central">prieze</text>
<circle cx="187" cy="415" r="5" fill="red" />
<text x="187" y="430" font-size="12" fill="black" valign="top" text-anchor="middle" dominant-baseline="central">IN</text>
<circle cx="237" cy="415" r="5" fill="green" />
<text x="237" y="430" font-size="12" fill="black" valign="top" text-anchor="middle" dominant-baseline="central">OUT</text>
<image x="97" y="120" width="50" height="50" xlink:href="symbolen/Prieze\prieze_hydro_false_kinder_true_aarding_true_2.svg" />
<text x="122.0" y="145.0" font-size="12" fill="red" text-anchor="middle" dominant-baseline="central">prieze</text>
<text x="122" y="112" font-size="15" fill="black" text-anchor="middle" dominant-baseline="central">prieze</text>
<circle cx="97" cy="145" r="5" fill="red" />
<text x="97" y="160" font-size="12" fill="black" valign="top" text-anchor="middle" dominant-baseline="central">IN</text>
<circle cx="147" cy="145" r="5" fill="green" />
<text x="147" y="160" font-size="12" fill="black" valign="top" text-anchor="middle" dominant-baseline="central">OUT</text>
<image x="277" y="660" width="50" height="50" xlink:href="symbolen/CircuitBreaker\circuit_breaker.svg" />
<text x="302.0" y="650" font-size="12" fill="black" text-anchor="middle" dominant-baseline="central">zek3001_V (2p, 16A)</text>
<text x="357" y="710" font-size="20" fill="black" text-anchor="middle" dominant-baseline="central">zek3001_V</text>
<text x="357" y="680" font-size="20" fill="black" text-anchor="middle" dominant-baseline="central">16A</text>
<circle cx="302" cy="560" r="8" fill="ping" />
<text x="302" y="652" font-size="15" fill="black" text-anchor="middle" dominant-baseline="central">zek3001_V</text>
<circle cx="302" cy="710" r="5" fill="red" />
<text x="302" y="725" font-size="12" fill="black" valign="top" text-anchor="middle" dominant-baseline="central">IN</text>
<circle cx="302" cy="660" r="5" fill="green" />
<text x="302" y="675" font-size="12" fill="black" valign="top" text-anchor="middle" dominant-baseline="central">OUT</text>
<circle cx="270" cy="710" r="5" fill="yellow" />
<text x="270" y="725" font-size="12" fill="black" valign="top" text-anchor="middle" dominant-baseline="central">CUT</text>
<path d="M302,660 L302,645" stroke="black" stroke-width="2" />
<path d="M367,505 L352,505" stroke="black" stroke-width="2" />
<path d="M302,645 L302,505" stroke="black" stroke-width="2" />
<path d="M302,505 L352,505" stroke="black" stroke-width="2" />
<text x="312" y="520" font-size="15" fill="blue" text-anchor="middle" dominant-baseline="central">1</text>
<rect x="367" y="480" width="50" height="50" fill="pink" stroke="black" stroke-width="1" />
<text x="392" y="472" font-size="15" fill="black" text-anchor="middle" dominant-baseline="central">droogkast3002_H</text>
<circle cx="367" cy="505" r="5" fill="red" />
<text x="367" y="520" font-size="12" fill="black" valign="top" text-anchor="middle" dominant-baseline="central">IN</text>
<circle cx="417" cy="505" r="5" fill="green" />
<text x="417" y="520" font-size="12" fill="black" valign="top" text-anchor="middle" dominant-baseline="central">OUT</text>
<image x="457" y="660" width="50" height="50" xlink:href="symbolen/CircuitBreaker\circuit_breaker.svg" />
<text x="482.0" y="650" font-size="12" fill="black" text-anchor="middle" dominant-baseline="central">zek3002_V (2p, 16A)</text>
<text x="537" y="710" font-size="20" fill="black" text-anchor="middle" dominant-baseline="central">zek3002_V</text>
<text x="537" y="680" font-size="20" fill="black" text-anchor="middle" dominant-baseline="central">16A</text>
<circle cx="482" cy="560" r="8" fill="ping" />
<text x="482" y="652" font-size="15" fill="black" text-anchor="middle" dominant-baseline="central">zek3002_V</text>
<circle cx="482" cy="710" r="5" fill="red" />
<text x="482" y="725" font-size="12" fill="black" valign="top" text-anchor="middle" dominant-baseline="central">IN</text>
<circle cx="482" cy="660" r="5" fill="green" />
<text x="482" y="675" font-size="12" fill="black" valign="top" text-anchor="middle" dominant-baseline="central">OUT</text>
<circle cx="450" cy="710" r="5" fill="yellow" />
<text x="450" y="725" font-size="12" fill="black" valign="top" text-anchor="middle" dominant-baseline="central">CUT</text>
<path d="M482,660 L482,645" stroke="black" stroke-width="2" />
<path d="M547,505 L532,505" stroke="black" stroke-width="2" />
<path d="M482,660 L482,645" stroke="black" stroke-width="2" />
<path d="M547,415 L532,415" stroke="black" stroke-width="2" />
<path d="M482,645 L482,505" stroke="black" stroke-width="2" />
<path d="M482,505 L532,505" stroke="black" stroke-width="2" />
<text x="492" y="520" font-size="15" fill="blue" text-anchor="middle" dominant-baseline="central">1</text>
<path d="M482,645 L482,415" stroke="black" stroke-width="2" />
<path d="M482,415 L532,415" stroke="black" stroke-width="2" />
<text x="492" y="430" font-size="15" fill="blue" text-anchor="middle" dominant-baseline="central">2</text>
<rect x="547" y="480" width="50" height="50" fill="pink" stroke="black" stroke-width="1" />
<text x="572" y="472" font-size="15" fill="black" text-anchor="middle" dominant-baseline="central">microoven3002_H</text>
<circle cx="547" cy="505" r="5" fill="red" />
<text x="547" y="520" font-size="12" fill="black" valign="top" text-anchor="middle" dominant-baseline="central">IN</text>
<circle cx="597" cy="505" r="5" fill="green" />
<text x="597" y="520" font-size="12" fill="black" valign="top" text-anchor="middle" dominant-baseline="central">OUT</text>
<rect x="547" y="390" width="50" height="50" fill="pink" stroke="black" stroke-width="1" />
<text x="572" y="382" font-size="15" fill="black" text-anchor="middle" dominant-baseline="central">oven3002_H</text>
<circle cx="547" cy="415" r="5" fill="red" />
<text x="547" y="430" font-size="12" fill="black" valign="top" text-anchor="middle" dominant-baseline="central">IN</text>
<circle cx="597" cy="415" r="5" fill="green" />
<text x="597" y="430" font-size="12" fill="black" valign="top" text-anchor="middle" dominant-baseline="central">OUT</text>
<image x="637" y="660" width="50" height="50" xlink:href="symbolen/CircuitBreaker\circuit_breaker.svg" />
<text x="662.0" y="650" font-size="12" fill="black" text-anchor="middle" dominant-baseline="central">zek3003_V (2p, 16A)</text>
<text x="717" y="710" font-size="20" fill="black" text-anchor="middle" dominant-baseline="central">zek3003_V</text>
<text x="717" y="680" font-size="20" fill="black" text-anchor="middle" dominant-baseline="central">16A</text>
<circle cx="662" cy="560" r="8" fill="ping" />
<text x="662" y="652" font-size="15" fill="black" text-anchor="middle" dominant-baseline="central">zek3003_V</text>
<circle cx="662" cy="710" r="5" fill="red" />
<text x="662" y="725" font-size="12" fill="black" valign="top" text-anchor="middle" dominant-baseline="central">IN</text>
<circle cx="662" cy="660" r="5" fill="green" />
<text x="662" y="675" font-size="12" fill="black" valign="top" text-anchor="middle" dominant-baseline="central">OUT</text>
<circle cx="630" cy="710" r="5" fill="yellow" />
<text x="630" y="725" font-size="12" fill="black" valign="top" text-anchor="middle" dominant-baseline="central">CUT</text>
<path d="M662,660 L662,645" stroke="black" stroke-width="2" />
<path d="M727,505 L712,505" stroke="black" stroke-width="2" />
<path d="M662,660 L662,645" stroke="black" stroke-width="2" />
<path d="M727,145 L712,145" stroke="black" stroke-width="2" />
<path d="M662,660 L662,645" stroke="black" stroke-width="2" />
<path d="M727,55 L712,55" stroke="black" stroke-width="2" />
<path d="M662,645 L662,505" stroke="black" stroke-width="2" />
<path d="M662,505 L712,505" stroke="black" stroke-width="2" />
<text x="672" y="520" font-size="15" fill="blue" text-anchor="middle" dominant-baseline="central">1</text>
<path d="M662,645 L662,145" stroke="black" stroke-width="2" />
<path d="M662,145 L712,145" stroke="black" stroke-width="2" />
<text x="672" y="160" font-size="15" fill="blue" text-anchor="middle" dominant-baseline="central">2</text>
<path d="M662,645 L662,55" stroke="black" stroke-width="2" />
<path d="M662,55 L712,55" stroke="black" stroke-width="2" />
<text x="672" y="70" font-size="15" fill="blue" text-anchor="middle" dominant-baseline="central">3</text>
<rect x="727" y="480" width="50" height="50" fill="pink" stroke="black" stroke-width="1" />
<text x="752" y="472" font-size="15" fill="black" text-anchor="middle" dominant-baseline="central">domo2_H</text>
<circle cx="727" cy="505" r="5" fill="red" />
<text x="727" y="520" font-size="12" fill="black" valign="top" text-anchor="middle" dominant-baseline="central">IN</text>
<circle cx="777" cy="505" r="5" fill="green" />
<text x="777" y="520" font-size="12" fill="black" valign="top" text-anchor="middle" dominant-baseline="central">OUT</text>
<path d="M777,505 L792,505" stroke="black" stroke-width="2" />
<path d="M817,505 L802,505" stroke="black" stroke-width="2" />
<path d="M777,505 L792,505" stroke="black" stroke-width="2" />
<path d="M817,415 L802,415" stroke="black" stroke-width="2" />
<path d="M777,505 L792,505" stroke="black" stroke-width="2" />
<path d="M817,325 L802,325" stroke="black" stroke-width="2" />
<path d="M777,505 L792,505" stroke="black" stroke-width="2" />
<path d="M817,235 L802,235" stroke="black" stroke-width="2" />
<path d="M792,505 L802,505" stroke="black" stroke-width="2" />
<path d="M802,505 L802,505" stroke="black" stroke-width="2" />
<path d="M792,505 L802,505" stroke="black" stroke-width="2" />
<path d="M802,505 L802,415" stroke="black" stroke-width="2" />
<path d="M792,505 L802,505" stroke="black" stroke-width="2" />
<path d="M802,505 L802,325" stroke="black" stroke-width="2" />
<path d="M792,505 L802,505" stroke="black" stroke-width="2" />
<path d="M802,505 L802,235" stroke="black" stroke-width="2" />
<rect x="817" y="480" width="50" height="50" fill="pink" stroke="black" stroke-width="1" />
<text x="842" y="472" font-size="15" fill="black" text-anchor="middle" dominant-baseline="central">Verlichting2_H</text>
<circle cx="817" cy="505" r="5" fill="red" />
<text x="817" y="520" font-size="12" fill="black" valign="top" text-anchor="middle" dominant-baseline="central">IN</text>
<circle cx="867" cy="505" r="5" fill="green" />
<text x="867" y="520" font-size="12" fill="black" valign="top" text-anchor="middle" dominant-baseline="central">OUT</text>
<rect x="817" y="390" width="50" height="50" fill="pink" stroke="black" stroke-width="1" />
<text x="842" y="382" font-size="15" fill="black" text-anchor="middle" dominant-baseline="central">Verlichting3_H</text>
<circle cx="817" cy="415" r="5" fill="red" />
<text x="817" y="430" font-size="12" fill="black" valign="top" text-anchor="middle" dominant-baseline="central">IN</text>
<circle cx="867" cy="415" r="5" fill="green" />
<text x="867" y="430" font-size="12" fill="black" valign="top" text-anchor="middle" dominant-baseline="central">OUT</text>
<rect x="817" y="300" width="50" height="50" fill="pink" stroke="black" stroke-width="1" />
<text x="842" y="292" font-size="15" fill="black" text-anchor="middle" dominant-baseline="central">Verlichting4_H</text>
<circle cx="817" cy="325" r="5" fill="red" />
<text x="817" y="340" font-size="12" fill="black" valign="top" text-anchor="middle" dominant-baseline="central">IN</text>
<circle cx="867" cy="325" r="5" fill="green" />
<text x="867" y="340" font-size="12" fill="black" valign="top" text-anchor="middle" dominant-baseline="central">OUT</text>
<rect x="817" y="210" width="50" height="50" fill="pink" stroke="black" stroke-width="1" />
<text x="842" y="202" font-size="15" fill="black" text-anchor="middle" dominant-baseline="central">Verlichting5_H</text>
<circle cx="817" cy="235" r="5" fill="red" />
<text x="817" y="250" font-size="12" fill="black" valign="top" text-anchor="middle" dominant-baseline="central">IN</text>
<circle cx="867" cy="235" r="5" fill="green" />
<text x="867" y="250" font-size="12" fill="black" valign="top" text-anchor="middle" dominant-baseline="central">OUT</text>
<rect x="727" y="120" width="50" height="50" fill="pink" stroke="black" stroke-width="1" />
<text x="752" y="112" font-size="15" fill="black" text-anchor="middle" dominant-baseline="central">Domomodule_H</text>
<circle cx="727" cy="145" r="5" fill="red" />
<text x="727" y="160" font-size="12" fill="black" valign="top" text-anchor="middle" dominant-baseline="central">IN</text>
<circle cx="777" cy="145" r="5" fill="green" />
<text x="777" y="160" font-size="12" fill="black" valign="top" text-anchor="middle" dominant-baseline="central">OUT</text>
<path d="M777,145 L792,145" stroke="black" stroke-width="2" />
<path d="M817,145 L802,145" stroke="black" stroke-width="2" />
<path d="M792,145 L802,145" stroke="black" stroke-width="2" />
<path d="M802,145 L802,145" stroke="black" stroke-width="2" />
<rect x="817" y="120" width="50" height="50" fill="pink" stroke="black" stroke-width="1" />
<text x="842" y="112" font-size="15" fill="black" text-anchor="middle" dominant-baseline="central">Verlichting_H</text>
<circle cx="817" cy="145" r="5" fill="red" />
<text x="817" y="160" font-size="12" fill="black" valign="top" text-anchor="middle" dominant-baseline="central">IN</text>
<circle cx="867" cy="145" r="5" fill="green" />
<text x="867" y="160" font-size="12" fill="black" valign="top" text-anchor="middle" dominant-baseline="central">OUT</text>
<rect x="727" y="30" width="50" height="50" fill="pink" stroke="black" stroke-width="1" />
<text x="752" y="22" font-size="15" fill="black" text-anchor="middle" dominant-baseline="central">tv_H</text>
<circle cx="727" cy="55" r="5" fill="red" />
<text x="727" y="70" font-size="12" fill="black" valign="top" text-anchor="middle" dominant-baseline="central">IN</text>
<circle cx="777" cy="55" r="5" fill="green" />
<text x="777" y="70" font-size="12" fill="black" valign="top" text-anchor="middle" dominant-baseline="central">OUT</text>
<image x="907" y="660" width="50" height="50" xlink:href="symbolen/CircuitBreaker\circuit_breaker.svg" />
<text x="932.0" y="650" font-size="12" fill="black" text-anchor="middle" dominant-baseline="central">zek3004verl_V (2p, 16A)</text>
<text x="987" y="710" font-size="20" fill="black" text-anchor="middle" dominant-baseline="central">zek3004verl_V</text>
<text x="987" y="680" font-size="20" fill="black" text-anchor="middle" dominant-baseline="central">16A</text>
<circle cx="932" cy="560" r="8" fill="ping" />
<text x="932" y="652" font-size="15" fill="black" text-anchor="middle" dominant-baseline="central">zek3004verl_V</text>
<circle cx="932" cy="710" r="5" fill="red" />
<text x="932" y="725" font-size="12" fill="black" valign="top" text-anchor="middle" dominant-baseline="central">IN</text>
<circle cx="932" cy="660" r="5" fill="green" />
<text x="932" y="675" font-size="12" fill="black" valign="top" text-anchor="middle" dominant-baseline="central">OUT</text>
<circle cx="900" cy="710" r="5" fill="yellow" />
<text x="900" y="725" font-size="12" fill="black" valign="top" text-anchor="middle" dominant-baseline="central">CUT</text>
<path d="M932,660 L932,645" stroke="black" stroke-width="2" />
<path d="M997,505 L982,505" stroke="black" stroke-width="2" />
<path d="M932,660 L932,645" stroke="black" stroke-width="2" />
<path d="M997,415 L982,415" stroke="black" stroke-width="2" />
<path d="M932,660 L932,645" stroke="black" stroke-width="2" />
<path d="M997,325 L982,325" stroke="black" stroke-width="2" />
<path d="M932,660 L932,645" stroke="black" stroke-width="2" />
<path d="M997,235 L982,235" stroke="black" stroke-width="2" />
<path d="M932,660 L932,645" stroke="black" stroke-width="2" />
<path d="M997,145 L982,145" stroke="black" stroke-width="2" />
<path d="M932,645 L932,505" stroke="black" stroke-width="2" />
<path d="M932,505 L982,505" stroke="black" stroke-width="2" />
<text x="942" y="520" font-size="15" fill="blue" text-anchor="middle" dominant-baseline="central">1</text>
<path d="M932,645 L932,415" stroke="black" stroke-width="2" />
<path d="M932,415 L982,415" stroke="black" stroke-width="2" />
<text x="942" y="430" font-size="15" fill="blue" text-anchor="middle" dominant-baseline="central">2</text>
<path d="M932,645 L932,325" stroke="black" stroke-width="2" />
<path d="M932,325 L982,325" stroke="black" stroke-width="2" />
<text x="942" y="340" font-size="15" fill="blue" text-anchor="middle" dominant-baseline="central">3</text>
<path d="M932,645 L932,235" stroke="black" stroke-width="2" />
<path d="M932,235 L982,235" stroke="black" stroke-width="2" />
<text x="942" y="250" font-size="15" fill="blue" text-anchor="middle" dominant-baseline="central">4</text>
<path d="M932,645 L932,145" stroke="black" stroke-width="2" />
<path d="M932,145 L982,145" stroke="black" stroke-width="2" />
<text x="942" y="160" font-size="15" fill="blue" text-anchor="middle" dominant-baseline="central">5</text>
<rect x="997" y="480" width="50" height="50" fill="pink" stroke="black" stroke-width="1" />
<text x="1022" y="472" font-size="15" fill="black" text-anchor="middle" dominant-baseline="central">Verlicht1_H</text>
<circle cx="997" cy="505" r="5" fill="red" />
<text x="997" y="520" font-size="12" fill="black" valign="top" text-anchor="middle" dominant-baseline="central">IN</text>
<circle cx="1047" cy="505" r="5" fill="green" />
<text x="1047" y="520" font-size="12" fill="black" valign="top" text-anchor="middle" dominant-baseline="central">OUT</text>
<rect x="997" y="390" width="50" height="50" fill="pink" stroke="black" stroke-width="1" />
<text x="1022" y="382" font-size="15" fill="black" text-anchor="middle" dominant-baseline="central">Verlicht2_H</text>
<circle cx="997" cy="415" r="5" fill="red" />
<text x="997" y="430" font-size="12" fill="black" valign="top" text-anchor="middle" dominant-baseline="central">IN</text>
<circle cx="1047" cy="415" r="5" fill="green" />
<text x="1047" y="430" font-size="12" fill="black" valign="top" text-anchor="middle" dominant-baseline="central">OUT</text>
<rect x="997" y="300" width="50" height="50" fill="pink" stroke="black" stroke-width="1" />
<text x="1022" y="292" font-size="15" fill="black" text-anchor="middle" dominant-baseline="central">Verlicht3_H</text>
<circle cx="997" cy="325" r="5" fill="red" />
<text x="997" y="340" font-size="12" fill="black" valign="top" text-anchor="middle" dominant-baseline="central">IN</text>
<circle cx="1047" cy="325" r="5" fill="green" />
<text x="1047" y="340" font-size="12" fill="black" valign="top" text-anchor="middle" dominant-baseline="central">OUT</text>
<rect x="997" y="210" width="50" height="50" fill="pink" stroke="black" stroke-width="1" />
<text x="1022" y="202" font-size="15" fill="black" text-anchor="middle" dominant-baseline="central">contaxop3004_H</text>
<circle cx="997" cy="235" r="5" fill="red" />
<text x="997" y="250" font-size="12" fill="black" valign="top" text-anchor="middle" dominant-baseline="central">IN</text>
<circle cx="1047" cy="235" r="5" fill="green" />
<text x="1047" y="250" font-size="12" fill="black" valign="top" text-anchor="middle" dominant-baseline="central">OUT</text>
<path d="M1047,235 L1062,235" stroke="black" stroke-width="2" />
<path d="M1087,235 L1072,235" stroke="black" stroke-width="2" />
<path d="M1062,235 L1072,235" stroke="black" stroke-width="2" />
<path d="M1072,235 L1072,235" stroke="black" stroke-width="2" />
<rect x="1087" y="210" width="50" height="50" fill="pink" stroke="black" stroke-width="1" />
<text x="1112" y="202" font-size="15" fill="black" text-anchor="middle" dominant-baseline="central">contaxopcontax_H</text>
<circle cx="1087" cy="235" r="5" fill="red" />
<text x="1087" y="250" font-size="12" fill="black" valign="top" text-anchor="middle" dominant-baseline="central">IN</text>
<circle cx="1137" cy="235" r="5" fill="green" />
<text x="1137" y="250" font-size="12" fill="black" valign="top" text-anchor="middle" dominant-baseline="central">OUT</text>
<path d="M1137,235 L1152,235" stroke="black" stroke-width="2" />
<path d="M1177,235 L1162,235" stroke="black" stroke-width="2" />
<path d="M1152,235 L1162,235" stroke="black" stroke-width="2" />
<path d="M1162,235 L1162,235" stroke="black" stroke-width="2" />
<rect x="1177" y="210" width="50" height="50" fill="pink" stroke="black" stroke-width="1" />
<text x="1202" y="202" font-size="15" fill="black" text-anchor="middle" dominant-baseline="central">faaropcontax_H</text>
<circle cx="1177" cy="235" r="5" fill="red" />
<text x="1177" y="250" font-size="12" fill="black" valign="top" text-anchor="middle" dominant-baseline="central">IN</text>
<circle cx="1227" cy="235" r="5" fill="green" />
<text x="1227" y="250" font-size="12" fill="black" valign="top" text-anchor="middle" dominant-baseline="central">OUT</text>
<rect x="997" y="120" width="50" height="50" fill="pink" stroke="black" stroke-width="1" />
<text x="1022" y="112" font-size="15" fill="black" text-anchor="middle" dominant-baseline="central">lamp3004_H</text>
<circle cx="997" cy="145" r="5" fill="red" />
<text x="997" y="160" font-size="12" fill="black" valign="top" text-anchor="middle" dominant-baseline="central">IN</text>
<circle cx="1047" cy="145" r="5" fill="green" />
<text x="1047" y="160" font-size="12" fill="black" valign="top" text-anchor="middle" dominant-baseline="central">OUT</text>
</svg>