<?xml version="1.0" encoding="utf-8" ?>
<svg xmlns="http://www.w3.org/2000/svg" xmlns:ev="http://www.w3.org/2001/xml-events" xmlns:xlink="http://www.w3.org/1999/xlink" baseProfile="full" height="100px" version="1.1" viewBox="0 0 100 100" width="100px">
  <defs/>
  <g id="xc3c3c3_r195_g195_b195">
    <path d="M 0,0 100,0 100,100 0,100 z M 59,89 59,88 63,88 63,87 67,87 67,86 69,86 69,85 71,85 71,84 73,84 73,83 75,83 75,82 77,82 77,81 78,81 78,80 79,80 80,80 80,79 81,79 81,78 82,78 82,77 83,77 83,76 84,76 84,75 85,75 85,74 86,74 86,73 87,73 87,72 88,72 88,71 88,70 89,70 89,69 89,68 90,68 90,67 91,67 91,66 91,65 92,65 92,64 92,63 92,62 93,62 93,61 93,60 94,60 94,59 94,55 95,55 95,52 95,43 94,43 94,40 94,39 93,39 93,38 93,36 92,36 92,34 92,33 91,33 91,32 91,31 90,31 90,30 89,30 89,28 88,28 88,27 87,27 87,26 87,25 86,25 86,24 85,24 85,23 84,23 84,22 83,22 83,21 82,21 82,20 81,20 81,19 79,19 79,18 78,18 78,17 77,17 77,16 76,16 75,16 75,15 74,15 73,15 73,14 72,14 71,14 71,13 70,13 69,13 69,12 68,12 67,12 67,11 66,11 63,11 63,10 61,10 58,10 58,9 54,9 48,9 46,9 46,10 43,10 41,10 41,11 38,11 38,12 35,12 35,13 33,13 33,14 31,14 31,15 29,15 29,16 27,16 27,17 26,17 26,18 25,18 25,19 23,19 23,20 22,20 22,21 21,21 21,22 20,22 20,23 19,23 19,24 18,24 18,25 17,25 17,26 17,27 16,27 16,28 15,28 15,30 14,30 14,32 13,32 13,33 12,33 12,36 11,36 11,39 10,39 10,41 10,43 9,43 9,45 9,54 9,55 10,55 10,56 10,59 11,59 11,62 12,62 12,65 13,65 13,67 14,67 14,68 15,68 15,70 16,70 16,72 17,72 17,73 18,73 18,74 19,74 19,75 20,75 20,76 21,76 21,77 22,77 22,78 23,78 23,79 24,79 24,80 26,80 26,81 27,81 27,82 29,82 29,83 31,83 31,84 33,84 33,85 35,85 35,86 37,86 37,87 41,87 41,88 45,88 45,89 55,89 z" fill="#c3c3c3" fill-opacity="1.0" id="xc3c3c3_r195_g195_b195_shape1"/>
    <path d="M 46,14 58,14 58,15 62,15 62,16 66,16 66,17 68,17 68,18 70,18 70,19 72,19 72,20 74,20 74,21 75,21 75,22 76,22 76,23 78,23 78,24 79,24 79,25 80,25 80,26 81,26 81,27 82,27 82,28 83,28 83,29 84,29 84,30 84,31 85,31 85,32 85,33 86,33 86,34 86,35 87,35 87,36 87,37 88,37 88,38 88,39 89,39 89,40 89,43 90,43 90,45 90,47 90,55 89,55 89,59 88,59 88,62 87,62 87,64 86,64 86,65 85,65 85,67 84,67 84,69 83,69 83,70 82,70 82,71 81,71 81,72 80,72 80,73 79,73 79,74 78,74 78,75 77,75 77,76 75,76 75,77 74,77 74,78 72,78 72,79 70,79 70,80 68,80 68,81 66,81 66,82 63,82 63,83 59,83 59,84 54,84 45,84 45,83 41,83 41,82 38,82 38,81 36,81 36,80 34,80 34,79 32,79 32,78 30,78 30,77 29,77 29,76 27,76 27,75 26,75 26,74 25,74 25,73 24,73 24,72 23,72 23,71 22,71 22,70 21,70 21,69 20,69 20,67 19,67 19,65 18,65 18,63 17,63 17,61 16,61 16,59 15,59 15,54 14,54 14,44 15,44 15,39 16,39 16,37 17,37 17,35 18,35 18,33 19,33 19,31 20,31 20,30 21,30 21,28 22,28 22,27 23,27 23,26 24,26 24,25 25,25 25,24 26,24 26,23 28,23 28,22 29,22 29,21 30,21 30,20 32,20 32,19 34,19 34,18 36,18 36,17 38,17 38,16 42,16 42,15 46,15 z M 62,42 62,41 61,41 61,40 60,40 60,37 59,37 59,35 58,35 58,34 58,32 57,32 57,30 57,29 56,29 56,28 56,26 55,26 55,24 54,24 54,23 52,23 51,23 51,24 50,24 50,27 49,27 49,29 48,29 48,31 48,32 47,32 47,33 47,35 46,35 46,38 45,38 45,40 44,40 44,42 40,42 40,43 36,43 36,44 33,44 33,45 29,45 29,46 25,46 25,47 24,47 24,48 23,48 23,50 24,50 24,51 25,51 25,52 29,52 29,53 32,53 32,54 36,54 36,55 40,55 40,56 43,56 43,57 44,57 44,58 45,58 45,60 46,60 46,63 47,63 47,66 48,66 48,69 49,69 49,71 50,71 50,74 51,74 51,75 53,75 54,75 54,74 55,74 55,72 56,72 56,69 57,69 57,66 58,66 58,63 59,63 59,61 60,61 60,58 61,58 61,57 62,57 62,56 65,56 65,55 69,55 69,54 73,54 73,53 76,53 76,52 80,52 80,51 81,51 81,50 82,50 82,48 81,48 81,47 80,47 80,46 76,46 76,45 74,45 72,45 72,44 70,44 69,44 69,43 68,43 65,43 65,42 z" fill="#c3c3c3" fill-opacity="1.0" id="xc3c3c3_r195_g195_b195_shape2"/>
    <path d="M 50,38 51,38 51,36 52,36 52,33 53,33 53,35 54,35 54,37 54,38 55,38 55,39 55,40 55,41 56,41 56,42 56,44 57,44 57,45 58,45 58,46 60,46 61,46 61,47 62,47 65,47 65,48 68,48 68,50 65,50 65,51 61,51 61,52 58,52 58,53 57,53 57,54 56,54 56,57 55,57 55,60 54,60 54,63 53,63 53,65 52,65 52,62 51,62 51,60 50,60 50,57 49,57 49,54 48,54 48,53 47,53 47,52 44,52 44,51 40,51 40,50 37,50 37,48 41,48 41,47 43,47 44,47 44,46 45,46 47,46 47,45 48,45 48,44 49,44 49,42 49,41 50,41 50,40 z" fill="#c3c3c3" fill-opacity="1.0" id="xc3c3c3_r195_g195_b195_shape3"/>
  </g>
  <g id="xffffff_r255_g255_b255">
    <path d="M 29,83 29,82 27,82 27,81 26,81 26,80 24,80 24,79 23,79 23,78 22,78 22,77 21,77 21,76 20,76 20,75 19,75 19,74 18,74 18,73 17,73 17,72 16,72 16,70 15,70 15,68 14,68 14,67 13,67 13,66 13,65 12,65 12,64 12,62 11,62 11,60 11,59 10,59 10,58 10,57 10,55 9,55 9,53 9,43 10,43 10,39 11,39 11,36 12,36 12,33 13,33 13,32 14,32 14,30 15,30 15,28 16,28 16,27 17,27 17,25 18,25 18,24 19,24 19,23 20,23 20,22 21,22 21,21 22,21 22,20 23,20 23,19 25,19 25,18 26,18 26,17 27,17 27,16 29,16 29,15 31,15 31,14 33,14 33,13 35,13 35,12 38,12 38,11 41,11 41,10 46,10 46,9 55,9 58,9 58,10 61,10 63,10 63,11 65,11 67,11 67,12 69,12 69,13 71,13 71,14 73,14 73,15 75,15 75,16 77,16 77,17 78,17 78,18 79,18 79,19 81,19 81,20 82,20 82,21 83,21 83,22 84,22 84,23 85,23 85,24 86,24 86,25 87,25 87,26 87,27 88,27 88,28 89,28 89,30 90,30 90,31 91,31 91,33 92,33 92,36 93,36 93,39 94,39 94,43 95,43 95,55 94,55 94,60 93,60 93,62 92,62 92,65 91,65 91,67 90,67 90,68 89,68 89,70 88,70 88,72 87,72 87,73 86,73 86,74 85,74 85,75 84,75 84,76 83,76 83,77 82,77 82,78 81,78 81,79 80,79 80,80 78,80 78,81 77,81 77,82 75,82 75,83 73,83 73,84 71,84 71,85 69,85 69,86 67,86 67,87 63,87 63,88 59,88 59,89 45,89 45,88 41,88 41,87 37,87 37,86 35,86 35,85 33,85 33,84 31,84 31,83 z M 42,15 42,16 38,16 38,17 36,17 36,18 34,18 34,19 32,19 32,20 30,20 30,21 29,21 29,22 28,22 28,23 26,23 26,24 25,24 25,25 24,25 24,26 23,26 23,27 22,27 22,28 21,28 21,30 20,30 20,31 19,31 19,33 18,33 18,35 17,35 17,37 16,37 16,39 15,39 15,41 15,44 14,44 14,47 14,54 15,54 15,59 16,59 16,61 17,61 17,63 18,63 18,65 19,65 19,67 20,67 20,69 21,69 21,70 22,70 22,71 23,71 23,72 24,72 24,73 25,73 25,74 26,74 26,75 27,75 27,76 29,76 29,77 30,77 30,78 32,78 32,79 34,79 34,80 36,80 36,81 38,81 38,82 41,82 41,83 45,83 45,84 57,84 59,84 59,83 62,83 63,83 63,82 64,82 66,82 66,81 68,81 68,80 70,80 70,79 72,79 72,78 74,78 74,77 75,77 75,76 77,76 77,75 78,75 78,74 79,74 79,73 80,73 80,72 81,72 81,71 82,71 82,70 83,70 83,69 84,69 84,67 85,67 85,65 86,65 86,64 87,64 87,62 88,62 88,59 89,59 89,55 90,55 90,44 90,43 89,43 89,42 89,39 88,39 88,37 87,37 87,35 86,35 86,33 85,33 85,31 84,31 84,29 83,29 83,28 82,28 82,27 81,27 81,26 80,26 80,25 79,25 79,24 78,24 78,23 76,23 76,22 75,22 75,21 74,21 74,20 73,20 72,20 72,19 71,19 70,19 70,18 69,18 68,18 68,17 67,17 66,17 66,16 65,16 62,16 62,15 58,15 58,14 46,14 46,15 z" fill="#ffffff" fill-opacity="1.0" id="xffffff_r255_g255_b255_shape1"/>
    <path d="M 47,32 48,32 48,29 49,29 49,27 50,27 50,24 51,24 51,23 52,23 54,23 54,24 55,24 55,26 56,26 56,28 56,29 57,29 57,30 57,32 58,32 58,34 58,35 59,35 59,36 59,37 60,37 60,38 60,40 61,40 61,41 62,41 62,42 65,42 65,43 69,43 69,44 72,44 72,45 75,45 76,45 76,46 77,46 80,46 80,47 81,47 81,48 82,48 82,50 81,50 81,51 80,51 80,52 76,52 76,53 73,53 73,54 71,54 69,54 69,55 67,55 65,55 65,56 62,56 62,57 61,57 61,58 60,58 60,61 59,61 59,63 58,63 58,66 57,66 57,69 56,69 56,72 55,72 55,74 54,74 54,75 51,75 51,74 50,74 50,73 50,71 49,71 49,69 48,69 48,66 47,66 47,63 46,63 46,61 46,60 45,60 45,59 45,58 44,58 44,57 43,57 43,56 42,56 40,56 40,55 38,55 36,55 36,54 32,54 32,53 29,53 29,52 25,52 25,51 24,51 24,50 23,50 23,48 24,48 24,47 25,47 25,46 29,46 29,45 33,45 33,44 36,44 36,43 39,43 40,43 40,42 41,42 44,42 44,40 45,40 45,38 46,38 46,35 47,35 z M 37,48 37,50 40,50 40,51 44,51 44,52 47,52 47,53 48,53 48,54 49,54 49,57 50,57 50,60 51,60 51,62 52,62 52,65 53,65 53,63 54,63 54,60 55,60 55,57 56,57 56,54 57,54 57,53 58,53 58,52 61,52 61,51 65,51 65,50 68,50 68,48 67,48 65,48 65,47 61,47 61,46 58,46 58,45 57,45 57,44 56,44 56,41 55,41 55,38 54,38 54,35 53,35 53,33 52,33 52,36 51,36 51,38 50,38 50,41 49,41 49,44 48,44 48,45 47,45 47,46 44,46 44,47 41,47 41,48 z" fill="#ffffff" fill-opacity="1.0" id="xffffff_r255_g255_b255_shape2"/>
  </g>
</svg>
