<?xml version="1.0" encoding="utf-8" ?>
<svg xmlns="http://www.w3.org/2000/svg" xmlns:ev="http://www.w3.org/2001/xml-events" xmlns:xlink="http://www.w3.org/1999/xlink" baseProfile="full" height="100px" version="1.1" viewBox="0 0 85 100" width="85px">
  <defs/>
  <g id="xffffff_r255_g255_b255">
    <path d="M 17,10 77,10 77,91 17,91 z" fill="#ffffff" fill-opacity="1.0" id="xffffff_r255_g255_b255_shape1"/>
    <path d="M 82,96 82,5 12,5 12,46 7,46 7,47 2,47 2,46 0,46 0,0 85,0 85,5 85,100 0,100 0,55 12,55 12,96 z" fill="#ffffff" fill-opacity="1.0" id="xffffff_r255_g255_b255_shape2"/>
    <path d="M 12,49 12,50 0,50 0,49 z" fill="#ffffff" fill-opacity="1.0" id="xffffff_r255_g255_b255_shape3"/>
    <path d="M 0,54 0,53 12,53 12,54 z" fill="#ffffff" fill-opacity="1.0" id="xffffff_r255_g255_b255_shape4"/>
  </g>
  <g id="x000000_r0_g0_b0">
    <path d="M 82,96 12,96 12,53 0,53 0,50 12,50 12,29 12,5 82,5 z M 77,91 77,10 17,10 17,91 z" fill="#000000" fill-opacity="1.0" id="x000000_r0_g0_b0_shape1"/>
  </g>
  <g id="xfefefe_r254_g254_b254">
    <path d="M 0,48 0,46 2,46 2,47 7,47 7,46 12,46 12,48 9,48 z" fill="#fefefe" fill-opacity="1.0" id="xfefefe_r254_g254_b254_shape1"/>
    <path d="M 0,55 0,54 12,54 12,55 z" fill="#fefefe" fill-opacity="1.0" id="xfefefe_r254_g254_b254_shape2"/>
  </g>
  <g id="xfdfdfd_r253_g253_b253">
    <path d="M 12,48 12,49 0,49 0,48 z" fill="#fdfdfd" fill-opacity="1.0" id="xfdfdfd_r253_g253_b253_shape1"/>
  </g>
</svg>
