<?xml version="1.0" encoding="utf-8" ?>
<svg xmlns="http://www.w3.org/2000/svg" xmlns:ev="http://www.w3.org/2001/xml-events" xmlns:xlink="http://www.w3.org/1999/xlink" baseProfile="full" height="100px" version="1.1" viewBox="0 0 85 100" width="85px">
  <defs/>
  <g id="xffffff_r255_g255_b255">
    <path d="M 17,10 77,10 77,91 17,91 z M 54,51 54,50 47,50 47,51 49,51 49,57 52,57 52,51 z M 48,54 47,54 47,52 46,52 46,50 43,50 43,51 42,51 42,53 41,53 41,54 40,54 40,52 39,52 39,50 36,50 36,51 35,51 35,50 32,50 32,51 31,51 31,53 30,53 30,50 27,50 27,53 28,53 28,57 32,57 32,56 33,56 33,57 36,57 36,56 37,56 37,55 38,55 38,57 43,57 43,56 44,56 44,55 45,55 45,57 48,57 z" fill="#ffffff" fill-opacity="1.0" id="xffffff_r255_g255_b255_shape1"/>
    <path d="M 82,96 82,5 12,5 12,46 7,46 7,47 2,47 2,46 0,46 0,0 85,0 85,5 85,100 0,100 0,55 12,55 12,96 z" fill="#ffffff" fill-opacity="1.0" id="xffffff_r255_g255_b255_shape2"/>
    <path d="M 12,49 12,50 0,50 0,49 z" fill="#ffffff" fill-opacity="1.0" id="xffffff_r255_g255_b255_shape3"/>
    <path d="M 0,54 0,53 12,53 12,54 z" fill="#ffffff" fill-opacity="1.0" id="xffffff_r255_g255_b255_shape4"/>
    <path d="M 34,53 34,56 33,56 33,53 z" fill="#ffffff" fill-opacity="1.0" id="xffffff_r255_g255_b255_shape5"/>
    <path d="M 35,51 35,53 34,53 34,51 z" fill="#ffffff" fill-opacity="1.0" id="xffffff_r255_g255_b255_shape6"/>
  </g>
  <g id="x000000_r0_g0_b0">
    <path d="M 82,96 12,96 12,53 0,53 0,50 12,50 12,29 12,5 82,5 z M 77,91 77,10 17,10 17,91 z" fill="#000000" fill-opacity="1.0" id="x000000_r0_g0_b0_shape1"/>
    <path d="M 49,50 52,50 52,51 49,51 z" fill="#000000" fill-opacity="1.0" id="x000000_r0_g0_b0_shape2"/>
    <path d="M 39,55 36,55 36,54 39,54 z" fill="#000000" fill-opacity="1.0" id="x000000_r0_g0_b0_shape3"/>
    <path d="M 46,54 46,55 43,55 43,54 z" fill="#000000" fill-opacity="1.0" id="x000000_r0_g0_b0_shape4"/>
    <path d="M 30,55 31,55 31,56 31,57 30,57 30,56 z" fill="#000000" fill-opacity="1.0" id="x000000_r0_g0_b0_shape5"/>
    <path d="M 37,50 38,50 38,51 37,51 z" fill="#000000" fill-opacity="1.0" id="x000000_r0_g0_b0_shape6"/>
    <path d="M 44,50 45,50 45,51 44,51 z" fill="#000000" fill-opacity="1.0" id="x000000_r0_g0_b0_shape7"/>
  </g>
  <g id="xfefefe_r254_g254_b254">
    <path d="M 0,48 0,46 2,46 2,47 7,47 7,46 12,46 12,48 9,48 z" fill="#fefefe" fill-opacity="1.0" id="xfefefe_r254_g254_b254_shape1"/>
    <path d="M 0,55 0,54 12,54 12,55 z" fill="#fefefe" fill-opacity="1.0" id="xfefefe_r254_g254_b254_shape2"/>
  </g>
  <g id="x90dbff_r144_g219_b255">
    <path d="M 51,51 52,51 52,57 51,57 z" fill="#90dbff" fill-opacity="1.0" id="x90dbff_r144_g219_b255_shape1"/>
    <path d="M 54,51 53,51 53,50 54,50 z" fill="#90dbff" fill-opacity="1.0" id="x90dbff_r144_g219_b255_shape2"/>
    <path d="M 29,52 29,51 30,51 30,52 z" fill="#90dbff" fill-opacity="1.0" id="x90dbff_r144_g219_b255_shape3"/>
    <path d="M 40,53 39,53 39,52 40,52 z" fill="#90dbff" fill-opacity="1.0" id="x90dbff_r144_g219_b255_shape4"/>
    <path d="M 46,53 46,52 47,52 47,53 z" fill="#90dbff" fill-opacity="1.0" id="x90dbff_r144_g219_b255_shape5"/>
    <path d="M 32,55 32,54 33,54 33,55 z" fill="#90dbff" fill-opacity="1.0" id="x90dbff_r144_g219_b255_shape6"/>
    <path d="M 40,56 40,55 41,55 41,56 z" fill="#90dbff" fill-opacity="1.0" id="x90dbff_r144_g219_b255_shape7"/>
    <path d="M 48,55 48,56 47,56 47,55 z" fill="#90dbff" fill-opacity="1.0" id="x90dbff_r144_g219_b255_shape8"/>
  </g>
  <g id="xfdfdfd_r253_g253_b253">
    <path d="M 12,48 12,49 0,49 0,48 z" fill="#fdfdfd" fill-opacity="1.0" id="xfdfdfd_r253_g253_b253_shape1"/>
  </g>
  <g id="x003a90_r0_g58_b144">
    <path d="M 29,50 29,51 28,51 28,50 z" fill="#003a90" fill-opacity="1.0" id="x003a90_r0_g58_b144_shape1"/>
    <path d="M 34,51 33,51 33,50 34,50 z" fill="#003a90" fill-opacity="1.0" id="x003a90_r0_g58_b144_shape2"/>
    <path d="M 36,52 37,52 37,53 36,53 z" fill="#003a90" fill-opacity="1.0" id="x003a90_r0_g58_b144_shape3"/>
    <path d="M 43,52 44,52 44,53 43,53 z" fill="#003a90" fill-opacity="1.0" id="x003a90_r0_g58_b144_shape4"/>
    <path d="M 39,54 40,54 40,55 39,55 z" fill="#003a90" fill-opacity="1.0" id="x003a90_r0_g58_b144_shape5"/>
    <path d="M 47,55 46,55 46,54 47,54 z" fill="#003a90" fill-opacity="1.0" id="x003a90_r0_g58_b144_shape6"/>
    <path d="M 32,56 31,56 31,55 32,55 z" fill="#003a90" fill-opacity="1.0" id="x003a90_r0_g58_b144_shape7"/>
    <path d="M 35,56 35,55 36,55 36,56 z" fill="#003a90" fill-opacity="1.0" id="x003a90_r0_g58_b144_shape8"/>
    <path d="M 43,56 42,56 42,55 43,55 z" fill="#003a90" fill-opacity="1.0" id="x003a90_r0_g58_b144_shape9"/>
  </g>
  <g id="xffdb90_r255_g219_b144">
    <path d="M 50,57 49,57 49,51 50,51 z" fill="#ffdb90" fill-opacity="1.0" id="xffdb90_r255_g219_b144_shape1"/>
    <path d="M 48,50 48,51 47,51 47,50 z" fill="#ffdb90" fill-opacity="1.0" id="xffdb90_r255_g219_b144_shape2"/>
    <path d="M 35,55 34,55 34,54 35,54 z" fill="#ffdb90" fill-opacity="1.0" id="xffdb90_r255_g219_b144_shape3"/>
    <path d="M 42,54 42,55 41,55 41,54 z" fill="#ffdb90" fill-opacity="1.0" id="xffdb90_r255_g219_b144_shape4"/>
  </g>
  <g id="xffffb6_r255_g255_b182">
    <path d="M 32,52 31,52 31,51 32,51 z" fill="#ffffb6" fill-opacity="1.0" id="xffffb6_r255_g255_b182_shape1"/>
    <path d="M 35,51 36,51 36,52 35,52 z" fill="#ffffb6" fill-opacity="1.0" id="xffffb6_r255_g255_b182_shape2"/>
    <path d="M 42,52 42,51 43,51 43,52 z" fill="#ffffb6" fill-opacity="1.0" id="xffffb6_r255_g255_b182_shape3"/>
    <path d="M 27,52 28,52 28,53 27,53 z" fill="#ffffb6" fill-opacity="1.0" id="xffffb6_r255_g255_b182_shape4"/>
    <path d="M 38,53 38,54 37,54 37,53 z" fill="#ffffb6" fill-opacity="1.0" id="xffffb6_r255_g255_b182_shape5"/>
    <path d="M 45,53 45,54 44,54 44,53 z" fill="#ffffb6" fill-opacity="1.0" id="xffffb6_r255_g255_b182_shape6"/>
    <path d="M 28,55 29,55 29,56 28,56 z" fill="#ffffb6" fill-opacity="1.0" id="xffffb6_r255_g255_b182_shape7"/>
    <path d="M 39,56 39,57 38,57 38,56 z" fill="#ffffb6" fill-opacity="1.0" id="xffffb6_r255_g255_b182_shape8"/>
    <path d="M 45,56 46,56 46,57 45,57 z" fill="#ffffb6" fill-opacity="1.0" id="xffffb6_r255_g255_b182_shape9"/>
  </g>
  <g id="x3a003a_r58_g0_b58">
    <path d="M 51,57 50,57 50,51 51,51 z" fill="#3a003a" fill-opacity="1.0" id="x3a003a_r58_g0_b58_shape1"/>
    <path d="M 38,53 38,52 39,52 39,53 z" fill="#3a003a" fill-opacity="1.0" id="x3a003a_r58_g0_b58_shape2"/>
    <path d="M 46,52 46,53 45,53 45,52 z" fill="#3a003a" fill-opacity="1.0" id="x3a003a_r58_g0_b58_shape3"/>
    <path d="M 32,54 32,55 31,55 31,54 z" fill="#3a003a" fill-opacity="1.0" id="x3a003a_r58_g0_b58_shape4"/>
  </g>
  <g id="xdbffff_r219_g255_b255">
    <path d="M 30,51 29,51 29,50 30,50 z" fill="#dbffff" fill-opacity="1.0" id="xdbffff_r219_g255_b255_shape1"/>
    <path d="M 34,50 35,50 35,51 34,51 z" fill="#dbffff" fill-opacity="1.0" id="xdbffff_r219_g255_b255_shape2"/>
    <path d="M 40,54 41,54 41,55 40,55 z" fill="#dbffff" fill-opacity="1.0" id="xdbffff_r219_g255_b255_shape3"/>
    <path d="M 47,54 48,54 48,55 47,55 z" fill="#dbffff" fill-opacity="1.0" id="xdbffff_r219_g255_b255_shape4"/>
    <path d="M 33,55 33,56 32,56 32,55 z" fill="#dbffff" fill-opacity="1.0" id="xdbffff_r219_g255_b255_shape5"/>
    <path d="M 37,56 36,56 36,55 37,55 z" fill="#dbffff" fill-opacity="1.0" id="xdbffff_r219_g255_b255_shape6"/>
    <path d="M 43,55 44,55 44,56 43,56 z" fill="#dbffff" fill-opacity="1.0" id="xdbffff_r219_g255_b255_shape7"/>
  </g>
  <g id="xffb666_r255_g182_b102">
    <path d="M 28,52 27,52 27,51 28,51 z" fill="#ffb666" fill-opacity="1.0" id="xffb666_r255_g182_b102_shape1"/>
    <path d="M 32,53 31,53 31,52 32,52 z" fill="#ffb666" fill-opacity="1.0" id="xffb666_r255_g182_b102_shape2"/>
    <path d="M 36,53 35,53 35,52 36,52 z" fill="#ffb666" fill-opacity="1.0" id="xffb666_r255_g182_b102_shape3"/>
    <path d="M 42,53 42,52 43,52 43,53 z" fill="#ffb666" fill-opacity="1.0" id="xffb666_r255_g182_b102_shape4"/>
    <path d="M 29,54 29,55 28,55 28,54 z" fill="#ffb666" fill-opacity="1.0" id="xffb666_r255_g182_b102_shape5"/>
    <path d="M 38,56 38,55 39,55 39,56 z" fill="#ffb666" fill-opacity="1.0" id="xffb666_r255_g182_b102_shape6"/>
    <path d="M 45,56 45,55 46,55 46,56 z" fill="#ffb666" fill-opacity="1.0" id="xffb666_r255_g182_b102_shape7"/>
  </g>
  <g id="x660000_r102_g0_b0">
    <path d="M 33,51 33,52 32,52 32,51 z" fill="#660000" fill-opacity="1.0" id="x660000_r102_g0_b0_shape1"/>
    <path d="M 29,52 29,53 28,53 28,52 z" fill="#660000" fill-opacity="1.0" id="x660000_r102_g0_b0_shape2"/>
    <path d="M 38,54 38,53 39,53 39,54 z" fill="#660000" fill-opacity="1.0" id="x660000_r102_g0_b0_shape3"/>
    <path d="M 46,54 45,54 45,53 46,53 z" fill="#660000" fill-opacity="1.0" id="x660000_r102_g0_b0_shape4"/>
    <path d="M 29,55 30,55 30,56 29,56 z" fill="#660000" fill-opacity="1.0" id="x660000_r102_g0_b0_shape5"/>
    <path d="M 39,57 39,56 40,56 40,57 z" fill="#660000" fill-opacity="1.0" id="x660000_r102_g0_b0_shape6"/>
    <path d="M 46,56 47,56 47,57 46,57 z" fill="#660000" fill-opacity="1.0" id="x660000_r102_g0_b0_shape7"/>
  </g>
  <g id="x0066b6_r0_g102_b182">
    <path d="M 39,51 39,52 38,52 38,51 z" fill="#0066b6" fill-opacity="1.0" id="x0066b6_r0_g102_b182_shape1"/>
    <path d="M 46,52 45,52 45,51 46,51 z" fill="#0066b6" fill-opacity="1.0" id="x0066b6_r0_g102_b182_shape2"/>
    <path d="M 30,53 30,54 29,54 29,53 z" fill="#0066b6" fill-opacity="1.0" id="x0066b6_r0_g102_b182_shape3"/>
    <path d="M 32,54 32,53 33,53 33,54 z" fill="#0066b6" fill-opacity="1.0" id="x0066b6_r0_g102_b182_shape4"/>
    <path d="M 36,56 36,57 35,57 35,56 z" fill="#0066b6" fill-opacity="1.0" id="x0066b6_r0_g102_b182_shape5"/>
    <path d="M 42,57 42,56 43,56 43,57 z" fill="#0066b6" fill-opacity="1.0" id="x0066b6_r0_g102_b182_shape6"/>
  </g>
  <g id="x903a00_r144_g58_b0">
    <path d="M 31,53 32,53 32,54 31,54 z" fill="#903a00" fill-opacity="1.0" id="x903a00_r144_g58_b0_shape1"/>
    <path d="M 36,53 36,54 35,54 35,53 z" fill="#903a00" fill-opacity="1.0" id="x903a00_r144_g58_b0_shape2"/>
    <path d="M 42,53 43,53 43,54 42,54 z" fill="#903a00" fill-opacity="1.0" id="x903a00_r144_g58_b0_shape3"/>
    <path d="M 30,56 30,57 29,57 29,56 z" fill="#903a00" fill-opacity="1.0" id="x903a00_r144_g58_b0_shape4"/>
    <path d="M 34,57 34,56 35,56 35,57 z" fill="#903a00" fill-opacity="1.0" id="x903a00_r144_g58_b0_shape5"/>
    <path d="M 42,57 41,57 41,56 42,56 z" fill="#903a00" fill-opacity="1.0" id="x903a00_r144_g58_b0_shape6"/>
  </g>
  <g id="x3a90db_r58_g144_b219">
    <path d="M 36,53 37,53 37,54 36,54 z" fill="#3a90db" fill-opacity="1.0" id="x3a90db_r58_g144_b219_shape1"/>
    <path d="M 40,53 40,54 39,54 39,53 z" fill="#3a90db" fill-opacity="1.0" id="x3a90db_r58_g144_b219_shape2"/>
    <path d="M 44,53 44,54 43,54 43,53 z" fill="#3a90db" fill-opacity="1.0" id="x3a90db_r58_g144_b219_shape3"/>
    <path d="M 47,53 47,54 46,54 46,53 z" fill="#3a90db" fill-opacity="1.0" id="x3a90db_r58_g144_b219_shape4"/>
    <path d="M 31,56 32,56 32,57 31,57 z" fill="#3a90db" fill-opacity="1.0" id="x3a90db_r58_g144_b219_shape5"/>
    <path d="M 47,56 48,56 48,57 47,57 z" fill="#3a90db" fill-opacity="1.0" id="x3a90db_r58_g144_b219_shape6"/>
  </g>
  <g id="xb66600_r182_g102_b0">
    <path d="M 27,51 27,50 28,50 28,51 z" fill="#b66600" fill-opacity="1.0" id="xb66600_r182_g102_b0_shape1"/>
    <path d="M 33,51 32,51 32,50 33,50 z" fill="#b66600" fill-opacity="1.0" id="xb66600_r182_g102_b0_shape2"/>
    <path d="M 37,50 37,51 36,51 36,50 z" fill="#b66600" fill-opacity="1.0" id="xb66600_r182_g102_b0_shape3"/>
    <path d="M 43,50 44,50 44,51 43,51 z" fill="#b66600" fill-opacity="1.0" id="xb66600_r182_g102_b0_shape4"/>
    <path d="M 29,54 28,54 28,53 29,53 z" fill="#b66600" fill-opacity="1.0" id="xb66600_r182_g102_b0_shape5"/>
  </g>
  <g id="xffffdb_r255_g255_b219">
    <path d="M 30,54 30,53 31,53 31,54 z" fill="#ffffdb" fill-opacity="1.0" id="xffffdb_r255_g255_b219_shape1"/>
    <path d="M 35,54 34,54 34,53 35,53 z" fill="#ffffdb" fill-opacity="1.0" id="xffffdb_r255_g255_b219_shape2"/>
    <path d="M 41,53 42,53 42,54 41,54 z" fill="#ffffdb" fill-opacity="1.0" id="xffffdb_r255_g255_b219_shape3"/>
    <path d="M 28,56 29,56 29,57 28,57 z" fill="#ffffdb" fill-opacity="1.0" id="xffffdb_r255_g255_b219_shape4"/>
    <path d="M 33,56 34,56 34,57 33,57 z" fill="#ffffdb" fill-opacity="1.0" id="xffffdb_r255_g255_b219_shape5"/>
  </g>
  <g id="x66b6ff_r102_g182_b255">
    <path d="M 38,50 39,50 39,51 38,51 z" fill="#66b6ff" fill-opacity="1.0" id="x66b6ff_r102_g182_b255_shape1"/>
    <path d="M 45,51 45,50 46,50 46,51 z" fill="#66b6ff" fill-opacity="1.0" id="x66b6ff_r102_g182_b255_shape2"/>
    <path d="M 34,52 33,52 33,51 34,51 z" fill="#66b6ff" fill-opacity="1.0" id="x66b6ff_r102_g182_b255_shape3"/>
    <path d="M 29,52 30,52 30,53 29,53 z" fill="#66b6ff" fill-opacity="1.0" id="x66b6ff_r102_g182_b255_shape4"/>
  </g>
  <g id="x00003a_r0_g0_b58">
    <path d="M 53,51 52,51 52,50 53,50 z" fill="#00003a" fill-opacity="1.0" id="x00003a_r0_g0_b58_shape1"/>
    <path d="M 28,52 28,51 29,51 29,52 z" fill="#00003a" fill-opacity="1.0" id="x00003a_r0_g0_b58_shape2"/>
    <path d="M 40,56 39,56 39,55 40,55 z" fill="#00003a" fill-opacity="1.0" id="x00003a_r0_g0_b58_shape3"/>
    <path d="M 47,56 46,56 46,55 47,55 z" fill="#00003a" fill-opacity="1.0" id="x00003a_r0_g0_b58_shape4"/>
  </g>
  <g id="x3a0000_r58_g0_b0">
    <path d="M 49,50 49,51 48,51 48,50 z" fill="#3a0000" fill-opacity="1.0" id="x3a0000_r58_g0_b0_shape1"/>
    <path d="M 35,54 36,54 36,55 35,55 z" fill="#3a0000" fill-opacity="1.0" id="x3a0000_r58_g0_b0_shape2"/>
    <path d="M 42,55 42,54 43,54 43,55 z" fill="#3a0000" fill-opacity="1.0" id="x3a0000_r58_g0_b0_shape3"/>
  </g>
  <g id="x66003a_r102_g0_b58">
    <path d="M 37,52 36,52 36,51 37,51 z" fill="#66003a" fill-opacity="1.0" id="x66003a_r102_g0_b58_shape1"/>
    <path d="M 44,51 44,52 43,52 43,51 z" fill="#66003a" fill-opacity="1.0" id="x66003a_r102_g0_b58_shape2"/>
  </g>
  <g id="x66663a_r102_g102_b58">
    <path d="M 38,51 38,52 37,52 37,51 z" fill="#66663a" fill-opacity="1.0" id="x66663a_r102_g102_b58_shape1"/>
    <path d="M 44,52 44,51 45,51 45,52 z" fill="#66663a" fill-opacity="1.0" id="x66663a_r102_g102_b58_shape2"/>
  </g>
  <g id="x000066_r0_g0_b102">
    <path d="M 32,52 33,52 33,53 32,53 z" fill="#000066" fill-opacity="1.0" id="x000066_r0_g0_b102_shape1"/>
    <path d="M 29,55 29,54 30,54 30,55 z" fill="#000066" fill-opacity="1.0" id="x000066_r0_g0_b102_shape2"/>
  </g>
  <g id="xdbdb90_r219_g219_b144">
    <path d="M 38,52 38,53 37,53 37,52 z" fill="#dbdb90" fill-opacity="1.0" id="xdbdb90_r219_g219_b144_shape1"/>
    <path d="M 44,52 45,52 45,53 44,53 z" fill="#dbdb90" fill-opacity="1.0" id="xdbdb90_r219_g219_b144_shape2"/>
  </g>
  <g id="xdb903a_r219_g144_b58">
    <path d="M 35,56 34,56 34,55 35,55 z" fill="#db903a" fill-opacity="1.0" id="xdb903a_r219_g144_b58_shape1"/>
    <path d="M 41,55 42,55 42,56 41,56 z" fill="#db903a" fill-opacity="1.0" id="xdb903a_r219_g144_b58_shape2"/>
  </g>
  <g id="xb6ffff_r182_g255_b255">
    <path d="M 34,52 34,53 33,53 33,52 z" fill="#b6ffff" fill-opacity="1.0" id="xb6ffff_r182_g255_b255_shape1"/>
  </g>
  <g id="xb6db90_r182_g219_b144">
    <path d="M 31,54 31,55 30,55 30,54 z" fill="#b6db90" fill-opacity="1.0" id="xb6db90_r182_g219_b144_shape1"/>
  </g>
  <g id="x3a90b6_r58_g144_b182">
    <path d="M 40,56 41,56 41,57 40,57 z" fill="#3a90b6" fill-opacity="1.0" id="x3a90b6_r58_g144_b182_shape1"/>
  </g>
</svg>
