<?xml version="1.0" encoding="UTF-8"?>
<svg xmlns="http://www.w3.org/2000/svg" xmlns:xlink="http://www.w3.org/1999/xlink"
     width="180" height="870" viewBox="0 0 180 870">
<defs>
</defs>
<rect x="-623" y="30" width="50" height="50" fill="pink" stroke="black" stroke-width="1" />
<text x="-598" y="22" font-size="15" fill="black" text-anchor="middle" dominant-baseline="central">kopkwhmeter_H</text>
<circle cx="-623" cy="55" r="5" fill="red" />
<text x="-623" y="70" font-size="12" fill="black" valign="top" text-anchor="middle" dominant-baseline="central">IN</text>
<circle cx="-573" cy="55" r="5" fill="green" />
<text x="-573" y="70" font-size="12" fill="black" valign="top" text-anchor="middle" dominant-baseline="central">OUT</text>
<path d="M-573,55 L-553,55" stroke="black" stroke-width="2" />
<path d="M-533,55 L-553,55" stroke="black" stroke-width="2" />
<rect x="-533" y="30" width="50" height="50" fill="pink" stroke="black" stroke-width="1" />
<text x="-508" y="22" font-size="15" fill="black" text-anchor="middle" dominant-baseline="central">Teller_H</text>
<circle cx="-533" cy="55" r="5" fill="red" />
<text x="-533" y="70" font-size="12" fill="black" valign="top" text-anchor="middle" dominant-baseline="central">IN</text>
<circle cx="-483" cy="55" r="5" fill="green" />
<text x="-483" y="70" font-size="12" fill="black" valign="top" text-anchor="middle" dominant-baseline="central">OUT</text>
<path d="M-483,55 L-463,55" stroke="black" stroke-width="2" />
<path d="M-418,170 L-418,190" stroke="black" stroke-width="2" />
<path d="M-483,55 L-463,55" stroke="black" stroke-width="2" />
<path d="M-238,170 L-238,190" stroke="black" stroke-width="2" />
<path d="M-483,55 L-463,55" stroke="black" stroke-width="2" />
<path d="M-148,170 L-148,190" stroke="black" stroke-width="2" />
<path d="M-463,55 L-418,55" stroke="black" stroke-width="2" />
<path d="M-418,55 L-418,190" stroke="black" stroke-width="2" />
<path d="M-463,55 L-238,55" stroke="black" stroke-width="2" />
<path d="M-238,55 L-238,190" stroke="black" stroke-width="2" />
<path d="M-463,55 L-148,55" stroke="black" stroke-width="2" />
<path d="M-148,55 L-148,190" stroke="black" stroke-width="2" />
<rect x="-443" y="120" width="50" height="50" fill="pink" stroke="black" stroke-width="1" />
<text x="-418" y="112" font-size="15" fill="black" text-anchor="middle" dominant-baseline="central">Diff3_V</text>
<circle cx="-418" cy="170" r="5" fill="red" />
<text x="-418" y="185" font-size="12" fill="black" valign="top" text-anchor="middle" dominant-baseline="central">IN</text>
<circle cx="-418" cy="120" r="5" fill="green" />
<text x="-418" y="135" font-size="12" fill="black" valign="top" text-anchor="middle" dominant-baseline="central">OUT</text>
<circle cx="-450" cy="170" r="5" fill="yellow" />
<text x="-450" y="185" font-size="12" fill="black" valign="top" text-anchor="middle" dominant-baseline="central">CUT</text>
<path d="M-418,120 L-418,100" stroke="black" stroke-width="2" />
<path d="M-353,235 L-373,235" stroke="black" stroke-width="2" />
<path d="M-418,100 L-418,235" stroke="black" stroke-width="2" />
<path d="M-418,235 L-373,235" stroke="black" stroke-width="2" />
<text x="-408" y="250" font-size="15" fill="blue" text-anchor="middle" dominant-baseline="central">1</text>
<rect x="-353" y="210" width="50" height="50" fill="pink" stroke="black" stroke-width="1" />
<text x="-328" y="202" font-size="15" fill="black" text-anchor="middle" dominant-baseline="central">zonnepaneelopdif3_H</text>
<circle cx="-353" cy="235" r="5" fill="red" />
<text x="-353" y="250" font-size="12" fill="black" valign="top" text-anchor="middle" dominant-baseline="central">IN</text>
<circle cx="-303" cy="235" r="5" fill="green" />
<text x="-303" y="250" font-size="12" fill="black" valign="top" text-anchor="middle" dominant-baseline="central">OUT</text>
<rect x="-263" y="120" width="50" height="50" fill="pink" stroke="black" stroke-width="1" />
<text x="-238" y="112" font-size="15" fill="black" text-anchor="middle" dominant-baseline="central">Diff30_V</text>
<circle cx="-238" cy="170" r="5" fill="red" />
<text x="-238" y="185" font-size="12" fill="black" valign="top" text-anchor="middle" dominant-baseline="central">IN</text>
<circle cx="-238" cy="120" r="5" fill="green" />
<text x="-238" y="135" font-size="12" fill="black" valign="top" text-anchor="middle" dominant-baseline="central">OUT</text>
<circle cx="-270" cy="170" r="5" fill="yellow" />
<text x="-270" y="185" font-size="12" fill="black" valign="top" text-anchor="middle" dominant-baseline="central">CUT</text>
<rect x="-173" y="120" width="50" height="50" fill="pink" stroke="black" stroke-width="1" />
<text x="-148" y="112" font-size="15" fill="black" text-anchor="middle" dominant-baseline="central">Diff300_V</text>
<circle cx="-148" cy="170" r="5" fill="red" />
<text x="-148" y="185" font-size="12" fill="black" valign="top" text-anchor="middle" dominant-baseline="central">IN</text>
<circle cx="-148" cy="120" r="5" fill="green" />
<text x="-148" y="135" font-size="12" fill="black" valign="top" text-anchor="middle" dominant-baseline="central">OUT</text>
<circle cx="-180" cy="170" r="5" fill="yellow" />
<text x="-180" y="185" font-size="12" fill="black" valign="top" text-anchor="middle" dominant-baseline="central">CUT</text>
<path d="M-148,120 L-148,100" stroke="black" stroke-width="2" />
<path d="M-148,260 L-148,280" stroke="black" stroke-width="2" />
<path d="M-148,120 L-148,100" stroke="black" stroke-width="2" />
<path d="M32,260 L32,280" stroke="black" stroke-width="2" />
<path d="M-148,120 L-148,100" stroke="black" stroke-width="2" />
<path d="M212,260 L212,280" stroke="black" stroke-width="2" />
<path d="M-148,120 L-148,100" stroke="black" stroke-width="2" />
<path d="M392,260 L392,280" stroke="black" stroke-width="2" />
<path d="M-148,120 L-148,100" stroke="black" stroke-width="2" />
<path d="M662,260 L662,280" stroke="black" stroke-width="2" />
<path d="M-148,100 L-148,280" stroke="black" stroke-width="2" />
<path d="M-148,280 L-148,280" stroke="black" stroke-width="2" />
<path d="M-148,100 L-148,280" stroke="black" stroke-width="2" />
<path d="M-148,280 L32,280" stroke="black" stroke-width="2" />
<path d="M-148,100 L-148,280" stroke="black" stroke-width="2" />
<path d="M-148,280 L212,280" stroke="black" stroke-width="2" />
<path d="M-148,100 L-148,280" stroke="black" stroke-width="2" />
<path d="M-148,280 L392,280" stroke="black" stroke-width="2" />
<path d="M-148,100 L-148,280" stroke="black" stroke-width="2" />
<path d="M-148,280 L662,280" stroke="black" stroke-width="2" />
<rect x="-173" y="210" width="50" height="50" fill="pink" stroke="black" stroke-width="1" />
<text x="-148" y="202" font-size="15" fill="black" text-anchor="middle" dominant-baseline="central">Diff100_V</text>
<circle cx="-148" cy="260" r="5" fill="red" />
<text x="-148" y="275" font-size="12" fill="black" valign="top" text-anchor="middle" dominant-baseline="central">IN</text>
<circle cx="-148" cy="210" r="5" fill="green" />
<text x="-148" y="225" font-size="12" fill="black" valign="top" text-anchor="middle" dominant-baseline="central">OUT</text>
<circle cx="-180" cy="260" r="5" fill="yellow" />
<text x="-180" y="275" font-size="12" fill="black" valign="top" text-anchor="middle" dominant-baseline="central">CUT</text>
<path d="M-148,210 L-148,190" stroke="black" stroke-width="2" />
<path d="M-148,350 L-148,370" stroke="black" stroke-width="2" />
<path d="M-148,190 L-148,370" stroke="black" stroke-width="2" />
<path d="M-148,370 L-148,370" stroke="black" stroke-width="2" />
<rect x="-173" y="300" width="50" height="50" fill="pink" stroke="black" stroke-width="1" />
<text x="-148" y="292" font-size="15" fill="black" text-anchor="middle" dominant-baseline="central">zek1001_V</text>
<circle cx="-148" cy="350" r="5" fill="red" />
<text x="-148" y="365" font-size="12" fill="black" valign="top" text-anchor="middle" dominant-baseline="central">IN</text>
<circle cx="-148" cy="300" r="5" fill="green" />
<text x="-148" y="315" font-size="12" fill="black" valign="top" text-anchor="middle" dominant-baseline="central">OUT</text>
<circle cx="-180" cy="350" r="5" fill="yellow" />
<text x="-180" y="365" font-size="12" fill="black" valign="top" text-anchor="middle" dominant-baseline="central">CUT</text>
<path d="M-148,300 L-148,280" stroke="black" stroke-width="2" />
<path d="M-83,415 L-103,415" stroke="black" stroke-width="2" />
<path d="M-148,300 L-148,280" stroke="black" stroke-width="2" />
<path d="M-83,505 L-103,505" stroke="black" stroke-width="2" />
<path d="M-148,300 L-148,280" stroke="black" stroke-width="2" />
<path d="M-83,595 L-103,595" stroke="black" stroke-width="2" />
<path d="M-148,300 L-148,280" stroke="black" stroke-width="2" />
<path d="M-83,685 L-103,685" stroke="black" stroke-width="2" />
<path d="M-148,280 L-148,415" stroke="black" stroke-width="2" />
<path d="M-148,415 L-103,415" stroke="black" stroke-width="2" />
<text x="-138" y="430" font-size="15" fill="blue" text-anchor="middle" dominant-baseline="central">1</text>
<path d="M-148,280 L-148,505" stroke="black" stroke-width="2" />
<path d="M-148,505 L-103,505" stroke="black" stroke-width="2" />
<text x="-138" y="520" font-size="15" fill="blue" text-anchor="middle" dominant-baseline="central">2</text>
<path d="M-148,280 L-148,595" stroke="black" stroke-width="2" />
<path d="M-148,595 L-103,595" stroke="black" stroke-width="2" />
<text x="-138" y="610" font-size="15" fill="blue" text-anchor="middle" dominant-baseline="central">3</text>
<path d="M-148,280 L-148,685" stroke="black" stroke-width="2" />
<path d="M-148,685 L-103,685" stroke="black" stroke-width="2" />
<text x="-138" y="700" font-size="15" fill="blue" text-anchor="middle" dominant-baseline="central">4</text>
<rect x="-83" y="390" width="50" height="50" fill="pink" stroke="black" stroke-width="1" />
<text x="-58" y="382" font-size="15" fill="black" text-anchor="middle" dominant-baseline="central">Verlichting6_H</text>
<circle cx="-83" cy="415" r="5" fill="red" />
<text x="-83" y="430" font-size="12" fill="black" valign="top" text-anchor="middle" dominant-baseline="central">IN</text>
<circle cx="-33" cy="415" r="5" fill="green" />
<text x="-33" y="430" font-size="12" fill="black" valign="top" text-anchor="middle" dominant-baseline="central">OUT</text>
<rect x="-83" y="480" width="50" height="50" fill="pink" stroke="black" stroke-width="1" />
<text x="-58" y="472" font-size="15" fill="black" text-anchor="middle" dominant-baseline="central">vaatwas301_H</text>
<circle cx="-83" cy="505" r="5" fill="red" />
<text x="-83" y="520" font-size="12" fill="black" valign="top" text-anchor="middle" dominant-baseline="central">IN</text>
<circle cx="-33" cy="505" r="5" fill="green" />
<text x="-33" y="520" font-size="12" fill="black" valign="top" text-anchor="middle" dominant-baseline="central">OUT</text>
<image x="-83" y="570" width="50" height="50" xlink:href="symbolen/Prieze\prieze_hydro_false_kinder_true_aarding_true_1.svg" />
<text x="-58.0" y="595.0" font-size="12" fill="red" text-anchor="middle" dominant-baseline="central">prieze</text>
<text x="-58" y="562" font-size="15" fill="black" text-anchor="middle" dominant-baseline="central">prieze</text>
<circle cx="-83" cy="595" r="5" fill="red" />
<text x="-83" y="610" font-size="12" fill="black" valign="top" text-anchor="middle" dominant-baseline="central">IN</text>
<circle cx="-33" cy="595" r="5" fill="green" />
<text x="-33" y="610" font-size="12" fill="black" valign="top" text-anchor="middle" dominant-baseline="central">OUT</text>
<image x="-83" y="660" width="50" height="50" xlink:href="symbolen/Prieze\prieze_hydro_false_kinder_true_aarding_true_2.svg" />
<text x="-58.0" y="685.0" font-size="12" fill="red" text-anchor="middle" dominant-baseline="central">prieze</text>
<text x="-58" y="652" font-size="15" fill="black" text-anchor="middle" dominant-baseline="central">prieze</text>
<circle cx="-83" cy="685" r="5" fill="red" />
<text x="-83" y="700" font-size="12" fill="black" valign="top" text-anchor="middle" dominant-baseline="central">IN</text>
<circle cx="-33" cy="685" r="5" fill="green" />
<text x="-33" y="700" font-size="12" fill="black" valign="top" text-anchor="middle" dominant-baseline="central">OUT</text>
<rect x="7" y="210" width="50" height="50" fill="pink" stroke="black" stroke-width="1" />
<text x="32" y="202" font-size="15" fill="black" text-anchor="middle" dominant-baseline="central">zek3001_V</text>
<circle cx="32" cy="260" r="5" fill="red" />
<text x="32" y="275" font-size="12" fill="black" valign="top" text-anchor="middle" dominant-baseline="central">IN</text>
<circle cx="32" cy="210" r="5" fill="green" />
<text x="32" y="225" font-size="12" fill="black" valign="top" text-anchor="middle" dominant-baseline="central">OUT</text>
<circle cx="0" cy="260" r="5" fill="yellow" />
<text x="0" y="275" font-size="12" fill="black" valign="top" text-anchor="middle" dominant-baseline="central">CUT</text>
<path d="M32,210 L32,190" stroke="black" stroke-width="2" />
<path d="M97,325 L77,325" stroke="black" stroke-width="2" />
<path d="M32,190 L32,325" stroke="black" stroke-width="2" />
<path d="M32,325 L77,325" stroke="black" stroke-width="2" />
<text x="42" y="340" font-size="15" fill="blue" text-anchor="middle" dominant-baseline="central">1</text>
<rect x="97" y="300" width="50" height="50" fill="pink" stroke="black" stroke-width="1" />
<text x="122" y="292" font-size="15" fill="black" text-anchor="middle" dominant-baseline="central">droogkast3002_H</text>
<circle cx="97" cy="325" r="5" fill="red" />
<text x="97" y="340" font-size="12" fill="black" valign="top" text-anchor="middle" dominant-baseline="central">IN</text>
<circle cx="147" cy="325" r="5" fill="green" />
<text x="147" y="340" font-size="12" fill="black" valign="top" text-anchor="middle" dominant-baseline="central">OUT</text>
<rect x="187" y="210" width="50" height="50" fill="pink" stroke="black" stroke-width="1" />
<text x="212" y="202" font-size="15" fill="black" text-anchor="middle" dominant-baseline="central">zek3002_V</text>
<circle cx="212" cy="260" r="5" fill="red" />
<text x="212" y="275" font-size="12" fill="black" valign="top" text-anchor="middle" dominant-baseline="central">IN</text>
<circle cx="212" cy="210" r="5" fill="green" />
<text x="212" y="225" font-size="12" fill="black" valign="top" text-anchor="middle" dominant-baseline="central">OUT</text>
<circle cx="180" cy="260" r="5" fill="yellow" />
<text x="180" y="275" font-size="12" fill="black" valign="top" text-anchor="middle" dominant-baseline="central">CUT</text>
<path d="M212,210 L212,190" stroke="black" stroke-width="2" />
<path d="M277,325 L257,325" stroke="black" stroke-width="2" />
<path d="M212,210 L212,190" stroke="black" stroke-width="2" />
<path d="M277,415 L257,415" stroke="black" stroke-width="2" />
<path d="M212,190 L212,325" stroke="black" stroke-width="2" />
<path d="M212,325 L257,325" stroke="black" stroke-width="2" />
<text x="222" y="340" font-size="15" fill="blue" text-anchor="middle" dominant-baseline="central">1</text>
<path d="M212,190 L212,415" stroke="black" stroke-width="2" />
<path d="M212,415 L257,415" stroke="black" stroke-width="2" />
<text x="222" y="430" font-size="15" fill="blue" text-anchor="middle" dominant-baseline="central">2</text>
<rect x="277" y="300" width="50" height="50" fill="pink" stroke="black" stroke-width="1" />
<text x="302" y="292" font-size="15" fill="black" text-anchor="middle" dominant-baseline="central">microoven3002_H</text>
<circle cx="277" cy="325" r="5" fill="red" />
<text x="277" y="340" font-size="12" fill="black" valign="top" text-anchor="middle" dominant-baseline="central">IN</text>
<circle cx="327" cy="325" r="5" fill="green" />
<text x="327" y="340" font-size="12" fill="black" valign="top" text-anchor="middle" dominant-baseline="central">OUT</text>
<rect x="277" y="390" width="50" height="50" fill="pink" stroke="black" stroke-width="1" />
<text x="302" y="382" font-size="15" fill="black" text-anchor="middle" dominant-baseline="central">oven3002_H</text>
<circle cx="277" cy="415" r="5" fill="red" />
<text x="277" y="430" font-size="12" fill="black" valign="top" text-anchor="middle" dominant-baseline="central">IN</text>
<circle cx="327" cy="415" r="5" fill="green" />
<text x="327" y="430" font-size="12" fill="black" valign="top" text-anchor="middle" dominant-baseline="central">OUT</text>
<rect x="367" y="210" width="50" height="50" fill="pink" stroke="black" stroke-width="1" />
<text x="392" y="202" font-size="15" fill="black" text-anchor="middle" dominant-baseline="central">zek3003_V</text>
<circle cx="392" cy="260" r="5" fill="red" />
<text x="392" y="275" font-size="12" fill="black" valign="top" text-anchor="middle" dominant-baseline="central">IN</text>
<circle cx="392" cy="210" r="5" fill="green" />
<text x="392" y="225" font-size="12" fill="black" valign="top" text-anchor="middle" dominant-baseline="central">OUT</text>
<circle cx="360" cy="260" r="5" fill="yellow" />
<text x="360" y="275" font-size="12" fill="black" valign="top" text-anchor="middle" dominant-baseline="central">CUT</text>
<path d="M392,210 L392,190" stroke="black" stroke-width="2" />
<path d="M457,325 L437,325" stroke="black" stroke-width="2" />
<path d="M392,210 L392,190" stroke="black" stroke-width="2" />
<path d="M457,685 L437,685" stroke="black" stroke-width="2" />
<path d="M392,210 L392,190" stroke="black" stroke-width="2" />
<path d="M457,775 L437,775" stroke="black" stroke-width="2" />
<path d="M392,190 L392,325" stroke="black" stroke-width="2" />
<path d="M392,325 L437,325" stroke="black" stroke-width="2" />
<text x="402" y="340" font-size="15" fill="blue" text-anchor="middle" dominant-baseline="central">1</text>
<path d="M392,190 L392,685" stroke="black" stroke-width="2" />
<path d="M392,685 L437,685" stroke="black" stroke-width="2" />
<text x="402" y="700" font-size="15" fill="blue" text-anchor="middle" dominant-baseline="central">2</text>
<path d="M392,190 L392,775" stroke="black" stroke-width="2" />
<path d="M392,775 L437,775" stroke="black" stroke-width="2" />
<text x="402" y="790" font-size="15" fill="blue" text-anchor="middle" dominant-baseline="central">3</text>
<rect x="457" y="300" width="50" height="50" fill="pink" stroke="black" stroke-width="1" />
<text x="482" y="292" font-size="15" fill="black" text-anchor="middle" dominant-baseline="central">domo2_H</text>
<circle cx="457" cy="325" r="5" fill="red" />
<text x="457" y="340" font-size="12" fill="black" valign="top" text-anchor="middle" dominant-baseline="central">IN</text>
<circle cx="507" cy="325" r="5" fill="green" />
<text x="507" y="340" font-size="12" fill="black" valign="top" text-anchor="middle" dominant-baseline="central">OUT</text>
<path d="M507,325 L527,325" stroke="black" stroke-width="2" />
<path d="M547,325 L527,325" stroke="black" stroke-width="2" />
<path d="M507,325 L527,325" stroke="black" stroke-width="2" />
<path d="M547,415 L527,415" stroke="black" stroke-width="2" />
<path d="M507,325 L527,325" stroke="black" stroke-width="2" />
<path d="M547,505 L527,505" stroke="black" stroke-width="2" />
<path d="M507,325 L527,325" stroke="black" stroke-width="2" />
<path d="M547,595 L527,595" stroke="black" stroke-width="2" />
<path d="M527,325 L527,325" stroke="black" stroke-width="2" />
<path d="M527,325 L527,415" stroke="black" stroke-width="2" />
<path d="M527,325 L527,325" stroke="black" stroke-width="2" />
<path d="M527,325 L527,505" stroke="black" stroke-width="2" />
<path d="M527,325 L527,325" stroke="black" stroke-width="2" />
<path d="M527,325 L527,595" stroke="black" stroke-width="2" />
<rect x="547" y="300" width="50" height="50" fill="pink" stroke="black" stroke-width="1" />
<text x="572" y="292" font-size="15" fill="black" text-anchor="middle" dominant-baseline="central">Verlichting2_H</text>
<circle cx="547" cy="325" r="5" fill="red" />
<text x="547" y="340" font-size="12" fill="black" valign="top" text-anchor="middle" dominant-baseline="central">IN</text>
<circle cx="597" cy="325" r="5" fill="green" />
<text x="597" y="340" font-size="12" fill="black" valign="top" text-anchor="middle" dominant-baseline="central">OUT</text>
<rect x="547" y="390" width="50" height="50" fill="pink" stroke="black" stroke-width="1" />
<text x="572" y="382" font-size="15" fill="black" text-anchor="middle" dominant-baseline="central">Verlichting3_H</text>
<circle cx="547" cy="415" r="5" fill="red" />
<text x="547" y="430" font-size="12" fill="black" valign="top" text-anchor="middle" dominant-baseline="central">IN</text>
<circle cx="597" cy="415" r="5" fill="green" />
<text x="597" y="430" font-size="12" fill="black" valign="top" text-anchor="middle" dominant-baseline="central">OUT</text>
<rect x="547" y="480" width="50" height="50" fill="pink" stroke="black" stroke-width="1" />
<text x="572" y="472" font-size="15" fill="black" text-anchor="middle" dominant-baseline="central">Verlichting4_H</text>
<circle cx="547" cy="505" r="5" fill="red" />
<text x="547" y="520" font-size="12" fill="black" valign="top" text-anchor="middle" dominant-baseline="central">IN</text>
<circle cx="597" cy="505" r="5" fill="green" />
<text x="597" y="520" font-size="12" fill="black" valign="top" text-anchor="middle" dominant-baseline="central">OUT</text>
<rect x="547" y="570" width="50" height="50" fill="pink" stroke="black" stroke-width="1" />
<text x="572" y="562" font-size="15" fill="black" text-anchor="middle" dominant-baseline="central">Verlichting5_H</text>
<circle cx="547" cy="595" r="5" fill="red" />
<text x="547" y="610" font-size="12" fill="black" valign="top" text-anchor="middle" dominant-baseline="central">IN</text>
<circle cx="597" cy="595" r="5" fill="green" />
<text x="597" y="610" font-size="12" fill="black" valign="top" text-anchor="middle" dominant-baseline="central">OUT</text>
<rect x="457" y="660" width="50" height="50" fill="pink" stroke="black" stroke-width="1" />
<text x="482" y="652" font-size="15" fill="black" text-anchor="middle" dominant-baseline="central">Domomodule_H</text>
<circle cx="457" cy="685" r="5" fill="red" />
<text x="457" y="700" font-size="12" fill="black" valign="top" text-anchor="middle" dominant-baseline="central">IN</text>
<circle cx="507" cy="685" r="5" fill="green" />
<text x="507" y="700" font-size="12" fill="black" valign="top" text-anchor="middle" dominant-baseline="central">OUT</text>
<path d="M507,685 L527,685" stroke="black" stroke-width="2" />
<path d="M547,685 L527,685" stroke="black" stroke-width="2" />
<rect x="547" y="660" width="50" height="50" fill="pink" stroke="black" stroke-width="1" />
<text x="572" y="652" font-size="15" fill="black" text-anchor="middle" dominant-baseline="central">Verlichting_H</text>
<circle cx="547" cy="685" r="5" fill="red" />
<text x="547" y="700" font-size="12" fill="black" valign="top" text-anchor="middle" dominant-baseline="central">IN</text>
<circle cx="597" cy="685" r="5" fill="green" />
<text x="597" y="700" font-size="12" fill="black" valign="top" text-anchor="middle" dominant-baseline="central">OUT</text>
<rect x="457" y="750" width="50" height="50" fill="pink" stroke="black" stroke-width="1" />
<text x="482" y="742" font-size="15" fill="black" text-anchor="middle" dominant-baseline="central">tv_H</text>
<circle cx="457" cy="775" r="5" fill="red" />
<text x="457" y="790" font-size="12" fill="black" valign="top" text-anchor="middle" dominant-baseline="central">IN</text>
<circle cx="507" cy="775" r="5" fill="green" />
<text x="507" y="790" font-size="12" fill="black" valign="top" text-anchor="middle" dominant-baseline="central">OUT</text>
<rect x="637" y="210" width="50" height="50" fill="pink" stroke="black" stroke-width="1" />
<text x="662" y="202" font-size="15" fill="black" text-anchor="middle" dominant-baseline="central">zek3004verl_V</text>
<circle cx="662" cy="260" r="5" fill="red" />
<text x="662" y="275" font-size="12" fill="black" valign="top" text-anchor="middle" dominant-baseline="central">IN</text>
<circle cx="662" cy="210" r="5" fill="green" />
<text x="662" y="225" font-size="12" fill="black" valign="top" text-anchor="middle" dominant-baseline="central">OUT</text>
<circle cx="630" cy="260" r="5" fill="yellow" />
<text x="630" y="275" font-size="12" fill="black" valign="top" text-anchor="middle" dominant-baseline="central">CUT</text>
<path d="M662,210 L662,190" stroke="black" stroke-width="2" />
<path d="M727,325 L707,325" stroke="black" stroke-width="2" />
<path d="M662,210 L662,190" stroke="black" stroke-width="2" />
<path d="M727,415 L707,415" stroke="black" stroke-width="2" />
<path d="M662,210 L662,190" stroke="black" stroke-width="2" />
<path d="M727,505 L707,505" stroke="black" stroke-width="2" />
<path d="M662,210 L662,190" stroke="black" stroke-width="2" />
<path d="M727,595 L707,595" stroke="black" stroke-width="2" />
<path d="M662,210 L662,190" stroke="black" stroke-width="2" />
<path d="M727,685 L707,685" stroke="black" stroke-width="2" />
<path d="M662,190 L662,325" stroke="black" stroke-width="2" />
<path d="M662,325 L707,325" stroke="black" stroke-width="2" />
<text x="672" y="340" font-size="15" fill="blue" text-anchor="middle" dominant-baseline="central">1</text>
<path d="M662,190 L662,415" stroke="black" stroke-width="2" />
<path d="M662,415 L707,415" stroke="black" stroke-width="2" />
<text x="672" y="430" font-size="15" fill="blue" text-anchor="middle" dominant-baseline="central">2</text>
<path d="M662,190 L662,505" stroke="black" stroke-width="2" />
<path d="M662,505 L707,505" stroke="black" stroke-width="2" />
<text x="672" y="520" font-size="15" fill="blue" text-anchor="middle" dominant-baseline="central">3</text>
<path d="M662,190 L662,595" stroke="black" stroke-width="2" />
<path d="M662,595 L707,595" stroke="black" stroke-width="2" />
<text x="672" y="610" font-size="15" fill="blue" text-anchor="middle" dominant-baseline="central">4</text>
<path d="M662,190 L662,685" stroke="black" stroke-width="2" />
<path d="M662,685 L707,685" stroke="black" stroke-width="2" />
<text x="672" y="700" font-size="15" fill="blue" text-anchor="middle" dominant-baseline="central">5</text>
<rect x="727" y="300" width="50" height="50" fill="pink" stroke="black" stroke-width="1" />
<text x="752" y="292" font-size="15" fill="black" text-anchor="middle" dominant-baseline="central">Verlicht1_H</text>
<circle cx="727" cy="325" r="5" fill="red" />
<text x="727" y="340" font-size="12" fill="black" valign="top" text-anchor="middle" dominant-baseline="central">IN</text>
<circle cx="777" cy="325" r="5" fill="green" />
<text x="777" y="340" font-size="12" fill="black" valign="top" text-anchor="middle" dominant-baseline="central">OUT</text>
<rect x="727" y="390" width="50" height="50" fill="pink" stroke="black" stroke-width="1" />
<text x="752" y="382" font-size="15" fill="black" text-anchor="middle" dominant-baseline="central">Verlicht2_H</text>
<circle cx="727" cy="415" r="5" fill="red" />
<text x="727" y="430" font-size="12" fill="black" valign="top" text-anchor="middle" dominant-baseline="central">IN</text>
<circle cx="777" cy="415" r="5" fill="green" />
<text x="777" y="430" font-size="12" fill="black" valign="top" text-anchor="middle" dominant-baseline="central">OUT</text>
<rect x="727" y="480" width="50" height="50" fill="pink" stroke="black" stroke-width="1" />
<text x="752" y="472" font-size="15" fill="black" text-anchor="middle" dominant-baseline="central">Verlicht3_H</text>
<circle cx="727" cy="505" r="5" fill="red" />
<text x="727" y="520" font-size="12" fill="black" valign="top" text-anchor="middle" dominant-baseline="central">IN</text>
<circle cx="777" cy="505" r="5" fill="green" />
<text x="777" y="520" font-size="12" fill="black" valign="top" text-anchor="middle" dominant-baseline="central">OUT</text>
<rect x="727" y="570" width="50" height="50" fill="pink" stroke="black" stroke-width="1" />
<text x="752" y="562" font-size="15" fill="black" text-anchor="middle" dominant-baseline="central">contaxop3004_H</text>
<circle cx="727" cy="595" r="5" fill="red" />
<text x="727" y="610" font-size="12" fill="black" valign="top" text-anchor="middle" dominant-baseline="central">IN</text>
<circle cx="777" cy="595" r="5" fill="green" />
<text x="777" y="610" font-size="12" fill="black" valign="top" text-anchor="middle" dominant-baseline="central">OUT</text>
<path d="M777,595 L797,595" stroke="black" stroke-width="2" />
<path d="M817,595 L797,595" stroke="black" stroke-width="2" />
<rect x="817" y="570" width="50" height="50" fill="pink" stroke="black" stroke-width="1" />
<text x="842" y="562" font-size="15" fill="black" text-anchor="middle" dominant-baseline="central">contaxopcontax_H</text>
<circle cx="817" cy="595" r="5" fill="red" />
<text x="817" y="610" font-size="12" fill="black" valign="top" text-anchor="middle" dominant-baseline="central">IN</text>
<circle cx="867" cy="595" r="5" fill="green" />
<text x="867" y="610" font-size="12" fill="black" valign="top" text-anchor="middle" dominant-baseline="central">OUT</text>
<path d="M867,595 L887,595" stroke="black" stroke-width="2" />
<path d="M907,595 L887,595" stroke="black" stroke-width="2" />
<rect x="907" y="570" width="50" height="50" fill="pink" stroke="black" stroke-width="1" />
<text x="932" y="562" font-size="15" fill="black" text-anchor="middle" dominant-baseline="central">faaropcontax_H</text>
<circle cx="907" cy="595" r="5" fill="red" />
<text x="907" y="610" font-size="12" fill="black" valign="top" text-anchor="middle" dominant-baseline="central">IN</text>
<circle cx="957" cy="595" r="5" fill="green" />
<text x="957" y="610" font-size="12" fill="black" valign="top" text-anchor="middle" dominant-baseline="central">OUT</text>
<rect x="727" y="660" width="50" height="50" fill="pink" stroke="black" stroke-width="1" />
<text x="752" y="652" font-size="15" fill="black" text-anchor="middle" dominant-baseline="central">lamp3004_H</text>
<circle cx="727" cy="685" r="5" fill="red" />
<text x="727" y="700" font-size="12" fill="black" valign="top" text-anchor="middle" dominant-baseline="central">IN</text>
<circle cx="777" cy="685" r="5" fill="green" />
<text x="777" y="700" font-size="12" fill="black" valign="top" text-anchor="middle" dominant-baseline="central">OUT</text>
</svg>