<?xml version="1.0" encoding="UTF-8"?>
<svg xmlns="http://www.w3.org/2000/svg" xmlns:xlink="http://www.w3.org/1999/xlink"
     width="90" height="870" viewBox="0 0 90 870">
<defs>
</defs>
<rect x="-353" y="30" width="50" height="50" fill="pink" stroke="black" stroke-width="1" />
<text x="-328" y="22" font-size="15" fill="black" text-anchor="middle" dominant-baseline="central">kopkwhmeter_H</text>
<circle cx="-353" cy="55" r="5" fill="red" />
<text x="-353" y="70" font-size="12" fill="black" valign="top" text-anchor="middle" dominant-baseline="central">IN</text>
<circle cx="-303" cy="55" r="5" fill="green" />
<text x="-303" y="70" font-size="12" fill="black" valign="top" text-anchor="middle" dominant-baseline="central">OUT</text>
<path d="M-303,55 L-283,55" stroke="black" stroke-width="2" />
<path d="M-263,55 L-283,55" stroke="black" stroke-width="2" />
<rect x="-263" y="30" width="50" height="50" fill="pink" stroke="black" stroke-width="1" />
<text x="-238" y="22" font-size="15" fill="black" text-anchor="middle" dominant-baseline="central">Teller_H</text>
<circle cx="-263" cy="55" r="5" fill="red" />
<text x="-263" y="70" font-size="12" fill="black" valign="top" text-anchor="middle" dominant-baseline="central">IN</text>
<circle cx="-213" cy="55" r="5" fill="green" />
<text x="-213" y="70" font-size="12" fill="black" valign="top" text-anchor="middle" dominant-baseline="central">OUT</text>
<path d="M-213,55 L-193,55" stroke="black" stroke-width="2" />
<path d="M-148,170 L-148,190" stroke="black" stroke-width="2" />
<path d="M-213,55 L-193,55" stroke="black" stroke-width="2" />
<path d="M32,170 L32,190" stroke="black" stroke-width="2" />
<path d="M-213,55 L-193,55" stroke="black" stroke-width="2" />
<path d="M122,170 L122,190" stroke="black" stroke-width="2" />
<path d="M-193,55 L-148,55" stroke="black" stroke-width="2" />
<path d="M-148,55 L-148,190" stroke="black" stroke-width="2" />
<path d="M-193,55 L32,55" stroke="black" stroke-width="2" />
<path d="M32,55 L32,190" stroke="black" stroke-width="2" />
<path d="M-193,55 L122,55" stroke="black" stroke-width="2" />
<path d="M122,55 L122,190" stroke="black" stroke-width="2" />
<rect x="-173" y="120" width="50" height="50" fill="pink" stroke="black" stroke-width="1" />
<text x="-148" y="112" font-size="15" fill="black" text-anchor="middle" dominant-baseline="central">Diff3_V</text>
<circle cx="-148" cy="170" r="5" fill="red" />
<text x="-148" y="185" font-size="12" fill="black" valign="top" text-anchor="middle" dominant-baseline="central">IN</text>
<circle cx="-148" cy="120" r="5" fill="green" />
<text x="-148" y="135" font-size="12" fill="black" valign="top" text-anchor="middle" dominant-baseline="central">OUT</text>
<circle cx="-180" cy="170" r="5" fill="yellow" />
<text x="-180" y="185" font-size="12" fill="black" valign="top" text-anchor="middle" dominant-baseline="central">CUT</text>
<path d="M-148,120 L-148,100" stroke="black" stroke-width="2" />
<path d="M-83,235 L-103,235" stroke="black" stroke-width="2" />
<path d="M-148,100 L-148,235" stroke="black" stroke-width="2" />
<path d="M-148,235 L-103,235" stroke="black" stroke-width="2" />
<text x="-138" y="250" font-size="15" fill="blue" text-anchor="middle" dominant-baseline="central">1</text>
<rect x="-83" y="210" width="50" height="50" fill="pink" stroke="black" stroke-width="1" />
<text x="-58" y="202" font-size="15" fill="black" text-anchor="middle" dominant-baseline="central">zonnepaneelopdif3_H</text>
<circle cx="-83" cy="235" r="5" fill="red" />
<text x="-83" y="250" font-size="12" fill="black" valign="top" text-anchor="middle" dominant-baseline="central">IN</text>
<circle cx="-33" cy="235" r="5" fill="green" />
<text x="-33" y="250" font-size="12" fill="black" valign="top" text-anchor="middle" dominant-baseline="central">OUT</text>
<rect x="7" y="120" width="50" height="50" fill="pink" stroke="black" stroke-width="1" />
<text x="32" y="112" font-size="15" fill="black" text-anchor="middle" dominant-baseline="central">Diff30_V</text>
<circle cx="32" cy="170" r="5" fill="red" />
<text x="32" y="185" font-size="12" fill="black" valign="top" text-anchor="middle" dominant-baseline="central">IN</text>
<circle cx="32" cy="120" r="5" fill="green" />
<text x="32" y="135" font-size="12" fill="black" valign="top" text-anchor="middle" dominant-baseline="central">OUT</text>
<circle cx="0" cy="170" r="5" fill="yellow" />
<text x="0" y="185" font-size="12" fill="black" valign="top" text-anchor="middle" dominant-baseline="central">CUT</text>
<rect x="97" y="120" width="50" height="50" fill="pink" stroke="black" stroke-width="1" />
<text x="122" y="112" font-size="15" fill="black" text-anchor="middle" dominant-baseline="central">Diff300_V</text>
<circle cx="122" cy="170" r="5" fill="red" />
<text x="122" y="185" font-size="12" fill="black" valign="top" text-anchor="middle" dominant-baseline="central">IN</text>
<circle cx="122" cy="120" r="5" fill="green" />
<text x="122" y="135" font-size="12" fill="black" valign="top" text-anchor="middle" dominant-baseline="central">OUT</text>
<circle cx="90" cy="170" r="5" fill="yellow" />
<text x="90" y="185" font-size="12" fill="black" valign="top" text-anchor="middle" dominant-baseline="central">CUT</text>
<path d="M122,120 L122,100" stroke="black" stroke-width="2" />
<path d="M122,260 L122,280" stroke="black" stroke-width="2" />
<path d="M122,120 L122,100" stroke="black" stroke-width="2" />
<path d="M302,260 L302,280" stroke="black" stroke-width="2" />
<path d="M122,120 L122,100" stroke="black" stroke-width="2" />
<path d="M482,260 L482,280" stroke="black" stroke-width="2" />
<path d="M122,120 L122,100" stroke="black" stroke-width="2" />
<path d="M662,260 L662,280" stroke="black" stroke-width="2" />
<path d="M122,120 L122,100" stroke="black" stroke-width="2" />
<path d="M932,260 L932,280" stroke="black" stroke-width="2" />
<path d="M122,100 L122,280" stroke="black" stroke-width="2" />
<path d="M122,280 L122,280" stroke="black" stroke-width="2" />
<path d="M122,100 L122,280" stroke="black" stroke-width="2" />
<path d="M122,280 L302,280" stroke="black" stroke-width="2" />
<path d="M122,100 L122,280" stroke="black" stroke-width="2" />
<path d="M122,280 L482,280" stroke="black" stroke-width="2" />
<path d="M122,100 L122,280" stroke="black" stroke-width="2" />
<path d="M122,280 L662,280" stroke="black" stroke-width="2" />
<path d="M122,100 L122,280" stroke="black" stroke-width="2" />
<path d="M122,280 L932,280" stroke="black" stroke-width="2" />
<rect x="97" y="210" width="50" height="50" fill="pink" stroke="black" stroke-width="1" />
<text x="122" y="202" font-size="15" fill="black" text-anchor="middle" dominant-baseline="central">Diff100_V</text>
<circle cx="122" cy="260" r="5" fill="red" />
<text x="122" y="275" font-size="12" fill="black" valign="top" text-anchor="middle" dominant-baseline="central">IN</text>
<circle cx="122" cy="210" r="5" fill="green" />
<text x="122" y="225" font-size="12" fill="black" valign="top" text-anchor="middle" dominant-baseline="central">OUT</text>
<circle cx="90" cy="260" r="5" fill="yellow" />
<text x="90" y="275" font-size="12" fill="black" valign="top" text-anchor="middle" dominant-baseline="central">CUT</text>
<path d="M122,210 L122,190" stroke="black" stroke-width="2" />
<path d="M122,350 L122,370" stroke="black" stroke-width="2" />
<path d="M122,190 L122,370" stroke="black" stroke-width="2" />
<path d="M122,370 L122,370" stroke="black" stroke-width="2" />
<rect x="97" y="300" width="50" height="50" fill="pink" stroke="black" stroke-width="1" />
<text x="122" y="292" font-size="15" fill="black" text-anchor="middle" dominant-baseline="central">zek1001_V</text>
<circle cx="122" cy="350" r="5" fill="red" />
<text x="122" y="365" font-size="12" fill="black" valign="top" text-anchor="middle" dominant-baseline="central">IN</text>
<circle cx="122" cy="300" r="5" fill="green" />
<text x="122" y="315" font-size="12" fill="black" valign="top" text-anchor="middle" dominant-baseline="central">OUT</text>
<circle cx="90" cy="350" r="5" fill="yellow" />
<text x="90" y="365" font-size="12" fill="black" valign="top" text-anchor="middle" dominant-baseline="central">CUT</text>
<path d="M122,300 L122,280" stroke="black" stroke-width="2" />
<path d="M187,415 L167,415" stroke="black" stroke-width="2" />
<path d="M122,300 L122,280" stroke="black" stroke-width="2" />
<path d="M187,505 L167,505" stroke="black" stroke-width="2" />
<path d="M122,300 L122,280" stroke="black" stroke-width="2" />
<path d="M187,595 L167,595" stroke="black" stroke-width="2" />
<path d="M122,300 L122,280" stroke="black" stroke-width="2" />
<path d="M187,685 L167,685" stroke="black" stroke-width="2" />
<path d="M122,280 L122,415" stroke="black" stroke-width="2" />
<path d="M122,415 L167,415" stroke="black" stroke-width="2" />
<text x="132" y="430" font-size="15" fill="blue" text-anchor="middle" dominant-baseline="central">1</text>
<path d="M122,280 L122,505" stroke="black" stroke-width="2" />
<path d="M122,505 L167,505" stroke="black" stroke-width="2" />
<text x="132" y="520" font-size="15" fill="blue" text-anchor="middle" dominant-baseline="central">2</text>
<path d="M122,280 L122,595" stroke="black" stroke-width="2" />
<path d="M122,595 L167,595" stroke="black" stroke-width="2" />
<text x="132" y="610" font-size="15" fill="blue" text-anchor="middle" dominant-baseline="central">3</text>
<path d="M122,280 L122,685" stroke="black" stroke-width="2" />
<path d="M122,685 L167,685" stroke="black" stroke-width="2" />
<text x="132" y="700" font-size="15" fill="blue" text-anchor="middle" dominant-baseline="central">4</text>
<rect x="187" y="390" width="50" height="50" fill="pink" stroke="black" stroke-width="1" />
<text x="212" y="382" font-size="15" fill="black" text-anchor="middle" dominant-baseline="central">Verlichting6_H</text>
<circle cx="187" cy="415" r="5" fill="red" />
<text x="187" y="430" font-size="12" fill="black" valign="top" text-anchor="middle" dominant-baseline="central">IN</text>
<circle cx="237" cy="415" r="5" fill="green" />
<text x="237" y="430" font-size="12" fill="black" valign="top" text-anchor="middle" dominant-baseline="central">OUT</text>
<rect x="187" y="480" width="50" height="50" fill="pink" stroke="black" stroke-width="1" />
<text x="212" y="472" font-size="15" fill="black" text-anchor="middle" dominant-baseline="central">vaatwas301_H</text>
<circle cx="187" cy="505" r="5" fill="red" />
<text x="187" y="520" font-size="12" fill="black" valign="top" text-anchor="middle" dominant-baseline="central">IN</text>
<circle cx="237" cy="505" r="5" fill="green" />
<text x="237" y="520" font-size="12" fill="black" valign="top" text-anchor="middle" dominant-baseline="central">OUT</text>
<image x="187" y="570" width="50" height="50" xlink:href="symbolen/Prieze\prieze_hydro_false_kinder_true_aarding_true_1.svg" />
<text x="212.0" y="595.0" font-size="12" fill="red" text-anchor="middle" dominant-baseline="central">prieze</text>
<text x="212" y="562" font-size="15" fill="black" text-anchor="middle" dominant-baseline="central">prieze</text>
<circle cx="187" cy="595" r="5" fill="red" />
<text x="187" y="610" font-size="12" fill="black" valign="top" text-anchor="middle" dominant-baseline="central">IN</text>
<circle cx="237" cy="595" r="5" fill="green" />
<text x="237" y="610" font-size="12" fill="black" valign="top" text-anchor="middle" dominant-baseline="central">OUT</text>
<image x="187" y="660" width="50" height="50" xlink:href="symbolen/Prieze\prieze_hydro_false_kinder_true_aarding_true_2.svg" />
<text x="212.0" y="685.0" font-size="12" fill="red" text-anchor="middle" dominant-baseline="central">prieze</text>
<text x="212" y="652" font-size="15" fill="black" text-anchor="middle" dominant-baseline="central">prieze</text>
<circle cx="187" cy="685" r="5" fill="red" />
<text x="187" y="700" font-size="12" fill="black" valign="top" text-anchor="middle" dominant-baseline="central">IN</text>
<circle cx="237" cy="685" r="5" fill="green" />
<text x="237" y="700" font-size="12" fill="black" valign="top" text-anchor="middle" dominant-baseline="central">OUT</text>
<rect x="277" y="210" width="50" height="50" fill="pink" stroke="black" stroke-width="1" />
<text x="302" y="202" font-size="15" fill="black" text-anchor="middle" dominant-baseline="central">zek3001_V</text>
<circle cx="302" cy="260" r="5" fill="red" />
<text x="302" y="275" font-size="12" fill="black" valign="top" text-anchor="middle" dominant-baseline="central">IN</text>
<circle cx="302" cy="210" r="5" fill="green" />
<text x="302" y="225" font-size="12" fill="black" valign="top" text-anchor="middle" dominant-baseline="central">OUT</text>
<circle cx="270" cy="260" r="5" fill="yellow" />
<text x="270" y="275" font-size="12" fill="black" valign="top" text-anchor="middle" dominant-baseline="central">CUT</text>
<path d="M302,210 L302,190" stroke="black" stroke-width="2" />
<path d="M367,325 L347,325" stroke="black" stroke-width="2" />
<path d="M302,190 L302,325" stroke="black" stroke-width="2" />
<path d="M302,325 L347,325" stroke="black" stroke-width="2" />
<text x="312" y="340" font-size="15" fill="blue" text-anchor="middle" dominant-baseline="central">1</text>
<rect x="367" y="300" width="50" height="50" fill="pink" stroke="black" stroke-width="1" />
<text x="392" y="292" font-size="15" fill="black" text-anchor="middle" dominant-baseline="central">droogkast3002_H</text>
<circle cx="367" cy="325" r="5" fill="red" />
<text x="367" y="340" font-size="12" fill="black" valign="top" text-anchor="middle" dominant-baseline="central">IN</text>
<circle cx="417" cy="325" r="5" fill="green" />
<text x="417" y="340" font-size="12" fill="black" valign="top" text-anchor="middle" dominant-baseline="central">OUT</text>
<rect x="457" y="210" width="50" height="50" fill="pink" stroke="black" stroke-width="1" />
<text x="482" y="202" font-size="15" fill="black" text-anchor="middle" dominant-baseline="central">zek3002_V</text>
<circle cx="482" cy="260" r="5" fill="red" />
<text x="482" y="275" font-size="12" fill="black" valign="top" text-anchor="middle" dominant-baseline="central">IN</text>
<circle cx="482" cy="210" r="5" fill="green" />
<text x="482" y="225" font-size="12" fill="black" valign="top" text-anchor="middle" dominant-baseline="central">OUT</text>
<circle cx="450" cy="260" r="5" fill="yellow" />
<text x="450" y="275" font-size="12" fill="black" valign="top" text-anchor="middle" dominant-baseline="central">CUT</text>
<path d="M482,210 L482,190" stroke="black" stroke-width="2" />
<path d="M547,325 L527,325" stroke="black" stroke-width="2" />
<path d="M482,210 L482,190" stroke="black" stroke-width="2" />
<path d="M547,415 L527,415" stroke="black" stroke-width="2" />
<path d="M482,190 L482,325" stroke="black" stroke-width="2" />
<path d="M482,325 L527,325" stroke="black" stroke-width="2" />
<text x="492" y="340" font-size="15" fill="blue" text-anchor="middle" dominant-baseline="central">1</text>
<path d="M482,190 L482,415" stroke="black" stroke-width="2" />
<path d="M482,415 L527,415" stroke="black" stroke-width="2" />
<text x="492" y="430" font-size="15" fill="blue" text-anchor="middle" dominant-baseline="central">2</text>
<rect x="547" y="300" width="50" height="50" fill="pink" stroke="black" stroke-width="1" />
<text x="572" y="292" font-size="15" fill="black" text-anchor="middle" dominant-baseline="central">microoven3002_H</text>
<circle cx="547" cy="325" r="5" fill="red" />
<text x="547" y="340" font-size="12" fill="black" valign="top" text-anchor="middle" dominant-baseline="central">IN</text>
<circle cx="597" cy="325" r="5" fill="green" />
<text x="597" y="340" font-size="12" fill="black" valign="top" text-anchor="middle" dominant-baseline="central">OUT</text>
<rect x="547" y="390" width="50" height="50" fill="pink" stroke="black" stroke-width="1" />
<text x="572" y="382" font-size="15" fill="black" text-anchor="middle" dominant-baseline="central">oven3002_H</text>
<circle cx="547" cy="415" r="5" fill="red" />
<text x="547" y="430" font-size="12" fill="black" valign="top" text-anchor="middle" dominant-baseline="central">IN</text>
<circle cx="597" cy="415" r="5" fill="green" />
<text x="597" y="430" font-size="12" fill="black" valign="top" text-anchor="middle" dominant-baseline="central">OUT</text>
<rect x="637" y="210" width="50" height="50" fill="pink" stroke="black" stroke-width="1" />
<text x="662" y="202" font-size="15" fill="black" text-anchor="middle" dominant-baseline="central">zek3003_V</text>
<circle cx="662" cy="260" r="5" fill="red" />
<text x="662" y="275" font-size="12" fill="black" valign="top" text-anchor="middle" dominant-baseline="central">IN</text>
<circle cx="662" cy="210" r="5" fill="green" />
<text x="662" y="225" font-size="12" fill="black" valign="top" text-anchor="middle" dominant-baseline="central">OUT</text>
<circle cx="630" cy="260" r="5" fill="yellow" />
<text x="630" y="275" font-size="12" fill="black" valign="top" text-anchor="middle" dominant-baseline="central">CUT</text>
<path d="M662,210 L662,190" stroke="black" stroke-width="2" />
<path d="M727,325 L707,325" stroke="black" stroke-width="2" />
<path d="M662,210 L662,190" stroke="black" stroke-width="2" />
<path d="M727,685 L707,685" stroke="black" stroke-width="2" />
<path d="M662,210 L662,190" stroke="black" stroke-width="2" />
<path d="M727,775 L707,775" stroke="black" stroke-width="2" />
<path d="M662,190 L662,325" stroke="black" stroke-width="2" />
<path d="M662,325 L707,325" stroke="black" stroke-width="2" />
<text x="672" y="340" font-size="15" fill="blue" text-anchor="middle" dominant-baseline="central">1</text>
<path d="M662,190 L662,685" stroke="black" stroke-width="2" />
<path d="M662,685 L707,685" stroke="black" stroke-width="2" />
<text x="672" y="700" font-size="15" fill="blue" text-anchor="middle" dominant-baseline="central">2</text>
<path d="M662,190 L662,775" stroke="black" stroke-width="2" />
<path d="M662,775 L707,775" stroke="black" stroke-width="2" />
<text x="672" y="790" font-size="15" fill="blue" text-anchor="middle" dominant-baseline="central">3</text>
<rect x="727" y="300" width="50" height="50" fill="pink" stroke="black" stroke-width="1" />
<text x="752" y="292" font-size="15" fill="black" text-anchor="middle" dominant-baseline="central">domo2_H</text>
<circle cx="727" cy="325" r="5" fill="red" />
<text x="727" y="340" font-size="12" fill="black" valign="top" text-anchor="middle" dominant-baseline="central">IN</text>
<circle cx="777" cy="325" r="5" fill="green" />
<text x="777" y="340" font-size="12" fill="black" valign="top" text-anchor="middle" dominant-baseline="central">OUT</text>
<path d="M777,325 L797,325" stroke="black" stroke-width="2" />
<path d="M817,325 L797,325" stroke="black" stroke-width="2" />
<path d="M777,325 L797,325" stroke="black" stroke-width="2" />
<path d="M817,415 L797,415" stroke="black" stroke-width="2" />
<path d="M777,325 L797,325" stroke="black" stroke-width="2" />
<path d="M817,505 L797,505" stroke="black" stroke-width="2" />
<path d="M777,325 L797,325" stroke="black" stroke-width="2" />
<path d="M817,595 L797,595" stroke="black" stroke-width="2" />
<path d="M797,325 L797,325" stroke="black" stroke-width="2" />
<path d="M797,325 L797,415" stroke="black" stroke-width="2" />
<path d="M797,325 L797,325" stroke="black" stroke-width="2" />
<path d="M797,325 L797,505" stroke="black" stroke-width="2" />
<path d="M797,325 L797,325" stroke="black" stroke-width="2" />
<path d="M797,325 L797,595" stroke="black" stroke-width="2" />
<rect x="817" y="300" width="50" height="50" fill="pink" stroke="black" stroke-width="1" />
<text x="842" y="292" font-size="15" fill="black" text-anchor="middle" dominant-baseline="central">Verlichting2_H</text>
<circle cx="817" cy="325" r="5" fill="red" />
<text x="817" y="340" font-size="12" fill="black" valign="top" text-anchor="middle" dominant-baseline="central">IN</text>
<circle cx="867" cy="325" r="5" fill="green" />
<text x="867" y="340" font-size="12" fill="black" valign="top" text-anchor="middle" dominant-baseline="central">OUT</text>
<rect x="817" y="390" width="50" height="50" fill="pink" stroke="black" stroke-width="1" />
<text x="842" y="382" font-size="15" fill="black" text-anchor="middle" dominant-baseline="central">Verlichting3_H</text>
<circle cx="817" cy="415" r="5" fill="red" />
<text x="817" y="430" font-size="12" fill="black" valign="top" text-anchor="middle" dominant-baseline="central">IN</text>
<circle cx="867" cy="415" r="5" fill="green" />
<text x="867" y="430" font-size="12" fill="black" valign="top" text-anchor="middle" dominant-baseline="central">OUT</text>
<rect x="817" y="480" width="50" height="50" fill="pink" stroke="black" stroke-width="1" />
<text x="842" y="472" font-size="15" fill="black" text-anchor="middle" dominant-baseline="central">Verlichting4_H</text>
<circle cx="817" cy="505" r="5" fill="red" />
<text x="817" y="520" font-size="12" fill="black" valign="top" text-anchor="middle" dominant-baseline="central">IN</text>
<circle cx="867" cy="505" r="5" fill="green" />
<text x="867" y="520" font-size="12" fill="black" valign="top" text-anchor="middle" dominant-baseline="central">OUT</text>
<rect x="817" y="570" width="50" height="50" fill="pink" stroke="black" stroke-width="1" />
<text x="842" y="562" font-size="15" fill="black" text-anchor="middle" dominant-baseline="central">Verlichting5_H</text>
<circle cx="817" cy="595" r="5" fill="red" />
<text x="817" y="610" font-size="12" fill="black" valign="top" text-anchor="middle" dominant-baseline="central">IN</text>
<circle cx="867" cy="595" r="5" fill="green" />
<text x="867" y="610" font-size="12" fill="black" valign="top" text-anchor="middle" dominant-baseline="central">OUT</text>
<rect x="727" y="660" width="50" height="50" fill="pink" stroke="black" stroke-width="1" />
<text x="752" y="652" font-size="15" fill="black" text-anchor="middle" dominant-baseline="central">Domomodule_H</text>
<circle cx="727" cy="685" r="5" fill="red" />
<text x="727" y="700" font-size="12" fill="black" valign="top" text-anchor="middle" dominant-baseline="central">IN</text>
<circle cx="777" cy="685" r="5" fill="green" />
<text x="777" y="700" font-size="12" fill="black" valign="top" text-anchor="middle" dominant-baseline="central">OUT</text>
<path d="M777,685 L797,685" stroke="black" stroke-width="2" />
<path d="M817,685 L797,685" stroke="black" stroke-width="2" />
<rect x="817" y="660" width="50" height="50" fill="pink" stroke="black" stroke-width="1" />
<text x="842" y="652" font-size="15" fill="black" text-anchor="middle" dominant-baseline="central">Verlichting_H</text>
<circle cx="817" cy="685" r="5" fill="red" />
<text x="817" y="700" font-size="12" fill="black" valign="top" text-anchor="middle" dominant-baseline="central">IN</text>
<circle cx="867" cy="685" r="5" fill="green" />
<text x="867" y="700" font-size="12" fill="black" valign="top" text-anchor="middle" dominant-baseline="central">OUT</text>
<rect x="727" y="750" width="50" height="50" fill="pink" stroke="black" stroke-width="1" />
<text x="752" y="742" font-size="15" fill="black" text-anchor="middle" dominant-baseline="central">tv_H</text>
<circle cx="727" cy="775" r="5" fill="red" />
<text x="727" y="790" font-size="12" fill="black" valign="top" text-anchor="middle" dominant-baseline="central">IN</text>
<circle cx="777" cy="775" r="5" fill="green" />
<text x="777" y="790" font-size="12" fill="black" valign="top" text-anchor="middle" dominant-baseline="central">OUT</text>
<rect x="907" y="210" width="50" height="50" fill="pink" stroke="black" stroke-width="1" />
<text x="932" y="202" font-size="15" fill="black" text-anchor="middle" dominant-baseline="central">zek3004verl_V</text>
<circle cx="932" cy="260" r="5" fill="red" />
<text x="932" y="275" font-size="12" fill="black" valign="top" text-anchor="middle" dominant-baseline="central">IN</text>
<circle cx="932" cy="210" r="5" fill="green" />
<text x="932" y="225" font-size="12" fill="black" valign="top" text-anchor="middle" dominant-baseline="central">OUT</text>
<circle cx="900" cy="260" r="5" fill="yellow" />
<text x="900" y="275" font-size="12" fill="black" valign="top" text-anchor="middle" dominant-baseline="central">CUT</text>
<path d="M932,210 L932,190" stroke="black" stroke-width="2" />
<path d="M997,325 L977,325" stroke="black" stroke-width="2" />
<path d="M932,210 L932,190" stroke="black" stroke-width="2" />
<path d="M997,415 L977,415" stroke="black" stroke-width="2" />
<path d="M932,210 L932,190" stroke="black" stroke-width="2" />
<path d="M997,505 L977,505" stroke="black" stroke-width="2" />
<path d="M932,210 L932,190" stroke="black" stroke-width="2" />
<path d="M997,595 L977,595" stroke="black" stroke-width="2" />
<path d="M932,210 L932,190" stroke="black" stroke-width="2" />
<path d="M997,685 L977,685" stroke="black" stroke-width="2" />
<path d="M932,190 L932,325" stroke="black" stroke-width="2" />
<path d="M932,325 L977,325" stroke="black" stroke-width="2" />
<text x="942" y="340" font-size="15" fill="blue" text-anchor="middle" dominant-baseline="central">1</text>
<path d="M932,190 L932,415" stroke="black" stroke-width="2" />
<path d="M932,415 L977,415" stroke="black" stroke-width="2" />
<text x="942" y="430" font-size="15" fill="blue" text-anchor="middle" dominant-baseline="central">2</text>
<path d="M932,190 L932,505" stroke="black" stroke-width="2" />
<path d="M932,505 L977,505" stroke="black" stroke-width="2" />
<text x="942" y="520" font-size="15" fill="blue" text-anchor="middle" dominant-baseline="central">3</text>
<path d="M932,190 L932,595" stroke="black" stroke-width="2" />
<path d="M932,595 L977,595" stroke="black" stroke-width="2" />
<text x="942" y="610" font-size="15" fill="blue" text-anchor="middle" dominant-baseline="central">4</text>
<path d="M932,190 L932,685" stroke="black" stroke-width="2" />
<path d="M932,685 L977,685" stroke="black" stroke-width="2" />
<text x="942" y="700" font-size="15" fill="blue" text-anchor="middle" dominant-baseline="central">5</text>
<rect x="997" y="300" width="50" height="50" fill="pink" stroke="black" stroke-width="1" />
<text x="1022" y="292" font-size="15" fill="black" text-anchor="middle" dominant-baseline="central">Verlicht1_H</text>
<circle cx="997" cy="325" r="5" fill="red" />
<text x="997" y="340" font-size="12" fill="black" valign="top" text-anchor="middle" dominant-baseline="central">IN</text>
<circle cx="1047" cy="325" r="5" fill="green" />
<text x="1047" y="340" font-size="12" fill="black" valign="top" text-anchor="middle" dominant-baseline="central">OUT</text>
<rect x="997" y="390" width="50" height="50" fill="pink" stroke="black" stroke-width="1" />
<text x="1022" y="382" font-size="15" fill="black" text-anchor="middle" dominant-baseline="central">Verlicht2_H</text>
<circle cx="997" cy="415" r="5" fill="red" />
<text x="997" y="430" font-size="12" fill="black" valign="top" text-anchor="middle" dominant-baseline="central">IN</text>
<circle cx="1047" cy="415" r="5" fill="green" />
<text x="1047" y="430" font-size="12" fill="black" valign="top" text-anchor="middle" dominant-baseline="central">OUT</text>
<rect x="997" y="480" width="50" height="50" fill="pink" stroke="black" stroke-width="1" />
<text x="1022" y="472" font-size="15" fill="black" text-anchor="middle" dominant-baseline="central">Verlicht3_H</text>
<circle cx="997" cy="505" r="5" fill="red" />
<text x="997" y="520" font-size="12" fill="black" valign="top" text-anchor="middle" dominant-baseline="central">IN</text>
<circle cx="1047" cy="505" r="5" fill="green" />
<text x="1047" y="520" font-size="12" fill="black" valign="top" text-anchor="middle" dominant-baseline="central">OUT</text>
<rect x="997" y="570" width="50" height="50" fill="pink" stroke="black" stroke-width="1" />
<text x="1022" y="562" font-size="15" fill="black" text-anchor="middle" dominant-baseline="central">contaxop3004_H</text>
<circle cx="997" cy="595" r="5" fill="red" />
<text x="997" y="610" font-size="12" fill="black" valign="top" text-anchor="middle" dominant-baseline="central">IN</text>
<circle cx="1047" cy="595" r="5" fill="green" />
<text x="1047" y="610" font-size="12" fill="black" valign="top" text-anchor="middle" dominant-baseline="central">OUT</text>
<path d="M1047,595 L1067,595" stroke="black" stroke-width="2" />
<path d="M1087,595 L1067,595" stroke="black" stroke-width="2" />
<rect x="1087" y="570" width="50" height="50" fill="pink" stroke="black" stroke-width="1" />
<text x="1112" y="562" font-size="15" fill="black" text-anchor="middle" dominant-baseline="central">contaxopcontax_H</text>
<circle cx="1087" cy="595" r="5" fill="red" />
<text x="1087" y="610" font-size="12" fill="black" valign="top" text-anchor="middle" dominant-baseline="central">IN</text>
<circle cx="1137" cy="595" r="5" fill="green" />
<text x="1137" y="610" font-size="12" fill="black" valign="top" text-anchor="middle" dominant-baseline="central">OUT</text>
<path d="M1137,595 L1157,595" stroke="black" stroke-width="2" />
<path d="M1177,595 L1157,595" stroke="black" stroke-width="2" />
<rect x="1177" y="570" width="50" height="50" fill="pink" stroke="black" stroke-width="1" />
<text x="1202" y="562" font-size="15" fill="black" text-anchor="middle" dominant-baseline="central">faaropcontax_H</text>
<circle cx="1177" cy="595" r="5" fill="red" />
<text x="1177" y="610" font-size="12" fill="black" valign="top" text-anchor="middle" dominant-baseline="central">IN</text>
<circle cx="1227" cy="595" r="5" fill="green" />
<text x="1227" y="610" font-size="12" fill="black" valign="top" text-anchor="middle" dominant-baseline="central">OUT</text>
<rect x="997" y="660" width="50" height="50" fill="pink" stroke="black" stroke-width="1" />
<text x="1022" y="652" font-size="15" fill="black" text-anchor="middle" dominant-baseline="central">lamp3004_H</text>
<circle cx="997" cy="685" r="5" fill="red" />
<text x="997" y="700" font-size="12" fill="black" valign="top" text-anchor="middle" dominant-baseline="central">IN</text>
<circle cx="1047" cy="685" r="5" fill="green" />
<text x="1047" y="700" font-size="12" fill="black" valign="top" text-anchor="middle" dominant-baseline="central">OUT</text>
</svg>