<?xml version="1.0" encoding="UTF-8"?>
<svg xmlns="http://www.w3.org/2000/svg" xmlns:xlink="http://www.w3.org/1999/xlink"
     width="203" height="1050" viewBox="0 0 203 1050">
<defs>
</defs>
<rect x="30" y="30" width="50" height="50" fill="pink" stroke="black" stroke-width="1" />
<text x="55" y="22" font-size="15" fill="black" text-anchor="middle" dominant-baseline="central">kopkwhmeter_H</text>
<circle cx="30" cy="55" r="5" fill="red" />
<text x="30" y="70" font-size="12" fill="black" valign="top" text-anchor="middle" dominant-baseline="central">IN</text>
<circle cx="80" cy="55" r="5" fill="green" />
<text x="80" y="70" font-size="12" fill="black" valign="top" text-anchor="middle" dominant-baseline="central">OUT</text>
<path d="M80,55 L95,55" stroke="black" stroke-width="2" />
<path d="M120,55 L105,55" stroke="black" stroke-width="2" />
<path d="M95,55 L105,55" stroke="black" stroke-width="2" />
<path d="M105,55 L105,55" stroke="black" stroke-width="2" />
<rect x="120" y="30" width="50" height="50" fill="pink" stroke="black" stroke-width="1" />
<text x="145" y="22" font-size="15" fill="black" text-anchor="middle" dominant-baseline="central">Teller_H</text>
<circle cx="120" cy="55" r="5" fill="red" />
<text x="120" y="70" font-size="12" fill="black" valign="top" text-anchor="middle" dominant-baseline="central">IN</text>
<circle cx="170" cy="55" r="5" fill="green" />
<text x="170" y="70" font-size="12" fill="black" valign="top" text-anchor="middle" dominant-baseline="central">OUT</text>
<path d="M170,55 L185,55" stroke="black" stroke-width="2" />
<path d="M235,170 L235,185" stroke="black" stroke-width="2" />
<path d="M170,55 L185,55" stroke="black" stroke-width="2" />
<path d="M415,170 L415,185" stroke="black" stroke-width="2" />
<path d="M170,55 L185,55" stroke="black" stroke-width="2" />
<path d="M505,170 L505,185" stroke="black" stroke-width="2" />
<path d="M185,55 L235,55" stroke="black" stroke-width="2" />
<path d="M235,55 L235,185" stroke="black" stroke-width="2" />
<path d="M185,55 L415,55" stroke="black" stroke-width="2" />
<path d="M415,55 L415,185" stroke="black" stroke-width="2" />
<path d="M185,55 L505,55" stroke="black" stroke-width="2" />
<path d="M505,55 L505,185" stroke="black" stroke-width="2" />
<rect x="210" y="120" width="50" height="50" fill="pink" stroke="black" stroke-width="1" />
<text x="235" y="112" font-size="15" fill="black" text-anchor="middle" dominant-baseline="central">Diff3_V</text>
<circle cx="235" cy="170" r="5" fill="red" />
<text x="235" y="185" font-size="12" fill="black" valign="top" text-anchor="middle" dominant-baseline="central">IN</text>
<circle cx="235" cy="120" r="5" fill="green" />
<text x="235" y="135" font-size="12" fill="black" valign="top" text-anchor="middle" dominant-baseline="central">OUT</text>
<circle cx="203" cy="170" r="5" fill="yellow" />
<text x="203" y="185" font-size="12" fill="black" valign="top" text-anchor="middle" dominant-baseline="central">CUT</text>
<path d="M235,120 L235,105" stroke="black" stroke-width="2" />
<path d="M300,235 L285,235" stroke="black" stroke-width="2" />
<path d="M235,105 L235,235" stroke="black" stroke-width="2" />
<text x="215" y="105" font-size="10" fill="orange" valign="top" text-anchor="middle" dominant-baseline="central">van(235,105)&gt;</text>
<text x="215" y="235" font-size="10" fill="orange" valign="top" text-anchor="middle" dominant-baseline="central">naar(235,235)&gt;</text>
<path d="M235,105 L235,235" stroke="orange" stroke-width="2" />
<path d="M235,235 L285,235" stroke="black" stroke-width="2" />
<path d="M235,235 L285,235" stroke="yellow" stroke-width="2" />
<text x="245" y="245" font-size="17" fill="blue" text-anchor="middle" dominant-baseline="central">1</text>
<rect x="300" y="210" width="50" height="50" fill="pink" stroke="black" stroke-width="1" />
<text x="325" y="202" font-size="15" fill="black" text-anchor="middle" dominant-baseline="central">zonnepaneelopdif3_H</text>
<circle cx="300" cy="235" r="5" fill="red" />
<text x="300" y="250" font-size="12" fill="black" valign="top" text-anchor="middle" dominant-baseline="central">IN</text>
<circle cx="350" cy="235" r="5" fill="green" />
<text x="350" y="250" font-size="12" fill="black" valign="top" text-anchor="middle" dominant-baseline="central">OUT</text>
<rect x="390" y="120" width="50" height="50" fill="pink" stroke="black" stroke-width="1" />
<text x="415" y="112" font-size="15" fill="black" text-anchor="middle" dominant-baseline="central">Diff30_V</text>
<circle cx="415" cy="170" r="5" fill="red" />
<text x="415" y="185" font-size="12" fill="black" valign="top" text-anchor="middle" dominant-baseline="central">IN</text>
<circle cx="415" cy="120" r="5" fill="green" />
<text x="415" y="135" font-size="12" fill="black" valign="top" text-anchor="middle" dominant-baseline="central">OUT</text>
<circle cx="383" cy="170" r="5" fill="yellow" />
<text x="383" y="185" font-size="12" fill="black" valign="top" text-anchor="middle" dominant-baseline="central">CUT</text>
<rect x="480" y="120" width="50" height="50" fill="pink" stroke="black" stroke-width="1" />
<text x="505" y="112" font-size="15" fill="black" text-anchor="middle" dominant-baseline="central">Diff300_V</text>
<circle cx="505" cy="170" r="5" fill="red" />
<text x="505" y="185" font-size="12" fill="black" valign="top" text-anchor="middle" dominant-baseline="central">IN</text>
<circle cx="505" cy="120" r="5" fill="green" />
<text x="505" y="135" font-size="12" fill="black" valign="top" text-anchor="middle" dominant-baseline="central">OUT</text>
<circle cx="473" cy="170" r="5" fill="yellow" />
<text x="473" y="185" font-size="12" fill="black" valign="top" text-anchor="middle" dominant-baseline="central">CUT</text>
<path d="M505,120 L505,105" stroke="black" stroke-width="2" />
<path d="M505,260 L505,275" stroke="black" stroke-width="2" />
<path d="M505,120 L505,105" stroke="black" stroke-width="2" />
<path d="M685,260 L685,275" stroke="black" stroke-width="2" />
<path d="M505,120 L505,105" stroke="black" stroke-width="2" />
<path d="M865,260 L865,275" stroke="black" stroke-width="2" />
<path d="M505,120 L505,105" stroke="black" stroke-width="2" />
<path d="M1045,260 L1045,275" stroke="black" stroke-width="2" />
<path d="M505,120 L505,105" stroke="black" stroke-width="2" />
<path d="M1315,260 L1315,275" stroke="black" stroke-width="2" />
<path d="M505,105 L505,275" stroke="black" stroke-width="2" />
<text x="485" y="105" font-size="10" fill="orange" valign="top" text-anchor="middle" dominant-baseline="central">van(505,105)&gt;</text>
<text x="485" y="275" font-size="10" fill="orange" valign="top" text-anchor="middle" dominant-baseline="central">naar(505,275)&gt;</text>
<path d="M505,105 L505,275" stroke="orange" stroke-width="2" />
<path d="M505,275 L505,275" stroke="black" stroke-width="2" />
<path d="M505,275 L505,275" stroke="yellow" stroke-width="2" />
<path d="M505,105 L505,275" stroke="black" stroke-width="2" />
<text x="485" y="105" font-size="10" fill="orange" valign="top" text-anchor="middle" dominant-baseline="central">van(505,105)&gt;</text>
<text x="485" y="275" font-size="10" fill="orange" valign="top" text-anchor="middle" dominant-baseline="central">naar(505,275)&gt;</text>
<path d="M505,105 L505,275" stroke="orange" stroke-width="2" />
<path d="M505,275 L685,275" stroke="black" stroke-width="2" />
<path d="M505,275 L685,275" stroke="yellow" stroke-width="2" />
<path d="M505,105 L505,275" stroke="black" stroke-width="2" />
<text x="485" y="105" font-size="10" fill="orange" valign="top" text-anchor="middle" dominant-baseline="central">van(505,105)&gt;</text>
<text x="485" y="275" font-size="10" fill="orange" valign="top" text-anchor="middle" dominant-baseline="central">naar(505,275)&gt;</text>
<path d="M505,105 L505,275" stroke="orange" stroke-width="2" />
<path d="M505,275 L865,275" stroke="black" stroke-width="2" />
<path d="M505,275 L865,275" stroke="yellow" stroke-width="2" />
<path d="M505,105 L505,275" stroke="black" stroke-width="2" />
<text x="485" y="105" font-size="10" fill="orange" valign="top" text-anchor="middle" dominant-baseline="central">van(505,105)&gt;</text>
<text x="485" y="275" font-size="10" fill="orange" valign="top" text-anchor="middle" dominant-baseline="central">naar(505,275)&gt;</text>
<path d="M505,105 L505,275" stroke="orange" stroke-width="2" />
<path d="M505,275 L1045,275" stroke="black" stroke-width="2" />
<path d="M505,275 L1045,275" stroke="yellow" stroke-width="2" />
<path d="M505,105 L505,275" stroke="black" stroke-width="2" />
<text x="485" y="105" font-size="10" fill="orange" valign="top" text-anchor="middle" dominant-baseline="central">van(505,105)&gt;</text>
<text x="485" y="275" font-size="10" fill="orange" valign="top" text-anchor="middle" dominant-baseline="central">naar(505,275)&gt;</text>
<path d="M505,105 L505,275" stroke="orange" stroke-width="2" />
<path d="M505,275 L1315,275" stroke="black" stroke-width="2" />
<path d="M505,275 L1315,275" stroke="yellow" stroke-width="2" />
<rect x="480" y="210" width="50" height="50" fill="pink" stroke="black" stroke-width="1" />
<text x="505" y="202" font-size="15" fill="black" text-anchor="middle" dominant-baseline="central">Diff100_V</text>
<circle cx="505" cy="260" r="5" fill="red" />
<text x="505" y="275" font-size="12" fill="black" valign="top" text-anchor="middle" dominant-baseline="central">IN</text>
<circle cx="505" cy="210" r="5" fill="green" />
<text x="505" y="225" font-size="12" fill="black" valign="top" text-anchor="middle" dominant-baseline="central">OUT</text>
<circle cx="473" cy="260" r="5" fill="yellow" />
<text x="473" y="275" font-size="12" fill="black" valign="top" text-anchor="middle" dominant-baseline="central">CUT</text>
<path d="M505,210 L505,195" stroke="black" stroke-width="2" />
<path d="M505,350 L505,365" stroke="black" stroke-width="2" />
<path d="M505,195 L505,365" stroke="black" stroke-width="2" />
<text x="485" y="195" font-size="10" fill="orange" valign="top" text-anchor="middle" dominant-baseline="central">van(505,195)&gt;</text>
<text x="485" y="365" font-size="10" fill="orange" valign="top" text-anchor="middle" dominant-baseline="central">naar(505,365)&gt;</text>
<path d="M505,195 L505,365" stroke="orange" stroke-width="2" />
<path d="M505,365 L505,365" stroke="black" stroke-width="2" />
<path d="M505,365 L505,365" stroke="yellow" stroke-width="2" />
<image x="480" y="300" width="50" height="50" xlink:href="symbolen/CircuitBreaker\circuit_breaker.svg" />
<text x="580" y="350" font-size="25" fill="black" text-anchor="middle" dominant-baseline="central">zek1001_V</text>
<text x="550" y="315" font-size="15" fill="black" text-anchor="middle" dominant-baseline="central">16A</text>
<circle cx="505" cy="150" r="8" fill="pink" />
<text x="485" y="150" font-size="12" fill="black" valign="top" text-anchor="middle" dominant-baseline="central">505 150</text>
<text x="505" y="292" font-size="15" fill="black" text-anchor="middle" dominant-baseline="central">zek1001_V</text>
<circle cx="505" cy="350" r="5" fill="red" />
<text x="505" y="365" font-size="12" fill="black" valign="top" text-anchor="middle" dominant-baseline="central">IN</text>
<circle cx="505" cy="300" r="5" fill="green" />
<text x="505" y="315" font-size="12" fill="black" valign="top" text-anchor="middle" dominant-baseline="central">OUT</text>
<circle cx="473" cy="350" r="5" fill="yellow" />
<text x="473" y="365" font-size="12" fill="black" valign="top" text-anchor="middle" dominant-baseline="central">CUT</text>
<path d="M505,300 L505,285" stroke="black" stroke-width="2" />
<path d="M570,595 L555,595" stroke="black" stroke-width="2" />
<path d="M505,300 L505,285" stroke="black" stroke-width="2" />
<path d="M570,685 L555,685" stroke="black" stroke-width="2" />
<path d="M505,300 L505,285" stroke="black" stroke-width="2" />
<path d="M660,595 L645,595" stroke="black" stroke-width="2" />
<path d="M505,300 L505,285" stroke="black" stroke-width="2" />
<path d="M570,865 L555,865" stroke="black" stroke-width="2" />
<path d="M505,285 L505,595" stroke="black" stroke-width="2" />
<text x="485" y="285" font-size="10" fill="orange" valign="top" text-anchor="middle" dominant-baseline="central">van(505,285)&gt;</text>
<text x="485" y="595" font-size="10" fill="orange" valign="top" text-anchor="middle" dominant-baseline="central">naar(505,595)&gt;</text>
<path d="M505,285 L505,595" stroke="orange" stroke-width="2" />
<path d="M505,595 L555,595" stroke="black" stroke-width="2" />
<path d="M505,595 L555,595" stroke="yellow" stroke-width="2" />
<text x="515" y="605" font-size="17" fill="blue" text-anchor="middle" dominant-baseline="central">1</text>
<path d="M505,285 L505,685" stroke="black" stroke-width="2" />
<text x="485" y="285" font-size="10" fill="orange" valign="top" text-anchor="middle" dominant-baseline="central">van(505,285)&gt;</text>
<text x="485" y="685" font-size="10" fill="orange" valign="top" text-anchor="middle" dominant-baseline="central">naar(505,685)&gt;</text>
<path d="M505,285 L505,685" stroke="orange" stroke-width="2" />
<path d="M505,685 L555,685" stroke="black" stroke-width="2" />
<path d="M505,685 L555,685" stroke="yellow" stroke-width="2" />
<text x="515" y="695" font-size="17" fill="blue" text-anchor="middle" dominant-baseline="central">2</text>
<path d="M505,150 L645,150" stroke="black" stroke-width="2" />
<path d="M645,150 L645,595" stroke="black" stroke-width="2" />
<text x="555" y="150" font-size="10" fill="green" valign="top" text-anchor="middle" dominant-baseline="central">van(645,150)&gt;</text>
<text x="565" y="595" font-size="10" fill="green" valign="top" text-anchor="middle" dominant-baseline="central">naar(645,595)&gt;</text>
<path d="M505,150 L645,150" stroke="red" stroke-width="2" />
<path d="M645,150 L645,595" stroke="green" stroke-width="2" />
<text x="655" y="605" font-size="17" fill="blue" text-anchor="middle" dominant-baseline="central">3</text>
<path d="M505,285 L505,865" stroke="black" stroke-width="2" />
<text x="485" y="285" font-size="10" fill="orange" valign="top" text-anchor="middle" dominant-baseline="central">van(505,285)&gt;</text>
<text x="485" y="865" font-size="10" fill="orange" valign="top" text-anchor="middle" dominant-baseline="central">naar(505,865)&gt;</text>
<path d="M505,285 L505,865" stroke="orange" stroke-width="2" />
<path d="M505,865 L555,865" stroke="black" stroke-width="2" />
<path d="M505,865 L555,865" stroke="yellow" stroke-width="2" />
<text x="515" y="875" font-size="17" fill="blue" text-anchor="middle" dominant-baseline="central">4</text>
<rect x="570" y="570" width="50" height="50" fill="pink" stroke="black" stroke-width="1" />
<text x="595" y="562" font-size="15" fill="black" text-anchor="middle" dominant-baseline="central">Verlichting6_H</text>
<circle cx="570" cy="595" r="5" fill="red" />
<text x="570" y="610" font-size="12" fill="black" valign="top" text-anchor="middle" dominant-baseline="central">IN</text>
<circle cx="620" cy="595" r="5" fill="green" />
<text x="620" y="610" font-size="12" fill="black" valign="top" text-anchor="middle" dominant-baseline="central">OUT</text>
<rect x="570" y="660" width="50" height="50" fill="pink" stroke="black" stroke-width="1" />
<text x="595" y="652" font-size="15" fill="black" text-anchor="middle" dominant-baseline="central">vaatwas301_H</text>
<circle cx="570" cy="685" r="5" fill="red" />
<text x="570" y="700" font-size="12" fill="black" valign="top" text-anchor="middle" dominant-baseline="central">IN</text>
<circle cx="620" cy="685" r="5" fill="green" />
<text x="620" y="700" font-size="12" fill="black" valign="top" text-anchor="middle" dominant-baseline="central">OUT</text>
<image x="660" y="570" width="50" height="50" xlink:href="symbolen/Prieze\prieze_hydro_false_kinder_true_aarding_true_1.svg" />
<text x="685.0" y="595.0" font-size="12" fill="red" text-anchor="middle" dominant-baseline="central">prieze</text>
<text x="685" y="562" font-size="15" fill="black" text-anchor="middle" dominant-baseline="central">prieze</text>
<circle cx="660" cy="595" r="5" fill="red" />
<text x="660" y="610" font-size="12" fill="black" valign="top" text-anchor="middle" dominant-baseline="central">IN</text>
<circle cx="710" cy="595" r="5" fill="green" />
<text x="710" y="610" font-size="12" fill="black" valign="top" text-anchor="middle" dominant-baseline="central">OUT</text>
<image x="570" y="840" width="50" height="50" xlink:href="symbolen/Prieze\prieze_hydro_false_kinder_true_aarding_true_2.svg" />
<text x="595.0" y="865.0" font-size="12" fill="red" text-anchor="middle" dominant-baseline="central">priezedub</text>
<text x="595" y="832" font-size="15" fill="black" text-anchor="middle" dominant-baseline="central">priezedub</text>
<circle cx="570" cy="865" r="5" fill="red" />
<text x="570" y="880" font-size="12" fill="black" valign="top" text-anchor="middle" dominant-baseline="central">IN</text>
<circle cx="620" cy="865" r="5" fill="green" />
<text x="620" y="880" font-size="12" fill="black" valign="top" text-anchor="middle" dominant-baseline="central">OUT</text>
<image x="660" y="210" width="50" height="50" xlink:href="symbolen/CircuitBreaker\circuit_breaker.svg" />
<text x="760" y="260" font-size="25" fill="black" text-anchor="middle" dominant-baseline="central">zek3001_V</text>
<text x="730" y="225" font-size="15" fill="black" text-anchor="middle" dominant-baseline="central">16A</text>
<circle cx="685" cy="60" r="8" fill="pink" />
<text x="665" y="60" font-size="12" fill="black" valign="top" text-anchor="middle" dominant-baseline="central">685 60</text>
<text x="685" y="202" font-size="15" fill="black" text-anchor="middle" dominant-baseline="central">zek3001_V</text>
<circle cx="685" cy="260" r="5" fill="red" />
<text x="685" y="275" font-size="12" fill="black" valign="top" text-anchor="middle" dominant-baseline="central">IN</text>
<circle cx="685" cy="210" r="5" fill="green" />
<text x="685" y="225" font-size="12" fill="black" valign="top" text-anchor="middle" dominant-baseline="central">OUT</text>
<circle cx="653" cy="260" r="5" fill="yellow" />
<text x="653" y="275" font-size="12" fill="black" valign="top" text-anchor="middle" dominant-baseline="central">CUT</text>
<path d="M685,210 L685,195" stroke="black" stroke-width="2" />
<path d="M750,505 L735,505" stroke="black" stroke-width="2" />
<path d="M685,195 L685,505" stroke="black" stroke-width="2" />
<text x="665" y="195" font-size="10" fill="orange" valign="top" text-anchor="middle" dominant-baseline="central">van(685,195)&gt;</text>
<text x="665" y="505" font-size="10" fill="orange" valign="top" text-anchor="middle" dominant-baseline="central">naar(685,505)&gt;</text>
<path d="M685,195 L685,505" stroke="orange" stroke-width="2" />
<path d="M685,505 L735,505" stroke="black" stroke-width="2" />
<path d="M685,505 L735,505" stroke="yellow" stroke-width="2" />
<text x="695" y="515" font-size="17" fill="blue" text-anchor="middle" dominant-baseline="central">1</text>
<rect x="750" y="480" width="50" height="50" fill="pink" stroke="black" stroke-width="1" />
<text x="775" y="472" font-size="15" fill="black" text-anchor="middle" dominant-baseline="central">droogkast3002_H</text>
<circle cx="750" cy="505" r="5" fill="red" />
<text x="750" y="520" font-size="12" fill="black" valign="top" text-anchor="middle" dominant-baseline="central">IN</text>
<circle cx="800" cy="505" r="5" fill="green" />
<text x="800" y="520" font-size="12" fill="black" valign="top" text-anchor="middle" dominant-baseline="central">OUT</text>
<image x="840" y="210" width="50" height="50" xlink:href="symbolen/CircuitBreaker\circuit_breaker.svg" />
<text x="940" y="260" font-size="25" fill="black" text-anchor="middle" dominant-baseline="central">zek3002_V</text>
<text x="910" y="225" font-size="15" fill="black" text-anchor="middle" dominant-baseline="central">16A</text>
<circle cx="865" cy="60" r="8" fill="pink" />
<text x="845" y="60" font-size="12" fill="black" valign="top" text-anchor="middle" dominant-baseline="central">865 60</text>
<text x="865" y="202" font-size="15" fill="black" text-anchor="middle" dominant-baseline="central">zek3002_V</text>
<circle cx="865" cy="260" r="5" fill="red" />
<text x="865" y="275" font-size="12" fill="black" valign="top" text-anchor="middle" dominant-baseline="central">IN</text>
<circle cx="865" cy="210" r="5" fill="green" />
<text x="865" y="225" font-size="12" fill="black" valign="top" text-anchor="middle" dominant-baseline="central">OUT</text>
<circle cx="833" cy="260" r="5" fill="yellow" />
<text x="833" y="275" font-size="12" fill="black" valign="top" text-anchor="middle" dominant-baseline="central">CUT</text>
<path d="M865,210 L865,195" stroke="black" stroke-width="2" />
<path d="M930,505 L915,505" stroke="black" stroke-width="2" />
<path d="M865,210 L865,195" stroke="black" stroke-width="2" />
<path d="M930,595 L915,595" stroke="black" stroke-width="2" />
<path d="M865,195 L865,505" stroke="black" stroke-width="2" />
<text x="845" y="195" font-size="10" fill="orange" valign="top" text-anchor="middle" dominant-baseline="central">van(865,195)&gt;</text>
<text x="845" y="505" font-size="10" fill="orange" valign="top" text-anchor="middle" dominant-baseline="central">naar(865,505)&gt;</text>
<path d="M865,195 L865,505" stroke="orange" stroke-width="2" />
<path d="M865,505 L915,505" stroke="black" stroke-width="2" />
<path d="M865,505 L915,505" stroke="yellow" stroke-width="2" />
<text x="875" y="515" font-size="17" fill="blue" text-anchor="middle" dominant-baseline="central">1</text>
<path d="M865,195 L865,595" stroke="black" stroke-width="2" />
<text x="845" y="195" font-size="10" fill="orange" valign="top" text-anchor="middle" dominant-baseline="central">van(865,195)&gt;</text>
<text x="845" y="595" font-size="10" fill="orange" valign="top" text-anchor="middle" dominant-baseline="central">naar(865,595)&gt;</text>
<path d="M865,195 L865,595" stroke="orange" stroke-width="2" />
<path d="M865,595 L915,595" stroke="black" stroke-width="2" />
<path d="M865,595 L915,595" stroke="yellow" stroke-width="2" />
<text x="875" y="605" font-size="17" fill="blue" text-anchor="middle" dominant-baseline="central">2</text>
<rect x="930" y="480" width="50" height="50" fill="pink" stroke="black" stroke-width="1" />
<text x="955" y="472" font-size="15" fill="black" text-anchor="middle" dominant-baseline="central">microoven3002_H</text>
<circle cx="930" cy="505" r="5" fill="red" />
<text x="930" y="520" font-size="12" fill="black" valign="top" text-anchor="middle" dominant-baseline="central">IN</text>
<circle cx="980" cy="505" r="5" fill="green" />
<text x="980" y="520" font-size="12" fill="black" valign="top" text-anchor="middle" dominant-baseline="central">OUT</text>
<rect x="930" y="570" width="50" height="50" fill="pink" stroke="black" stroke-width="1" />
<text x="955" y="562" font-size="15" fill="black" text-anchor="middle" dominant-baseline="central">oven3002_H</text>
<circle cx="930" cy="595" r="5" fill="red" />
<text x="930" y="610" font-size="12" fill="black" valign="top" text-anchor="middle" dominant-baseline="central">IN</text>
<circle cx="980" cy="595" r="5" fill="green" />
<text x="980" y="610" font-size="12" fill="black" valign="top" text-anchor="middle" dominant-baseline="central">OUT</text>
<image x="1020" y="210" width="50" height="50" xlink:href="symbolen/CircuitBreaker\circuit_breaker.svg" />
<text x="1120" y="260" font-size="25" fill="black" text-anchor="middle" dominant-baseline="central">zek3003_V</text>
<text x="1090" y="225" font-size="15" fill="black" text-anchor="middle" dominant-baseline="central">16A</text>
<circle cx="1045" cy="60" r="8" fill="pink" />
<text x="1025" y="60" font-size="12" fill="black" valign="top" text-anchor="middle" dominant-baseline="central">1045 60</text>
<text x="1045" y="202" font-size="15" fill="black" text-anchor="middle" dominant-baseline="central">zek3003_V</text>
<circle cx="1045" cy="260" r="5" fill="red" />
<text x="1045" y="275" font-size="12" fill="black" valign="top" text-anchor="middle" dominant-baseline="central">IN</text>
<circle cx="1045" cy="210" r="5" fill="green" />
<text x="1045" y="225" font-size="12" fill="black" valign="top" text-anchor="middle" dominant-baseline="central">OUT</text>
<circle cx="1013" cy="260" r="5" fill="yellow" />
<text x="1013" y="275" font-size="12" fill="black" valign="top" text-anchor="middle" dominant-baseline="central">CUT</text>
<path d="M1045,210 L1045,195" stroke="black" stroke-width="2" />
<path d="M1110,505 L1095,505" stroke="black" stroke-width="2" />
<path d="M1045,210 L1045,195" stroke="black" stroke-width="2" />
<path d="M1110,865 L1095,865" stroke="black" stroke-width="2" />
<path d="M1045,210 L1045,195" stroke="black" stroke-width="2" />
<path d="M1110,955 L1095,955" stroke="black" stroke-width="2" />
<path d="M1045,195 L1045,505" stroke="black" stroke-width="2" />
<text x="1025" y="195" font-size="10" fill="orange" valign="top" text-anchor="middle" dominant-baseline="central">van(1045,195)&gt;</text>
<text x="1025" y="505" font-size="10" fill="orange" valign="top" text-anchor="middle" dominant-baseline="central">naar(1045,505)&gt;</text>
<path d="M1045,195 L1045,505" stroke="orange" stroke-width="2" />
<path d="M1045,505 L1095,505" stroke="black" stroke-width="2" />
<path d="M1045,505 L1095,505" stroke="yellow" stroke-width="2" />
<text x="1055" y="515" font-size="17" fill="blue" text-anchor="middle" dominant-baseline="central">1</text>
<path d="M1045,195 L1045,865" stroke="black" stroke-width="2" />
<text x="1025" y="195" font-size="10" fill="orange" valign="top" text-anchor="middle" dominant-baseline="central">van(1045,195)&gt;</text>
<text x="1025" y="865" font-size="10" fill="orange" valign="top" text-anchor="middle" dominant-baseline="central">naar(1045,865)&gt;</text>
<path d="M1045,195 L1045,865" stroke="orange" stroke-width="2" />
<path d="M1045,865 L1095,865" stroke="black" stroke-width="2" />
<path d="M1045,865 L1095,865" stroke="yellow" stroke-width="2" />
<text x="1055" y="875" font-size="17" fill="blue" text-anchor="middle" dominant-baseline="central">2</text>
<path d="M1045,195 L1045,955" stroke="black" stroke-width="2" />
<text x="1025" y="195" font-size="10" fill="orange" valign="top" text-anchor="middle" dominant-baseline="central">van(1045,195)&gt;</text>
<text x="1025" y="955" font-size="10" fill="orange" valign="top" text-anchor="middle" dominant-baseline="central">naar(1045,955)&gt;</text>
<path d="M1045,195 L1045,955" stroke="orange" stroke-width="2" />
<path d="M1045,955 L1095,955" stroke="black" stroke-width="2" />
<path d="M1045,955 L1095,955" stroke="yellow" stroke-width="2" />
<text x="1055" y="965" font-size="17" fill="blue" text-anchor="middle" dominant-baseline="central">3</text>
<rect x="1110" y="480" width="50" height="50" fill="pink" stroke="black" stroke-width="1" />
<text x="1135" y="472" font-size="15" fill="black" text-anchor="middle" dominant-baseline="central">domo2_H</text>
<circle cx="1110" cy="505" r="5" fill="red" />
<text x="1110" y="520" font-size="12" fill="black" valign="top" text-anchor="middle" dominant-baseline="central">IN</text>
<circle cx="1160" cy="505" r="5" fill="green" />
<text x="1160" y="520" font-size="12" fill="black" valign="top" text-anchor="middle" dominant-baseline="central">OUT</text>
<path d="M1160,505 L1175,505" stroke="black" stroke-width="2" />
<path d="M1200,505 L1185,505" stroke="black" stroke-width="2" />
<path d="M1160,505 L1175,505" stroke="black" stroke-width="2" />
<path d="M1200,595 L1185,595" stroke="black" stroke-width="2" />
<path d="M1160,505 L1175,505" stroke="black" stroke-width="2" />
<path d="M1200,685 L1185,685" stroke="black" stroke-width="2" />
<path d="M1160,505 L1175,505" stroke="black" stroke-width="2" />
<path d="M1200,775 L1185,775" stroke="black" stroke-width="2" />
<path d="M1175,505 L1185,505" stroke="black" stroke-width="2" />
<path d="M1185,505 L1185,505" stroke="black" stroke-width="2" />
<path d="M1175,505 L1185,505" stroke="black" stroke-width="2" />
<path d="M1185,505 L1185,595" stroke="black" stroke-width="2" />
<path d="M1175,505 L1185,505" stroke="black" stroke-width="2" />
<path d="M1185,505 L1185,685" stroke="black" stroke-width="2" />
<path d="M1175,505 L1185,505" stroke="black" stroke-width="2" />
<path d="M1185,505 L1185,775" stroke="black" stroke-width="2" />
<rect x="1200" y="480" width="50" height="50" fill="pink" stroke="black" stroke-width="1" />
<text x="1225" y="472" font-size="15" fill="black" text-anchor="middle" dominant-baseline="central">Verlichting2_H</text>
<circle cx="1200" cy="505" r="5" fill="red" />
<text x="1200" y="520" font-size="12" fill="black" valign="top" text-anchor="middle" dominant-baseline="central">IN</text>
<circle cx="1250" cy="505" r="5" fill="green" />
<text x="1250" y="520" font-size="12" fill="black" valign="top" text-anchor="middle" dominant-baseline="central">OUT</text>
<rect x="1200" y="570" width="50" height="50" fill="pink" stroke="black" stroke-width="1" />
<text x="1225" y="562" font-size="15" fill="black" text-anchor="middle" dominant-baseline="central">Verlichting3_H</text>
<circle cx="1200" cy="595" r="5" fill="red" />
<text x="1200" y="610" font-size="12" fill="black" valign="top" text-anchor="middle" dominant-baseline="central">IN</text>
<circle cx="1250" cy="595" r="5" fill="green" />
<text x="1250" y="610" font-size="12" fill="black" valign="top" text-anchor="middle" dominant-baseline="central">OUT</text>
<rect x="1200" y="660" width="50" height="50" fill="pink" stroke="black" stroke-width="1" />
<text x="1225" y="652" font-size="15" fill="black" text-anchor="middle" dominant-baseline="central">Verlichting4_H</text>
<circle cx="1200" cy="685" r="5" fill="red" />
<text x="1200" y="700" font-size="12" fill="black" valign="top" text-anchor="middle" dominant-baseline="central">IN</text>
<circle cx="1250" cy="685" r="5" fill="green" />
<text x="1250" y="700" font-size="12" fill="black" valign="top" text-anchor="middle" dominant-baseline="central">OUT</text>
<rect x="1200" y="750" width="50" height="50" fill="pink" stroke="black" stroke-width="1" />
<text x="1225" y="742" font-size="15" fill="black" text-anchor="middle" dominant-baseline="central">Verlichting5_H</text>
<circle cx="1200" cy="775" r="5" fill="red" />
<text x="1200" y="790" font-size="12" fill="black" valign="top" text-anchor="middle" dominant-baseline="central">IN</text>
<circle cx="1250" cy="775" r="5" fill="green" />
<text x="1250" y="790" font-size="12" fill="black" valign="top" text-anchor="middle" dominant-baseline="central">OUT</text>
<rect x="1110" y="840" width="50" height="50" fill="pink" stroke="black" stroke-width="1" />
<text x="1135" y="832" font-size="15" fill="black" text-anchor="middle" dominant-baseline="central">Domomodule_H</text>
<circle cx="1110" cy="865" r="5" fill="red" />
<text x="1110" y="880" font-size="12" fill="black" valign="top" text-anchor="middle" dominant-baseline="central">IN</text>
<circle cx="1160" cy="865" r="5" fill="green" />
<text x="1160" y="880" font-size="12" fill="black" valign="top" text-anchor="middle" dominant-baseline="central">OUT</text>
<path d="M1160,865 L1175,865" stroke="black" stroke-width="2" />
<path d="M1200,865 L1185,865" stroke="black" stroke-width="2" />
<path d="M1175,865 L1185,865" stroke="black" stroke-width="2" />
<path d="M1185,865 L1185,865" stroke="black" stroke-width="2" />
<rect x="1200" y="840" width="50" height="50" fill="pink" stroke="black" stroke-width="1" />
<text x="1225" y="832" font-size="15" fill="black" text-anchor="middle" dominant-baseline="central">Verlichting_H</text>
<circle cx="1200" cy="865" r="5" fill="red" />
<text x="1200" y="880" font-size="12" fill="black" valign="top" text-anchor="middle" dominant-baseline="central">IN</text>
<circle cx="1250" cy="865" r="5" fill="green" />
<text x="1250" y="880" font-size="12" fill="black" valign="top" text-anchor="middle" dominant-baseline="central">OUT</text>
<rect x="1110" y="930" width="50" height="50" fill="pink" stroke="black" stroke-width="1" />
<text x="1135" y="922" font-size="15" fill="black" text-anchor="middle" dominant-baseline="central">tv_H</text>
<circle cx="1110" cy="955" r="5" fill="red" />
<text x="1110" y="970" font-size="12" fill="black" valign="top" text-anchor="middle" dominant-baseline="central">IN</text>
<circle cx="1160" cy="955" r="5" fill="green" />
<text x="1160" y="970" font-size="12" fill="black" valign="top" text-anchor="middle" dominant-baseline="central">OUT</text>
<image x="1290" y="210" width="50" height="50" xlink:href="symbolen/CircuitBreaker\circuit_breaker.svg" />
<text x="1390" y="260" font-size="25" fill="black" text-anchor="middle" dominant-baseline="central">zek3004verl_V</text>
<text x="1360" y="225" font-size="15" fill="black" text-anchor="middle" dominant-baseline="central">16A</text>
<circle cx="1315" cy="60" r="8" fill="pink" />
<text x="1295" y="60" font-size="12" fill="black" valign="top" text-anchor="middle" dominant-baseline="central">1315 60</text>
<text x="1315" y="202" font-size="15" fill="black" text-anchor="middle" dominant-baseline="central">zek3004verl_V</text>
<circle cx="1315" cy="260" r="5" fill="red" />
<text x="1315" y="275" font-size="12" fill="black" valign="top" text-anchor="middle" dominant-baseline="central">IN</text>
<circle cx="1315" cy="210" r="5" fill="green" />
<text x="1315" y="225" font-size="12" fill="black" valign="top" text-anchor="middle" dominant-baseline="central">OUT</text>
<circle cx="1283" cy="260" r="5" fill="yellow" />
<text x="1283" y="275" font-size="12" fill="black" valign="top" text-anchor="middle" dominant-baseline="central">CUT</text>
<path d="M1315,210 L1315,195" stroke="black" stroke-width="2" />
<path d="M1380,505 L1365,505" stroke="black" stroke-width="2" />
<path d="M1315,210 L1315,195" stroke="black" stroke-width="2" />
<path d="M1380,595 L1365,595" stroke="black" stroke-width="2" />
<path d="M1315,210 L1315,195" stroke="black" stroke-width="2" />
<path d="M1380,685 L1365,685" stroke="black" stroke-width="2" />
<path d="M1315,210 L1315,195" stroke="black" stroke-width="2" />
<path d="M1380,775 L1365,775" stroke="black" stroke-width="2" />
<path d="M1315,210 L1315,195" stroke="black" stroke-width="2" />
<path d="M1380,865 L1365,865" stroke="black" stroke-width="2" />
<path d="M1315,195 L1315,505" stroke="black" stroke-width="2" />
<text x="1295" y="195" font-size="10" fill="orange" valign="top" text-anchor="middle" dominant-baseline="central">van(1315,195)&gt;</text>
<text x="1295" y="505" font-size="10" fill="orange" valign="top" text-anchor="middle" dominant-baseline="central">naar(1315,505)&gt;</text>
<path d="M1315,195 L1315,505" stroke="orange" stroke-width="2" />
<path d="M1315,505 L1365,505" stroke="black" stroke-width="2" />
<path d="M1315,505 L1365,505" stroke="yellow" stroke-width="2" />
<text x="1325" y="515" font-size="17" fill="blue" text-anchor="middle" dominant-baseline="central">1</text>
<path d="M1315,195 L1315,595" stroke="black" stroke-width="2" />
<text x="1295" y="195" font-size="10" fill="orange" valign="top" text-anchor="middle" dominant-baseline="central">van(1315,195)&gt;</text>
<text x="1295" y="595" font-size="10" fill="orange" valign="top" text-anchor="middle" dominant-baseline="central">naar(1315,595)&gt;</text>
<path d="M1315,195 L1315,595" stroke="orange" stroke-width="2" />
<path d="M1315,595 L1365,595" stroke="black" stroke-width="2" />
<path d="M1315,595 L1365,595" stroke="yellow" stroke-width="2" />
<text x="1325" y="605" font-size="17" fill="blue" text-anchor="middle" dominant-baseline="central">2</text>
<path d="M1315,195 L1315,685" stroke="black" stroke-width="2" />
<text x="1295" y="195" font-size="10" fill="orange" valign="top" text-anchor="middle" dominant-baseline="central">van(1315,195)&gt;</text>
<text x="1295" y="685" font-size="10" fill="orange" valign="top" text-anchor="middle" dominant-baseline="central">naar(1315,685)&gt;</text>
<path d="M1315,195 L1315,685" stroke="orange" stroke-width="2" />
<path d="M1315,685 L1365,685" stroke="black" stroke-width="2" />
<path d="M1315,685 L1365,685" stroke="yellow" stroke-width="2" />
<text x="1325" y="695" font-size="17" fill="blue" text-anchor="middle" dominant-baseline="central">3</text>
<path d="M1315,195 L1315,775" stroke="black" stroke-width="2" />
<text x="1295" y="195" font-size="10" fill="orange" valign="top" text-anchor="middle" dominant-baseline="central">van(1315,195)&gt;</text>
<text x="1295" y="775" font-size="10" fill="orange" valign="top" text-anchor="middle" dominant-baseline="central">naar(1315,775)&gt;</text>
<path d="M1315,195 L1315,775" stroke="orange" stroke-width="2" />
<path d="M1315,775 L1365,775" stroke="black" stroke-width="2" />
<path d="M1315,775 L1365,775" stroke="yellow" stroke-width="2" />
<text x="1325" y="785" font-size="17" fill="blue" text-anchor="middle" dominant-baseline="central">4</text>
<path d="M1315,195 L1315,865" stroke="black" stroke-width="2" />
<text x="1295" y="195" font-size="10" fill="orange" valign="top" text-anchor="middle" dominant-baseline="central">van(1315,195)&gt;</text>
<text x="1295" y="865" font-size="10" fill="orange" valign="top" text-anchor="middle" dominant-baseline="central">naar(1315,865)&gt;</text>
<path d="M1315,195 L1315,865" stroke="orange" stroke-width="2" />
<path d="M1315,865 L1365,865" stroke="black" stroke-width="2" />
<path d="M1315,865 L1365,865" stroke="yellow" stroke-width="2" />
<text x="1325" y="875" font-size="17" fill="blue" text-anchor="middle" dominant-baseline="central">5</text>
<rect x="1380" y="480" width="50" height="50" fill="pink" stroke="black" stroke-width="1" />
<text x="1405" y="472" font-size="15" fill="black" text-anchor="middle" dominant-baseline="central">Verlicht1_H</text>
<circle cx="1380" cy="505" r="5" fill="red" />
<text x="1380" y="520" font-size="12" fill="black" valign="top" text-anchor="middle" dominant-baseline="central">IN</text>
<circle cx="1430" cy="505" r="5" fill="green" />
<text x="1430" y="520" font-size="12" fill="black" valign="top" text-anchor="middle" dominant-baseline="central">OUT</text>
<rect x="1380" y="570" width="50" height="50" fill="pink" stroke="black" stroke-width="1" />
<text x="1405" y="562" font-size="15" fill="black" text-anchor="middle" dominant-baseline="central">Verlicht2_H</text>
<circle cx="1380" cy="595" r="5" fill="red" />
<text x="1380" y="610" font-size="12" fill="black" valign="top" text-anchor="middle" dominant-baseline="central">IN</text>
<circle cx="1430" cy="595" r="5" fill="green" />
<text x="1430" y="610" font-size="12" fill="black" valign="top" text-anchor="middle" dominant-baseline="central">OUT</text>
<rect x="1380" y="660" width="50" height="50" fill="pink" stroke="black" stroke-width="1" />
<text x="1405" y="652" font-size="15" fill="black" text-anchor="middle" dominant-baseline="central">Verlicht3_H</text>
<circle cx="1380" cy="685" r="5" fill="red" />
<text x="1380" y="700" font-size="12" fill="black" valign="top" text-anchor="middle" dominant-baseline="central">IN</text>
<circle cx="1430" cy="685" r="5" fill="green" />
<text x="1430" y="700" font-size="12" fill="black" valign="top" text-anchor="middle" dominant-baseline="central">OUT</text>
<rect x="1380" y="750" width="50" height="50" fill="pink" stroke="black" stroke-width="1" />
<text x="1405" y="742" font-size="15" fill="black" text-anchor="middle" dominant-baseline="central">contaxop3004_H</text>
<circle cx="1380" cy="775" r="5" fill="red" />
<text x="1380" y="790" font-size="12" fill="black" valign="top" text-anchor="middle" dominant-baseline="central">IN</text>
<circle cx="1430" cy="775" r="5" fill="green" />
<text x="1430" y="790" font-size="12" fill="black" valign="top" text-anchor="middle" dominant-baseline="central">OUT</text>
<path d="M1430,775 L1445,775" stroke="black" stroke-width="2" />
<path d="M1470,775 L1455,775" stroke="black" stroke-width="2" />
<path d="M1445,775 L1455,775" stroke="black" stroke-width="2" />
<path d="M1455,775 L1455,775" stroke="black" stroke-width="2" />
<rect x="1470" y="750" width="50" height="50" fill="pink" stroke="black" stroke-width="1" />
<text x="1495" y="742" font-size="15" fill="black" text-anchor="middle" dominant-baseline="central">contaxopcontax_H</text>
<circle cx="1470" cy="775" r="5" fill="red" />
<text x="1470" y="790" font-size="12" fill="black" valign="top" text-anchor="middle" dominant-baseline="central">IN</text>
<circle cx="1520" cy="775" r="5" fill="green" />
<text x="1520" y="790" font-size="12" fill="black" valign="top" text-anchor="middle" dominant-baseline="central">OUT</text>
<path d="M1520,775 L1535,775" stroke="black" stroke-width="2" />
<path d="M1560,775 L1545,775" stroke="black" stroke-width="2" />
<path d="M1535,775 L1545,775" stroke="black" stroke-width="2" />
<path d="M1545,775 L1545,775" stroke="black" stroke-width="2" />
<rect x="1560" y="750" width="50" height="50" fill="pink" stroke="black" stroke-width="1" />
<text x="1585" y="742" font-size="15" fill="black" text-anchor="middle" dominant-baseline="central">faaropcontax_H</text>
<circle cx="1560" cy="775" r="5" fill="red" />
<text x="1560" y="790" font-size="12" fill="black" valign="top" text-anchor="middle" dominant-baseline="central">IN</text>
<circle cx="1610" cy="775" r="5" fill="green" />
<text x="1610" y="790" font-size="12" fill="black" valign="top" text-anchor="middle" dominant-baseline="central">OUT</text>
<rect x="1380" y="840" width="50" height="50" fill="pink" stroke="black" stroke-width="1" />
<text x="1405" y="832" font-size="15" fill="black" text-anchor="middle" dominant-baseline="central">lamp3004_H</text>
<circle cx="1380" cy="865" r="5" fill="red" />
<text x="1380" y="880" font-size="12" fill="black" valign="top" text-anchor="middle" dominant-baseline="central">IN</text>
<circle cx="1430" cy="865" r="5" fill="green" />
<text x="1430" y="880" font-size="12" fill="black" valign="top" text-anchor="middle" dominant-baseline="central">OUT</text>
</svg>