<?xml version="1.0" encoding="UTF-8"?>
<svg xmlns="http://www.w3.org/2000/svg" xmlns:xlink="http://www.w3.org/1999/xlink"
     width="180" height="1050" viewBox="0 0 180 1050">
<defs>
</defs>
<rect x="-173" y="930" width="50" height="50" fill="pink" stroke="black" stroke-width="1" />
<text x="-148" y="922" font-size="15" fill="black" text-anchor="middle" dominant-baseline="central">kopkwhmeter_H</text>
<circle cx="-173" cy="955" r="5" fill="red" />
<text x="-173" y="970" font-size="12" fill="black" valign="top" text-anchor="middle" dominant-baseline="central">IN</text>
<circle cx="-123" cy="955" r="5" fill="green" />
<text x="-123" y="970" font-size="12" fill="black" valign="top" text-anchor="middle" dominant-baseline="central">OUT</text>
<path d="M-123,955 L-108,955" stroke="black" stroke-width="2" />
<path d="M-83,955 L-98,955" stroke="black" stroke-width="2" />
<path d="M-108,955 L-98,955" stroke="black" stroke-width="2" />
<path d="M-98,955 L-98,955" stroke="black" stroke-width="2" />
<rect x="-83" y="930" width="50" height="50" fill="pink" stroke="black" stroke-width="1" />
<text x="-58" y="922" font-size="15" fill="black" text-anchor="middle" dominant-baseline="central">Teller_H</text>
<circle cx="-83" cy="955" r="5" fill="red" />
<text x="-83" y="970" font-size="12" fill="black" valign="top" text-anchor="middle" dominant-baseline="central">IN</text>
<circle cx="-33" cy="955" r="5" fill="green" />
<text x="-33" y="970" font-size="12" fill="black" valign="top" text-anchor="middle" dominant-baseline="central">OUT</text>
<path d="M-33,955 L-18,955" stroke="black" stroke-width="2" />
<path d="M32,890 L32,905" stroke="black" stroke-width="2" />
<path d="M-33,955 L-18,955" stroke="black" stroke-width="2" />
<path d="M212,890 L212,905" stroke="black" stroke-width="2" />
<path d="M-33,955 L-18,955" stroke="black" stroke-width="2" />
<path d="M302,890 L302,905" stroke="black" stroke-width="2" />
<path d="M-18,955 L32,955" stroke="black" stroke-width="2" />
<path d="M32,955 L32,905" stroke="black" stroke-width="2" />
<path d="M-18,955 L212,955" stroke="black" stroke-width="2" />
<path d="M212,955 L212,905" stroke="black" stroke-width="2" />
<path d="M-18,955 L302,955" stroke="black" stroke-width="2" />
<path d="M302,955 L302,905" stroke="black" stroke-width="2" />
<rect x="7" y="840" width="50" height="50" fill="pink" stroke="black" stroke-width="1" />
<text x="32" y="832" font-size="15" fill="black" text-anchor="middle" dominant-baseline="central">Diff3_V</text>
<circle cx="32" cy="890" r="5" fill="red" />
<text x="32" y="905" font-size="12" fill="black" valign="top" text-anchor="middle" dominant-baseline="central">IN</text>
<circle cx="32" cy="840" r="5" fill="green" />
<text x="32" y="855" font-size="12" fill="black" valign="top" text-anchor="middle" dominant-baseline="central">OUT</text>
<circle cx="0" cy="890" r="5" fill="yellow" />
<text x="0" y="905" font-size="12" fill="black" valign="top" text-anchor="middle" dominant-baseline="central">CUT</text>
<path d="M32,840 L32,825" stroke="black" stroke-width="2" />
<path d="M97,775 L82,775" stroke="black" stroke-width="2" />
<path d="M32,825 L32,775" stroke="black" stroke-width="2" />
<text x="12" y="825" font-size="10" fill="orange" valign="top" text-anchor="middle" dominant-baseline="central">van(32,825)&gt;</text>
<text x="12" y="775" font-size="10" fill="orange" valign="top" text-anchor="middle" dominant-baseline="central">naar(32,775)&gt;</text>
<path d="M32,825 L32,775" stroke="orange" stroke-width="2" />
<path d="M32,775 L82,775" stroke="black" stroke-width="2" />
<path d="M32,775 L82,775" stroke="yellow" stroke-width="2" />
<text x="42" y="785" font-size="17" fill="blue" text-anchor="middle" dominant-baseline="central">1</text>
<rect x="97" y="750" width="50" height="50" fill="pink" stroke="black" stroke-width="1" />
<text x="122" y="742" font-size="15" fill="black" text-anchor="middle" dominant-baseline="central">zonnepaneelopdif3_H</text>
<circle cx="97" cy="775" r="5" fill="red" />
<text x="97" y="790" font-size="12" fill="black" valign="top" text-anchor="middle" dominant-baseline="central">IN</text>
<circle cx="147" cy="775" r="5" fill="green" />
<text x="147" y="790" font-size="12" fill="black" valign="top" text-anchor="middle" dominant-baseline="central">OUT</text>
<rect x="187" y="840" width="50" height="50" fill="pink" stroke="black" stroke-width="1" />
<text x="212" y="832" font-size="15" fill="black" text-anchor="middle" dominant-baseline="central">Diff30_V</text>
<circle cx="212" cy="890" r="5" fill="red" />
<text x="212" y="905" font-size="12" fill="black" valign="top" text-anchor="middle" dominant-baseline="central">IN</text>
<circle cx="212" cy="840" r="5" fill="green" />
<text x="212" y="855" font-size="12" fill="black" valign="top" text-anchor="middle" dominant-baseline="central">OUT</text>
<circle cx="180" cy="890" r="5" fill="yellow" />
<text x="180" y="905" font-size="12" fill="black" valign="top" text-anchor="middle" dominant-baseline="central">CUT</text>
<rect x="277" y="840" width="50" height="50" fill="pink" stroke="black" stroke-width="1" />
<text x="302" y="832" font-size="15" fill="black" text-anchor="middle" dominant-baseline="central">Diff300_V</text>
<circle cx="302" cy="890" r="5" fill="red" />
<text x="302" y="905" font-size="12" fill="black" valign="top" text-anchor="middle" dominant-baseline="central">IN</text>
<circle cx="302" cy="840" r="5" fill="green" />
<text x="302" y="855" font-size="12" fill="black" valign="top" text-anchor="middle" dominant-baseline="central">OUT</text>
<circle cx="270" cy="890" r="5" fill="yellow" />
<text x="270" y="905" font-size="12" fill="black" valign="top" text-anchor="middle" dominant-baseline="central">CUT</text>
<path d="M302,840 L302,825" stroke="black" stroke-width="2" />
<path d="M302,800 L302,815" stroke="black" stroke-width="2" />
<path d="M302,840 L302,825" stroke="black" stroke-width="2" />
<path d="M482,800 L482,815" stroke="black" stroke-width="2" />
<path d="M302,840 L302,825" stroke="black" stroke-width="2" />
<path d="M662,800 L662,815" stroke="black" stroke-width="2" />
<path d="M302,840 L302,825" stroke="black" stroke-width="2" />
<path d="M842,800 L842,815" stroke="black" stroke-width="2" />
<path d="M302,840 L302,825" stroke="black" stroke-width="2" />
<path d="M1112,800 L1112,815" stroke="black" stroke-width="2" />
<path d="M302,825 L302,815" stroke="black" stroke-width="2" />
<text x="282" y="825" font-size="10" fill="orange" valign="top" text-anchor="middle" dominant-baseline="central">van(302,825)&gt;</text>
<text x="282" y="815" font-size="10" fill="orange" valign="top" text-anchor="middle" dominant-baseline="central">naar(302,815)&gt;</text>
<path d="M302,825 L302,815" stroke="orange" stroke-width="2" />
<path d="M302,815 L302,815" stroke="black" stroke-width="2" />
<path d="M302,815 L302,815" stroke="yellow" stroke-width="2" />
<path d="M302,825 L302,815" stroke="black" stroke-width="2" />
<text x="282" y="825" font-size="10" fill="orange" valign="top" text-anchor="middle" dominant-baseline="central">van(302,825)&gt;</text>
<text x="282" y="815" font-size="10" fill="orange" valign="top" text-anchor="middle" dominant-baseline="central">naar(302,815)&gt;</text>
<path d="M302,825 L302,815" stroke="orange" stroke-width="2" />
<path d="M302,815 L482,815" stroke="black" stroke-width="2" />
<path d="M302,815 L482,815" stroke="yellow" stroke-width="2" />
<path d="M302,825 L302,815" stroke="black" stroke-width="2" />
<text x="282" y="825" font-size="10" fill="orange" valign="top" text-anchor="middle" dominant-baseline="central">van(302,825)&gt;</text>
<text x="282" y="815" font-size="10" fill="orange" valign="top" text-anchor="middle" dominant-baseline="central">naar(302,815)&gt;</text>
<path d="M302,825 L302,815" stroke="orange" stroke-width="2" />
<path d="M302,815 L662,815" stroke="black" stroke-width="2" />
<path d="M302,815 L662,815" stroke="yellow" stroke-width="2" />
<path d="M302,825 L302,815" stroke="black" stroke-width="2" />
<text x="282" y="825" font-size="10" fill="orange" valign="top" text-anchor="middle" dominant-baseline="central">van(302,825)&gt;</text>
<text x="282" y="815" font-size="10" fill="orange" valign="top" text-anchor="middle" dominant-baseline="central">naar(302,815)&gt;</text>
<path d="M302,825 L302,815" stroke="orange" stroke-width="2" />
<path d="M302,815 L842,815" stroke="black" stroke-width="2" />
<path d="M302,815 L842,815" stroke="yellow" stroke-width="2" />
<path d="M302,825 L302,815" stroke="black" stroke-width="2" />
<text x="282" y="825" font-size="10" fill="orange" valign="top" text-anchor="middle" dominant-baseline="central">van(302,825)&gt;</text>
<text x="282" y="815" font-size="10" fill="orange" valign="top" text-anchor="middle" dominant-baseline="central">naar(302,815)&gt;</text>
<path d="M302,825 L302,815" stroke="orange" stroke-width="2" />
<path d="M302,815 L1112,815" stroke="black" stroke-width="2" />
<path d="M302,815 L1112,815" stroke="yellow" stroke-width="2" />
<rect x="277" y="750" width="50" height="50" fill="pink" stroke="black" stroke-width="1" />
<text x="302" y="742" font-size="15" fill="black" text-anchor="middle" dominant-baseline="central">Diff100_V</text>
<circle cx="302" cy="800" r="5" fill="red" />
<text x="302" y="815" font-size="12" fill="black" valign="top" text-anchor="middle" dominant-baseline="central">IN</text>
<circle cx="302" cy="750" r="5" fill="green" />
<text x="302" y="765" font-size="12" fill="black" valign="top" text-anchor="middle" dominant-baseline="central">OUT</text>
<circle cx="270" cy="800" r="5" fill="yellow" />
<text x="270" y="815" font-size="12" fill="black" valign="top" text-anchor="middle" dominant-baseline="central">CUT</text>
<path d="M302,750 L302,735" stroke="black" stroke-width="2" />
<path d="M302,710 L302,725" stroke="black" stroke-width="2" />
<path d="M302,735 L302,725" stroke="black" stroke-width="2" />
<text x="282" y="735" font-size="10" fill="orange" valign="top" text-anchor="middle" dominant-baseline="central">van(302,735)&gt;</text>
<text x="282" y="725" font-size="10" fill="orange" valign="top" text-anchor="middle" dominant-baseline="central">naar(302,725)&gt;</text>
<path d="M302,735 L302,725" stroke="orange" stroke-width="2" />
<path d="M302,725 L302,725" stroke="black" stroke-width="2" />
<path d="M302,725 L302,725" stroke="yellow" stroke-width="2" />
<image x="277" y="660" width="50" height="50" xlink:href="symbolen/CircuitBreaker\circuit_breaker.svg" />
<text x="377" y="710" font-size="25" fill="black" text-anchor="middle" dominant-baseline="central">zek1001_V</text>
<text x="347" y="675" font-size="15" fill="black" text-anchor="middle" dominant-baseline="central">16A</text>
<circle cx="302" cy="510" r="8" fill="pink" />
<text x="282" y="510" font-size="12" fill="black" valign="top" text-anchor="middle" dominant-baseline="central">302 510</text>
<text x="302" y="652" font-size="15" fill="black" text-anchor="middle" dominant-baseline="central">zek1001_V</text>
<circle cx="302" cy="710" r="5" fill="red" />
<text x="302" y="725" font-size="12" fill="black" valign="top" text-anchor="middle" dominant-baseline="central">IN</text>
<circle cx="302" cy="660" r="5" fill="green" />
<text x="302" y="675" font-size="12" fill="black" valign="top" text-anchor="middle" dominant-baseline="central">OUT</text>
<circle cx="270" cy="710" r="5" fill="yellow" />
<text x="270" y="725" font-size="12" fill="black" valign="top" text-anchor="middle" dominant-baseline="central">CUT</text>
<path d="M302,660 L302,645" stroke="black" stroke-width="2" />
<path d="M367,415 L352,415" stroke="black" stroke-width="2" />
<path d="M302,660 L302,645" stroke="black" stroke-width="2" />
<path d="M367,325 L352,325" stroke="black" stroke-width="2" />
<path d="M302,660 L302,645" stroke="black" stroke-width="2" />
<path d="M457,415 L442,415" stroke="black" stroke-width="2" />
<path d="M302,660 L302,645" stroke="black" stroke-width="2" />
<path d="M367,145 L352,145" stroke="black" stroke-width="2" />
<path d="M302,645 L302,415" stroke="black" stroke-width="2" />
<text x="282" y="645" font-size="10" fill="orange" valign="top" text-anchor="middle" dominant-baseline="central">van(302,645)&gt;</text>
<text x="282" y="415" font-size="10" fill="orange" valign="top" text-anchor="middle" dominant-baseline="central">naar(302,415)&gt;</text>
<path d="M302,645 L302,415" stroke="orange" stroke-width="2" />
<path d="M302,415 L352,415" stroke="black" stroke-width="2" />
<path d="M302,415 L352,415" stroke="yellow" stroke-width="2" />
<text x="312" y="425" font-size="17" fill="blue" text-anchor="middle" dominant-baseline="central">1</text>
<path d="M302,645 L302,325" stroke="black" stroke-width="2" />
<text x="282" y="645" font-size="10" fill="orange" valign="top" text-anchor="middle" dominant-baseline="central">van(302,645)&gt;</text>
<text x="282" y="325" font-size="10" fill="orange" valign="top" text-anchor="middle" dominant-baseline="central">naar(302,325)&gt;</text>
<path d="M302,645 L302,325" stroke="orange" stroke-width="2" />
<path d="M302,325 L352,325" stroke="black" stroke-width="2" />
<path d="M302,325 L352,325" stroke="yellow" stroke-width="2" />
<text x="312" y="335" font-size="17" fill="blue" text-anchor="middle" dominant-baseline="central">2</text>
<path d="M302,510 L442,510" stroke="black" stroke-width="2" />
<path d="M442,510 L442,415" stroke="black" stroke-width="2" />
<text x="352" y="510" font-size="10" fill="green" valign="top" text-anchor="middle" dominant-baseline="central">van(442,510)&gt;</text>
<text x="362" y="415" font-size="10" fill="green" valign="top" text-anchor="middle" dominant-baseline="central">naar(442,415)&gt;</text>
<path d="M302,510 L442,510" stroke="red" stroke-width="2" />
<path d="M442,510 L442,415" stroke="green" stroke-width="2" />
<text x="452" y="425" font-size="17" fill="blue" text-anchor="middle" dominant-baseline="central">3</text>
<path d="M302,645 L302,145" stroke="black" stroke-width="2" />
<text x="282" y="645" font-size="10" fill="orange" valign="top" text-anchor="middle" dominant-baseline="central">van(302,645)&gt;</text>
<text x="282" y="145" font-size="10" fill="orange" valign="top" text-anchor="middle" dominant-baseline="central">naar(302,145)&gt;</text>
<path d="M302,645 L302,145" stroke="orange" stroke-width="2" />
<path d="M302,145 L352,145" stroke="black" stroke-width="2" />
<path d="M302,145 L352,145" stroke="yellow" stroke-width="2" />
<text x="312" y="155" font-size="17" fill="blue" text-anchor="middle" dominant-baseline="central">4</text>
<rect x="367" y="390" width="50" height="50" fill="pink" stroke="black" stroke-width="1" />
<text x="392" y="382" font-size="15" fill="black" text-anchor="middle" dominant-baseline="central">Verlichting6_H</text>
<circle cx="367" cy="415" r="5" fill="red" />
<text x="367" y="430" font-size="12" fill="black" valign="top" text-anchor="middle" dominant-baseline="central">IN</text>
<circle cx="417" cy="415" r="5" fill="green" />
<text x="417" y="430" font-size="12" fill="black" valign="top" text-anchor="middle" dominant-baseline="central">OUT</text>
<rect x="367" y="300" width="50" height="50" fill="pink" stroke="black" stroke-width="1" />
<text x="392" y="292" font-size="15" fill="black" text-anchor="middle" dominant-baseline="central">vaatwas301_H</text>
<circle cx="367" cy="325" r="5" fill="red" />
<text x="367" y="340" font-size="12" fill="black" valign="top" text-anchor="middle" dominant-baseline="central">IN</text>
<circle cx="417" cy="325" r="5" fill="green" />
<text x="417" y="340" font-size="12" fill="black" valign="top" text-anchor="middle" dominant-baseline="central">OUT</text>
<image x="457" y="390" width="50" height="50" xlink:href="symbolen/Prieze\prieze_hydro_false_kinder_true_aarding_true_1.svg" />
<text x="482.0" y="415.0" font-size="12" fill="red" text-anchor="middle" dominant-baseline="central">prieze</text>
<text x="482" y="382" font-size="15" fill="black" text-anchor="middle" dominant-baseline="central">prieze</text>
<circle cx="457" cy="415" r="5" fill="red" />
<text x="457" y="430" font-size="12" fill="black" valign="top" text-anchor="middle" dominant-baseline="central">IN</text>
<circle cx="507" cy="415" r="5" fill="green" />
<text x="507" y="430" font-size="12" fill="black" valign="top" text-anchor="middle" dominant-baseline="central">OUT</text>
<image x="367" y="120" width="50" height="50" xlink:href="symbolen/Prieze\prieze_hydro_false_kinder_true_aarding_true_2.svg" />
<text x="392.0" y="145.0" font-size="12" fill="red" text-anchor="middle" dominant-baseline="central">priezedub</text>
<text x="392" y="112" font-size="15" fill="black" text-anchor="middle" dominant-baseline="central">priezedub</text>
<circle cx="367" cy="145" r="5" fill="red" />
<text x="367" y="160" font-size="12" fill="black" valign="top" text-anchor="middle" dominant-baseline="central">IN</text>
<circle cx="417" cy="145" r="5" fill="green" />
<text x="417" y="160" font-size="12" fill="black" valign="top" text-anchor="middle" dominant-baseline="central">OUT</text>
<image x="457" y="750" width="50" height="50" xlink:href="symbolen/CircuitBreaker\circuit_breaker.svg" />
<text x="557" y="800" font-size="25" fill="black" text-anchor="middle" dominant-baseline="central">zek3001_V</text>
<text x="527" y="765" font-size="15" fill="black" text-anchor="middle" dominant-baseline="central">16A</text>
<circle cx="482" cy="600" r="8" fill="pink" />
<text x="462" y="600" font-size="12" fill="black" valign="top" text-anchor="middle" dominant-baseline="central">482 600</text>
<text x="482" y="742" font-size="15" fill="black" text-anchor="middle" dominant-baseline="central">zek3001_V</text>
<circle cx="482" cy="800" r="5" fill="red" />
<text x="482" y="815" font-size="12" fill="black" valign="top" text-anchor="middle" dominant-baseline="central">IN</text>
<circle cx="482" cy="750" r="5" fill="green" />
<text x="482" y="765" font-size="12" fill="black" valign="top" text-anchor="middle" dominant-baseline="central">OUT</text>
<circle cx="450" cy="800" r="5" fill="yellow" />
<text x="450" y="815" font-size="12" fill="black" valign="top" text-anchor="middle" dominant-baseline="central">CUT</text>
<path d="M482,750 L482,735" stroke="black" stroke-width="2" />
<path d="M547,505 L532,505" stroke="black" stroke-width="2" />
<path d="M482,735 L482,505" stroke="black" stroke-width="2" />
<text x="462" y="735" font-size="10" fill="orange" valign="top" text-anchor="middle" dominant-baseline="central">van(482,735)&gt;</text>
<text x="462" y="505" font-size="10" fill="orange" valign="top" text-anchor="middle" dominant-baseline="central">naar(482,505)&gt;</text>
<path d="M482,735 L482,505" stroke="orange" stroke-width="2" />
<path d="M482,505 L532,505" stroke="black" stroke-width="2" />
<path d="M482,505 L532,505" stroke="yellow" stroke-width="2" />
<text x="492" y="515" font-size="17" fill="blue" text-anchor="middle" dominant-baseline="central">1</text>
<rect x="547" y="480" width="50" height="50" fill="pink" stroke="black" stroke-width="1" />
<text x="572" y="472" font-size="15" fill="black" text-anchor="middle" dominant-baseline="central">droogkast3002_H</text>
<circle cx="547" cy="505" r="5" fill="red" />
<text x="547" y="520" font-size="12" fill="black" valign="top" text-anchor="middle" dominant-baseline="central">IN</text>
<circle cx="597" cy="505" r="5" fill="green" />
<text x="597" y="520" font-size="12" fill="black" valign="top" text-anchor="middle" dominant-baseline="central">OUT</text>
<image x="637" y="750" width="50" height="50" xlink:href="symbolen/CircuitBreaker\circuit_breaker.svg" />
<text x="737" y="800" font-size="25" fill="black" text-anchor="middle" dominant-baseline="central">zek3002_V</text>
<text x="707" y="765" font-size="15" fill="black" text-anchor="middle" dominant-baseline="central">16A</text>
<circle cx="662" cy="600" r="8" fill="pink" />
<text x="642" y="600" font-size="12" fill="black" valign="top" text-anchor="middle" dominant-baseline="central">662 600</text>
<text x="662" y="742" font-size="15" fill="black" text-anchor="middle" dominant-baseline="central">zek3002_V</text>
<circle cx="662" cy="800" r="5" fill="red" />
<text x="662" y="815" font-size="12" fill="black" valign="top" text-anchor="middle" dominant-baseline="central">IN</text>
<circle cx="662" cy="750" r="5" fill="green" />
<text x="662" y="765" font-size="12" fill="black" valign="top" text-anchor="middle" dominant-baseline="central">OUT</text>
<circle cx="630" cy="800" r="5" fill="yellow" />
<text x="630" y="815" font-size="12" fill="black" valign="top" text-anchor="middle" dominant-baseline="central">CUT</text>
<path d="M662,750 L662,735" stroke="black" stroke-width="2" />
<path d="M727,505 L712,505" stroke="black" stroke-width="2" />
<path d="M662,750 L662,735" stroke="black" stroke-width="2" />
<path d="M727,415 L712,415" stroke="black" stroke-width="2" />
<path d="M662,735 L662,505" stroke="black" stroke-width="2" />
<text x="642" y="735" font-size="10" fill="orange" valign="top" text-anchor="middle" dominant-baseline="central">van(662,735)&gt;</text>
<text x="642" y="505" font-size="10" fill="orange" valign="top" text-anchor="middle" dominant-baseline="central">naar(662,505)&gt;</text>
<path d="M662,735 L662,505" stroke="orange" stroke-width="2" />
<path d="M662,505 L712,505" stroke="black" stroke-width="2" />
<path d="M662,505 L712,505" stroke="yellow" stroke-width="2" />
<text x="672" y="515" font-size="17" fill="blue" text-anchor="middle" dominant-baseline="central">1</text>
<path d="M662,735 L662,415" stroke="black" stroke-width="2" />
<text x="642" y="735" font-size="10" fill="orange" valign="top" text-anchor="middle" dominant-baseline="central">van(662,735)&gt;</text>
<text x="642" y="415" font-size="10" fill="orange" valign="top" text-anchor="middle" dominant-baseline="central">naar(662,415)&gt;</text>
<path d="M662,735 L662,415" stroke="orange" stroke-width="2" />
<path d="M662,415 L712,415" stroke="black" stroke-width="2" />
<path d="M662,415 L712,415" stroke="yellow" stroke-width="2" />
<text x="672" y="425" font-size="17" fill="blue" text-anchor="middle" dominant-baseline="central">2</text>
<rect x="727" y="480" width="50" height="50" fill="pink" stroke="black" stroke-width="1" />
<text x="752" y="472" font-size="15" fill="black" text-anchor="middle" dominant-baseline="central">microoven3002_H</text>
<circle cx="727" cy="505" r="5" fill="red" />
<text x="727" y="520" font-size="12" fill="black" valign="top" text-anchor="middle" dominant-baseline="central">IN</text>
<circle cx="777" cy="505" r="5" fill="green" />
<text x="777" y="520" font-size="12" fill="black" valign="top" text-anchor="middle" dominant-baseline="central">OUT</text>
<rect x="727" y="390" width="50" height="50" fill="pink" stroke="black" stroke-width="1" />
<text x="752" y="382" font-size="15" fill="black" text-anchor="middle" dominant-baseline="central">oven3002_H</text>
<circle cx="727" cy="415" r="5" fill="red" />
<text x="727" y="430" font-size="12" fill="black" valign="top" text-anchor="middle" dominant-baseline="central">IN</text>
<circle cx="777" cy="415" r="5" fill="green" />
<text x="777" y="430" font-size="12" fill="black" valign="top" text-anchor="middle" dominant-baseline="central">OUT</text>
<image x="817" y="750" width="50" height="50" xlink:href="symbolen/CircuitBreaker\circuit_breaker.svg" />
<text x="917" y="800" font-size="25" fill="black" text-anchor="middle" dominant-baseline="central">zek3003_V</text>
<text x="887" y="765" font-size="15" fill="black" text-anchor="middle" dominant-baseline="central">16A</text>
<circle cx="842" cy="600" r="8" fill="pink" />
<text x="822" y="600" font-size="12" fill="black" valign="top" text-anchor="middle" dominant-baseline="central">842 600</text>
<text x="842" y="742" font-size="15" fill="black" text-anchor="middle" dominant-baseline="central">zek3003_V</text>
<circle cx="842" cy="800" r="5" fill="red" />
<text x="842" y="815" font-size="12" fill="black" valign="top" text-anchor="middle" dominant-baseline="central">IN</text>
<circle cx="842" cy="750" r="5" fill="green" />
<text x="842" y="765" font-size="12" fill="black" valign="top" text-anchor="middle" dominant-baseline="central">OUT</text>
<circle cx="810" cy="800" r="5" fill="yellow" />
<text x="810" y="815" font-size="12" fill="black" valign="top" text-anchor="middle" dominant-baseline="central">CUT</text>
<path d="M842,750 L842,735" stroke="black" stroke-width="2" />
<path d="M907,505 L892,505" stroke="black" stroke-width="2" />
<path d="M842,750 L842,735" stroke="black" stroke-width="2" />
<path d="M907,145 L892,145" stroke="black" stroke-width="2" />
<path d="M842,750 L842,735" stroke="black" stroke-width="2" />
<path d="M907,55 L892,55" stroke="black" stroke-width="2" />
<path d="M842,735 L842,505" stroke="black" stroke-width="2" />
<text x="822" y="735" font-size="10" fill="orange" valign="top" text-anchor="middle" dominant-baseline="central">van(842,735)&gt;</text>
<text x="822" y="505" font-size="10" fill="orange" valign="top" text-anchor="middle" dominant-baseline="central">naar(842,505)&gt;</text>
<path d="M842,735 L842,505" stroke="orange" stroke-width="2" />
<path d="M842,505 L892,505" stroke="black" stroke-width="2" />
<path d="M842,505 L892,505" stroke="yellow" stroke-width="2" />
<text x="852" y="515" font-size="17" fill="blue" text-anchor="middle" dominant-baseline="central">1</text>
<path d="M842,735 L842,145" stroke="black" stroke-width="2" />
<text x="822" y="735" font-size="10" fill="orange" valign="top" text-anchor="middle" dominant-baseline="central">van(842,735)&gt;</text>
<text x="822" y="145" font-size="10" fill="orange" valign="top" text-anchor="middle" dominant-baseline="central">naar(842,145)&gt;</text>
<path d="M842,735 L842,145" stroke="orange" stroke-width="2" />
<path d="M842,145 L892,145" stroke="black" stroke-width="2" />
<path d="M842,145 L892,145" stroke="yellow" stroke-width="2" />
<text x="852" y="155" font-size="17" fill="blue" text-anchor="middle" dominant-baseline="central">2</text>
<path d="M842,735 L842,55" stroke="black" stroke-width="2" />
<text x="822" y="735" font-size="10" fill="orange" valign="top" text-anchor="middle" dominant-baseline="central">van(842,735)&gt;</text>
<text x="822" y="55" font-size="10" fill="orange" valign="top" text-anchor="middle" dominant-baseline="central">naar(842,55)&gt;</text>
<path d="M842,735 L842,55" stroke="orange" stroke-width="2" />
<path d="M842,55 L892,55" stroke="black" stroke-width="2" />
<path d="M842,55 L892,55" stroke="yellow" stroke-width="2" />
<text x="852" y="65" font-size="17" fill="blue" text-anchor="middle" dominant-baseline="central">3</text>
<rect x="907" y="480" width="50" height="50" fill="pink" stroke="black" stroke-width="1" />
<text x="932" y="472" font-size="15" fill="black" text-anchor="middle" dominant-baseline="central">domo2_H</text>
<circle cx="907" cy="505" r="5" fill="red" />
<text x="907" y="520" font-size="12" fill="black" valign="top" text-anchor="middle" dominant-baseline="central">IN</text>
<circle cx="957" cy="505" r="5" fill="green" />
<text x="957" y="520" font-size="12" fill="black" valign="top" text-anchor="middle" dominant-baseline="central">OUT</text>
<path d="M957,505 L972,505" stroke="black" stroke-width="2" />
<path d="M997,505 L982,505" stroke="black" stroke-width="2" />
<path d="M957,505 L972,505" stroke="black" stroke-width="2" />
<path d="M997,415 L982,415" stroke="black" stroke-width="2" />
<path d="M957,505 L972,505" stroke="black" stroke-width="2" />
<path d="M997,325 L982,325" stroke="black" stroke-width="2" />
<path d="M957,505 L972,505" stroke="black" stroke-width="2" />
<path d="M997,235 L982,235" stroke="black" stroke-width="2" />
<path d="M972,505 L982,505" stroke="black" stroke-width="2" />
<path d="M982,505 L982,505" stroke="black" stroke-width="2" />
<path d="M972,505 L982,505" stroke="black" stroke-width="2" />
<path d="M982,505 L982,415" stroke="black" stroke-width="2" />
<path d="M972,505 L982,505" stroke="black" stroke-width="2" />
<path d="M982,505 L982,325" stroke="black" stroke-width="2" />
<path d="M972,505 L982,505" stroke="black" stroke-width="2" />
<path d="M982,505 L982,235" stroke="black" stroke-width="2" />
<rect x="997" y="480" width="50" height="50" fill="pink" stroke="black" stroke-width="1" />
<text x="1022" y="472" font-size="15" fill="black" text-anchor="middle" dominant-baseline="central">Verlichting2_H</text>
<circle cx="997" cy="505" r="5" fill="red" />
<text x="997" y="520" font-size="12" fill="black" valign="top" text-anchor="middle" dominant-baseline="central">IN</text>
<circle cx="1047" cy="505" r="5" fill="green" />
<text x="1047" y="520" font-size="12" fill="black" valign="top" text-anchor="middle" dominant-baseline="central">OUT</text>
<rect x="997" y="390" width="50" height="50" fill="pink" stroke="black" stroke-width="1" />
<text x="1022" y="382" font-size="15" fill="black" text-anchor="middle" dominant-baseline="central">Verlichting3_H</text>
<circle cx="997" cy="415" r="5" fill="red" />
<text x="997" y="430" font-size="12" fill="black" valign="top" text-anchor="middle" dominant-baseline="central">IN</text>
<circle cx="1047" cy="415" r="5" fill="green" />
<text x="1047" y="430" font-size="12" fill="black" valign="top" text-anchor="middle" dominant-baseline="central">OUT</text>
<rect x="997" y="300" width="50" height="50" fill="pink" stroke="black" stroke-width="1" />
<text x="1022" y="292" font-size="15" fill="black" text-anchor="middle" dominant-baseline="central">Verlichting4_H</text>
<circle cx="997" cy="325" r="5" fill="red" />
<text x="997" y="340" font-size="12" fill="black" valign="top" text-anchor="middle" dominant-baseline="central">IN</text>
<circle cx="1047" cy="325" r="5" fill="green" />
<text x="1047" y="340" font-size="12" fill="black" valign="top" text-anchor="middle" dominant-baseline="central">OUT</text>
<rect x="997" y="210" width="50" height="50" fill="pink" stroke="black" stroke-width="1" />
<text x="1022" y="202" font-size="15" fill="black" text-anchor="middle" dominant-baseline="central">Verlichting5_H</text>
<circle cx="997" cy="235" r="5" fill="red" />
<text x="997" y="250" font-size="12" fill="black" valign="top" text-anchor="middle" dominant-baseline="central">IN</text>
<circle cx="1047" cy="235" r="5" fill="green" />
<text x="1047" y="250" font-size="12" fill="black" valign="top" text-anchor="middle" dominant-baseline="central">OUT</text>
<rect x="907" y="120" width="50" height="50" fill="pink" stroke="black" stroke-width="1" />
<text x="932" y="112" font-size="15" fill="black" text-anchor="middle" dominant-baseline="central">Domomodule_H</text>
<circle cx="907" cy="145" r="5" fill="red" />
<text x="907" y="160" font-size="12" fill="black" valign="top" text-anchor="middle" dominant-baseline="central">IN</text>
<circle cx="957" cy="145" r="5" fill="green" />
<text x="957" y="160" font-size="12" fill="black" valign="top" text-anchor="middle" dominant-baseline="central">OUT</text>
<path d="M957,145 L972,145" stroke="black" stroke-width="2" />
<path d="M997,145 L982,145" stroke="black" stroke-width="2" />
<path d="M972,145 L982,145" stroke="black" stroke-width="2" />
<path d="M982,145 L982,145" stroke="black" stroke-width="2" />
<rect x="997" y="120" width="50" height="50" fill="pink" stroke="black" stroke-width="1" />
<text x="1022" y="112" font-size="15" fill="black" text-anchor="middle" dominant-baseline="central">Verlichting_H</text>
<circle cx="997" cy="145" r="5" fill="red" />
<text x="997" y="160" font-size="12" fill="black" valign="top" text-anchor="middle" dominant-baseline="central">IN</text>
<circle cx="1047" cy="145" r="5" fill="green" />
<text x="1047" y="160" font-size="12" fill="black" valign="top" text-anchor="middle" dominant-baseline="central">OUT</text>
<rect x="907" y="30" width="50" height="50" fill="pink" stroke="black" stroke-width="1" />
<text x="932" y="22" font-size="15" fill="black" text-anchor="middle" dominant-baseline="central">tv_H</text>
<circle cx="907" cy="55" r="5" fill="red" />
<text x="907" y="70" font-size="12" fill="black" valign="top" text-anchor="middle" dominant-baseline="central">IN</text>
<circle cx="957" cy="55" r="5" fill="green" />
<text x="957" y="70" font-size="12" fill="black" valign="top" text-anchor="middle" dominant-baseline="central">OUT</text>
<image x="1087" y="750" width="50" height="50" xlink:href="symbolen/CircuitBreaker\circuit_breaker.svg" />
<text x="1187" y="800" font-size="25" fill="black" text-anchor="middle" dominant-baseline="central">zek3004verl_V</text>
<text x="1157" y="765" font-size="15" fill="black" text-anchor="middle" dominant-baseline="central">16A</text>
<circle cx="1112" cy="600" r="8" fill="pink" />
<text x="1092" y="600" font-size="12" fill="black" valign="top" text-anchor="middle" dominant-baseline="central">1112 600</text>
<text x="1112" y="742" font-size="15" fill="black" text-anchor="middle" dominant-baseline="central">zek3004verl_V</text>
<circle cx="1112" cy="800" r="5" fill="red" />
<text x="1112" y="815" font-size="12" fill="black" valign="top" text-anchor="middle" dominant-baseline="central">IN</text>
<circle cx="1112" cy="750" r="5" fill="green" />
<text x="1112" y="765" font-size="12" fill="black" valign="top" text-anchor="middle" dominant-baseline="central">OUT</text>
<circle cx="1080" cy="800" r="5" fill="yellow" />
<text x="1080" y="815" font-size="12" fill="black" valign="top" text-anchor="middle" dominant-baseline="central">CUT</text>
<path d="M1112,750 L1112,735" stroke="black" stroke-width="2" />
<path d="M1177,505 L1162,505" stroke="black" stroke-width="2" />
<path d="M1112,750 L1112,735" stroke="black" stroke-width="2" />
<path d="M1177,415 L1162,415" stroke="black" stroke-width="2" />
<path d="M1112,750 L1112,735" stroke="black" stroke-width="2" />
<path d="M1177,325 L1162,325" stroke="black" stroke-width="2" />
<path d="M1112,750 L1112,735" stroke="black" stroke-width="2" />
<path d="M1177,235 L1162,235" stroke="black" stroke-width="2" />
<path d="M1112,750 L1112,735" stroke="black" stroke-width="2" />
<path d="M1177,145 L1162,145" stroke="black" stroke-width="2" />
<path d="M1112,735 L1112,505" stroke="black" stroke-width="2" />
<text x="1092" y="735" font-size="10" fill="orange" valign="top" text-anchor="middle" dominant-baseline="central">van(1112,735)&gt;</text>
<text x="1092" y="505" font-size="10" fill="orange" valign="top" text-anchor="middle" dominant-baseline="central">naar(1112,505)&gt;</text>
<path d="M1112,735 L1112,505" stroke="orange" stroke-width="2" />
<path d="M1112,505 L1162,505" stroke="black" stroke-width="2" />
<path d="M1112,505 L1162,505" stroke="yellow" stroke-width="2" />
<text x="1122" y="515" font-size="17" fill="blue" text-anchor="middle" dominant-baseline="central">1</text>
<path d="M1112,735 L1112,415" stroke="black" stroke-width="2" />
<text x="1092" y="735" font-size="10" fill="orange" valign="top" text-anchor="middle" dominant-baseline="central">van(1112,735)&gt;</text>
<text x="1092" y="415" font-size="10" fill="orange" valign="top" text-anchor="middle" dominant-baseline="central">naar(1112,415)&gt;</text>
<path d="M1112,735 L1112,415" stroke="orange" stroke-width="2" />
<path d="M1112,415 L1162,415" stroke="black" stroke-width="2" />
<path d="M1112,415 L1162,415" stroke="yellow" stroke-width="2" />
<text x="1122" y="425" font-size="17" fill="blue" text-anchor="middle" dominant-baseline="central">2</text>
<path d="M1112,735 L1112,325" stroke="black" stroke-width="2" />
<text x="1092" y="735" font-size="10" fill="orange" valign="top" text-anchor="middle" dominant-baseline="central">van(1112,735)&gt;</text>
<text x="1092" y="325" font-size="10" fill="orange" valign="top" text-anchor="middle" dominant-baseline="central">naar(1112,325)&gt;</text>
<path d="M1112,735 L1112,325" stroke="orange" stroke-width="2" />
<path d="M1112,325 L1162,325" stroke="black" stroke-width="2" />
<path d="M1112,325 L1162,325" stroke="yellow" stroke-width="2" />
<text x="1122" y="335" font-size="17" fill="blue" text-anchor="middle" dominant-baseline="central">3</text>
<path d="M1112,735 L1112,235" stroke="black" stroke-width="2" />
<text x="1092" y="735" font-size="10" fill="orange" valign="top" text-anchor="middle" dominant-baseline="central">van(1112,735)&gt;</text>
<text x="1092" y="235" font-size="10" fill="orange" valign="top" text-anchor="middle" dominant-baseline="central">naar(1112,235)&gt;</text>
<path d="M1112,735 L1112,235" stroke="orange" stroke-width="2" />
<path d="M1112,235 L1162,235" stroke="black" stroke-width="2" />
<path d="M1112,235 L1162,235" stroke="yellow" stroke-width="2" />
<text x="1122" y="245" font-size="17" fill="blue" text-anchor="middle" dominant-baseline="central">4</text>
<path d="M1112,735 L1112,145" stroke="black" stroke-width="2" />
<text x="1092" y="735" font-size="10" fill="orange" valign="top" text-anchor="middle" dominant-baseline="central">van(1112,735)&gt;</text>
<text x="1092" y="145" font-size="10" fill="orange" valign="top" text-anchor="middle" dominant-baseline="central">naar(1112,145)&gt;</text>
<path d="M1112,735 L1112,145" stroke="orange" stroke-width="2" />
<path d="M1112,145 L1162,145" stroke="black" stroke-width="2" />
<path d="M1112,145 L1162,145" stroke="yellow" stroke-width="2" />
<text x="1122" y="155" font-size="17" fill="blue" text-anchor="middle" dominant-baseline="central">5</text>
<rect x="1177" y="480" width="50" height="50" fill="pink" stroke="black" stroke-width="1" />
<text x="1202" y="472" font-size="15" fill="black" text-anchor="middle" dominant-baseline="central">Verlicht1_H</text>
<circle cx="1177" cy="505" r="5" fill="red" />
<text x="1177" y="520" font-size="12" fill="black" valign="top" text-anchor="middle" dominant-baseline="central">IN</text>
<circle cx="1227" cy="505" r="5" fill="green" />
<text x="1227" y="520" font-size="12" fill="black" valign="top" text-anchor="middle" dominant-baseline="central">OUT</text>
<rect x="1177" y="390" width="50" height="50" fill="pink" stroke="black" stroke-width="1" />
<text x="1202" y="382" font-size="15" fill="black" text-anchor="middle" dominant-baseline="central">Verlicht2_H</text>
<circle cx="1177" cy="415" r="5" fill="red" />
<text x="1177" y="430" font-size="12" fill="black" valign="top" text-anchor="middle" dominant-baseline="central">IN</text>
<circle cx="1227" cy="415" r="5" fill="green" />
<text x="1227" y="430" font-size="12" fill="black" valign="top" text-anchor="middle" dominant-baseline="central">OUT</text>
<rect x="1177" y="300" width="50" height="50" fill="pink" stroke="black" stroke-width="1" />
<text x="1202" y="292" font-size="15" fill="black" text-anchor="middle" dominant-baseline="central">Verlicht3_H</text>
<circle cx="1177" cy="325" r="5" fill="red" />
<text x="1177" y="340" font-size="12" fill="black" valign="top" text-anchor="middle" dominant-baseline="central">IN</text>
<circle cx="1227" cy="325" r="5" fill="green" />
<text x="1227" y="340" font-size="12" fill="black" valign="top" text-anchor="middle" dominant-baseline="central">OUT</text>
<rect x="1177" y="210" width="50" height="50" fill="pink" stroke="black" stroke-width="1" />
<text x="1202" y="202" font-size="15" fill="black" text-anchor="middle" dominant-baseline="central">contaxop3004_H</text>
<circle cx="1177" cy="235" r="5" fill="red" />
<text x="1177" y="250" font-size="12" fill="black" valign="top" text-anchor="middle" dominant-baseline="central">IN</text>
<circle cx="1227" cy="235" r="5" fill="green" />
<text x="1227" y="250" font-size="12" fill="black" valign="top" text-anchor="middle" dominant-baseline="central">OUT</text>
<path d="M1227,235 L1242,235" stroke="black" stroke-width="2" />
<path d="M1267,235 L1252,235" stroke="black" stroke-width="2" />
<path d="M1242,235 L1252,235" stroke="black" stroke-width="2" />
<path d="M1252,235 L1252,235" stroke="black" stroke-width="2" />
<rect x="1267" y="210" width="50" height="50" fill="pink" stroke="black" stroke-width="1" />
<text x="1292" y="202" font-size="15" fill="black" text-anchor="middle" dominant-baseline="central">contaxopcontax_H</text>
<circle cx="1267" cy="235" r="5" fill="red" />
<text x="1267" y="250" font-size="12" fill="black" valign="top" text-anchor="middle" dominant-baseline="central">IN</text>
<circle cx="1317" cy="235" r="5" fill="green" />
<text x="1317" y="250" font-size="12" fill="black" valign="top" text-anchor="middle" dominant-baseline="central">OUT</text>
<path d="M1317,235 L1332,235" stroke="black" stroke-width="2" />
<path d="M1357,235 L1342,235" stroke="black" stroke-width="2" />
<path d="M1332,235 L1342,235" stroke="black" stroke-width="2" />
<path d="M1342,235 L1342,235" stroke="black" stroke-width="2" />
<rect x="1357" y="210" width="50" height="50" fill="pink" stroke="black" stroke-width="1" />
<text x="1382" y="202" font-size="15" fill="black" text-anchor="middle" dominant-baseline="central">faaropcontax_H</text>
<circle cx="1357" cy="235" r="5" fill="red" />
<text x="1357" y="250" font-size="12" fill="black" valign="top" text-anchor="middle" dominant-baseline="central">IN</text>
<circle cx="1407" cy="235" r="5" fill="green" />
<text x="1407" y="250" font-size="12" fill="black" valign="top" text-anchor="middle" dominant-baseline="central">OUT</text>
<rect x="1177" y="120" width="50" height="50" fill="pink" stroke="black" stroke-width="1" />
<text x="1202" y="112" font-size="15" fill="black" text-anchor="middle" dominant-baseline="central">lamp3004_H</text>
<circle cx="1177" cy="145" r="5" fill="red" />
<text x="1177" y="160" font-size="12" fill="black" valign="top" text-anchor="middle" dominant-baseline="central">IN</text>
<circle cx="1227" cy="145" r="5" fill="green" />
<text x="1227" y="160" font-size="12" fill="black" valign="top" text-anchor="middle" dominant-baseline="central">OUT</text>
</svg>