<?xml version="1.0" encoding="UTF-8"?>
<svg xmlns="http://www.w3.org/2000/svg" xmlns:xlink="http://www.w3.org/1999/xlink"
     width="270" height="1050" viewBox="0 0 270 1050">
<defs>
</defs>
<rect x="-983" y="30" width="50" height="50" fill="pink" stroke="black" stroke-width="1" />
<text x="-958" y="22" font-size="15" fill="black" text-anchor="middle" dominant-baseline="central">kopkwhmeter_H</text>
<circle cx="-983" cy="55" r="5" fill="red" />
<text x="-983" y="70" font-size="12" fill="black" valign="top" text-anchor="middle" dominant-baseline="central">IN</text>
<circle cx="-933" cy="55" r="5" fill="green" />
<text x="-933" y="70" font-size="12" fill="black" valign="top" text-anchor="middle" dominant-baseline="central">OUT</text>
<path d="M-933,55 L-918,55" stroke="black" stroke-width="2" />
<path d="M-893,55 L-908,55" stroke="black" stroke-width="2" />
<path d="M-918,55 L-908,55" stroke="black" stroke-width="2" />
<path d="M-908,55 L-908,55" stroke="black" stroke-width="2" />
<rect x="-893" y="30" width="50" height="50" fill="pink" stroke="black" stroke-width="1" />
<text x="-868" y="22" font-size="15" fill="black" text-anchor="middle" dominant-baseline="central">Teller_H</text>
<circle cx="-893" cy="55" r="5" fill="red" />
<text x="-893" y="70" font-size="12" fill="black" valign="top" text-anchor="middle" dominant-baseline="central">IN</text>
<circle cx="-843" cy="55" r="5" fill="green" />
<text x="-843" y="70" font-size="12" fill="black" valign="top" text-anchor="middle" dominant-baseline="central">OUT</text>
<path d="M-843,55 L-828,55" stroke="black" stroke-width="2" />
<path d="M-778,170 L-778,185" stroke="black" stroke-width="2" />
<path d="M-843,55 L-828,55" stroke="black" stroke-width="2" />
<path d="M-598,170 L-598,185" stroke="black" stroke-width="2" />
<path d="M-843,55 L-828,55" stroke="black" stroke-width="2" />
<path d="M-508,170 L-508,185" stroke="black" stroke-width="2" />
<path d="M-828,55 L-778,55" stroke="black" stroke-width="2" />
<path d="M-778,55 L-778,185" stroke="black" stroke-width="2" />
<path d="M-828,55 L-598,55" stroke="black" stroke-width="2" />
<path d="M-598,55 L-598,185" stroke="black" stroke-width="2" />
<path d="M-828,55 L-508,55" stroke="black" stroke-width="2" />
<path d="M-508,55 L-508,185" stroke="black" stroke-width="2" />
<rect x="-803" y="120" width="50" height="50" fill="pink" stroke="black" stroke-width="1" />
<text x="-778" y="112" font-size="15" fill="black" text-anchor="middle" dominant-baseline="central">Diff3_V</text>
<circle cx="-778" cy="170" r="5" fill="red" />
<text x="-778" y="185" font-size="12" fill="black" valign="top" text-anchor="middle" dominant-baseline="central">IN</text>
<circle cx="-778" cy="120" r="5" fill="green" />
<text x="-778" y="135" font-size="12" fill="black" valign="top" text-anchor="middle" dominant-baseline="central">OUT</text>
<circle cx="-810" cy="170" r="5" fill="yellow" />
<text x="-810" y="185" font-size="12" fill="black" valign="top" text-anchor="middle" dominant-baseline="central">CUT</text>
<path d="M-778,120 L-778,105" stroke="black" stroke-width="2" />
<path d="M-713,235 L-728,235" stroke="black" stroke-width="2" />
<path d="M-778,105 L-778,235" stroke="black" stroke-width="2" />
<text x="-798" y="105" font-size="10" fill="orange" valign="top" text-anchor="middle" dominant-baseline="central">van(-778,105)&gt;</text>
<text x="-798" y="235" font-size="10" fill="orange" valign="top" text-anchor="middle" dominant-baseline="central">naar(-778,235)&gt;</text>
<path d="M-778,105 L-778,235" stroke="orange" stroke-width="2" />
<path d="M-778,235 L-728,235" stroke="black" stroke-width="2" />
<path d="M-778,235 L-728,235" stroke="yellow" stroke-width="2" />
<text x="-768" y="245" font-size="17" fill="blue" text-anchor="middle" dominant-baseline="central">1</text>
<rect x="-713" y="210" width="50" height="50" fill="pink" stroke="black" stroke-width="1" />
<text x="-688" y="202" font-size="15" fill="black" text-anchor="middle" dominant-baseline="central">zonnepaneelopdif3_H</text>
<circle cx="-713" cy="235" r="5" fill="red" />
<text x="-713" y="250" font-size="12" fill="black" valign="top" text-anchor="middle" dominant-baseline="central">IN</text>
<circle cx="-663" cy="235" r="5" fill="green" />
<text x="-663" y="250" font-size="12" fill="black" valign="top" text-anchor="middle" dominant-baseline="central">OUT</text>
<rect x="-623" y="120" width="50" height="50" fill="pink" stroke="black" stroke-width="1" />
<text x="-598" y="112" font-size="15" fill="black" text-anchor="middle" dominant-baseline="central">Diff30_V</text>
<circle cx="-598" cy="170" r="5" fill="red" />
<text x="-598" y="185" font-size="12" fill="black" valign="top" text-anchor="middle" dominant-baseline="central">IN</text>
<circle cx="-598" cy="120" r="5" fill="green" />
<text x="-598" y="135" font-size="12" fill="black" valign="top" text-anchor="middle" dominant-baseline="central">OUT</text>
<circle cx="-630" cy="170" r="5" fill="yellow" />
<text x="-630" y="185" font-size="12" fill="black" valign="top" text-anchor="middle" dominant-baseline="central">CUT</text>
<rect x="-533" y="120" width="50" height="50" fill="pink" stroke="black" stroke-width="1" />
<text x="-508" y="112" font-size="15" fill="black" text-anchor="middle" dominant-baseline="central">Diff300_V</text>
<circle cx="-508" cy="170" r="5" fill="red" />
<text x="-508" y="185" font-size="12" fill="black" valign="top" text-anchor="middle" dominant-baseline="central">IN</text>
<circle cx="-508" cy="120" r="5" fill="green" />
<text x="-508" y="135" font-size="12" fill="black" valign="top" text-anchor="middle" dominant-baseline="central">OUT</text>
<circle cx="-540" cy="170" r="5" fill="yellow" />
<text x="-540" y="185" font-size="12" fill="black" valign="top" text-anchor="middle" dominant-baseline="central">CUT</text>
<path d="M-508,120 L-508,105" stroke="black" stroke-width="2" />
<path d="M-508,260 L-508,275" stroke="black" stroke-width="2" />
<path d="M-508,120 L-508,105" stroke="black" stroke-width="2" />
<path d="M-328,260 L-328,275" stroke="black" stroke-width="2" />
<path d="M-508,120 L-508,105" stroke="black" stroke-width="2" />
<path d="M-148,260 L-148,275" stroke="black" stroke-width="2" />
<path d="M-508,120 L-508,105" stroke="black" stroke-width="2" />
<path d="M32,260 L32,275" stroke="black" stroke-width="2" />
<path d="M-508,120 L-508,105" stroke="black" stroke-width="2" />
<path d="M302,260 L302,275" stroke="black" stroke-width="2" />
<path d="M-508,105 L-508,275" stroke="black" stroke-width="2" />
<text x="-528" y="105" font-size="10" fill="orange" valign="top" text-anchor="middle" dominant-baseline="central">van(-508,105)&gt;</text>
<text x="-528" y="275" font-size="10" fill="orange" valign="top" text-anchor="middle" dominant-baseline="central">naar(-508,275)&gt;</text>
<path d="M-508,105 L-508,275" stroke="orange" stroke-width="2" />
<path d="M-508,275 L-508,275" stroke="black" stroke-width="2" />
<path d="M-508,275 L-508,275" stroke="yellow" stroke-width="2" />
<path d="M-508,105 L-508,275" stroke="black" stroke-width="2" />
<text x="-528" y="105" font-size="10" fill="orange" valign="top" text-anchor="middle" dominant-baseline="central">van(-508,105)&gt;</text>
<text x="-528" y="275" font-size="10" fill="orange" valign="top" text-anchor="middle" dominant-baseline="central">naar(-508,275)&gt;</text>
<path d="M-508,105 L-508,275" stroke="orange" stroke-width="2" />
<path d="M-508,275 L-328,275" stroke="black" stroke-width="2" />
<path d="M-508,275 L-328,275" stroke="yellow" stroke-width="2" />
<path d="M-508,105 L-508,275" stroke="black" stroke-width="2" />
<text x="-528" y="105" font-size="10" fill="orange" valign="top" text-anchor="middle" dominant-baseline="central">van(-508,105)&gt;</text>
<text x="-528" y="275" font-size="10" fill="orange" valign="top" text-anchor="middle" dominant-baseline="central">naar(-508,275)&gt;</text>
<path d="M-508,105 L-508,275" stroke="orange" stroke-width="2" />
<path d="M-508,275 L-148,275" stroke="black" stroke-width="2" />
<path d="M-508,275 L-148,275" stroke="yellow" stroke-width="2" />
<path d="M-508,105 L-508,275" stroke="black" stroke-width="2" />
<text x="-528" y="105" font-size="10" fill="orange" valign="top" text-anchor="middle" dominant-baseline="central">van(-508,105)&gt;</text>
<text x="-528" y="275" font-size="10" fill="orange" valign="top" text-anchor="middle" dominant-baseline="central">naar(-508,275)&gt;</text>
<path d="M-508,105 L-508,275" stroke="orange" stroke-width="2" />
<path d="M-508,275 L32,275" stroke="black" stroke-width="2" />
<path d="M-508,275 L32,275" stroke="yellow" stroke-width="2" />
<path d="M-508,105 L-508,275" stroke="black" stroke-width="2" />
<text x="-528" y="105" font-size="10" fill="orange" valign="top" text-anchor="middle" dominant-baseline="central">van(-508,105)&gt;</text>
<text x="-528" y="275" font-size="10" fill="orange" valign="top" text-anchor="middle" dominant-baseline="central">naar(-508,275)&gt;</text>
<path d="M-508,105 L-508,275" stroke="orange" stroke-width="2" />
<path d="M-508,275 L302,275" stroke="black" stroke-width="2" />
<path d="M-508,275 L302,275" stroke="yellow" stroke-width="2" />
<rect x="-533" y="210" width="50" height="50" fill="pink" stroke="black" stroke-width="1" />
<text x="-508" y="202" font-size="15" fill="black" text-anchor="middle" dominant-baseline="central">Diff100_V</text>
<circle cx="-508" cy="260" r="5" fill="red" />
<text x="-508" y="275" font-size="12" fill="black" valign="top" text-anchor="middle" dominant-baseline="central">IN</text>
<circle cx="-508" cy="210" r="5" fill="green" />
<text x="-508" y="225" font-size="12" fill="black" valign="top" text-anchor="middle" dominant-baseline="central">OUT</text>
<circle cx="-540" cy="260" r="5" fill="yellow" />
<text x="-540" y="275" font-size="12" fill="black" valign="top" text-anchor="middle" dominant-baseline="central">CUT</text>
<path d="M-508,210 L-508,195" stroke="black" stroke-width="2" />
<path d="M-508,350 L-508,365" stroke="black" stroke-width="2" />
<path d="M-508,195 L-508,365" stroke="black" stroke-width="2" />
<text x="-528" y="195" font-size="10" fill="orange" valign="top" text-anchor="middle" dominant-baseline="central">van(-508,195)&gt;</text>
<text x="-528" y="365" font-size="10" fill="orange" valign="top" text-anchor="middle" dominant-baseline="central">naar(-508,365)&gt;</text>
<path d="M-508,195 L-508,365" stroke="orange" stroke-width="2" />
<path d="M-508,365 L-508,365" stroke="black" stroke-width="2" />
<path d="M-508,365 L-508,365" stroke="yellow" stroke-width="2" />
<image x="-533" y="300" width="50" height="50" xlink:href="symbolen/CircuitBreaker\circuit_breaker.svg" />
<text x="-433" y="350" font-size="25" fill="black" text-anchor="middle" dominant-baseline="central">zek1001_V</text>
<text x="-463" y="315" font-size="15" fill="black" text-anchor="middle" dominant-baseline="central">16A</text>
<circle cx="-508" cy="150" r="8" fill="pink" />
<text x="-528" y="150" font-size="12" fill="black" valign="top" text-anchor="middle" dominant-baseline="central">-508 150</text>
<text x="-508" y="292" font-size="15" fill="black" text-anchor="middle" dominant-baseline="central">zek1001_V</text>
<circle cx="-508" cy="350" r="5" fill="red" />
<text x="-508" y="365" font-size="12" fill="black" valign="top" text-anchor="middle" dominant-baseline="central">IN</text>
<circle cx="-508" cy="300" r="5" fill="green" />
<text x="-508" y="315" font-size="12" fill="black" valign="top" text-anchor="middle" dominant-baseline="central">OUT</text>
<circle cx="-540" cy="350" r="5" fill="yellow" />
<text x="-540" y="365" font-size="12" fill="black" valign="top" text-anchor="middle" dominant-baseline="central">CUT</text>
<path d="M-508,300 L-508,285" stroke="black" stroke-width="2" />
<path d="M-443,595 L-458,595" stroke="black" stroke-width="2" />
<path d="M-508,300 L-508,285" stroke="black" stroke-width="2" />
<path d="M-443,685 L-458,685" stroke="black" stroke-width="2" />
<path d="M-508,300 L-508,285" stroke="black" stroke-width="2" />
<path d="M-353,595 L-368,595" stroke="black" stroke-width="2" />
<path d="M-508,300 L-508,285" stroke="black" stroke-width="2" />
<path d="M-443,865 L-458,865" stroke="black" stroke-width="2" />
<path d="M-508,285 L-508,595" stroke="black" stroke-width="2" />
<text x="-528" y="285" font-size="10" fill="orange" valign="top" text-anchor="middle" dominant-baseline="central">van(-508,285)&gt;</text>
<text x="-528" y="595" font-size="10" fill="orange" valign="top" text-anchor="middle" dominant-baseline="central">naar(-508,595)&gt;</text>
<path d="M-508,285 L-508,595" stroke="orange" stroke-width="2" />
<path d="M-508,595 L-458,595" stroke="black" stroke-width="2" />
<path d="M-508,595 L-458,595" stroke="yellow" stroke-width="2" />
<text x="-498" y="605" font-size="17" fill="blue" text-anchor="middle" dominant-baseline="central">1</text>
<path d="M-508,285 L-508,685" stroke="black" stroke-width="2" />
<text x="-528" y="285" font-size="10" fill="orange" valign="top" text-anchor="middle" dominant-baseline="central">van(-508,285)&gt;</text>
<text x="-528" y="685" font-size="10" fill="orange" valign="top" text-anchor="middle" dominant-baseline="central">naar(-508,685)&gt;</text>
<path d="M-508,285 L-508,685" stroke="orange" stroke-width="2" />
<path d="M-508,685 L-458,685" stroke="black" stroke-width="2" />
<path d="M-508,685 L-458,685" stroke="yellow" stroke-width="2" />
<text x="-498" y="695" font-size="17" fill="blue" text-anchor="middle" dominant-baseline="central">2</text>
<path d="M-508,150 L-368,150" stroke="black" stroke-width="2" />
<path d="M-368,150 L-368,595" stroke="black" stroke-width="2" />
<text x="-458" y="150" font-size="10" fill="green" valign="top" text-anchor="middle" dominant-baseline="central">van(-368,150)&gt;</text>
<text x="-448" y="595" font-size="10" fill="green" valign="top" text-anchor="middle" dominant-baseline="central">naar(-368,595)&gt;</text>
<path d="M-508,150 L-368,150" stroke="red" stroke-width="2" />
<path d="M-368,150 L-368,595" stroke="green" stroke-width="2" />
<text x="-358" y="605" font-size="17" fill="blue" text-anchor="middle" dominant-baseline="central">3</text>
<path d="M-508,285 L-508,865" stroke="black" stroke-width="2" />
<text x="-528" y="285" font-size="10" fill="orange" valign="top" text-anchor="middle" dominant-baseline="central">van(-508,285)&gt;</text>
<text x="-528" y="865" font-size="10" fill="orange" valign="top" text-anchor="middle" dominant-baseline="central">naar(-508,865)&gt;</text>
<path d="M-508,285 L-508,865" stroke="orange" stroke-width="2" />
<path d="M-508,865 L-458,865" stroke="black" stroke-width="2" />
<path d="M-508,865 L-458,865" stroke="yellow" stroke-width="2" />
<text x="-498" y="875" font-size="17" fill="blue" text-anchor="middle" dominant-baseline="central">4</text>
<rect x="-443" y="570" width="50" height="50" fill="pink" stroke="black" stroke-width="1" />
<text x="-418" y="562" font-size="15" fill="black" text-anchor="middle" dominant-baseline="central">Verlichting6_H</text>
<circle cx="-443" cy="595" r="5" fill="red" />
<text x="-443" y="610" font-size="12" fill="black" valign="top" text-anchor="middle" dominant-baseline="central">IN</text>
<circle cx="-393" cy="595" r="5" fill="green" />
<text x="-393" y="610" font-size="12" fill="black" valign="top" text-anchor="middle" dominant-baseline="central">OUT</text>
<rect x="-443" y="660" width="50" height="50" fill="pink" stroke="black" stroke-width="1" />
<text x="-418" y="652" font-size="15" fill="black" text-anchor="middle" dominant-baseline="central">vaatwas301_H</text>
<circle cx="-443" cy="685" r="5" fill="red" />
<text x="-443" y="700" font-size="12" fill="black" valign="top" text-anchor="middle" dominant-baseline="central">IN</text>
<circle cx="-393" cy="685" r="5" fill="green" />
<text x="-393" y="700" font-size="12" fill="black" valign="top" text-anchor="middle" dominant-baseline="central">OUT</text>
<image x="-353" y="570" width="50" height="50" xlink:href="symbolen/Prieze\prieze_hydro_false_kinder_true_aarding_true_1.svg" />
<text x="-328.0" y="595.0" font-size="12" fill="red" text-anchor="middle" dominant-baseline="central">prieze</text>
<text x="-328" y="562" font-size="15" fill="black" text-anchor="middle" dominant-baseline="central">prieze</text>
<circle cx="-353" cy="595" r="5" fill="red" />
<text x="-353" y="610" font-size="12" fill="black" valign="top" text-anchor="middle" dominant-baseline="central">IN</text>
<circle cx="-303" cy="595" r="5" fill="green" />
<text x="-303" y="610" font-size="12" fill="black" valign="top" text-anchor="middle" dominant-baseline="central">OUT</text>
<image x="-443" y="840" width="50" height="50" xlink:href="symbolen/Prieze\prieze_hydro_false_kinder_true_aarding_true_2.svg" />
<text x="-418.0" y="865.0" font-size="12" fill="red" text-anchor="middle" dominant-baseline="central">priezedub</text>
<text x="-418" y="832" font-size="15" fill="black" text-anchor="middle" dominant-baseline="central">priezedub</text>
<circle cx="-443" cy="865" r="5" fill="red" />
<text x="-443" y="880" font-size="12" fill="black" valign="top" text-anchor="middle" dominant-baseline="central">IN</text>
<circle cx="-393" cy="865" r="5" fill="green" />
<text x="-393" y="880" font-size="12" fill="black" valign="top" text-anchor="middle" dominant-baseline="central">OUT</text>
<image x="-353" y="210" width="50" height="50" xlink:href="symbolen/CircuitBreaker\circuit_breaker.svg" />
<text x="-253" y="260" font-size="25" fill="black" text-anchor="middle" dominant-baseline="central">zek3001_V</text>
<text x="-283" y="225" font-size="15" fill="black" text-anchor="middle" dominant-baseline="central">16A</text>
<circle cx="-328" cy="60" r="8" fill="pink" />
<text x="-348" y="60" font-size="12" fill="black" valign="top" text-anchor="middle" dominant-baseline="central">-328 60</text>
<text x="-328" y="202" font-size="15" fill="black" text-anchor="middle" dominant-baseline="central">zek3001_V</text>
<circle cx="-328" cy="260" r="5" fill="red" />
<text x="-328" y="275" font-size="12" fill="black" valign="top" text-anchor="middle" dominant-baseline="central">IN</text>
<circle cx="-328" cy="210" r="5" fill="green" />
<text x="-328" y="225" font-size="12" fill="black" valign="top" text-anchor="middle" dominant-baseline="central">OUT</text>
<circle cx="-360" cy="260" r="5" fill="yellow" />
<text x="-360" y="275" font-size="12" fill="black" valign="top" text-anchor="middle" dominant-baseline="central">CUT</text>
<path d="M-328,210 L-328,195" stroke="black" stroke-width="2" />
<path d="M-263,505 L-278,505" stroke="black" stroke-width="2" />
<path d="M-328,195 L-328,505" stroke="black" stroke-width="2" />
<text x="-348" y="195" font-size="10" fill="orange" valign="top" text-anchor="middle" dominant-baseline="central">van(-328,195)&gt;</text>
<text x="-348" y="505" font-size="10" fill="orange" valign="top" text-anchor="middle" dominant-baseline="central">naar(-328,505)&gt;</text>
<path d="M-328,195 L-328,505" stroke="orange" stroke-width="2" />
<path d="M-328,505 L-278,505" stroke="black" stroke-width="2" />
<path d="M-328,505 L-278,505" stroke="yellow" stroke-width="2" />
<text x="-318" y="515" font-size="17" fill="blue" text-anchor="middle" dominant-baseline="central">1</text>
<rect x="-263" y="480" width="50" height="50" fill="pink" stroke="black" stroke-width="1" />
<text x="-238" y="472" font-size="15" fill="black" text-anchor="middle" dominant-baseline="central">droogkast3002_H</text>
<circle cx="-263" cy="505" r="5" fill="red" />
<text x="-263" y="520" font-size="12" fill="black" valign="top" text-anchor="middle" dominant-baseline="central">IN</text>
<circle cx="-213" cy="505" r="5" fill="green" />
<text x="-213" y="520" font-size="12" fill="black" valign="top" text-anchor="middle" dominant-baseline="central">OUT</text>
<image x="-173" y="210" width="50" height="50" xlink:href="symbolen/CircuitBreaker\circuit_breaker.svg" />
<text x="-73" y="260" font-size="25" fill="black" text-anchor="middle" dominant-baseline="central">zek3002_V</text>
<text x="-103" y="225" font-size="15" fill="black" text-anchor="middle" dominant-baseline="central">16A</text>
<circle cx="-148" cy="60" r="8" fill="pink" />
<text x="-168" y="60" font-size="12" fill="black" valign="top" text-anchor="middle" dominant-baseline="central">-148 60</text>
<text x="-148" y="202" font-size="15" fill="black" text-anchor="middle" dominant-baseline="central">zek3002_V</text>
<circle cx="-148" cy="260" r="5" fill="red" />
<text x="-148" y="275" font-size="12" fill="black" valign="top" text-anchor="middle" dominant-baseline="central">IN</text>
<circle cx="-148" cy="210" r="5" fill="green" />
<text x="-148" y="225" font-size="12" fill="black" valign="top" text-anchor="middle" dominant-baseline="central">OUT</text>
<circle cx="-180" cy="260" r="5" fill="yellow" />
<text x="-180" y="275" font-size="12" fill="black" valign="top" text-anchor="middle" dominant-baseline="central">CUT</text>
<path d="M-148,210 L-148,195" stroke="black" stroke-width="2" />
<path d="M-83,505 L-98,505" stroke="black" stroke-width="2" />
<path d="M-148,210 L-148,195" stroke="black" stroke-width="2" />
<path d="M-83,595 L-98,595" stroke="black" stroke-width="2" />
<path d="M-148,195 L-148,505" stroke="black" stroke-width="2" />
<text x="-168" y="195" font-size="10" fill="orange" valign="top" text-anchor="middle" dominant-baseline="central">van(-148,195)&gt;</text>
<text x="-168" y="505" font-size="10" fill="orange" valign="top" text-anchor="middle" dominant-baseline="central">naar(-148,505)&gt;</text>
<path d="M-148,195 L-148,505" stroke="orange" stroke-width="2" />
<path d="M-148,505 L-98,505" stroke="black" stroke-width="2" />
<path d="M-148,505 L-98,505" stroke="yellow" stroke-width="2" />
<text x="-138" y="515" font-size="17" fill="blue" text-anchor="middle" dominant-baseline="central">1</text>
<path d="M-148,195 L-148,595" stroke="black" stroke-width="2" />
<text x="-168" y="195" font-size="10" fill="orange" valign="top" text-anchor="middle" dominant-baseline="central">van(-148,195)&gt;</text>
<text x="-168" y="595" font-size="10" fill="orange" valign="top" text-anchor="middle" dominant-baseline="central">naar(-148,595)&gt;</text>
<path d="M-148,195 L-148,595" stroke="orange" stroke-width="2" />
<path d="M-148,595 L-98,595" stroke="black" stroke-width="2" />
<path d="M-148,595 L-98,595" stroke="yellow" stroke-width="2" />
<text x="-138" y="605" font-size="17" fill="blue" text-anchor="middle" dominant-baseline="central">2</text>
<rect x="-83" y="480" width="50" height="50" fill="pink" stroke="black" stroke-width="1" />
<text x="-58" y="472" font-size="15" fill="black" text-anchor="middle" dominant-baseline="central">microoven3002_H</text>
<circle cx="-83" cy="505" r="5" fill="red" />
<text x="-83" y="520" font-size="12" fill="black" valign="top" text-anchor="middle" dominant-baseline="central">IN</text>
<circle cx="-33" cy="505" r="5" fill="green" />
<text x="-33" y="520" font-size="12" fill="black" valign="top" text-anchor="middle" dominant-baseline="central">OUT</text>
<rect x="-83" y="570" width="50" height="50" fill="pink" stroke="black" stroke-width="1" />
<text x="-58" y="562" font-size="15" fill="black" text-anchor="middle" dominant-baseline="central">oven3002_H</text>
<circle cx="-83" cy="595" r="5" fill="red" />
<text x="-83" y="610" font-size="12" fill="black" valign="top" text-anchor="middle" dominant-baseline="central">IN</text>
<circle cx="-33" cy="595" r="5" fill="green" />
<text x="-33" y="610" font-size="12" fill="black" valign="top" text-anchor="middle" dominant-baseline="central">OUT</text>
<image x="7" y="210" width="50" height="50" xlink:href="symbolen/CircuitBreaker\circuit_breaker.svg" />
<text x="107" y="260" font-size="25" fill="black" text-anchor="middle" dominant-baseline="central">zek3003_V</text>
<text x="77" y="225" font-size="15" fill="black" text-anchor="middle" dominant-baseline="central">16A</text>
<circle cx="32" cy="60" r="8" fill="pink" />
<text x="12" y="60" font-size="12" fill="black" valign="top" text-anchor="middle" dominant-baseline="central">32 60</text>
<text x="32" y="202" font-size="15" fill="black" text-anchor="middle" dominant-baseline="central">zek3003_V</text>
<circle cx="32" cy="260" r="5" fill="red" />
<text x="32" y="275" font-size="12" fill="black" valign="top" text-anchor="middle" dominant-baseline="central">IN</text>
<circle cx="32" cy="210" r="5" fill="green" />
<text x="32" y="225" font-size="12" fill="black" valign="top" text-anchor="middle" dominant-baseline="central">OUT</text>
<circle cx="0" cy="260" r="5" fill="yellow" />
<text x="0" y="275" font-size="12" fill="black" valign="top" text-anchor="middle" dominant-baseline="central">CUT</text>
<path d="M32,210 L32,195" stroke="black" stroke-width="2" />
<path d="M97,505 L82,505" stroke="black" stroke-width="2" />
<path d="M32,210 L32,195" stroke="black" stroke-width="2" />
<path d="M97,865 L82,865" stroke="black" stroke-width="2" />
<path d="M32,210 L32,195" stroke="black" stroke-width="2" />
<path d="M97,955 L82,955" stroke="black" stroke-width="2" />
<path d="M32,195 L32,505" stroke="black" stroke-width="2" />
<text x="12" y="195" font-size="10" fill="orange" valign="top" text-anchor="middle" dominant-baseline="central">van(32,195)&gt;</text>
<text x="12" y="505" font-size="10" fill="orange" valign="top" text-anchor="middle" dominant-baseline="central">naar(32,505)&gt;</text>
<path d="M32,195 L32,505" stroke="orange" stroke-width="2" />
<path d="M32,505 L82,505" stroke="black" stroke-width="2" />
<path d="M32,505 L82,505" stroke="yellow" stroke-width="2" />
<text x="42" y="515" font-size="17" fill="blue" text-anchor="middle" dominant-baseline="central">1</text>
<path d="M32,195 L32,865" stroke="black" stroke-width="2" />
<text x="12" y="195" font-size="10" fill="orange" valign="top" text-anchor="middle" dominant-baseline="central">van(32,195)&gt;</text>
<text x="12" y="865" font-size="10" fill="orange" valign="top" text-anchor="middle" dominant-baseline="central">naar(32,865)&gt;</text>
<path d="M32,195 L32,865" stroke="orange" stroke-width="2" />
<path d="M32,865 L82,865" stroke="black" stroke-width="2" />
<path d="M32,865 L82,865" stroke="yellow" stroke-width="2" />
<text x="42" y="875" font-size="17" fill="blue" text-anchor="middle" dominant-baseline="central">2</text>
<path d="M32,195 L32,955" stroke="black" stroke-width="2" />
<text x="12" y="195" font-size="10" fill="orange" valign="top" text-anchor="middle" dominant-baseline="central">van(32,195)&gt;</text>
<text x="12" y="955" font-size="10" fill="orange" valign="top" text-anchor="middle" dominant-baseline="central">naar(32,955)&gt;</text>
<path d="M32,195 L32,955" stroke="orange" stroke-width="2" />
<path d="M32,955 L82,955" stroke="black" stroke-width="2" />
<path d="M32,955 L82,955" stroke="yellow" stroke-width="2" />
<text x="42" y="965" font-size="17" fill="blue" text-anchor="middle" dominant-baseline="central">3</text>
<rect x="97" y="480" width="50" height="50" fill="pink" stroke="black" stroke-width="1" />
<text x="122" y="472" font-size="15" fill="black" text-anchor="middle" dominant-baseline="central">domo2_H</text>
<circle cx="97" cy="505" r="5" fill="red" />
<text x="97" y="520" font-size="12" fill="black" valign="top" text-anchor="middle" dominant-baseline="central">IN</text>
<circle cx="147" cy="505" r="5" fill="green" />
<text x="147" y="520" font-size="12" fill="black" valign="top" text-anchor="middle" dominant-baseline="central">OUT</text>
<path d="M147,505 L162,505" stroke="black" stroke-width="2" />
<path d="M187,505 L172,505" stroke="black" stroke-width="2" />
<path d="M147,505 L162,505" stroke="black" stroke-width="2" />
<path d="M187,595 L172,595" stroke="black" stroke-width="2" />
<path d="M147,505 L162,505" stroke="black" stroke-width="2" />
<path d="M187,685 L172,685" stroke="black" stroke-width="2" />
<path d="M147,505 L162,505" stroke="black" stroke-width="2" />
<path d="M187,775 L172,775" stroke="black" stroke-width="2" />
<path d="M162,505 L172,505" stroke="black" stroke-width="2" />
<path d="M172,505 L172,505" stroke="black" stroke-width="2" />
<path d="M162,505 L172,505" stroke="black" stroke-width="2" />
<path d="M172,505 L172,595" stroke="black" stroke-width="2" />
<path d="M162,505 L172,505" stroke="black" stroke-width="2" />
<path d="M172,505 L172,685" stroke="black" stroke-width="2" />
<path d="M162,505 L172,505" stroke="black" stroke-width="2" />
<path d="M172,505 L172,775" stroke="black" stroke-width="2" />
<rect x="187" y="480" width="50" height="50" fill="pink" stroke="black" stroke-width="1" />
<text x="212" y="472" font-size="15" fill="black" text-anchor="middle" dominant-baseline="central">Verlichting2_H</text>
<circle cx="187" cy="505" r="5" fill="red" />
<text x="187" y="520" font-size="12" fill="black" valign="top" text-anchor="middle" dominant-baseline="central">IN</text>
<circle cx="237" cy="505" r="5" fill="green" />
<text x="237" y="520" font-size="12" fill="black" valign="top" text-anchor="middle" dominant-baseline="central">OUT</text>
<rect x="187" y="570" width="50" height="50" fill="pink" stroke="black" stroke-width="1" />
<text x="212" y="562" font-size="15" fill="black" text-anchor="middle" dominant-baseline="central">Verlichting3_H</text>
<circle cx="187" cy="595" r="5" fill="red" />
<text x="187" y="610" font-size="12" fill="black" valign="top" text-anchor="middle" dominant-baseline="central">IN</text>
<circle cx="237" cy="595" r="5" fill="green" />
<text x="237" y="610" font-size="12" fill="black" valign="top" text-anchor="middle" dominant-baseline="central">OUT</text>
<rect x="187" y="660" width="50" height="50" fill="pink" stroke="black" stroke-width="1" />
<text x="212" y="652" font-size="15" fill="black" text-anchor="middle" dominant-baseline="central">Verlichting4_H</text>
<circle cx="187" cy="685" r="5" fill="red" />
<text x="187" y="700" font-size="12" fill="black" valign="top" text-anchor="middle" dominant-baseline="central">IN</text>
<circle cx="237" cy="685" r="5" fill="green" />
<text x="237" y="700" font-size="12" fill="black" valign="top" text-anchor="middle" dominant-baseline="central">OUT</text>
<rect x="187" y="750" width="50" height="50" fill="pink" stroke="black" stroke-width="1" />
<text x="212" y="742" font-size="15" fill="black" text-anchor="middle" dominant-baseline="central">Verlichting5_H</text>
<circle cx="187" cy="775" r="5" fill="red" />
<text x="187" y="790" font-size="12" fill="black" valign="top" text-anchor="middle" dominant-baseline="central">IN</text>
<circle cx="237" cy="775" r="5" fill="green" />
<text x="237" y="790" font-size="12" fill="black" valign="top" text-anchor="middle" dominant-baseline="central">OUT</text>
<rect x="97" y="840" width="50" height="50" fill="pink" stroke="black" stroke-width="1" />
<text x="122" y="832" font-size="15" fill="black" text-anchor="middle" dominant-baseline="central">Domomodule_H</text>
<circle cx="97" cy="865" r="5" fill="red" />
<text x="97" y="880" font-size="12" fill="black" valign="top" text-anchor="middle" dominant-baseline="central">IN</text>
<circle cx="147" cy="865" r="5" fill="green" />
<text x="147" y="880" font-size="12" fill="black" valign="top" text-anchor="middle" dominant-baseline="central">OUT</text>
<path d="M147,865 L162,865" stroke="black" stroke-width="2" />
<path d="M187,865 L172,865" stroke="black" stroke-width="2" />
<path d="M162,865 L172,865" stroke="black" stroke-width="2" />
<path d="M172,865 L172,865" stroke="black" stroke-width="2" />
<rect x="187" y="840" width="50" height="50" fill="pink" stroke="black" stroke-width="1" />
<text x="212" y="832" font-size="15" fill="black" text-anchor="middle" dominant-baseline="central">Verlichting_H</text>
<circle cx="187" cy="865" r="5" fill="red" />
<text x="187" y="880" font-size="12" fill="black" valign="top" text-anchor="middle" dominant-baseline="central">IN</text>
<circle cx="237" cy="865" r="5" fill="green" />
<text x="237" y="880" font-size="12" fill="black" valign="top" text-anchor="middle" dominant-baseline="central">OUT</text>
<rect x="97" y="930" width="50" height="50" fill="pink" stroke="black" stroke-width="1" />
<text x="122" y="922" font-size="15" fill="black" text-anchor="middle" dominant-baseline="central">tv_H</text>
<circle cx="97" cy="955" r="5" fill="red" />
<text x="97" y="970" font-size="12" fill="black" valign="top" text-anchor="middle" dominant-baseline="central">IN</text>
<circle cx="147" cy="955" r="5" fill="green" />
<text x="147" y="970" font-size="12" fill="black" valign="top" text-anchor="middle" dominant-baseline="central">OUT</text>
<image x="277" y="210" width="50" height="50" xlink:href="symbolen/CircuitBreaker\circuit_breaker.svg" />
<text x="377" y="260" font-size="25" fill="black" text-anchor="middle" dominant-baseline="central">zek3004verl_V</text>
<text x="347" y="225" font-size="15" fill="black" text-anchor="middle" dominant-baseline="central">16A</text>
<circle cx="302" cy="60" r="8" fill="pink" />
<text x="282" y="60" font-size="12" fill="black" valign="top" text-anchor="middle" dominant-baseline="central">302 60</text>
<text x="302" y="202" font-size="15" fill="black" text-anchor="middle" dominant-baseline="central">zek3004verl_V</text>
<circle cx="302" cy="260" r="5" fill="red" />
<text x="302" y="275" font-size="12" fill="black" valign="top" text-anchor="middle" dominant-baseline="central">IN</text>
<circle cx="302" cy="210" r="5" fill="green" />
<text x="302" y="225" font-size="12" fill="black" valign="top" text-anchor="middle" dominant-baseline="central">OUT</text>
<circle cx="270" cy="260" r="5" fill="yellow" />
<text x="270" y="275" font-size="12" fill="black" valign="top" text-anchor="middle" dominant-baseline="central">CUT</text>
<path d="M302,210 L302,195" stroke="black" stroke-width="2" />
<path d="M367,505 L352,505" stroke="black" stroke-width="2" />
<path d="M302,210 L302,195" stroke="black" stroke-width="2" />
<path d="M367,595 L352,595" stroke="black" stroke-width="2" />
<path d="M302,210 L302,195" stroke="black" stroke-width="2" />
<path d="M367,685 L352,685" stroke="black" stroke-width="2" />
<path d="M302,210 L302,195" stroke="black" stroke-width="2" />
<path d="M367,775 L352,775" stroke="black" stroke-width="2" />
<path d="M302,210 L302,195" stroke="black" stroke-width="2" />
<path d="M367,865 L352,865" stroke="black" stroke-width="2" />
<path d="M302,195 L302,505" stroke="black" stroke-width="2" />
<text x="282" y="195" font-size="10" fill="orange" valign="top" text-anchor="middle" dominant-baseline="central">van(302,195)&gt;</text>
<text x="282" y="505" font-size="10" fill="orange" valign="top" text-anchor="middle" dominant-baseline="central">naar(302,505)&gt;</text>
<path d="M302,195 L302,505" stroke="orange" stroke-width="2" />
<path d="M302,505 L352,505" stroke="black" stroke-width="2" />
<path d="M302,505 L352,505" stroke="yellow" stroke-width="2" />
<text x="312" y="515" font-size="17" fill="blue" text-anchor="middle" dominant-baseline="central">1</text>
<path d="M302,195 L302,595" stroke="black" stroke-width="2" />
<text x="282" y="195" font-size="10" fill="orange" valign="top" text-anchor="middle" dominant-baseline="central">van(302,195)&gt;</text>
<text x="282" y="595" font-size="10" fill="orange" valign="top" text-anchor="middle" dominant-baseline="central">naar(302,595)&gt;</text>
<path d="M302,195 L302,595" stroke="orange" stroke-width="2" />
<path d="M302,595 L352,595" stroke="black" stroke-width="2" />
<path d="M302,595 L352,595" stroke="yellow" stroke-width="2" />
<text x="312" y="605" font-size="17" fill="blue" text-anchor="middle" dominant-baseline="central">2</text>
<path d="M302,195 L302,685" stroke="black" stroke-width="2" />
<text x="282" y="195" font-size="10" fill="orange" valign="top" text-anchor="middle" dominant-baseline="central">van(302,195)&gt;</text>
<text x="282" y="685" font-size="10" fill="orange" valign="top" text-anchor="middle" dominant-baseline="central">naar(302,685)&gt;</text>
<path d="M302,195 L302,685" stroke="orange" stroke-width="2" />
<path d="M302,685 L352,685" stroke="black" stroke-width="2" />
<path d="M302,685 L352,685" stroke="yellow" stroke-width="2" />
<text x="312" y="695" font-size="17" fill="blue" text-anchor="middle" dominant-baseline="central">3</text>
<path d="M302,195 L302,775" stroke="black" stroke-width="2" />
<text x="282" y="195" font-size="10" fill="orange" valign="top" text-anchor="middle" dominant-baseline="central">van(302,195)&gt;</text>
<text x="282" y="775" font-size="10" fill="orange" valign="top" text-anchor="middle" dominant-baseline="central">naar(302,775)&gt;</text>
<path d="M302,195 L302,775" stroke="orange" stroke-width="2" />
<path d="M302,775 L352,775" stroke="black" stroke-width="2" />
<path d="M302,775 L352,775" stroke="yellow" stroke-width="2" />
<text x="312" y="785" font-size="17" fill="blue" text-anchor="middle" dominant-baseline="central">4</text>
<path d="M302,195 L302,865" stroke="black" stroke-width="2" />
<text x="282" y="195" font-size="10" fill="orange" valign="top" text-anchor="middle" dominant-baseline="central">van(302,195)&gt;</text>
<text x="282" y="865" font-size="10" fill="orange" valign="top" text-anchor="middle" dominant-baseline="central">naar(302,865)&gt;</text>
<path d="M302,195 L302,865" stroke="orange" stroke-width="2" />
<path d="M302,865 L352,865" stroke="black" stroke-width="2" />
<path d="M302,865 L352,865" stroke="yellow" stroke-width="2" />
<text x="312" y="875" font-size="17" fill="blue" text-anchor="middle" dominant-baseline="central">5</text>
<rect x="367" y="480" width="50" height="50" fill="pink" stroke="black" stroke-width="1" />
<text x="392" y="472" font-size="15" fill="black" text-anchor="middle" dominant-baseline="central">Verlicht1_H</text>
<circle cx="367" cy="505" r="5" fill="red" />
<text x="367" y="520" font-size="12" fill="black" valign="top" text-anchor="middle" dominant-baseline="central">IN</text>
<circle cx="417" cy="505" r="5" fill="green" />
<text x="417" y="520" font-size="12" fill="black" valign="top" text-anchor="middle" dominant-baseline="central">OUT</text>
<rect x="367" y="570" width="50" height="50" fill="pink" stroke="black" stroke-width="1" />
<text x="392" y="562" font-size="15" fill="black" text-anchor="middle" dominant-baseline="central">Verlicht2_H</text>
<circle cx="367" cy="595" r="5" fill="red" />
<text x="367" y="610" font-size="12" fill="black" valign="top" text-anchor="middle" dominant-baseline="central">IN</text>
<circle cx="417" cy="595" r="5" fill="green" />
<text x="417" y="610" font-size="12" fill="black" valign="top" text-anchor="middle" dominant-baseline="central">OUT</text>
<rect x="367" y="660" width="50" height="50" fill="pink" stroke="black" stroke-width="1" />
<text x="392" y="652" font-size="15" fill="black" text-anchor="middle" dominant-baseline="central">Verlicht3_H</text>
<circle cx="367" cy="685" r="5" fill="red" />
<text x="367" y="700" font-size="12" fill="black" valign="top" text-anchor="middle" dominant-baseline="central">IN</text>
<circle cx="417" cy="685" r="5" fill="green" />
<text x="417" y="700" font-size="12" fill="black" valign="top" text-anchor="middle" dominant-baseline="central">OUT</text>
<rect x="367" y="750" width="50" height="50" fill="pink" stroke="black" stroke-width="1" />
<text x="392" y="742" font-size="15" fill="black" text-anchor="middle" dominant-baseline="central">contaxop3004_H</text>
<circle cx="367" cy="775" r="5" fill="red" />
<text x="367" y="790" font-size="12" fill="black" valign="top" text-anchor="middle" dominant-baseline="central">IN</text>
<circle cx="417" cy="775" r="5" fill="green" />
<text x="417" y="790" font-size="12" fill="black" valign="top" text-anchor="middle" dominant-baseline="central">OUT</text>
<path d="M417,775 L432,775" stroke="black" stroke-width="2" />
<path d="M457,775 L442,775" stroke="black" stroke-width="2" />
<path d="M432,775 L442,775" stroke="black" stroke-width="2" />
<path d="M442,775 L442,775" stroke="black" stroke-width="2" />
<rect x="457" y="750" width="50" height="50" fill="pink" stroke="black" stroke-width="1" />
<text x="482" y="742" font-size="15" fill="black" text-anchor="middle" dominant-baseline="central">contaxopcontax_H</text>
<circle cx="457" cy="775" r="5" fill="red" />
<text x="457" y="790" font-size="12" fill="black" valign="top" text-anchor="middle" dominant-baseline="central">IN</text>
<circle cx="507" cy="775" r="5" fill="green" />
<text x="507" y="790" font-size="12" fill="black" valign="top" text-anchor="middle" dominant-baseline="central">OUT</text>
<path d="M507,775 L522,775" stroke="black" stroke-width="2" />
<path d="M547,775 L532,775" stroke="black" stroke-width="2" />
<path d="M522,775 L532,775" stroke="black" stroke-width="2" />
<path d="M532,775 L532,775" stroke="black" stroke-width="2" />
<rect x="547" y="750" width="50" height="50" fill="pink" stroke="black" stroke-width="1" />
<text x="572" y="742" font-size="15" fill="black" text-anchor="middle" dominant-baseline="central">faaropcontax_H</text>
<circle cx="547" cy="775" r="5" fill="red" />
<text x="547" y="790" font-size="12" fill="black" valign="top" text-anchor="middle" dominant-baseline="central">IN</text>
<circle cx="597" cy="775" r="5" fill="green" />
<text x="597" y="790" font-size="12" fill="black" valign="top" text-anchor="middle" dominant-baseline="central">OUT</text>
<rect x="367" y="840" width="50" height="50" fill="pink" stroke="black" stroke-width="1" />
<text x="392" y="832" font-size="15" fill="black" text-anchor="middle" dominant-baseline="central">lamp3004_H</text>
<circle cx="367" cy="865" r="5" fill="red" />
<text x="367" y="880" font-size="12" fill="black" valign="top" text-anchor="middle" dominant-baseline="central">IN</text>
<circle cx="417" cy="865" r="5" fill="green" />
<text x="417" y="880" font-size="12" fill="black" valign="top" text-anchor="middle" dominant-baseline="central">OUT</text>
</svg>