<?xml version="1.0" encoding="UTF-8"?>
<svg xmlns="http://www.w3.org/2000/svg" xmlns:xlink="http://www.w3.org/1999/xlink"
     width="1680" height="1050" viewBox="0 0 1680 1050">
<defs>
</defs>
<rect x="30" y="930" width="50" height="50" fill="pink" stroke="black" stroke-width="1" />
<text x="55" y="922" font-size="15" fill="black" text-anchor="middle" dominant-baseline="central">kopkwhmeter_H</text>
<circle cx="30" cy="955" r="5" fill="red" />
<text x="30" y="970" font-size="12" fill="black" valign="top" text-anchor="middle" dominant-baseline="central">IN</text>
<circle cx="80" cy="955" r="5" fill="green" />
<text x="80" y="970" font-size="12" fill="black" valign="top" text-anchor="middle" dominant-baseline="central">OUT</text>
<path d="M80,955 L95,955" stroke="black" stroke-width="2" />
<path d="M120,955 L105,955" stroke="black" stroke-width="2" />
<path d="M95,955 L105,955" stroke="black" stroke-width="2" />
<path d="M105,955 L105,955" stroke="black" stroke-width="2" />
<rect x="120" y="930" width="50" height="50" fill="pink" stroke="black" stroke-width="1" />
<text x="145" y="922" font-size="15" fill="black" text-anchor="middle" dominant-baseline="central">Teller_H</text>
<circle cx="120" cy="955" r="5" fill="red" />
<text x="120" y="970" font-size="12" fill="black" valign="top" text-anchor="middle" dominant-baseline="central">IN</text>
<circle cx="170" cy="955" r="5" fill="green" />
<text x="170" y="970" font-size="12" fill="black" valign="top" text-anchor="middle" dominant-baseline="central">OUT</text>
<path d="M170,955 L185,955" stroke="black" stroke-width="2" />
<path d="M235,890 L235,905" stroke="black" stroke-width="2" />
<path d="M170,955 L185,955" stroke="black" stroke-width="2" />
<path d="M415,890 L415,905" stroke="black" stroke-width="2" />
<path d="M170,955 L185,955" stroke="black" stroke-width="2" />
<path d="M505,890 L505,905" stroke="black" stroke-width="2" />
<path d="M185,955 L235,955" stroke="black" stroke-width="2" />
<path d="M235,955 L235,905" stroke="black" stroke-width="2" />
<path d="M185,955 L415,955" stroke="black" stroke-width="2" />
<path d="M415,955 L415,905" stroke="black" stroke-width="2" />
<path d="M185,955 L505,955" stroke="black" stroke-width="2" />
<path d="M505,955 L505,905" stroke="black" stroke-width="2" />
<rect x="210" y="840" width="50" height="50" fill="pink" stroke="black" stroke-width="1" />
<text x="235" y="832" font-size="15" fill="black" text-anchor="middle" dominant-baseline="central">Diff3_V</text>
<circle cx="235" cy="890" r="5" fill="red" />
<text x="235" y="905" font-size="12" fill="black" valign="top" text-anchor="middle" dominant-baseline="central">IN</text>
<circle cx="235" cy="840" r="5" fill="green" />
<text x="235" y="855" font-size="12" fill="black" valign="top" text-anchor="middle" dominant-baseline="central">OUT</text>
<circle cx="203" cy="890" r="5" fill="yellow" />
<text x="203" y="905" font-size="12" fill="black" valign="top" text-anchor="middle" dominant-baseline="central">CUT</text>
<path d="M235,840 L235,825" stroke="black" stroke-width="2" />
<path d="M300,775 L285,775" stroke="black" stroke-width="2" />
<path d="M235,825 L235,775" stroke="black" stroke-width="2" />
<text x="215" y="825" font-size="10" fill="orange" valign="top" text-anchor="middle" dominant-baseline="central">van(235,825)&gt;</text>
<text x="215" y="775" font-size="10" fill="orange" valign="top" text-anchor="middle" dominant-baseline="central">naar(235,775)&gt;</text>
<path d="M235,825 L235,775" stroke="orange" stroke-width="2" />
<path d="M235,775 L285,775" stroke="black" stroke-width="2" />
<path d="M235,775 L285,775" stroke="yellow" stroke-width="2" />
<text x="245" y="785" font-size="17" fill="blue" text-anchor="middle" dominant-baseline="central">1</text>
<rect x="300" y="750" width="50" height="50" fill="pink" stroke="black" stroke-width="1" />
<text x="325" y="742" font-size="15" fill="black" text-anchor="middle" dominant-baseline="central">zonnepaneelopdif3_H</text>
<circle cx="300" cy="775" r="5" fill="red" />
<text x="300" y="790" font-size="12" fill="black" valign="top" text-anchor="middle" dominant-baseline="central">IN</text>
<circle cx="350" cy="775" r="5" fill="green" />
<text x="350" y="790" font-size="12" fill="black" valign="top" text-anchor="middle" dominant-baseline="central">OUT</text>
<rect x="390" y="840" width="50" height="50" fill="pink" stroke="black" stroke-width="1" />
<text x="415" y="832" font-size="15" fill="black" text-anchor="middle" dominant-baseline="central">Diff30_V</text>
<circle cx="415" cy="890" r="5" fill="red" />
<text x="415" y="905" font-size="12" fill="black" valign="top" text-anchor="middle" dominant-baseline="central">IN</text>
<circle cx="415" cy="840" r="5" fill="green" />
<text x="415" y="855" font-size="12" fill="black" valign="top" text-anchor="middle" dominant-baseline="central">OUT</text>
<circle cx="383" cy="890" r="5" fill="yellow" />
<text x="383" y="905" font-size="12" fill="black" valign="top" text-anchor="middle" dominant-baseline="central">CUT</text>
<rect x="480" y="840" width="50" height="50" fill="pink" stroke="black" stroke-width="1" />
<text x="505" y="832" font-size="15" fill="black" text-anchor="middle" dominant-baseline="central">Diff300_V</text>
<circle cx="505" cy="890" r="5" fill="red" />
<text x="505" y="905" font-size="12" fill="black" valign="top" text-anchor="middle" dominant-baseline="central">IN</text>
<circle cx="505" cy="840" r="5" fill="green" />
<text x="505" y="855" font-size="12" fill="black" valign="top" text-anchor="middle" dominant-baseline="central">OUT</text>
<circle cx="473" cy="890" r="5" fill="yellow" />
<text x="473" y="905" font-size="12" fill="black" valign="top" text-anchor="middle" dominant-baseline="central">CUT</text>
<path d="M505,840 L505,825" stroke="black" stroke-width="2" />
<path d="M505,800 L505,815" stroke="black" stroke-width="2" />
<path d="M505,840 L505,825" stroke="black" stroke-width="2" />
<path d="M685,800 L685,815" stroke="black" stroke-width="2" />
<path d="M505,840 L505,825" stroke="black" stroke-width="2" />
<path d="M865,800 L865,815" stroke="black" stroke-width="2" />
<path d="M505,840 L505,825" stroke="black" stroke-width="2" />
<path d="M1045,800 L1045,815" stroke="black" stroke-width="2" />
<path d="M505,840 L505,825" stroke="black" stroke-width="2" />
<path d="M1315,800 L1315,815" stroke="black" stroke-width="2" />
<path d="M505,825 L505,815" stroke="black" stroke-width="2" />
<text x="485" y="825" font-size="10" fill="orange" valign="top" text-anchor="middle" dominant-baseline="central">van(505,825)&gt;</text>
<text x="485" y="815" font-size="10" fill="orange" valign="top" text-anchor="middle" dominant-baseline="central">naar(505,815)&gt;</text>
<path d="M505,825 L505,815" stroke="orange" stroke-width="2" />
<path d="M505,815 L505,815" stroke="black" stroke-width="2" />
<path d="M505,815 L505,815" stroke="yellow" stroke-width="2" />
<path d="M505,825 L505,815" stroke="black" stroke-width="2" />
<text x="485" y="825" font-size="10" fill="orange" valign="top" text-anchor="middle" dominant-baseline="central">van(505,825)&gt;</text>
<text x="485" y="815" font-size="10" fill="orange" valign="top" text-anchor="middle" dominant-baseline="central">naar(505,815)&gt;</text>
<path d="M505,825 L505,815" stroke="orange" stroke-width="2" />
<path d="M505,815 L685,815" stroke="black" stroke-width="2" />
<path d="M505,815 L685,815" stroke="yellow" stroke-width="2" />
<path d="M505,825 L505,815" stroke="black" stroke-width="2" />
<text x="485" y="825" font-size="10" fill="orange" valign="top" text-anchor="middle" dominant-baseline="central">van(505,825)&gt;</text>
<text x="485" y="815" font-size="10" fill="orange" valign="top" text-anchor="middle" dominant-baseline="central">naar(505,815)&gt;</text>
<path d="M505,825 L505,815" stroke="orange" stroke-width="2" />
<path d="M505,815 L865,815" stroke="black" stroke-width="2" />
<path d="M505,815 L865,815" stroke="yellow" stroke-width="2" />
<path d="M505,825 L505,815" stroke="black" stroke-width="2" />
<text x="485" y="825" font-size="10" fill="orange" valign="top" text-anchor="middle" dominant-baseline="central">van(505,825)&gt;</text>
<text x="485" y="815" font-size="10" fill="orange" valign="top" text-anchor="middle" dominant-baseline="central">naar(505,815)&gt;</text>
<path d="M505,825 L505,815" stroke="orange" stroke-width="2" />
<path d="M505,815 L1045,815" stroke="black" stroke-width="2" />
<path d="M505,815 L1045,815" stroke="yellow" stroke-width="2" />
<path d="M505,825 L505,815" stroke="black" stroke-width="2" />
<text x="485" y="825" font-size="10" fill="orange" valign="top" text-anchor="middle" dominant-baseline="central">van(505,825)&gt;</text>
<text x="485" y="815" font-size="10" fill="orange" valign="top" text-anchor="middle" dominant-baseline="central">naar(505,815)&gt;</text>
<path d="M505,825 L505,815" stroke="orange" stroke-width="2" />
<path d="M505,815 L1315,815" stroke="black" stroke-width="2" />
<path d="M505,815 L1315,815" stroke="yellow" stroke-width="2" />
<rect x="480" y="750" width="50" height="50" fill="pink" stroke="black" stroke-width="1" />
<text x="505" y="742" font-size="15" fill="black" text-anchor="middle" dominant-baseline="central">Diff100_V</text>
<circle cx="505" cy="800" r="5" fill="red" />
<text x="505" y="815" font-size="12" fill="black" valign="top" text-anchor="middle" dominant-baseline="central">IN</text>
<circle cx="505" cy="750" r="5" fill="green" />
<text x="505" y="765" font-size="12" fill="black" valign="top" text-anchor="middle" dominant-baseline="central">OUT</text>
<circle cx="473" cy="800" r="5" fill="yellow" />
<text x="473" y="815" font-size="12" fill="black" valign="top" text-anchor="middle" dominant-baseline="central">CUT</text>
<path d="M505,750 L505,735" stroke="black" stroke-width="2" />
<path d="M505,710 L505,725" stroke="black" stroke-width="2" />
<path d="M505,735 L505,725" stroke="black" stroke-width="2" />
<text x="485" y="735" font-size="10" fill="orange" valign="top" text-anchor="middle" dominant-baseline="central">van(505,735)&gt;</text>
<text x="485" y="725" font-size="10" fill="orange" valign="top" text-anchor="middle" dominant-baseline="central">naar(505,725)&gt;</text>
<path d="M505,735 L505,725" stroke="orange" stroke-width="2" />
<path d="M505,725 L505,725" stroke="black" stroke-width="2" />
<path d="M505,725 L505,725" stroke="yellow" stroke-width="2" />
<image x="480" y="660" width="50" height="50" xlink:href="symbolen/CircuitBreaker\circuit_breaker.svg" />
<text x="580" y="710" font-size="25" fill="black" text-anchor="middle" dominant-baseline="central">zek1001_V</text>
<text x="550" y="675" font-size="15" fill="black" text-anchor="middle" dominant-baseline="central">16A</text>
<circle cx="505" cy="510" r="8" fill="pink" />
<text x="485" y="510" font-size="12" fill="black" valign="top" text-anchor="middle" dominant-baseline="central">505 510</text>
<text x="505" y="652" font-size="15" fill="black" text-anchor="middle" dominant-baseline="central">zek1001_V</text>
<circle cx="505" cy="710" r="5" fill="red" />
<text x="505" y="725" font-size="12" fill="black" valign="top" text-anchor="middle" dominant-baseline="central">IN</text>
<circle cx="505" cy="660" r="5" fill="green" />
<text x="505" y="675" font-size="12" fill="black" valign="top" text-anchor="middle" dominant-baseline="central">OUT</text>
<circle cx="473" cy="710" r="5" fill="yellow" />
<text x="473" y="725" font-size="12" fill="black" valign="top" text-anchor="middle" dominant-baseline="central">CUT</text>
<path d="M505,660 L505,645" stroke="black" stroke-width="2" />
<path d="M570,415 L555,415" stroke="black" stroke-width="2" />
<path d="M505,660 L505,645" stroke="black" stroke-width="2" />
<path d="M570,325 L555,325" stroke="black" stroke-width="2" />
<path d="M505,660 L505,645" stroke="black" stroke-width="2" />
<path d="M660,415 L645,415" stroke="black" stroke-width="2" />
<path d="M505,660 L505,645" stroke="black" stroke-width="2" />
<path d="M570,145 L555,145" stroke="black" stroke-width="2" />
<path d="M505,645 L505,415" stroke="black" stroke-width="2" />
<text x="485" y="645" font-size="10" fill="orange" valign="top" text-anchor="middle" dominant-baseline="central">van(505,645)&gt;</text>
<text x="485" y="415" font-size="10" fill="orange" valign="top" text-anchor="middle" dominant-baseline="central">naar(505,415)&gt;</text>
<path d="M505,645 L505,415" stroke="orange" stroke-width="2" />
<path d="M505,415 L555,415" stroke="black" stroke-width="2" />
<path d="M505,415 L555,415" stroke="yellow" stroke-width="2" />
<text x="515" y="425" font-size="17" fill="blue" text-anchor="middle" dominant-baseline="central">1</text>
<path d="M505,645 L505,325" stroke="black" stroke-width="2" />
<text x="485" y="645" font-size="10" fill="orange" valign="top" text-anchor="middle" dominant-baseline="central">van(505,645)&gt;</text>
<text x="485" y="325" font-size="10" fill="orange" valign="top" text-anchor="middle" dominant-baseline="central">naar(505,325)&gt;</text>
<path d="M505,645 L505,325" stroke="orange" stroke-width="2" />
<path d="M505,325 L555,325" stroke="black" stroke-width="2" />
<path d="M505,325 L555,325" stroke="yellow" stroke-width="2" />
<text x="515" y="335" font-size="17" fill="blue" text-anchor="middle" dominant-baseline="central">2</text>
<path d="M505,510 L645,510" stroke="black" stroke-width="2" />
<path d="M645,510 L645,415" stroke="black" stroke-width="2" />
<text x="555" y="510" font-size="10" fill="green" valign="top" text-anchor="middle" dominant-baseline="central">van(645,510)&gt;</text>
<text x="565" y="415" font-size="10" fill="green" valign="top" text-anchor="middle" dominant-baseline="central">naar(645,415)&gt;</text>
<path d="M505,510 L645,510" stroke="red" stroke-width="2" />
<path d="M645,510 L645,415" stroke="green" stroke-width="2" />
<text x="655" y="425" font-size="17" fill="blue" text-anchor="middle" dominant-baseline="central">3</text>
<path d="M505,645 L505,145" stroke="black" stroke-width="2" />
<text x="485" y="645" font-size="10" fill="orange" valign="top" text-anchor="middle" dominant-baseline="central">van(505,645)&gt;</text>
<text x="485" y="145" font-size="10" fill="orange" valign="top" text-anchor="middle" dominant-baseline="central">naar(505,145)&gt;</text>
<path d="M505,645 L505,145" stroke="orange" stroke-width="2" />
<path d="M505,145 L555,145" stroke="black" stroke-width="2" />
<path d="M505,145 L555,145" stroke="yellow" stroke-width="2" />
<text x="515" y="155" font-size="17" fill="blue" text-anchor="middle" dominant-baseline="central">4</text>
<rect x="570" y="390" width="50" height="50" fill="pink" stroke="black" stroke-width="1" />
<text x="595" y="382" font-size="15" fill="black" text-anchor="middle" dominant-baseline="central">Verlichting6_H</text>
<circle cx="570" cy="415" r="5" fill="red" />
<text x="570" y="430" font-size="12" fill="black" valign="top" text-anchor="middle" dominant-baseline="central">IN</text>
<circle cx="620" cy="415" r="5" fill="green" />
<text x="620" y="430" font-size="12" fill="black" valign="top" text-anchor="middle" dominant-baseline="central">OUT</text>
<rect x="570" y="300" width="50" height="50" fill="pink" stroke="black" stroke-width="1" />
<text x="595" y="292" font-size="15" fill="black" text-anchor="middle" dominant-baseline="central">vaatwas301_H</text>
<circle cx="570" cy="325" r="5" fill="red" />
<text x="570" y="340" font-size="12" fill="black" valign="top" text-anchor="middle" dominant-baseline="central">IN</text>
<circle cx="620" cy="325" r="5" fill="green" />
<text x="620" y="340" font-size="12" fill="black" valign="top" text-anchor="middle" dominant-baseline="central">OUT</text>
<image x="660" y="390" width="50" height="50" xlink:href="symbolen/Prieze\prieze_hydro_false_kinder_true_aarding_true_1.svg" />
<text x="685.0" y="415.0" font-size="12" fill="red" text-anchor="middle" dominant-baseline="central">prieze</text>
<text x="685" y="382" font-size="15" fill="black" text-anchor="middle" dominant-baseline="central">prieze</text>
<circle cx="660" cy="415" r="5" fill="red" />
<text x="660" y="430" font-size="12" fill="black" valign="top" text-anchor="middle" dominant-baseline="central">IN</text>
<circle cx="710" cy="415" r="5" fill="green" />
<text x="710" y="430" font-size="12" fill="black" valign="top" text-anchor="middle" dominant-baseline="central">OUT</text>
<image x="570" y="120" width="50" height="50" xlink:href="symbolen/Prieze\prieze_hydro_false_kinder_true_aarding_true_2.svg" />
<text x="595.0" y="145.0" font-size="12" fill="red" text-anchor="middle" dominant-baseline="central">priezedub</text>
<text x="595" y="112" font-size="15" fill="black" text-anchor="middle" dominant-baseline="central">priezedub</text>
<circle cx="570" cy="145" r="5" fill="red" />
<text x="570" y="160" font-size="12" fill="black" valign="top" text-anchor="middle" dominant-baseline="central">IN</text>
<circle cx="620" cy="145" r="5" fill="green" />
<text x="620" y="160" font-size="12" fill="black" valign="top" text-anchor="middle" dominant-baseline="central">OUT</text>
<image x="660" y="750" width="50" height="50" xlink:href="symbolen/CircuitBreaker\circuit_breaker.svg" />
<text x="760" y="800" font-size="25" fill="black" text-anchor="middle" dominant-baseline="central">zek3001_V</text>
<text x="730" y="765" font-size="15" fill="black" text-anchor="middle" dominant-baseline="central">16A</text>
<circle cx="685" cy="600" r="8" fill="pink" />
<text x="665" y="600" font-size="12" fill="black" valign="top" text-anchor="middle" dominant-baseline="central">685 600</text>
<text x="685" y="742" font-size="15" fill="black" text-anchor="middle" dominant-baseline="central">zek3001_V</text>
<circle cx="685" cy="800" r="5" fill="red" />
<text x="685" y="815" font-size="12" fill="black" valign="top" text-anchor="middle" dominant-baseline="central">IN</text>
<circle cx="685" cy="750" r="5" fill="green" />
<text x="685" y="765" font-size="12" fill="black" valign="top" text-anchor="middle" dominant-baseline="central">OUT</text>
<circle cx="653" cy="800" r="5" fill="yellow" />
<text x="653" y="815" font-size="12" fill="black" valign="top" text-anchor="middle" dominant-baseline="central">CUT</text>
<path d="M685,750 L685,735" stroke="black" stroke-width="2" />
<path d="M750,505 L735,505" stroke="black" stroke-width="2" />
<path d="M685,735 L685,505" stroke="black" stroke-width="2" />
<text x="665" y="735" font-size="10" fill="orange" valign="top" text-anchor="middle" dominant-baseline="central">van(685,735)&gt;</text>
<text x="665" y="505" font-size="10" fill="orange" valign="top" text-anchor="middle" dominant-baseline="central">naar(685,505)&gt;</text>
<path d="M685,735 L685,505" stroke="orange" stroke-width="2" />
<path d="M685,505 L735,505" stroke="black" stroke-width="2" />
<path d="M685,505 L735,505" stroke="yellow" stroke-width="2" />
<text x="695" y="515" font-size="17" fill="blue" text-anchor="middle" dominant-baseline="central">1</text>
<rect x="750" y="480" width="50" height="50" fill="pink" stroke="black" stroke-width="1" />
<text x="775" y="472" font-size="15" fill="black" text-anchor="middle" dominant-baseline="central">droogkast3002_H</text>
<circle cx="750" cy="505" r="5" fill="red" />
<text x="750" y="520" font-size="12" fill="black" valign="top" text-anchor="middle" dominant-baseline="central">IN</text>
<circle cx="800" cy="505" r="5" fill="green" />
<text x="800" y="520" font-size="12" fill="black" valign="top" text-anchor="middle" dominant-baseline="central">OUT</text>
<image x="840" y="750" width="50" height="50" xlink:href="symbolen/CircuitBreaker\circuit_breaker.svg" />
<text x="940" y="800" font-size="25" fill="black" text-anchor="middle" dominant-baseline="central">zek3002_V</text>
<text x="910" y="765" font-size="15" fill="black" text-anchor="middle" dominant-baseline="central">16A</text>
<circle cx="865" cy="600" r="8" fill="pink" />
<text x="845" y="600" font-size="12" fill="black" valign="top" text-anchor="middle" dominant-baseline="central">865 600</text>
<text x="865" y="742" font-size="15" fill="black" text-anchor="middle" dominant-baseline="central">zek3002_V</text>
<circle cx="865" cy="800" r="5" fill="red" />
<text x="865" y="815" font-size="12" fill="black" valign="top" text-anchor="middle" dominant-baseline="central">IN</text>
<circle cx="865" cy="750" r="5" fill="green" />
<text x="865" y="765" font-size="12" fill="black" valign="top" text-anchor="middle" dominant-baseline="central">OUT</text>
<circle cx="833" cy="800" r="5" fill="yellow" />
<text x="833" y="815" font-size="12" fill="black" valign="top" text-anchor="middle" dominant-baseline="central">CUT</text>
<path d="M865,750 L865,735" stroke="black" stroke-width="2" />
<path d="M930,505 L915,505" stroke="black" stroke-width="2" />
<path d="M865,750 L865,735" stroke="black" stroke-width="2" />
<path d="M930,415 L915,415" stroke="black" stroke-width="2" />
<path d="M865,735 L865,505" stroke="black" stroke-width="2" />
<text x="845" y="735" font-size="10" fill="orange" valign="top" text-anchor="middle" dominant-baseline="central">van(865,735)&gt;</text>
<text x="845" y="505" font-size="10" fill="orange" valign="top" text-anchor="middle" dominant-baseline="central">naar(865,505)&gt;</text>
<path d="M865,735 L865,505" stroke="orange" stroke-width="2" />
<path d="M865,505 L915,505" stroke="black" stroke-width="2" />
<path d="M865,505 L915,505" stroke="yellow" stroke-width="2" />
<text x="875" y="515" font-size="17" fill="blue" text-anchor="middle" dominant-baseline="central">1</text>
<path d="M865,735 L865,415" stroke="black" stroke-width="2" />
<text x="845" y="735" font-size="10" fill="orange" valign="top" text-anchor="middle" dominant-baseline="central">van(865,735)&gt;</text>
<text x="845" y="415" font-size="10" fill="orange" valign="top" text-anchor="middle" dominant-baseline="central">naar(865,415)&gt;</text>
<path d="M865,735 L865,415" stroke="orange" stroke-width="2" />
<path d="M865,415 L915,415" stroke="black" stroke-width="2" />
<path d="M865,415 L915,415" stroke="yellow" stroke-width="2" />
<text x="875" y="425" font-size="17" fill="blue" text-anchor="middle" dominant-baseline="central">2</text>
<rect x="930" y="480" width="50" height="50" fill="pink" stroke="black" stroke-width="1" />
<text x="955" y="472" font-size="15" fill="black" text-anchor="middle" dominant-baseline="central">microoven3002_H</text>
<circle cx="930" cy="505" r="5" fill="red" />
<text x="930" y="520" font-size="12" fill="black" valign="top" text-anchor="middle" dominant-baseline="central">IN</text>
<circle cx="980" cy="505" r="5" fill="green" />
<text x="980" y="520" font-size="12" fill="black" valign="top" text-anchor="middle" dominant-baseline="central">OUT</text>
<rect x="930" y="390" width="50" height="50" fill="pink" stroke="black" stroke-width="1" />
<text x="955" y="382" font-size="15" fill="black" text-anchor="middle" dominant-baseline="central">oven3002_H</text>
<circle cx="930" cy="415" r="5" fill="red" />
<text x="930" y="430" font-size="12" fill="black" valign="top" text-anchor="middle" dominant-baseline="central">IN</text>
<circle cx="980" cy="415" r="5" fill="green" />
<text x="980" y="430" font-size="12" fill="black" valign="top" text-anchor="middle" dominant-baseline="central">OUT</text>
<image x="1020" y="750" width="50" height="50" xlink:href="symbolen/CircuitBreaker\circuit_breaker.svg" />
<text x="1120" y="800" font-size="25" fill="black" text-anchor="middle" dominant-baseline="central">zek3003_V</text>
<text x="1090" y="765" font-size="15" fill="black" text-anchor="middle" dominant-baseline="central">16A</text>
<circle cx="1045" cy="600" r="8" fill="pink" />
<text x="1025" y="600" font-size="12" fill="black" valign="top" text-anchor="middle" dominant-baseline="central">1045 600</text>
<text x="1045" y="742" font-size="15" fill="black" text-anchor="middle" dominant-baseline="central">zek3003_V</text>
<circle cx="1045" cy="800" r="5" fill="red" />
<text x="1045" y="815" font-size="12" fill="black" valign="top" text-anchor="middle" dominant-baseline="central">IN</text>
<circle cx="1045" cy="750" r="5" fill="green" />
<text x="1045" y="765" font-size="12" fill="black" valign="top" text-anchor="middle" dominant-baseline="central">OUT</text>
<circle cx="1013" cy="800" r="5" fill="yellow" />
<text x="1013" y="815" font-size="12" fill="black" valign="top" text-anchor="middle" dominant-baseline="central">CUT</text>
<path d="M1045,750 L1045,735" stroke="black" stroke-width="2" />
<path d="M1110,505 L1095,505" stroke="black" stroke-width="2" />
<path d="M1045,750 L1045,735" stroke="black" stroke-width="2" />
<path d="M1110,145 L1095,145" stroke="black" stroke-width="2" />
<path d="M1045,750 L1045,735" stroke="black" stroke-width="2" />
<path d="M1110,55 L1095,55" stroke="black" stroke-width="2" />
<path d="M1045,735 L1045,505" stroke="black" stroke-width="2" />
<text x="1025" y="735" font-size="10" fill="orange" valign="top" text-anchor="middle" dominant-baseline="central">van(1045,735)&gt;</text>
<text x="1025" y="505" font-size="10" fill="orange" valign="top" text-anchor="middle" dominant-baseline="central">naar(1045,505)&gt;</text>
<path d="M1045,735 L1045,505" stroke="orange" stroke-width="2" />
<path d="M1045,505 L1095,505" stroke="black" stroke-width="2" />
<path d="M1045,505 L1095,505" stroke="yellow" stroke-width="2" />
<text x="1055" y="515" font-size="17" fill="blue" text-anchor="middle" dominant-baseline="central">1</text>
<path d="M1045,735 L1045,145" stroke="black" stroke-width="2" />
<text x="1025" y="735" font-size="10" fill="orange" valign="top" text-anchor="middle" dominant-baseline="central">van(1045,735)&gt;</text>
<text x="1025" y="145" font-size="10" fill="orange" valign="top" text-anchor="middle" dominant-baseline="central">naar(1045,145)&gt;</text>
<path d="M1045,735 L1045,145" stroke="orange" stroke-width="2" />
<path d="M1045,145 L1095,145" stroke="black" stroke-width="2" />
<path d="M1045,145 L1095,145" stroke="yellow" stroke-width="2" />
<text x="1055" y="155" font-size="17" fill="blue" text-anchor="middle" dominant-baseline="central">2</text>
<path d="M1045,735 L1045,55" stroke="black" stroke-width="2" />
<text x="1025" y="735" font-size="10" fill="orange" valign="top" text-anchor="middle" dominant-baseline="central">van(1045,735)&gt;</text>
<text x="1025" y="55" font-size="10" fill="orange" valign="top" text-anchor="middle" dominant-baseline="central">naar(1045,55)&gt;</text>
<path d="M1045,735 L1045,55" stroke="orange" stroke-width="2" />
<path d="M1045,55 L1095,55" stroke="black" stroke-width="2" />
<path d="M1045,55 L1095,55" stroke="yellow" stroke-width="2" />
<text x="1055" y="65" font-size="17" fill="blue" text-anchor="middle" dominant-baseline="central">3</text>
<rect x="1110" y="480" width="50" height="50" fill="pink" stroke="black" stroke-width="1" />
<text x="1135" y="472" font-size="15" fill="black" text-anchor="middle" dominant-baseline="central">domo2_H</text>
<circle cx="1110" cy="505" r="5" fill="red" />
<text x="1110" y="520" font-size="12" fill="black" valign="top" text-anchor="middle" dominant-baseline="central">IN</text>
<circle cx="1160" cy="505" r="5" fill="green" />
<text x="1160" y="520" font-size="12" fill="black" valign="top" text-anchor="middle" dominant-baseline="central">OUT</text>
<path d="M1160,505 L1175,505" stroke="black" stroke-width="2" />
<path d="M1200,505 L1185,505" stroke="black" stroke-width="2" />
<path d="M1160,505 L1175,505" stroke="black" stroke-width="2" />
<path d="M1200,415 L1185,415" stroke="black" stroke-width="2" />
<path d="M1160,505 L1175,505" stroke="black" stroke-width="2" />
<path d="M1200,325 L1185,325" stroke="black" stroke-width="2" />
<path d="M1160,505 L1175,505" stroke="black" stroke-width="2" />
<path d="M1200,235 L1185,235" stroke="black" stroke-width="2" />
<path d="M1175,505 L1185,505" stroke="black" stroke-width="2" />
<path d="M1185,505 L1185,505" stroke="black" stroke-width="2" />
<path d="M1175,505 L1185,505" stroke="black" stroke-width="2" />
<path d="M1185,505 L1185,415" stroke="black" stroke-width="2" />
<path d="M1175,505 L1185,505" stroke="black" stroke-width="2" />
<path d="M1185,505 L1185,325" stroke="black" stroke-width="2" />
<path d="M1175,505 L1185,505" stroke="black" stroke-width="2" />
<path d="M1185,505 L1185,235" stroke="black" stroke-width="2" />
<rect x="1200" y="480" width="50" height="50" fill="pink" stroke="black" stroke-width="1" />
<text x="1225" y="472" font-size="15" fill="black" text-anchor="middle" dominant-baseline="central">Verlichting2_H</text>
<circle cx="1200" cy="505" r="5" fill="red" />
<text x="1200" y="520" font-size="12" fill="black" valign="top" text-anchor="middle" dominant-baseline="central">IN</text>
<circle cx="1250" cy="505" r="5" fill="green" />
<text x="1250" y="520" font-size="12" fill="black" valign="top" text-anchor="middle" dominant-baseline="central">OUT</text>
<rect x="1200" y="390" width="50" height="50" fill="pink" stroke="black" stroke-width="1" />
<text x="1225" y="382" font-size="15" fill="black" text-anchor="middle" dominant-baseline="central">Verlichting3_H</text>
<circle cx="1200" cy="415" r="5" fill="red" />
<text x="1200" y="430" font-size="12" fill="black" valign="top" text-anchor="middle" dominant-baseline="central">IN</text>
<circle cx="1250" cy="415" r="5" fill="green" />
<text x="1250" y="430" font-size="12" fill="black" valign="top" text-anchor="middle" dominant-baseline="central">OUT</text>
<rect x="1200" y="300" width="50" height="50" fill="pink" stroke="black" stroke-width="1" />
<text x="1225" y="292" font-size="15" fill="black" text-anchor="middle" dominant-baseline="central">Verlichting4_H</text>
<circle cx="1200" cy="325" r="5" fill="red" />
<text x="1200" y="340" font-size="12" fill="black" valign="top" text-anchor="middle" dominant-baseline="central">IN</text>
<circle cx="1250" cy="325" r="5" fill="green" />
<text x="1250" y="340" font-size="12" fill="black" valign="top" text-anchor="middle" dominant-baseline="central">OUT</text>
<rect x="1200" y="210" width="50" height="50" fill="pink" stroke="black" stroke-width="1" />
<text x="1225" y="202" font-size="15" fill="black" text-anchor="middle" dominant-baseline="central">Verlichting5_H</text>
<circle cx="1200" cy="235" r="5" fill="red" />
<text x="1200" y="250" font-size="12" fill="black" valign="top" text-anchor="middle" dominant-baseline="central">IN</text>
<circle cx="1250" cy="235" r="5" fill="green" />
<text x="1250" y="250" font-size="12" fill="black" valign="top" text-anchor="middle" dominant-baseline="central">OUT</text>
<rect x="1110" y="120" width="50" height="50" fill="pink" stroke="black" stroke-width="1" />
<text x="1135" y="112" font-size="15" fill="black" text-anchor="middle" dominant-baseline="central">Domomodule_H</text>
<circle cx="1110" cy="145" r="5" fill="red" />
<text x="1110" y="160" font-size="12" fill="black" valign="top" text-anchor="middle" dominant-baseline="central">IN</text>
<circle cx="1160" cy="145" r="5" fill="green" />
<text x="1160" y="160" font-size="12" fill="black" valign="top" text-anchor="middle" dominant-baseline="central">OUT</text>
<path d="M1160,145 L1175,145" stroke="black" stroke-width="2" />
<path d="M1200,145 L1185,145" stroke="black" stroke-width="2" />
<path d="M1175,145 L1185,145" stroke="black" stroke-width="2" />
<path d="M1185,145 L1185,145" stroke="black" stroke-width="2" />
<rect x="1200" y="120" width="50" height="50" fill="pink" stroke="black" stroke-width="1" />
<text x="1225" y="112" font-size="15" fill="black" text-anchor="middle" dominant-baseline="central">Verlichting_H</text>
<circle cx="1200" cy="145" r="5" fill="red" />
<text x="1200" y="160" font-size="12" fill="black" valign="top" text-anchor="middle" dominant-baseline="central">IN</text>
<circle cx="1250" cy="145" r="5" fill="green" />
<text x="1250" y="160" font-size="12" fill="black" valign="top" text-anchor="middle" dominant-baseline="central">OUT</text>
<rect x="1110" y="30" width="50" height="50" fill="pink" stroke="black" stroke-width="1" />
<text x="1135" y="22" font-size="15" fill="black" text-anchor="middle" dominant-baseline="central">tv_H</text>
<circle cx="1110" cy="55" r="5" fill="red" />
<text x="1110" y="70" font-size="12" fill="black" valign="top" text-anchor="middle" dominant-baseline="central">IN</text>
<circle cx="1160" cy="55" r="5" fill="green" />
<text x="1160" y="70" font-size="12" fill="black" valign="top" text-anchor="middle" dominant-baseline="central">OUT</text>
<image x="1290" y="750" width="50" height="50" xlink:href="symbolen/CircuitBreaker\circuit_breaker.svg" />
<text x="1390" y="800" font-size="25" fill="black" text-anchor="middle" dominant-baseline="central">zek3004verl_V</text>
<text x="1360" y="765" font-size="15" fill="black" text-anchor="middle" dominant-baseline="central">16A</text>
<circle cx="1315" cy="600" r="8" fill="pink" />
<text x="1295" y="600" font-size="12" fill="black" valign="top" text-anchor="middle" dominant-baseline="central">1315 600</text>
<text x="1315" y="742" font-size="15" fill="black" text-anchor="middle" dominant-baseline="central">zek3004verl_V</text>
<circle cx="1315" cy="800" r="5" fill="red" />
<text x="1315" y="815" font-size="12" fill="black" valign="top" text-anchor="middle" dominant-baseline="central">IN</text>
<circle cx="1315" cy="750" r="5" fill="green" />
<text x="1315" y="765" font-size="12" fill="black" valign="top" text-anchor="middle" dominant-baseline="central">OUT</text>
<circle cx="1283" cy="800" r="5" fill="yellow" />
<text x="1283" y="815" font-size="12" fill="black" valign="top" text-anchor="middle" dominant-baseline="central">CUT</text>
<path d="M1315,750 L1315,735" stroke="black" stroke-width="2" />
<path d="M1380,505 L1365,505" stroke="black" stroke-width="2" />
<path d="M1315,750 L1315,735" stroke="black" stroke-width="2" />
<path d="M1380,415 L1365,415" stroke="black" stroke-width="2" />
<path d="M1315,750 L1315,735" stroke="black" stroke-width="2" />
<path d="M1380,325 L1365,325" stroke="black" stroke-width="2" />
<path d="M1315,750 L1315,735" stroke="black" stroke-width="2" />
<path d="M1380,235 L1365,235" stroke="black" stroke-width="2" />
<path d="M1315,750 L1315,735" stroke="black" stroke-width="2" />
<path d="M1380,145 L1365,145" stroke="black" stroke-width="2" />
<path d="M1315,735 L1315,505" stroke="black" stroke-width="2" />
<text x="1295" y="735" font-size="10" fill="orange" valign="top" text-anchor="middle" dominant-baseline="central">van(1315,735)&gt;</text>
<text x="1295" y="505" font-size="10" fill="orange" valign="top" text-anchor="middle" dominant-baseline="central">naar(1315,505)&gt;</text>
<path d="M1315,735 L1315,505" stroke="orange" stroke-width="2" />
<path d="M1315,505 L1365,505" stroke="black" stroke-width="2" />
<path d="M1315,505 L1365,505" stroke="yellow" stroke-width="2" />
<text x="1325" y="515" font-size="17" fill="blue" text-anchor="middle" dominant-baseline="central">1</text>
<path d="M1315,735 L1315,415" stroke="black" stroke-width="2" />
<text x="1295" y="735" font-size="10" fill="orange" valign="top" text-anchor="middle" dominant-baseline="central">van(1315,735)&gt;</text>
<text x="1295" y="415" font-size="10" fill="orange" valign="top" text-anchor="middle" dominant-baseline="central">naar(1315,415)&gt;</text>
<path d="M1315,735 L1315,415" stroke="orange" stroke-width="2" />
<path d="M1315,415 L1365,415" stroke="black" stroke-width="2" />
<path d="M1315,415 L1365,415" stroke="yellow" stroke-width="2" />
<text x="1325" y="425" font-size="17" fill="blue" text-anchor="middle" dominant-baseline="central">2</text>
<path d="M1315,735 L1315,325" stroke="black" stroke-width="2" />
<text x="1295" y="735" font-size="10" fill="orange" valign="top" text-anchor="middle" dominant-baseline="central">van(1315,735)&gt;</text>
<text x="1295" y="325" font-size="10" fill="orange" valign="top" text-anchor="middle" dominant-baseline="central">naar(1315,325)&gt;</text>
<path d="M1315,735 L1315,325" stroke="orange" stroke-width="2" />
<path d="M1315,325 L1365,325" stroke="black" stroke-width="2" />
<path d="M1315,325 L1365,325" stroke="yellow" stroke-width="2" />
<text x="1325" y="335" font-size="17" fill="blue" text-anchor="middle" dominant-baseline="central">3</text>
<path d="M1315,735 L1315,235" stroke="black" stroke-width="2" />
<text x="1295" y="735" font-size="10" fill="orange" valign="top" text-anchor="middle" dominant-baseline="central">van(1315,735)&gt;</text>
<text x="1295" y="235" font-size="10" fill="orange" valign="top" text-anchor="middle" dominant-baseline="central">naar(1315,235)&gt;</text>
<path d="M1315,735 L1315,235" stroke="orange" stroke-width="2" />
<path d="M1315,235 L1365,235" stroke="black" stroke-width="2" />
<path d="M1315,235 L1365,235" stroke="yellow" stroke-width="2" />
<text x="1325" y="245" font-size="17" fill="blue" text-anchor="middle" dominant-baseline="central">4</text>
<path d="M1315,735 L1315,145" stroke="black" stroke-width="2" />
<text x="1295" y="735" font-size="10" fill="orange" valign="top" text-anchor="middle" dominant-baseline="central">van(1315,735)&gt;</text>
<text x="1295" y="145" font-size="10" fill="orange" valign="top" text-anchor="middle" dominant-baseline="central">naar(1315,145)&gt;</text>
<path d="M1315,735 L1315,145" stroke="orange" stroke-width="2" />
<path d="M1315,145 L1365,145" stroke="black" stroke-width="2" />
<path d="M1315,145 L1365,145" stroke="yellow" stroke-width="2" />
<text x="1325" y="155" font-size="17" fill="blue" text-anchor="middle" dominant-baseline="central">5</text>
<rect x="1380" y="480" width="50" height="50" fill="pink" stroke="black" stroke-width="1" />
<text x="1405" y="472" font-size="15" fill="black" text-anchor="middle" dominant-baseline="central">Verlicht1_H</text>
<circle cx="1380" cy="505" r="5" fill="red" />
<text x="1380" y="520" font-size="12" fill="black" valign="top" text-anchor="middle" dominant-baseline="central">IN</text>
<circle cx="1430" cy="505" r="5" fill="green" />
<text x="1430" y="520" font-size="12" fill="black" valign="top" text-anchor="middle" dominant-baseline="central">OUT</text>
<rect x="1380" y="390" width="50" height="50" fill="pink" stroke="black" stroke-width="1" />
<text x="1405" y="382" font-size="15" fill="black" text-anchor="middle" dominant-baseline="central">Verlicht2_H</text>
<circle cx="1380" cy="415" r="5" fill="red" />
<text x="1380" y="430" font-size="12" fill="black" valign="top" text-anchor="middle" dominant-baseline="central">IN</text>
<circle cx="1430" cy="415" r="5" fill="green" />
<text x="1430" y="430" font-size="12" fill="black" valign="top" text-anchor="middle" dominant-baseline="central">OUT</text>
<rect x="1380" y="300" width="50" height="50" fill="pink" stroke="black" stroke-width="1" />
<text x="1405" y="292" font-size="15" fill="black" text-anchor="middle" dominant-baseline="central">Verlicht3_H</text>
<circle cx="1380" cy="325" r="5" fill="red" />
<text x="1380" y="340" font-size="12" fill="black" valign="top" text-anchor="middle" dominant-baseline="central">IN</text>
<circle cx="1430" cy="325" r="5" fill="green" />
<text x="1430" y="340" font-size="12" fill="black" valign="top" text-anchor="middle" dominant-baseline="central">OUT</text>
<rect x="1380" y="210" width="50" height="50" fill="pink" stroke="black" stroke-width="1" />
<text x="1405" y="202" font-size="15" fill="black" text-anchor="middle" dominant-baseline="central">contaxop3004_H</text>
<circle cx="1380" cy="235" r="5" fill="red" />
<text x="1380" y="250" font-size="12" fill="black" valign="top" text-anchor="middle" dominant-baseline="central">IN</text>
<circle cx="1430" cy="235" r="5" fill="green" />
<text x="1430" y="250" font-size="12" fill="black" valign="top" text-anchor="middle" dominant-baseline="central">OUT</text>
<path d="M1430,235 L1445,235" stroke="black" stroke-width="2" />
<path d="M1470,235 L1455,235" stroke="black" stroke-width="2" />
<path d="M1445,235 L1455,235" stroke="black" stroke-width="2" />
<path d="M1455,235 L1455,235" stroke="black" stroke-width="2" />
<rect x="1470" y="210" width="50" height="50" fill="pink" stroke="black" stroke-width="1" />
<text x="1495" y="202" font-size="15" fill="black" text-anchor="middle" dominant-baseline="central">contaxopcontax_H</text>
<circle cx="1470" cy="235" r="5" fill="red" />
<text x="1470" y="250" font-size="12" fill="black" valign="top" text-anchor="middle" dominant-baseline="central">IN</text>
<circle cx="1520" cy="235" r="5" fill="green" />
<text x="1520" y="250" font-size="12" fill="black" valign="top" text-anchor="middle" dominant-baseline="central">OUT</text>
<path d="M1520,235 L1535,235" stroke="black" stroke-width="2" />
<path d="M1560,235 L1545,235" stroke="black" stroke-width="2" />
<path d="M1535,235 L1545,235" stroke="black" stroke-width="2" />
<path d="M1545,235 L1545,235" stroke="black" stroke-width="2" />
<rect x="1560" y="210" width="50" height="50" fill="pink" stroke="black" stroke-width="1" />
<text x="1585" y="202" font-size="15" fill="black" text-anchor="middle" dominant-baseline="central">faaropcontax_H</text>
<circle cx="1560" cy="235" r="5" fill="red" />
<text x="1560" y="250" font-size="12" fill="black" valign="top" text-anchor="middle" dominant-baseline="central">IN</text>
<circle cx="1610" cy="235" r="5" fill="green" />
<text x="1610" y="250" font-size="12" fill="black" valign="top" text-anchor="middle" dominant-baseline="central">OUT</text>
<rect x="1380" y="120" width="50" height="50" fill="pink" stroke="black" stroke-width="1" />
<text x="1405" y="112" font-size="15" fill="black" text-anchor="middle" dominant-baseline="central">lamp3004_H</text>
<circle cx="1380" cy="145" r="5" fill="red" />
<text x="1380" y="160" font-size="12" fill="black" valign="top" text-anchor="middle" dominant-baseline="central">IN</text>
<circle cx="1430" cy="145" r="5" fill="green" />
<text x="1430" y="160" font-size="12" fill="black" valign="top" text-anchor="middle" dominant-baseline="central">OUT</text>
</svg>