<?xml version="1.0" encoding="utf-8" ?>
<svg xmlns="http://www.w3.org/2000/svg" xmlns:ev="http://www.w3.org/2001/xml-events" xmlns:xlink="http://www.w3.org/1999/xlink" baseProfile="full" height="100px" version="1.1" viewBox="0 0 85 100" width="85px">
  <defs/>
  <g id="xffffff_r255_g255_b255">
    <path d="M 0,0 30,0 30,1 29,1 29,4 30,4 30,5 31,5 31,6 32,6 32,7 34,7 34,8 35,8 35,9 36,9 36,10 35,10 35,11 34,11 34,12 33,12 33,13 32,13 32,14 31,14 31,15 30,15 30,16 29,16 29,17 28,17 28,18 27,18 27,21 28,21 28,22 31,22 31,21 32,21 32,20 33,20 33,19 34,19 34,18 35,18 35,17 36,17 36,16 37,16 37,15 38,15 38,16 45,16 45,17 46,17 46,18 47,18 47,19 48,19 48,21 49,21 49,22 52,22 52,21 53,21 53,16 52,16 52,15 50,15 50,14 49,14 49,13 47,13 47,12 46,12 46,11 45,11 45,10 44,10 44,8 45,8 45,7 46,7 46,6 47,6 47,5 48,5 48,4 49,4 49,3 50,3 50,2 51,2 51,0 82,0 85,0 85,100 43,100 43,74 41,74 41,72 40,72 40,70 39,70 39,68 38,68 38,67 37,67 37,65 36,65 36,62 35,62 35,58 37,58 37,57 39,57 39,56 41,56 41,55 42,55 42,54 44,54 44,53 45,53 45,50 44,50 44,49 41,49 41,50 39,50 39,51 37,51 37,52 36,52 36,53 34,53 34,54 33,54 33,53 32,53 32,50 31,50 31,48 30,48 30,45 29,45 29,42 28,42 28,39 27,39 27,36 26,36 26,34 25,34 25,31 24,31 24,28 23,28 23,25 22,25 22,22 21,22 21,19 20,19 20,17 19,17 19,16 15,16 15,17 13,17 13,18 10,18 10,19 8,19 8,20 7,20 7,22 6,22 6,25 7,25 7,28 8,28 8,30 9,30 9,33 10,33 10,35 11,35 11,38 12,38 12,40 13,40 13,41 16,41 16,40 18,40 18,39 19,39 19,38 21,38 21,37 22,37 22,40 23,40 23,43 24,43 24,46 25,46 25,48 26,48 26,51 27,51 27,54 28,54 28,57 26,57 26,58 25,58 25,59 23,59 23,60 21,60 21,61 20,61 20,64 21,64 21,65 24,65 24,64 26,64 26,63 28,63 28,62 30,62 30,63 31,63 31,65 32,65 32,68 33,68 33,71 34,71 34,74 35,74 35,77 36,77 36,79 37,79 37,82 38,82 38,100 0,100 z" fill="#ffffff" fill-opacity="1.0" id="xffffff_r255_g255_b255_shape1"/>
    <path d="M 38,4 37,4 37,3 35,3 35,2 34,2 34,1 33,1 33,0 34,0 38,0 38,1 z" fill="#ffffff" fill-opacity="1.0" id="xffffff_r255_g255_b255_shape2"/>
    <path d="M 44,1 44,2 43,2 43,0 45,0 45,1 z" fill="#ffffff" fill-opacity="1.0" id="xffffff_r255_g255_b255_shape3"/>
  </g>
  <g id="x000000_r0_g0_b0">
    <path d="M 21,61 21,60 23,60 23,59 25,59 25,58 26,58 26,57 28,57 28,56 28,54 27,54 27,52 27,51 26,51 26,50 26,48 25,48 25,46 24,46 24,43 23,43 23,40 22,40 22,38 22,37 21,37 21,38 19,38 19,39 18,39 18,40 16,40 16,41 13,41 13,40 12,40 12,38 11,38 11,36 11,35 10,35 10,34 10,33 9,33 9,32 9,30 8,30 8,28 7,28 7,25 6,25 6,22 7,22 7,20 8,20 8,19 10,19 10,18 13,18 13,17 15,17 15,16 19,16 19,17 20,17 20,18 20,19 21,19 21,20 21,22 22,22 22,25 23,25 23,28 24,28 24,31 25,31 25,34 26,34 26,36 27,36 27,39 28,39 28,42 29,42 29,45 30,45 30,48 31,48 31,50 32,50 32,53 33,53 33,54 34,54 34,53 36,53 36,52 37,52 37,51 39,51 39,50 41,50 41,49 44,49 44,50 45,50 45,53 44,53 44,54 42,54 42,55 41,55 41,56 39,56 39,57 37,57 37,58 35,58 35,61 35,62 36,62 36,63 36,65 37,65 37,67 38,67 38,68 39,68 39,70 40,70 40,72 41,72 41,74 42,74 43,74 43,85 43,91 43,100 39,100 38,100 38,82 37,82 37,79 36,79 36,77 35,77 35,74 34,74 34,71 33,71 33,68 32,68 32,65 31,65 31,63 30,63 30,62 28,62 28,63 26,63 26,64 24,64 24,65 21,65 21,64 20,64 20,61 z" fill="#000000" fill-opacity="1.0" id="x000000_r0_g0_b0_shape1"/>
    <path d="M 37,3 37,4 38,4 38,0 43,0 43,2 44,2 44,1 45,1 45,0 51,0 51,2 50,2 50,3 49,3 49,4 48,4 48,5 47,5 47,6 46,6 46,7 45,7 45,8 44,8 44,10 45,10 45,11 46,11 46,12 47,12 47,13 49,13 49,14 50,14 50,15 52,15 52,16 53,16 53,21 52,21 52,22 49,22 49,21 48,21 48,20 48,19 47,19 47,18 46,18 46,17 45,17 45,16 38,16 38,15 37,15 37,16 36,16 36,17 35,17 35,18 34,18 34,19 33,19 33,20 32,20 32,21 31,21 31,22 28,22 28,21 27,21 27,19 27,18 28,18 28,17 29,17 29,16 30,16 30,15 31,15 31,14 32,14 32,13 33,13 33,12 34,12 34,11 35,11 35,10 36,10 36,9 35,9 35,8 34,8 34,7 33,7 32,7 32,6 31,6 31,5 30,5 30,4 29,4 29,2 29,1 30,1 30,0 33,0 33,1 34,1 34,2 35,2 35,3 z" fill="#000000" fill-opacity="1.0" id="x000000_r0_g0_b0_shape2"/>
  </g>
</svg>
