<?xml version="1.0" encoding="utf-8" ?>
<svg baseProfile="tiny" height="100%" version="1.2" width="100%" xmlns="http://www.w3.org/2000/svg" xmlns:ev="http://www.w3.org/2001/xml-events" xmlns:xlink="http://www.w3.org/1999/xlink"><defs /><line stroke="black" stroke-width="2" x1="80" x2="120" y1="50" y2="50" /><line stroke="black" stroke-width="2" x1="120" x2="120" y1="50" y2="150" /><line stroke="black" stroke-width="2" x1="120" x2="135.0" y1="150" y2="150" /><line stroke="black" stroke-width="2" x1="80" x2="1220" y1="50" y2="50" /><line stroke="black" stroke-width="2" x1="1220" x2="1220" y1="50" y2="150" /><line stroke="black" stroke-width="2" x1="1220" x2="1235.0" y1="150" y2="150" /><line stroke="black" stroke-width="2" x1="180" x2="220" y1="150" y2="150" /><line stroke="black" stroke-width="2" x1="220" x2="220" y1="150" y2="250" /><line stroke="black" stroke-width="2" x1="220" x2="235.0" y1="250" y2="250" /><line stroke="black" stroke-width="2" x1="180" x2="720" y1="150" y2="150" /><line stroke="black" stroke-width="2" x1="720" x2="720" y1="150" y2="250" /><line stroke="black" stroke-width="2" x1="720" x2="735.0" y1="250" y2="250" /><line stroke="black" stroke-width="2" x1="280" x2="320" y1="250" y2="250" /><line stroke="black" stroke-width="2" x1="320" x2="320" y1="250" y2="350" /><line stroke="black" stroke-width="2" x1="320" x2="335.0" y1="350" y2="350" /><line stroke="black" stroke-width="2" x1="280" x2="620" y1="250" y2="250" /><line stroke="black" stroke-width="2" x1="620" x2="620" y1="250" y2="350" /><line stroke="black" stroke-width="2" x1="620" x2="635.0" y1="350" y2="350" /><line stroke="black" stroke-width="2" x1="380" x2="420" y1="350" y2="350" /><line stroke="black" stroke-width="2" x1="420" x2="420" y1="350" y2="450" /><line stroke="black" stroke-width="2" x1="420" x2="435.0" y1="450" y2="450" /><line stroke="black" stroke-width="2" x1="480" x2="520" y1="450" y2="450" /><line stroke="black" stroke-width="2" x1="520" x2="520" y1="450" y2="550" /><line stroke="black" stroke-width="2" x1="520" x2="535.0" y1="550" y2="550" /><line stroke="black" stroke-width="2" x1="780" x2="820" y1="250" y2="250" /><line stroke="black" stroke-width="2" x1="820" x2="820" y1="250" y2="350" /><line stroke="black" stroke-width="2" x1="820" x2="835.0" y1="350" y2="350" /><line stroke="black" stroke-width="2" x1="780" x2="1120" y1="250" y2="250" /><line stroke="black" stroke-width="2" x1="1120" x2="1120" y1="250" y2="350" /><line stroke="black" stroke-width="2" x1="1120" x2="1135.0" y1="350" y2="350" /><line stroke="black" stroke-width="2" x1="880" x2="920" y1="350" y2="350" /><line stroke="black" stroke-width="2" x1="920" x2="920" y1="350" y2="450" /><line stroke="black" stroke-width="2" x1="920" x2="935.0" y1="450" y2="450" /><line stroke="black" stroke-width="2" x1="980" x2="1020" y1="450" y2="450" /><line stroke="black" stroke-width="2" x1="1020" x2="1020" y1="450" y2="550" /><line stroke="black" stroke-width="2" x1="1020" x2="1035.0" y1="550" y2="550" /><circle cx="50" cy="50" fill="lightyellow" r="30" stroke="black" stroke-width="2" /><text font-size="14" font-weight="bold" text-anchor="middle" x="50" y="40">Main Meter</text><text fill="darkgray" font-size="11" text-anchor="middle" x="50" y="70">Meter (Teller)</text><circle cx="150" cy="150" fill="lightyellow" r="30" stroke="black" stroke-width="2" /><text font-size="14" font-weight="bold" text-anchor="middle" x="150" y="140">1</text><text fill="darkgray" font-size="11" text-anchor="middle" x="150" y="170">Differential Switch (Differentieel)</text><circle cx="250" cy="250" fill="lightyellow" r="30" stroke="black" stroke-width="2" /><text font-size="14" font-weight="bold" text-anchor="middle" x="250" y="240">Q1</text><text fill="darkgray" font-size="11" text-anchor="middle" x="250" y="270">Circuit Breaker</text><circle cx="350" cy="350" fill="lightyellow" r="30" stroke="black" stroke-width="2" /><text font-size="14" font-weight="bold" text-anchor="middle" x="350" y="340">ct1_Coil</text><text fill="darkgray" font-size="11" text-anchor="middle" x="350" y="370">Relay Coil</text><circle cx="450" cy="450" fill="lightyellow" r="30" stroke="black" stroke-width="2" /><text font-size="14" font-weight="bold" text-anchor="middle" x="450" y="440">Plug 2</text><text fill="darkgray" font-size="11" text-anchor="middle" x="450" y="470">Power Plug</text><circle cx="550" cy="550" fill="lightyellow" r="30" stroke="black" stroke-width="2" /><text font-size="14" font-weight="bold" text-anchor="middle" x="550" y="540">Dishwasher</text><text fill="darkgray" font-size="11" text-anchor="middle" x="550" y="570">Appliance</text><circle cx="650" cy="350" fill="lightyellow" r="30" stroke="black" stroke-width="2" /><text font-size="14" font-weight="bold" text-anchor="middle" x="650" y="340">Kitchen Light</text><text fill="darkgray" font-size="11" text-anchor="middle" x="650" y="370">Light</text><circle cx="750" cy="250" fill="lightyellow" r="30" stroke="black" stroke-width="2" /><text font-size="14" font-weight="bold" text-anchor="middle" x="750" y="240">Q2</text><text fill="darkgray" font-size="11" text-anchor="middle" x="750" y="270">Circuit Breaker</text><circle cx="850" cy="350" fill="lightyellow" r="30" stroke="black" stroke-width="2" /><text font-size="14" font-weight="bold" text-anchor="middle" x="850" y="340">ct1_Switch</text><text fill="darkgray" font-size="11" text-anchor="middle" x="850" y="370">Relay Switch</text><circle cx="950" cy="450" fill="lightyellow" r="30" stroke="black" stroke-width="2" /><text font-size="14" font-weight="bold" text-anchor="middle" x="950" y="440">Plug 1</text><text fill="darkgray" font-size="11" text-anchor="middle" x="950" y="470">Power Plug</text><circle cx="1050" cy="550" fill="lightyellow" r="30" stroke="black" stroke-width="2" /><text font-size="14" font-weight="bold" text-anchor="middle" x="1050" y="540">Washing Machine</text><text fill="darkgray" font-size="11" text-anchor="middle" x="1050" y="570">Appliance</text><circle cx="1150" cy="350" fill="lightyellow" r="30" stroke="black" stroke-width="2" /><text font-size="14" font-weight="bold" text-anchor="middle" x="1150" y="340">Bathroom Light</text><text fill="darkgray" font-size="11" text-anchor="middle" x="1150" y="370">Light</text><circle cx="1250" cy="150" fill="lightyellow" r="30" stroke="black" stroke-width="2" /><text font-size="14" font-weight="bold" text-anchor="middle" x="1250" y="140">2</text><text fill="darkgray" font-size="11" text-anchor="middle" x="1250" y="170">Differential Switch (Differentieel)</text></svg>