<?xml version="1.0" encoding="utf-8" ?>
<svg baseProfile="tiny" height="100%" version="1.2" width="100%" xmlns="http://www.w3.org/2000/svg" xmlns:ev="http://www.w3.org/2001/xml-events" xmlns:xlink="http://www.w3.org/1999/xlink"><defs /><line stroke="black" stroke-width="2" x1="200.0" x2="200.0" y1="80" y2="120" /><line stroke="black" stroke-width="2" x1="200.0" x2="125.0" y1="180" y2="220" /><line stroke="black" stroke-width="2" x1="200.0" x2="275.0" y1="180" y2="220" /><line stroke="black" stroke-width="2" x1="125.0" x2="50.0" y1="280" y2="320" /><line stroke="black" stroke-width="2" x1="275.0" x2="200.0" y1="280" y2="320" /><line stroke="black" stroke-width="2" x1="275.0" x2="350.0" y1="280" y2="320" /><line stroke="black" stroke-width="2" x1="50.0" x2="125.0" y1="380" y2="420" /><line stroke="black" stroke-width="2" x1="50.0" x2="275.0" y1="380" y2="420" /><line stroke="black" stroke-width="2" x1="125.0" x2="125.0" y1="480" y2="520" /><line stroke="black" stroke-width="2" x1="275.0" x2="275.0" y1="480" y2="520" /><circle cx="200.0" cy="50" fill="lightblue" r="30" stroke="black" stroke-width="2" /><text fill="black" font-size="14" font-weight="bold" text-anchor="middle" x="200.0" y="45">Main Meter</text><text fill="darkgray" font-size="12" text-anchor="middle" x="200.0" y="65">Meter (Teller)</text><circle cx="200.0" cy="150" fill="lightblue" r="30" stroke="black" stroke-width="2" /><text fill="black" font-size="14" font-weight="bold" text-anchor="middle" x="200.0" y="145">Main Differential</text><text fill="darkgray" font-size="12" text-anchor="middle" x="200.0" y="165">Differential Switch (Differentieel)</text><circle cx="125.0" cy="250" fill="lightblue" r="30" stroke="black" stroke-width="2" /><text fill="black" font-size="14" font-weight="bold" text-anchor="middle" x="125.0" y="245">Breaker 1</text><text fill="darkgray" font-size="12" text-anchor="middle" x="125.0" y="265">Circuit Breaker</text><circle cx="275.0" cy="250" fill="lightblue" r="30" stroke="black" stroke-width="2" /><text fill="black" font-size="14" font-weight="bold" text-anchor="middle" x="275.0" y="245">Breaker 2</text><text fill="darkgray" font-size="12" text-anchor="middle" x="275.0" y="265">Circuit Breaker</text><circle cx="50.0" cy="350" fill="lightblue" r="30" stroke="black" stroke-width="2" /><text fill="black" font-size="14" font-weight="bold" text-anchor="middle" x="50.0" y="345">Relay 1</text><text fill="darkgray" font-size="12" text-anchor="middle" x="50.0" y="365">Relay</text><circle cx="200.0" cy="350" fill="lightblue" r="30" stroke="black" stroke-width="2" /><text fill="black" font-size="14" font-weight="bold" text-anchor="middle" x="200.0" y="345">Kitchen Light</text><text fill="darkgray" font-size="12" text-anchor="middle" x="200.0" y="365">Light</text><circle cx="350.0" cy="350" fill="lightblue" r="30" stroke="black" stroke-width="2" /><text fill="black" font-size="14" font-weight="bold" text-anchor="middle" x="350.0" y="345">Bathroom Light</text><text fill="darkgray" font-size="12" text-anchor="middle" x="350.0" y="365">Light</text><circle cx="125.0" cy="450" fill="lightblue" r="30" stroke="black" stroke-width="2" /><text fill="black" font-size="14" font-weight="bold" text-anchor="middle" x="125.0" y="445">Plug 1</text><text fill="darkgray" font-size="12" text-anchor="middle" x="125.0" y="465">Power Plug</text><circle cx="275.0" cy="450" fill="lightblue" r="30" stroke="black" stroke-width="2" /><text fill="black" font-size="14" font-weight="bold" text-anchor="middle" x="275.0" y="445">Plug 2</text><text fill="darkgray" font-size="12" text-anchor="middle" x="275.0" y="465">Power Plug</text><circle cx="125.0" cy="550" fill="lightblue" r="30" stroke="black" stroke-width="2" /><text fill="black" font-size="14" font-weight="bold" text-anchor="middle" x="125.0" y="545">Washing Machine</text><text fill="darkgray" font-size="12" text-anchor="middle" x="125.0" y="565">Appliance</text><circle cx="275.0" cy="550" fill="lightblue" r="30" stroke="black" stroke-width="2" /><text fill="black" font-size="14" font-weight="bold" text-anchor="middle" x="275.0" y="545">Dishwasher</text><text fill="darkgray" font-size="12" text-anchor="middle" x="275.0" y="565">Appliance</text></svg>