<?xml version="1.0" encoding="UTF-8"?>
<svg xmlns="http://www.w3.org/2000/svg" xmlns:xlink="http://www.w3.org/1999/xlink"
     width="3710" height="1730" viewBox="0 0 3710 1730">
<defs>
</defs>
<rect x="95.0" y="120.0" width="100" height="50" rx="5" ry="5" stroke="black" stroke-width="2" fill="#ADD8E6" />
<text x="145.0" y="145.0" font-size="10px" font-family="Arial, sans-serif" text-anchor="middle" alignment-baseline="middle" fill="black">kop</text>
<rect x="275.0" y="120.0" width="100" height="50" rx="5" ry="5" stroke="black" stroke-width="2" fill="#ADD8E6" />
<text x="325.0" y="145.0" font-size="10px" font-family="Arial, sans-serif" text-anchor="middle" alignment-baseline="middle" fill="black">Teller</text>
<path d="M145.0,145.0 L325.0,145.0 L325.0,145.0" stroke="#4682B4" stroke-width="1.5" fill="none" />
<rect x="480.0" y="250.0" width="50" height="150" rx="5" ry="5" stroke="black" stroke-width="2" fill="#ADD8E6" />
<text x="505.0" y="325.0" font-size="10px" font-family="Arial, sans-serif" text-anchor="middle" alignment-baseline="middle" fill="black">Diff3</text>
<path d="M325.0,145.0 L505.0,145.0 L505.0,325.0" stroke="#4682B4" stroke-width="1.5" fill="none" />
<rect x="840.0" y="250.0" width="50" height="150" rx="5" ry="5" stroke="black" stroke-width="2" fill="#ADD8E6" />
<text x="865.0" y="325.0" font-size="10px" font-family="Arial, sans-serif" text-anchor="middle" alignment-baseline="middle" fill="black">Diff30</text>
<path d="M325.0,145.0 L865.0,145.0 L865.0,325.0" stroke="#4682B4" stroke-width="1.5" fill="none" />
<rect x="1200.0" y="250.0" width="50" height="150" rx="5" ry="5" stroke="black" stroke-width="2" fill="#ADD8E6" />
<text x="1225.0" y="325.0" font-size="10px" font-family="Arial, sans-serif" text-anchor="middle" alignment-baseline="middle" fill="black">Diff300</text>
<path d="M325.0,145.0 L1225.0,145.0 L1225.0,325.0" stroke="#4682B4" stroke-width="1.5" fill="none" />
<rect x="635.0" y="480.0" width="100" height="50" rx="5" ry="5" stroke="black" stroke-width="2" fill="#ADD8E6" />
<text x="685.0" y="505.0" font-size="10px" font-family="Arial, sans-serif" text-anchor="middle" alignment-baseline="middle" fill="black">zonnepaneelopdif3</text>
<path d="M505.0,325.0 L505.0,505.0 L685.0,505.0" stroke="#4682B4" stroke-width="1.5" fill="none" />
<rect x="995.0" y="480.0" width="100" height="50" rx="5" ry="5" stroke="black" stroke-width="2" fill="#ADD8E6" />
<text x="1045.0" y="505.0" font-size="10px" font-family="Arial, sans-serif" text-anchor="middle" alignment-baseline="middle" fill="black">reserve</text>
<path d="M865.0,325.0 L865.0,505.0 L1045.0,505.0" stroke="#4682B4" stroke-width="1.5" fill="none" />
<rect x="1200.0" y="430.0" width="50" height="150" rx="5" ry="5" stroke="black" stroke-width="2" fill="#ADD8E6" />
<text x="1225.0" y="505.0" font-size="10px" font-family="Arial, sans-serif" text-anchor="middle" alignment-baseline="middle" fill="black">dif100</text>
<path d="M1225.0,325.0 L1225.0,505.0 L1225.0,505.0" stroke="#4682B4" stroke-width="1.5" fill="none" />
<rect x="1715.0" y="480.0" width="100" height="50" rx="5" ry="5" stroke="black" stroke-width="2" fill="#ADD8E6" />
<text x="1765.0" y="505.0" font-size="10px" font-family="Arial, sans-serif" text-anchor="middle" alignment-baseline="middle" fill="black">zek3001</text>
<path d="M1225.0,325.0 L1225.0,505.0 L1765.0,505.0" stroke="#4682B4" stroke-width="1.5" fill="none" />
<rect x="2075.0" y="480.0" width="100" height="50" rx="5" ry="5" stroke="black" stroke-width="2" fill="#ADD8E6" />
<text x="2125.0" y="505.0" font-size="10px" font-family="Arial, sans-serif" text-anchor="middle" alignment-baseline="middle" fill="black">zek3002</text>
<path d="M1225.0,325.0 L1225.0,505.0 L2125.0,505.0" stroke="#4682B4" stroke-width="1.5" fill="none" />
<rect x="2435.0" y="480.0" width="100" height="50" rx="5" ry="5" stroke="black" stroke-width="2" fill="#ADD8E6" />
<text x="2485.0" y="505.0" font-size="10px" font-family="Arial, sans-serif" text-anchor="middle" alignment-baseline="middle" fill="black">zek3003</text>
<path d="M1225.0,325.0 L1225.0,505.0 L2485.0,505.0" stroke="#4682B4" stroke-width="1.5" fill="none" />
<rect x="2975.0" y="480.0" width="100" height="50" rx="5" ry="5" stroke="black" stroke-width="2" fill="#ADD8E6" />
<text x="3025.0" y="505.0" font-size="10px" font-family="Arial, sans-serif" text-anchor="middle" alignment-baseline="middle" fill="black">zek3004verl</text>
<path d="M1225.0,325.0 L1225.0,505.0 L3025.0,505.0" stroke="#4682B4" stroke-width="1.5" fill="none" />
<rect x="1175.0" y="660.0" width="100" height="50" rx="5" ry="5" stroke="black" stroke-width="2" fill="#ADD8E6" />
<text x="1225.0" y="685.0" font-size="10px" font-family="Arial, sans-serif" text-anchor="middle" alignment-baseline="middle" fill="black">zek1001</text>
<path d="M1225.0,505.0 L1225.0,685.0 L1225.0,685.0" stroke="#4682B4" stroke-width="1.5" fill="none" />
<rect x="1895.0" y="660.0" width="100" height="50" rx="5" ry="5" stroke="black" stroke-width="2" fill="#ADD8E6" />
<text x="1945.0" y="685.0" font-size="10px" font-family="Arial, sans-serif" text-anchor="middle" alignment-baseline="middle" fill="black">droogkast3002</text>
<path d="M1765.0,505.0 L1765.0,685.0 L1945.0,685.0" stroke="#4682B4" stroke-width="1.5" fill="none" />
<rect x="2255.0" y="660.0" width="100" height="50" rx="5" ry="5" stroke="black" stroke-width="2" fill="#ADD8E6" />
<text x="2305.0" y="685.0" font-size="10px" font-family="Arial, sans-serif" text-anchor="middle" alignment-baseline="middle" fill="black">microoven3002</text>
<path d="M2125.0,505.0 L2125.0,685.0 L2305.0,685.0" stroke="#4682B4" stroke-width="1.5" fill="none" />
<rect x="2255.0" y="840.0" width="100" height="50" rx="5" ry="5" stroke="black" stroke-width="2" fill="#ADD8E6" />
<text x="2305.0" y="865.0" font-size="10px" font-family="Arial, sans-serif" text-anchor="middle" alignment-baseline="middle" fill="black">oven3002</text>
<path d="M2125.0,505.0 L2125.0,865.0 L2305.0,865.0" stroke="#4682B4" stroke-width="1.5" fill="none" />
<rect x="2615.0" y="660.0" width="100" height="50" rx="5" ry="5" stroke="black" stroke-width="2" fill="#ADD8E6" />
<text x="2665.0" y="685.0" font-size="10px" font-family="Arial, sans-serif" text-anchor="middle" alignment-baseline="middle" fill="black">domo2</text>
<path d="M2485.0,505.0 L2485.0,685.0 L2665.0,685.0" stroke="#4682B4" stroke-width="1.5" fill="none" />
<rect x="2615.0" y="1380.0" width="100" height="50" rx="5" ry="5" stroke="black" stroke-width="2" fill="#ADD8E6" />
<text x="2665.0" y="1405.0" font-size="10px" font-family="Arial, sans-serif" text-anchor="middle" alignment-baseline="middle" fill="black">Domomodule</text>
<path d="M2485.0,505.0 L2485.0,1405.0 L2665.0,1405.0" stroke="#4682B4" stroke-width="1.5" fill="none" />
<rect x="2615.0" y="1560.0" width="100" height="50" rx="5" ry="5" stroke="black" stroke-width="2" fill="#ADD8E6" />
<text x="2665.0" y="1585.0" font-size="10px" font-family="Arial, sans-serif" text-anchor="middle" alignment-baseline="middle" fill="black">tv</text>
<path d="M2485.0,505.0 L2485.0,1585.0 L2665.0,1585.0" stroke="#4682B4" stroke-width="1.5" fill="none" />
<rect x="3130.0" y="660.0" width="150" height="50" rx="5" ry="5" stroke="black" stroke-width="2" fill="#ADD8E6" />
<text x="3205.0" y="685.0" font-size="10px" font-family="Arial, sans-serif" text-anchor="middle" alignment-baseline="middle" fill="black">Verlicht2</text>
<path d="M3025.0,505.0 L3025.0,685.0 L3205.0,685.0" stroke="#4682B4" stroke-width="1.5" fill="none" />
<rect x="3130.0" y="840.0" width="150" height="50" rx="5" ry="5" stroke="black" stroke-width="2" fill="#ADD8E6" />
<text x="3205.0" y="865.0" font-size="10px" font-family="Arial, sans-serif" text-anchor="middle" alignment-baseline="middle" fill="black">Verlicht3</text>
<path d="M3025.0,505.0 L3025.0,865.0 L3205.0,865.0" stroke="#4682B4" stroke-width="1.5" fill="none" />
<rect x="3155.0" y="1020.0" width="100" height="50" rx="5" ry="5" stroke="black" stroke-width="2" fill="#ADD8E6" />
<text x="3205.0" y="1045.0" font-size="10px" font-family="Arial, sans-serif" text-anchor="middle" alignment-baseline="middle" fill="black">contaxop3004</text>
<path d="M3025.0,505.0 L3025.0,1045.0 L3205.0,1045.0" stroke="#4682B4" stroke-width="1.5" fill="none" />
<rect x="3155.0" y="1200.0" width="100" height="50" rx="5" ry="5" stroke="black" stroke-width="2" fill="#ADD8E6" />
<text x="3205.0" y="1225.0" font-size="10px" font-family="Arial, sans-serif" text-anchor="middle" alignment-baseline="middle" fill="black">lamp3004</text>
<path d="M3025.0,505.0 L3025.0,1225.0 L3205.0,1225.0" stroke="#4682B4" stroke-width="1.5" fill="none" />
<rect x="1355.0" y="840.0" width="100" height="50" rx="5" ry="5" stroke="black" stroke-width="2" fill="#ADD8E6" />
<text x="1405.0" y="865.0" font-size="10px" font-family="Arial, sans-serif" text-anchor="middle" alignment-baseline="middle" fill="black">vaatwas301 met een langenaam</text>
<path d="M1225.0,685.0 L1225.0,865.0 L1405.0,865.0" stroke="#4682B4" stroke-width="1.5" fill="none" />
<rect x="1330.0" y="1020.0" width="150" height="50" rx="5" ry="5" stroke="black" stroke-width="2" fill="#ADD8E6" />
<text x="1405.0" y="1045.0" font-size="10px" font-family="Arial, sans-serif" text-anchor="middle" alignment-baseline="middle" fill="black">centraal</text>
<path d="M1225.0,685.0 L1225.0,1045.0 L1405.0,1045.0" stroke="#4682B4" stroke-width="1.5" fill="none" />
<rect x="1330.0" y="1200.0" width="150" height="50" rx="5" ry="5" stroke="black" stroke-width="2" fill="#ADD8E6" />
<text x="1405.0" y="1225.0" font-size="10px" font-family="Arial, sans-serif" text-anchor="middle" alignment-baseline="middle" fill="black">inkom</text>
<path d="M1225.0,685.0 L1225.0,1225.0 L1405.0,1225.0" stroke="#4682B4" stroke-width="1.5" fill="none" />
<rect x="1355.0" y="1380.0" width="100" height="50" rx="5" ry="5" stroke="black" stroke-width="2" fill="#ADD8E6" />
<text x="1405.0" y="1405.0" font-size="10px" font-family="Arial, sans-serif" text-anchor="middle" alignment-baseline="middle" fill="black">prieze</text>
<path d="M1225.0,685.0 L1225.0,1405.0 L1405.0,1405.0" stroke="#4682B4" stroke-width="1.5" fill="none" />
<rect x="1355.0" y="1560.0" width="100" height="50" rx="5" ry="5" stroke="black" stroke-width="2" fill="#ADD8E6" />
<text x="1405.0" y="1585.0" font-size="10px" font-family="Arial, sans-serif" text-anchor="middle" alignment-baseline="middle" fill="black">priezedub</text>
<path d="M1225.0,685.0 L1225.0,1585.0 L1405.0,1585.0" stroke="#4682B4" stroke-width="1.5" fill="none" />
<rect x="2770.0" y="660.0" width="150" height="50" rx="5" ry="5" stroke="black" stroke-width="2" fill="#ADD8E6" />
<text x="2845.0" y="685.0" font-size="10px" font-family="Arial, sans-serif" text-anchor="middle" alignment-baseline="middle" fill="black">centraal</text>
<path d="M2665.0,685.0 L2845.0,685.0 L2845.0,685.0" stroke="#4682B4" stroke-width="1.5" fill="none" />
<rect x="2770.0" y="840.0" width="150" height="50" rx="5" ry="5" stroke="black" stroke-width="2" fill="#ADD8E6" />
<text x="2845.0" y="865.0" font-size="10px" font-family="Arial, sans-serif" text-anchor="middle" alignment-baseline="middle" fill="black">dressoir</text>
<path d="M2665.0,685.0 L2845.0,685.0 L2845.0,865.0" stroke="#4682B4" stroke-width="1.5" fill="none" />
<rect x="2770.0" y="1020.0" width="150" height="50" rx="5" ry="5" stroke="black" stroke-width="2" fill="#ADD8E6" />
<text x="2845.0" y="1045.0" font-size="10px" font-family="Arial, sans-serif" text-anchor="middle" alignment-baseline="middle" fill="black">kot</text>
<path d="M2665.0,685.0 L2845.0,685.0 L2845.0,1045.0" stroke="#4682B4" stroke-width="1.5" fill="none" />
<rect x="2770.0" y="1200.0" width="150" height="50" rx="5" ry="5" stroke="black" stroke-width="2" fill="#ADD8E6" />
<text x="2845.0" y="1225.0" font-size="10px" font-family="Arial, sans-serif" text-anchor="middle" alignment-baseline="middle" fill="black">phaar</text>
<path d="M2665.0,685.0 L2845.0,685.0 L2845.0,1225.0" stroke="#4682B4" stroke-width="1.5" fill="none" />
<rect x="2770.0" y="1380.0" width="150" height="50" rx="5" ry="5" stroke="black" stroke-width="2" fill="#ADD8E6" />
<text x="2845.0" y="1405.0" font-size="10px" font-family="Arial, sans-serif" text-anchor="middle" alignment-baseline="middle" fill="black">eettafel</text>
<path d="M2665.0,1405.0 L2845.0,1405.0 L2845.0,1405.0" stroke="#4682B4" stroke-width="1.5" fill="none" />
<rect x="3335.0" y="1020.0" width="100" height="50" rx="5" ry="5" stroke="black" stroke-width="2" fill="#ADD8E6" />
<text x="3385.0" y="1045.0" font-size="10px" font-family="Arial, sans-serif" text-anchor="middle" alignment-baseline="middle" fill="black">contaxopcontax</text>
<path d="M3205.0,1045.0 L3385.0,1045.0 L3385.0,1045.0" stroke="#4682B4" stroke-width="1.5" fill="none" />
<rect x="1535.0" y="1380.0" width="100" height="50" rx="5" ry="5" stroke="black" stroke-width="2" fill="#ADD8E6" />
<text x="1585.0" y="1405.0" font-size="10px" font-family="Arial, sans-serif" text-anchor="middle" alignment-baseline="middle" fill="black">dompelpomp</text>
<path d="M1405.0,1405.0 L1585.0,1405.0 L1585.0,1405.0" stroke="#4682B4" stroke-width="1.5" fill="none" />
<rect x="3490.0" y="1020.0" width="150" height="50" rx="5" ry="5" stroke="black" stroke-width="2" fill="#ADD8E6" />
<text x="3565.0" y="1045.0" font-size="10px" font-family="Arial, sans-serif" text-anchor="middle" alignment-baseline="middle" fill="black">faaropcontax</text>
<path d="M3385.0,1045.0 L3565.0,1045.0 L3565.0,1045.0" stroke="#4682B4" stroke-width="1.5" fill="none" />
</svg>