<?xml version="1.0" encoding="UTF-8"?>
<svg xmlns="http://www.w3.org/2000/svg" xmlns:xlink="http://www.w3.org/1999/xlink"
     width="1320" height="710" viewBox="0 0 1320 710">
<defs>
</defs>
<rect x="0" y="0" width="1320" height="710" fill="#f5f5f5" />
<g id="kop">
<rect x="10" y="10" width="80" height="40" fill="lightblue" stroke="black" rx="5" ry="5" />
<text x="15" y="30" font-size="15" font-family="Arial" fill="black">kop</text>
<text x="15" y="45" font-size="10" font-family="monospace" fill="#444">Grid (0,0)</text>
<text x="15" y="60" font-size="10" font-family="monospace" fill="#444">SVG (10,10)</text>
</g>
<g id="Teller_H">
<rect x="160" y="10" width="80" height="40" fill="lightblue" stroke="black" rx="5" ry="5" />
<text x="165" y="30" font-size="15" font-family="Arial" fill="black">Teller_H</text>
<text x="165" y="45" font-size="10" font-family="monospace" fill="#444">Grid (1,0)</text>
<text x="165" y="60" font-size="10" font-family="monospace" fill="#444">SVG (160,10)</text>
</g>
<path d="M90,30.0 L160,30.0" stroke="gray" stroke-width="2" />
<g id="Diff3_V">
<rect x="310" y="90" width="60" height="60" fill="lightblue" stroke="black" rx="5" ry="5" />
<text x="315" y="110" font-size="15" font-family="Arial" fill="black">Diff3_V</text>
<text x="315" y="125" font-size="10" font-family="monospace" fill="#444">Grid (2,1)</text>
<text x="315" y="140" font-size="10" font-family="monospace" fill="#444">SVG (310,90)</text>
</g>
<path d="M240,30.0 L310,120.0" stroke="gray" stroke-width="2" />
<g id="zonnepaneelopdif3_H">
<rect x="310" y="170" width="80" height="40" fill="lightblue" stroke="black" rx="5" ry="5" />
<text x="315" y="190" font-size="15" font-family="Arial" fill="black">zonnepaneelopdif3_H</text>
<text x="315" y="205" font-size="10" font-family="monospace" fill="#444">Grid (3,2)</text>
<text x="315" y="220" font-size="10" font-family="monospace" fill="#444">SVG (310,170)</text>
</g>
<path d="M370,120.0 L310,190.0" stroke="gray" stroke-width="2" />
<g id="Diff30_V">
<rect x="420" y="90" width="60" height="60" fill="lightblue" stroke="black" rx="5" ry="5" />
<text x="425" y="110" font-size="15" font-family="Arial" fill="black">Diff30_V</text>
<text x="425" y="125" font-size="10" font-family="monospace" fill="#444">Grid (4,1)</text>
<text x="425" y="140" font-size="10" font-family="monospace" fill="#444">SVG (420,90)</text>
</g>
<path d="M240,30.0 L420,120.0" stroke="gray" stroke-width="2" />
<g id="reserve_H">
<rect x="420" y="170" width="80" height="40" fill="lightblue" stroke="black" rx="5" ry="5" />
<text x="425" y="190" font-size="15" font-family="Arial" fill="black">reserve_H</text>
<text x="425" y="205" font-size="10" font-family="monospace" fill="#444">Grid (5,2)</text>
<text x="425" y="220" font-size="10" font-family="monospace" fill="#444">SVG (420,170)</text>
</g>
<path d="M480,120.0 L420,190.0" stroke="gray" stroke-width="2" />
<g id="Diff300_V">
<rect x="530" y="90" width="60" height="60" fill="lightblue" stroke="black" rx="5" ry="5" />
<text x="535" y="110" font-size="15" font-family="Arial" fill="black">Diff300_V</text>
<text x="535" y="125" font-size="10" font-family="monospace" fill="#444">Grid (6,1)</text>
<text x="535" y="140" font-size="10" font-family="monospace" fill="#444">SVG (530,90)</text>
</g>
<path d="M240,30.0 L530,120.0" stroke="gray" stroke-width="2" />
<g id="Diff100_V">
<rect x="530" y="170" width="60" height="60" fill="lightblue" stroke="black" rx="5" ry="5" />
<text x="535" y="190" font-size="15" font-family="Arial" fill="black">Diff100_V</text>
<text x="535" y="205" font-size="10" font-family="monospace" fill="#444">Grid (6,2)</text>
<text x="535" y="220" font-size="10" font-family="monospace" fill="#444">SVG (530,170)</text>
</g>
<path d="M590,120.0 L530,200.0" stroke="gray" stroke-width="2" />
<g id="zek1001_V">
<rect x="530" y="250" width="50" height="50" fill="lightblue" stroke="black" rx="5" ry="5" />
<text x="535" y="270" font-size="15" font-family="Arial" fill="black">zek1001_V</text>
<text x="535" y="285" font-size="10" font-family="monospace" fill="#444">Grid (6,3)</text>
<text x="535" y="300" font-size="10" font-family="monospace" fill="#444">SVG (530,250)</text>
</g>
<path d="M590,200.0 L530,275.0" stroke="gray" stroke-width="2" />
<g id="vaatwas301_H met een langenaam">
<rect x="530" y="330" width="80" height="40" fill="lightblue" stroke="black" rx="5" ry="5" />
<text x="535" y="350" font-size="15" font-family="Arial" fill="black">vaatwas301_H met een langenaam</text>
<text x="535" y="365" font-size="10" font-family="monospace" fill="#444">Grid (7,4)</text>
<text x="535" y="380" font-size="10" font-family="monospace" fill="#444">SVG (530,330)</text>
</g>
<path d="M580,275.0 L530,350.0" stroke="gray" stroke-width="2" />
<g id="centraal">
<rect x="550" y="410" width="90" height="40" fill="lightblue" stroke="black" rx="5" ry="5" />
<text x="555" y="430" font-size="15" font-family="Arial" fill="black">centraal</text>
<text x="555" y="445" font-size="10" font-family="monospace" fill="#444">Grid (7,5)</text>
<text x="555" y="460" font-size="10" font-family="monospace" fill="#444">SVG (550,410)</text>
</g>
<path d="M580,275.0 L550,430.0" stroke="gray" stroke-width="2" />
<g id="inkom">
<rect x="550" y="490" width="90" height="40" fill="lightblue" stroke="black" rx="5" ry="5" />
<text x="555" y="510" font-size="15" font-family="Arial" fill="black">inkom</text>
<text x="555" y="525" font-size="10" font-family="monospace" fill="#444">Grid (7,6)</text>
<text x="555" y="540" font-size="10" font-family="monospace" fill="#444">SVG (550,490)</text>
</g>
<path d="M580,275.0 L550,510.0" stroke="gray" stroke-width="2" />
<g id="prieze">
<rect x="550" y="570" width="80" height="40" fill="lightblue" stroke="black" rx="5" ry="5" />
<text x="555" y="590" font-size="15" font-family="Arial" fill="black">prieze</text>
<text x="555" y="605" font-size="10" font-family="monospace" fill="#444">Grid (7,7)</text>
<text x="555" y="620" font-size="10" font-family="monospace" fill="#444">SVG (550,570)</text>
</g>
<path d="M580,275.0 L550,590.0" stroke="gray" stroke-width="2" />
<g id="dompelpomp_H">
<rect x="690" y="570" width="80" height="40" fill="lightblue" stroke="black" rx="5" ry="5" />
<text x="695" y="590" font-size="15" font-family="Arial" fill="black">dompelpomp_H</text>
<text x="695" y="605" font-size="10" font-family="monospace" fill="#444">Grid (8,7)</text>
<text x="695" y="620" font-size="10" font-family="monospace" fill="#444">SVG (690,570)</text>
</g>
<path d="M630,590.0 L690,590.0" stroke="gray" stroke-width="2" />
<g id="priezedub">
<rect x="550" y="650" width="80" height="40" fill="lightblue" stroke="black" rx="5" ry="5" />
<text x="555" y="670" font-size="15" font-family="Arial" fill="black">priezedub</text>
<text x="555" y="685" font-size="10" font-family="monospace" fill="#444">Grid (7,8)</text>
<text x="555" y="700" font-size="10" font-family="monospace" fill="#444">SVG (550,650)</text>
</g>
<path d="M580,275.0 L550,670.0" stroke="gray" stroke-width="2" />
<g id="zek3001_V">
<rect x="550" y="170" width="50" height="50" fill="lightblue" stroke="black" rx="5" ry="5" />
<text x="555" y="190" font-size="15" font-family="Arial" fill="black">zek3001_V</text>
<text x="555" y="205" font-size="10" font-family="monospace" fill="#444">Grid (9,2)</text>
<text x="555" y="220" font-size="10" font-family="monospace" fill="#444">SVG (550,170)</text>
</g>
<path d="M590,120.0 L550,195.0" stroke="gray" stroke-width="2" />
<g id="droogkast3002_H">
<rect x="550" y="250" width="80" height="40" fill="lightblue" stroke="black" rx="5" ry="5" />
<text x="555" y="270" font-size="15" font-family="Arial" fill="black">droogkast3002_H</text>
<text x="555" y="285" font-size="10" font-family="monospace" fill="#444">Grid (10,3)</text>
<text x="555" y="300" font-size="10" font-family="monospace" fill="#444">SVG (550,250)</text>
</g>
<path d="M600,195.0 L550,270.0" stroke="gray" stroke-width="2" />
<g id="zek3002_V">
<rect x="550" y="170" width="50" height="50" fill="lightblue" stroke="black" rx="5" ry="5" />
<text x="555" y="190" font-size="15" font-family="Arial" fill="black">zek3002_V</text>
<text x="555" y="205" font-size="10" font-family="monospace" fill="#444">Grid (11,2)</text>
<text x="555" y="220" font-size="10" font-family="monospace" fill="#444">SVG (550,170)</text>
</g>
<path d="M590,120.0 L550,195.0" stroke="gray" stroke-width="2" />
<g id="microoven3002_H">
<rect x="550" y="250" width="80" height="40" fill="lightblue" stroke="black" rx="5" ry="5" />
<text x="555" y="270" font-size="15" font-family="Arial" fill="black">microoven3002_H</text>
<text x="555" y="285" font-size="10" font-family="monospace" fill="#444">Grid (12,3)</text>
<text x="555" y="300" font-size="10" font-family="monospace" fill="#444">SVG (550,250)</text>
</g>
<path d="M600,195.0 L550,270.0" stroke="gray" stroke-width="2" />
<g id="oven3002_H">
<rect x="570" y="330" width="80" height="40" fill="lightblue" stroke="black" rx="5" ry="5" />
<text x="575" y="350" font-size="15" font-family="Arial" fill="black">oven3002_H</text>
<text x="575" y="365" font-size="10" font-family="monospace" fill="#444">Grid (12,4)</text>
<text x="575" y="380" font-size="10" font-family="monospace" fill="#444">SVG (570,330)</text>
</g>
<path d="M600,195.0 L570,350.0" stroke="gray" stroke-width="2" />
<g id="zek3003_V">
<rect x="550" y="170" width="50" height="50" fill="lightblue" stroke="black" rx="5" ry="5" />
<text x="555" y="190" font-size="15" font-family="Arial" fill="black">zek3003_V</text>
<text x="555" y="205" font-size="10" font-family="monospace" fill="#444">Grid (13,2)</text>
<text x="555" y="220" font-size="10" font-family="monospace" fill="#444">SVG (550,170)</text>
</g>
<path d="M590,120.0 L550,195.0" stroke="gray" stroke-width="2" />
<g id="domo2_H">
<rect x="550" y="250" width="80" height="40" fill="lightblue" stroke="black" rx="5" ry="5" />
<text x="555" y="270" font-size="15" font-family="Arial" fill="black">domo2_H</text>
<text x="555" y="285" font-size="10" font-family="monospace" fill="#444">Grid (14,3)</text>
<text x="555" y="300" font-size="10" font-family="monospace" fill="#444">SVG (550,250)</text>
</g>
<path d="M600,195.0 L550,270.0" stroke="gray" stroke-width="2" />
<g id="centraal">
<rect x="700" y="250" width="90" height="40" fill="lightblue" stroke="black" rx="5" ry="5" />
<text x="705" y="270" font-size="15" font-family="Arial" fill="black">centraal</text>
<text x="705" y="285" font-size="10" font-family="monospace" fill="#444">Grid (15,3)</text>
<text x="705" y="300" font-size="10" font-family="monospace" fill="#444">SVG (700,250)</text>
</g>
<path d="M630,270.0 L700,270.0" stroke="gray" stroke-width="2" />
<g id="dressoir">
<rect x="870" y="330" width="90" height="40" fill="lightblue" stroke="black" rx="5" ry="5" />
<text x="875" y="350" font-size="15" font-family="Arial" fill="black">dressoir</text>
<text x="875" y="365" font-size="10" font-family="monospace" fill="#444">Grid (15,4)</text>
<text x="875" y="380" font-size="10" font-family="monospace" fill="#444">SVG (870,330)</text>
</g>
<path d="M630,270.0 L870,350.0" stroke="gray" stroke-width="2" />
<g id="kot">
<rect x="1040" y="410" width="90" height="40" fill="lightblue" stroke="black" rx="5" ry="5" />
<text x="1045" y="430" font-size="15" font-family="Arial" fill="black">kot</text>
<text x="1045" y="445" font-size="10" font-family="monospace" fill="#444">Grid (15,5)</text>
<text x="1045" y="460" font-size="10" font-family="monospace" fill="#444">SVG (1040,410)</text>
</g>
<path d="M630,270.0 L1040,430.0" stroke="gray" stroke-width="2" />
<g id="phaar">
<rect x="1210" y="490" width="90" height="40" fill="lightblue" stroke="black" rx="5" ry="5" />
<text x="1215" y="510" font-size="15" font-family="Arial" fill="black">phaar</text>
<text x="1215" y="525" font-size="10" font-family="monospace" fill="#444">Grid (15,6)</text>
<text x="1215" y="540" font-size="10" font-family="monospace" fill="#444">SVG (1210,490)</text>
</g>
<path d="M630,270.0 L1210,510.0" stroke="gray" stroke-width="2" />
<g id="Domomodule_H">
<rect x="570" y="570" width="70" height="40" fill="lightblue" stroke="black" rx="5" ry="5" />
<text x="575" y="590" font-size="15" font-family="Arial" fill="black">Domomodule_H</text>
<text x="575" y="605" font-size="10" font-family="monospace" fill="#444">Grid (14,7)</text>
<text x="575" y="620" font-size="10" font-family="monospace" fill="#444">SVG (570,570)</text>
</g>
<path d="M600,195.0 L570,590.0" stroke="gray" stroke-width="2" />
<g id="eettafel">
<rect x="690" y="570" width="90" height="40" fill="lightblue" stroke="black" rx="5" ry="5" />
<text x="695" y="590" font-size="15" font-family="Arial" fill="black">eettafel</text>
<text x="695" y="605" font-size="10" font-family="monospace" fill="#444">Grid (15,7)</text>
<text x="695" y="620" font-size="10" font-family="monospace" fill="#444">SVG (690,570)</text>
</g>
<path d="M640,590.0 L690,590.0" stroke="gray" stroke-width="2" />
<g id="tv_H">
<rect x="570" y="650" width="80" height="40" fill="lightblue" stroke="black" rx="5" ry="5" />
<text x="575" y="670" font-size="15" font-family="Arial" fill="black">tv_H</text>
<text x="575" y="685" font-size="10" font-family="monospace" fill="#444">Grid (14,8)</text>
<text x="575" y="700" font-size="10" font-family="monospace" fill="#444">SVG (570,650)</text>
</g>
<path d="M600,195.0 L570,670.0" stroke="gray" stroke-width="2" />
<g id="zek3004verl_V">
<rect x="550" y="170" width="50" height="50" fill="lightblue" stroke="black" rx="5" ry="5" />
<text x="555" y="190" font-size="15" font-family="Arial" fill="black">zek3004verl_V</text>
<text x="555" y="205" font-size="10" font-family="monospace" fill="#444">Grid (16,2)</text>
<text x="555" y="220" font-size="10" font-family="monospace" fill="#444">SVG (550,170)</text>
</g>
<path d="M590,120.0 L550,195.0" stroke="gray" stroke-width="2" />
<g id="Verlicht2_H">
<rect x="550" y="250" width="90" height="40" fill="lightblue" stroke="black" rx="5" ry="5" />
<text x="555" y="270" font-size="15" font-family="Arial" fill="black">Verlicht2_H</text>
<text x="555" y="285" font-size="10" font-family="monospace" fill="#444">Grid (17,3)</text>
<text x="555" y="300" font-size="10" font-family="monospace" fill="#444">SVG (550,250)</text>
</g>
<path d="M600,195.0 L550,270.0" stroke="gray" stroke-width="2" />
<g id="Verlicht3_H">
<rect x="570" y="330" width="90" height="40" fill="lightblue" stroke="black" rx="5" ry="5" />
<text x="575" y="350" font-size="15" font-family="Arial" fill="black">Verlicht3_H</text>
<text x="575" y="365" font-size="10" font-family="monospace" fill="#444">Grid (17,4)</text>
<text x="575" y="380" font-size="10" font-family="monospace" fill="#444">SVG (570,330)</text>
</g>
<path d="M600,195.0 L570,350.0" stroke="gray" stroke-width="2" />
<g id="contaxop3004_H">
<rect x="570" y="410" width="70" height="40" fill="lightblue" stroke="black" rx="5" ry="5" />
<text x="575" y="430" font-size="15" font-family="Arial" fill="black">contaxop3004_H</text>
<text x="575" y="445" font-size="10" font-family="monospace" fill="#444">Grid (17,5)</text>
<text x="575" y="460" font-size="10" font-family="monospace" fill="#444">SVG (570,410)</text>
</g>
<path d="M600,195.0 L570,430.0" stroke="gray" stroke-width="2" />
<g id="contaxopcontax_H">
<rect x="690" y="410" width="70" height="40" fill="lightblue" stroke="black" rx="5" ry="5" />
<text x="695" y="430" font-size="15" font-family="Arial" fill="black">contaxopcontax_H</text>
<text x="695" y="445" font-size="10" font-family="monospace" fill="#444">Grid (18,5)</text>
<text x="695" y="460" font-size="10" font-family="monospace" fill="#444">SVG (690,410)</text>
</g>
<path d="M640,430.0 L690,430.0" stroke="gray" stroke-width="2" />
<g id="faaropcontax_H">
<rect x="810" y="410" width="90" height="40" fill="lightblue" stroke="black" rx="5" ry="5" />
<text x="815" y="430" font-size="15" font-family="Arial" fill="black">faaropcontax_H</text>
<text x="815" y="445" font-size="10" font-family="monospace" fill="#444">Grid (19,5)</text>
<text x="815" y="460" font-size="10" font-family="monospace" fill="#444">SVG (810,410)</text>
</g>
<path d="M760,430.0 L810,430.0" stroke="gray" stroke-width="2" />
<g id="lamp3004_H">
<rect x="570" y="490" width="80" height="40" fill="lightblue" stroke="black" rx="5" ry="5" />
<text x="575" y="510" font-size="15" font-family="Arial" fill="black">lamp3004_H</text>
<text x="575" y="525" font-size="10" font-family="monospace" fill="#444">Grid (17,6)</text>
<text x="575" y="540" font-size="10" font-family="monospace" fill="#444">SVG (570,490)</text>
</g>
<path d="M600,195.0 L570,510.0" stroke="gray" stroke-width="2" />
</svg>