<?xml version="1.0" encoding="utf-8" ?>
<svg xmlns="http://www.w3.org/2000/svg" xmlns:ev="http://www.w3.org/2001/xml-events" xmlns:xlink="http://www.w3.org/1999/xlink" baseProfile="full" height="100px" version="1.1" viewBox="0 0 100 100" width="100px">
  <defs/>
  <g id="xffffff_r255_g255_b255">
    <path d="M 0,54 49,54 49,55 48,55 48,56 47,56 47,57 46,57 46,58 44,58 44,59 43,59 43,60 42,60 42,61 41,61 41,62 40,62 40,63 39,63 39,64 37,64 37,65 36,65 36,66 35,66 35,67 34,67 34,68 33,68 33,69 32,69 32,70 31,70 31,71 29,71 29,72 28,72 28,73 27,73 27,74 26,74 26,75 25,75 25,76 24,76 24,77 22,77 22,78 21,78 21,79 20,79 20,80 19,80 19,81 18,81 18,84 19,84 19,85 22,85 22,84 23,84 23,83 24,83 24,82 26,82 26,81 27,81 27,80 28,80 28,79 29,79 29,78 30,78 30,77 31,77 31,76 32,76 32,75 34,75 34,74 35,74 35,73 36,73 36,72 37,72 37,71 38,71 38,70 39,70 39,69 41,69 41,68 42,68 42,67 43,67 43,66 44,66 44,65 45,65 45,64 46,64 46,63 47,63 47,62 49,62 49,61 50,61 50,60 51,60 51,59 52,59 52,58 53,58 53,57 54,57 54,56 56,56 56,55 57,55 57,54 63,54 63,55 63,56 64,56 64,57 65,57 65,59 66,59 66,60 67,60 67,62 68,62 68,63 69,63 69,65 70,65 70,66 71,66 71,68 72,68 72,69 73,69 73,71 74,71 74,72 75,72 75,74 76,74 76,75 77,75 77,77 78,77 78,78 79,78 79,80 80,80 80,81 81,81 81,83 82,83 82,84 83,84 83,86 84,86 84,87 85,87 85,89 86,89 86,90 87,90 87,91 90,91 90,90 91,90 91,87 90,87 90,85 89,85 89,84 88,84 88,82 87,82 87,81 86,81 86,79 85,79 85,78 84,78 84,77 83,77 83,75 82,75 82,74 81,74 81,72 80,72 80,71 79,71 79,69 78,69 78,68 77,68 77,66 76,66 76,65 75,65 75,63 74,63 74,62 73,62 73,60 72,60 72,59 71,59 71,57 70,57 70,56 69,56 69,54 71,54 71,49 69,49 65,49 65,47 66,47 66,46 67,46 67,45 68,45 68,44 69,44 69,43 70,43 70,42 72,42 72,41 73,41 73,40 74,40 74,39 75,39 75,38 76,38 76,37 77,37 77,36 79,36 79,35 80,35 80,34 81,34 81,33 82,33 82,32 83,32 83,31 84,31 84,30 85,30 85,29 87,29 87,28 88,28 88,27 89,27 89,26 90,26 90,25 91,25 91,24 92,24 92,23 94,23 94,22 95,22 95,21 96,21 96,20 97,20 97,19 98,19 98,21 99,21 99,24 98,24 98,46 97,46 97,57 97,72 98,72 98,80 98,98 93,98 93,100 0,100 z" fill="#ffffff" fill-opacity="1.0" id="xffffff_r255_g255_b255_shape1"/>
    <path d="M 57,48 56,48 56,49 0,49 0,0 84,0 84,3 85,3 85,4 97,4 97,7 98,7 98,14 95,14 95,15 94,15 94,16 93,16 93,17 92,17 92,18 90,18 90,19 89,19 89,20 88,20 88,21 87,21 87,22 86,22 86,23 85,23 85,24 84,24 84,25 82,25 82,26 81,26 81,27 80,27 80,28 79,28 79,29 78,29 78,30 77,30 77,31 75,31 75,32 74,32 74,33 73,33 73,34 72,34 72,35 71,35 71,36 70,36 70,37 69,37 69,38 67,38 67,39 66,39 66,40 65,40 65,41 64,41 64,42 63,42 63,43 62,43 62,44 61,44 61,42 60,42 60,41 59,41 59,39 58,39 58,38 57,38 57,36 56,36 56,35 55,35 55,33 54,33 54,32 53,32 53,30 52,30 52,29 51,29 51,27 50,27 50,26 49,26 49,24 48,24 48,23 47,23 47,21 46,21 46,20 45,20 45,18 44,18 44,17 43,17 43,15 42,15 42,14 41,14 41,12 40,12 40,11 39,11 39,10 36,10 36,11 35,11 35,14 36,14 36,16 37,16 37,17 38,17 38,19 39,19 39,20 40,20 40,21 41,21 41,23 42,23 42,24 43,24 43,26 44,26 44,27 45,27 45,29 46,29 46,30 47,30 47,32 48,32 48,33 49,33 49,35 50,35 50,36 51,36 51,38 52,38 52,39 53,39 53,41 54,41 54,42 55,42 55,44 56,44 56,45 57,45 z" fill="#ffffff" fill-opacity="1.0" id="xffffff_r255_g255_b255_shape2"/>
  </g>
  <g id="x000000_r0_g0_b0">
    <path d="M 36,73 35,73 35,74 34,74 34,75 32,75 32,76 31,76 31,77 30,77 30,78 29,78 29,79 28,79 28,80 27,80 27,81 26,81 26,82 24,82 24,83 23,83 23,84 22,84 22,85 19,85 19,84 18,84 18,81 19,81 19,80 20,80 20,79 21,79 21,78 22,78 22,77 24,77 24,76 25,76 25,75 26,75 26,74 27,74 27,73 28,73 28,72 29,72 29,71 31,71 31,70 32,70 32,69 33,69 33,68 34,68 34,67 35,67 35,66 36,66 36,65 37,65 37,64 39,64 39,63 40,63 40,62 41,62 41,61 42,61 42,60 43,60 43,59 44,59 44,58 46,58 46,57 47,57 47,56 48,56 48,55 49,55 49,54 40,54 31,54 0,54 0,49 31,49 56,49 56,48 57,48 57,45 56,45 56,44 55,44 55,42 54,42 54,41 53,41 53,39 52,39 52,38 51,38 51,36 50,36 50,35 49,35 49,33 48,33 48,32 47,32 47,30 46,30 46,29 45,29 45,27 44,27 44,26 43,26 43,24 42,24 42,23 41,23 41,21 40,21 40,20 39,20 39,19 38,19 38,17 37,17 37,16 36,16 36,14 35,14 35,11 36,11 36,10 39,10 39,11 40,11 40,12 41,12 41,14 42,14 42,15 43,15 43,17 44,17 44,18 45,18 45,20 46,20 46,21 47,21 47,23 48,23 48,24 49,24 49,26 50,26 50,27 51,27 51,29 52,29 52,30 53,30 53,32 54,32 54,33 55,33 55,35 56,35 56,36 57,36 57,38 58,38 58,39 59,39 59,41 60,41 60,42 61,42 61,44 62,44 62,43 63,43 63,42 64,42 64,41 65,41 65,40 66,40 66,39 67,39 67,38 69,38 69,37 70,37 70,36 71,36 71,35 72,35 72,34 73,34 73,33 74,33 74,32 75,32 75,31 77,31 77,30 78,30 78,29 79,29 79,28 80,28 80,27 81,27 81,26 82,26 82,25 84,25 84,24 85,24 85,23 86,23 86,22 87,22 87,21 88,21 88,20 89,20 89,19 90,19 90,18 92,18 92,17 93,17 93,16 94,16 94,15 95,15 95,14 98,14 98,19 97,19 97,20 96,20 96,21 95,21 95,22 94,22 94,23 92,23 92,24 91,24 91,25 90,25 90,26 89,26 89,27 88,27 88,28 87,28 87,29 85,29 85,30 84,30 84,31 83,31 83,32 82,32 82,33 81,33 81,34 80,34 80,35 79,35 79,36 77,36 77,37 76,37 76,38 75,38 75,39 74,39 74,40 73,40 73,41 72,41 72,42 70,42 70,43 69,43 69,44 68,44 68,45 67,45 67,46 66,46 66,47 65,47 65,49 71,49 71,54 69,54 69,56 70,56 70,57 71,57 71,59 72,59 72,60 73,60 73,62 74,62 74,63 75,63 75,65 76,65 76,66 77,66 77,68 78,68 78,69 79,69 79,71 80,71 80,72 81,72 81,74 82,74 82,75 83,75 83,77 84,77 84,78 85,78 85,79 86,79 86,81 87,81 87,82 88,82 88,84 89,84 89,85 90,85 90,87 91,87 91,90 90,90 90,91 87,91 87,90 86,90 86,89 85,89 85,87 84,87 84,86 83,86 83,84 82,84 82,83 81,83 81,81 80,81 80,80 79,80 79,78 78,78 78,77 77,77 77,75 76,75 76,74 75,74 75,72 74,72 74,71 73,71 73,69 72,69 72,68 71,68 71,66 70,66 70,65 69,65 69,63 68,63 68,62 67,62 67,60 66,60 66,59 65,59 65,57 64,57 64,56 63,56 63,54 57,54 57,55 56,55 56,56 54,56 54,57 53,57 53,58 52,58 52,59 51,59 51,60 50,60 50,61 49,61 49,62 47,62 47,63 46,63 46,64 45,64 45,65 44,65 44,66 43,66 43,67 42,67 42,68 41,68 41,69 39,69 39,70 38,70 38,71 37,71 37,72 36,72 z" fill="#000000" fill-opacity="1.0" id="x000000_r0_g0_b0_shape1"/>
  </g>
  <g id="xed1c24_r237_g28_b36">
    <path d="M 98,70 97,70 97,48 98,48 98,26 99,26 99,19 98,19 98,4 97,4 97,3 95,3 95,4 87,4 87,3 85,3 85,1 86,1 86,0 100,0 100,2 99,2 99,3 100,3 100,34 100,100 94,100 94,99 95,99 95,98 98,98 z M 98,98 98,99 99,99 99,98 z" fill="#ed1c24" fill-opacity="1.0" id="xed1c24_r237_g28_b36_shape1"/>
  </g>
  <g id="xfabfc1_r250_g191_b193">
    <path d="M 85,0 85,1 84,1 84,0 z" fill="#fabfc1" fill-opacity="1.0" id="xfabfc1_r250_g191_b193_shape1"/>
    <path d="M 98,24 99,24 99,25 98,25 z" fill="#fabfc1" fill-opacity="1.0" id="xfabfc1_r250_g191_b193_shape2"/>
    <path d="M 97,47 97,46 98,46 98,47 z" fill="#fabfc1" fill-opacity="1.0" id="xfabfc1_r250_g191_b193_shape3"/>
    <path d="M 93,98 94,98 94,99 93,99 z" fill="#fabfc1" fill-opacity="1.0" id="xfabfc1_r250_g191_b193_shape4"/>
  </g>
  <g id="xef3940_r239_g57_b64">
    <path d="M 86,1 85,1 85,0 86,0 z" fill="#ef3940" fill-opacity="1.0" id="xef3940_r239_g57_b64_shape1"/>
    <path d="M 84,1 85,1 85,2 84,2 z" fill="#ef3940" fill-opacity="1.0" id="xef3940_r239_g57_b64_shape2"/>
    <path d="M 95,98 95,99 94,99 94,98 z" fill="#ef3940" fill-opacity="1.0" id="xef3940_r239_g57_b64_shape3"/>
    <path d="M 93,100 93,99 94,99 94,100 z" fill="#ef3940" fill-opacity="1.0" id="xef3940_r239_g57_b64_shape4"/>
  </g>
  <g id="xf69498_r246_g148_b152">
    <path d="M 85,2 85,3 84,3 84,2 z" fill="#f69498" fill-opacity="1.0" id="xf69498_r246_g148_b152_shape1"/>
    <path d="M 99,20 99,21 98,21 98,20 z" fill="#f69498" fill-opacity="1.0" id="xf69498_r246_g148_b152_shape2"/>
    <path d="M 98,72 97,72 97,71 98,71 z" fill="#f69498" fill-opacity="1.0" id="xf69498_r246_g148_b152_shape3"/>
  </g>
  <g id="xee232b_r238_g35_b43">
    <path d="M 98,4 98,5 97,5 97,4 z" fill="#ee232b" fill-opacity="1.0" id="xee232b_r238_g35_b43_shape1"/>
    <path d="M 99,20 98,20 98,19 99,19 z" fill="#ee232b" fill-opacity="1.0" id="xee232b_r238_g35_b43_shape2"/>
    <path d="M 98,70 98,71 97,71 97,70 z" fill="#ee232b" fill-opacity="1.0" id="xee232b_r238_g35_b43_shape3"/>
  </g>
  <g id="xfef8f8_r254_g248_b248">
    <path d="M 86,3 86,4 85,4 85,3 z" fill="#fef8f8" fill-opacity="1.0" id="xfef8f8_r254_g248_b248_shape1"/>
    <path d="M 96,3 97,3 97,4 96,4 z" fill="#fef8f8" fill-opacity="1.0" id="xfef8f8_r254_g248_b248_shape2"/>
  </g>
  <g id="xf46a70_r244_g106_b112">
    <path d="M 95,3 96,3 96,4 95,4 z" fill="#f46a70" fill-opacity="1.0" id="xf46a70_r244_g106_b112_shape1"/>
    <path d="M 98,6 97,6 97,5 98,5 z" fill="#f46a70" fill-opacity="1.0" id="xf46a70_r244_g106_b112_shape2"/>
  </g>
  <g id="xef3139_r239_g49_b57">
    <path d="M 99,26 98,26 98,25 99,25 z" fill="#ef3139" fill-opacity="1.0" id="xef3139_r239_g49_b57_shape1"/>
    <path d="M 97,47 98,47 98,48 97,48 z" fill="#ef3139" fill-opacity="1.0" id="xef3139_r239_g49_b57_shape2"/>
  </g>
  <g id="xee1c24_r238_g28_b36">
    <path d="M 100,3 99,3 99,2 100,2 z" fill="#ee1c24" fill-opacity="1.0" id="xee1c24_r238_g28_b36_shape1"/>
  </g>
  <g id="xf47277_r244_g114_b119">
    <path d="M 86,4 86,3 87,3 87,4 z" fill="#f47277" fill-opacity="1.0" id="xf47277_r244_g114_b119_shape1"/>
  </g>
  <g id="xfbd4d6_r251_g212_b214">
    <path d="M 98,6 98,7 97,7 97,6 z" fill="#fbd4d6" fill-opacity="1.0" id="xfbd4d6_r251_g212_b214_shape1"/>
  </g>
  <g id="xed1d25_r237_g29_b37">
    <path d="M 98,98 99,98 99,99 98,99 z" fill="#ed1d25" fill-opacity="1.0" id="xed1d25_r237_g29_b37_shape1"/>
  </g>
</svg>
