<?xml version="1.0" encoding="utf-8" ?>
<svg xmlns="http://www.w3.org/2000/svg" xmlns:ev="http://www.w3.org/2001/xml-events" xmlns:xlink="http://www.w3.org/1999/xlink" baseProfile="full" height="100px" version="1.1" viewBox="0 0 100 100" width="100px">
  <defs/>
  <g id="xffffff_r255_g255_b255">
    <path d="M 0,100 0,52 25,52 25,56 26,56 26,58 27,58 27,59 28,59 28,61 29,61 29,62 31,62 31,63 32,63 32,64 35,64 35,65 38,65 38,66 48,66 48,65 51,65 51,64 54,64 54,63 55,63 55,62 57,62 57,61 58,61 58,60 59,60 59,58 60,58 60,56 61,56 61,52 71,52 99,52 100,52 100,72 100,95 100,100 z" fill="#ffffff" fill-opacity="1.0" id="xffffff_r255_g255_b255_shape1"/>
    <path d="M 15,47 0,47 0,0 43,0 100,0 100,47 59,47 59,46 58,46 58,45 57,45 57,44 55,44 55,43 56,43 56,42 57,42 57,41 58,41 58,39 59,39 59,38 60,38 60,37 61,37 61,36 62,36 62,35 63,35 63,33 64,33 64,32 65,32 65,31 66,31 66,30 67,30 67,29 68,29 68,28 69,28 69,26 70,26 70,25 71,25 71,24 72,24 72,23 73,23 73,22 74,22 74,21 75,21 75,19 76,19 76,18 77,18 77,17 78,17 78,16 79,16 79,15 80,15 80,14 81,14 81,12 82,12 82,11 83,11 83,12 85,12 85,13 86,13 86,14 88,14 88,15 90,15 90,16 93,16 93,15 94,15 94,12 93,12 93,11 91,11 91,10 89,10 89,9 88,9 88,8 86,8 86,7 84,7 84,6 80,6 80,7 79,7 79,8 78,8 78,9 77,9 77,11 76,11 76,12 75,12 75,13 74,13 74,14 73,14 73,15 72,15 72,16 71,16 71,18 70,18 70,19 69,19 69,20 68,20 68,21 67,21 67,22 66,22 66,23 65,23 65,25 64,25 64,26 63,26 63,27 62,27 62,28 61,28 61,29 60,29 60,31 59,31 59,32 58,32 58,33 57,33 57,34 56,34 56,35 55,35 55,36 54,36 54,38 53,38 53,39 52,39 52,40 51,40 51,41 48,41 48,40 38,40 38,41 35,41 35,42 33,42 33,43 31,43 31,44 29,44 29,45 28,45 28,47 z" fill="#ffffff" fill-opacity="1.0" id="xffffff_r255_g255_b255_shape2"/>
    <path d="M 39,61 39,60 36,60 36,59 34,59 34,58 32,58 32,57 31,57 31,55 30,55 30,53 30,52 56,52 56,55 55,55 55,57 54,57 54,58 52,58 52,59 50,59 50,60 47,60 47,61 z" fill="#ffffff" fill-opacity="1.0" id="xffffff_r255_g255_b255_shape3"/>
    <path d="M 50,47 36,47 36,46 39,46 39,45 46,45 47,45 47,46 48,46 50,46 z" fill="#ffffff" fill-opacity="1.0" id="xffffff_r255_g255_b255_shape4"/>
  </g>
  <g id="x000000_r0_g0_b0">
    <path d="M 58,32 59,32 59,31 60,31 60,29 61,29 61,28 62,28 62,27 63,27 63,26 64,26 64,25 65,25 65,24 65,23 66,23 66,22 67,22 67,21 68,21 68,20 69,20 69,19 70,19 70,18 71,18 71,16 72,16 72,15 73,15 73,14 74,14 74,13 75,13 75,12 76,12 76,11 77,11 77,10 77,9 78,9 78,8 79,8 79,7 80,7 80,6 82,6 83,6 84,6 84,7 85,7 86,7 86,8 87,8 88,8 88,9 89,9 89,10 90,10 91,10 91,11 92,11 93,11 93,12 94,12 94,13 94,15 93,15 93,16 90,16 90,15 88,15 88,14 86,14 86,13 85,13 85,12 83,12 83,11 82,11 82,12 81,12 81,14 80,14 80,15 79,15 79,16 78,16 78,17 77,17 77,18 76,18 76,19 75,19 75,20 75,21 74,21 74,22 73,22 73,23 72,23 72,24 71,24 71,25 70,25 70,26 69,26 69,28 68,28 68,29 67,29 67,30 66,30 66,31 65,31 65,32 64,32 64,33 63,33 63,34 63,35 62,35 62,36 61,36 61,37 60,37 60,38 59,38 59,39 58,39 58,41 57,41 57,42 56,42 56,43 55,43 55,44 56,44 57,44 57,45 58,45 58,46 59,46 59,47 100,47 100,52 77,52 61,52 61,56 60,56 60,58 59,58 59,60 58,60 58,61 57,61 57,62 55,62 55,63 54,63 54,64 51,64 51,65 48,65 48,66 38,66 38,65 35,65 35,64 32,64 32,63 31,63 31,62 29,62 29,61 28,61 28,59 27,59 27,58 26,58 26,56 25,56 25,52 0,52 0,47 28,47 28,45 29,45 29,44 31,44 31,43 33,43 33,42 35,42 35,41 38,41 38,40 48,40 48,41 51,41 51,40 52,40 52,39 53,39 53,38 54,38 54,36 55,36 55,35 56,35 56,34 57,34 57,33 58,33 z M 50,60 50,59 52,59 52,58 54,58 54,57 55,57 55,55 56,55 56,53 56,52 54,52 52,52 30,52 30,55 31,55 31,57 32,57 32,58 34,58 34,59 36,59 36,60 39,60 39,61 47,61 47,60 z M 50,47 50,46 48,46 47,46 47,45 46,45 43,45 39,45 39,46 36,46 36,47 39,47 z" fill="#000000" fill-opacity="1.0" id="x000000_r0_g0_b0_shape1"/>
  </g>
</svg>
