<?xml version="1.0" encoding="utf-8" ?>
<svg xmlns="http://www.w3.org/2000/svg" xmlns:ev="http://www.w3.org/2001/xml-events" xmlns:xlink="http://www.w3.org/1999/xlink" baseProfile="full" height="100px" version="1.1" viewBox="0 0 100 100" width="100px">
  <defs/>
  <g id="xffffff_r255_g255_b255">
    <path d="M 76,43 76,44 75,44 75,45 74,45 74,47 73,47 73,48 25,48 25,46 24,46 24,44 23,44 23,43 22,43 22,42 21,42 21,41 20,41 20,40 19,40 19,38 20,38 20,35 21,35 21,33 22,33 22,31 23,31 23,28 24,28 24,26 25,26 25,24 26,24 26,21 27,21 27,19 28,19 28,17 29,17 29,15 30,15 30,14 31,14 31,15 32,15 32,16 35,16 35,15 36,15 36,12 35,12 35,11 34,11 34,10 33,10 33,9 32,9 32,8 27,8 27,9 26,9 26,11 25,11 25,14 24,14 24,16 23,16 23,18 22,18 22,21 21,21 21,23 20,23 20,25 19,25 19,27 18,27 18,30 17,30 17,32 16,32 16,34 15,34 15,37 14,37 14,39 12,39 12,40 10,40 10,41 9,41 9,42 8,42 8,43 7,43 7,44 6,44 6,45 0,45 0,43 0,0 100,0 100,19 96,19 96,16 95,16 95,15 92,15 92,16 91,16 91,19 90,19 90,22 89,22 89,25 88,25 88,28 87,28 87,31 86,31 86,34 85,34 85,37 84,37 84,40 81,40 81,41 79,41 79,42 77,42 77,43 z M 82,27 81,27 81,29 81,30 82,30 82,29 z" fill="#ffffff" fill-opacity="1.0" id="xffffff_r255_g255_b255_shape1"/>
    <path d="M 6,100 0,100 0,92 2,92 2,91 3,91 3,89 4,89 4,85 5,85 5,82 6,82 6,79 7,79 7,76 8,76 8,73 9,73 9,70 10,70 10,67 11,67 11,64 12,64 12,61 13,61 13,60 17,60 18,60 18,59 19,59 20,59 20,58 21,58 21,57 22,57 22,56 23,56 23,55 24,55 24,53 30,53 34,53 72,53 72,56 73,56 73,58 74,58 74,60 75,60 75,61 76,61 76,62 77,62 77,63 78,63 78,64 81,64 81,66 80,66 80,68 79,68 79,69 78,69 78,71 77,71 77,73 76,73 76,75 75,75 75,77 74,77 74,78 73,78 73,80 72,80 72,82 71,82 71,84 70,84 70,85 69,85 69,87 68,87 68,89 67,89 67,91 66,91 66,93 65,93 65,94 64,94 64,95 62,95 62,94 57,94 57,93 53,93 53,94 52,94 52,97 53,97 53,98 56,98 56,99 61,99 61,100 z M 64,82 64,83 62,83 62,84 64,84 64,85 66,85 67,85 67,84 68,84 68,82 z M 17,76 18,76 18,75 17,75 z M 71,78 72,78 72,76 73,76 73,73 72,73 72,72 71,72 71,75 z M 70,80 69,80 69,81 70,81 z" fill="#ffffff" fill-opacity="1.0" id="xffffff_r255_g255_b255_shape2"/>
    <path d="M 67,100 67,99 68,99 68,97 69,97 69,96 70,96 70,94 71,94 71,92 72,92 72,90 73,90 73,88 74,88 74,87 75,87 75,85 76,85 76,83 77,83 77,81 78,81 78,80 79,80 79,78 80,78 80,76 81,76 81,74 82,74 82,72 83,72 83,71 84,71 84,69 85,69 85,67 86,67 86,65 88,65 88,64 90,64 90,63 91,63 91,62 92,62 92,61 93,61 93,60 94,60 94,58 95,58 95,56 96,56 96,50 100,50 100,59 100,100 z" fill="#ffffff" fill-opacity="1.0" id="xffffff_r255_g255_b255_shape3"/>
    <path d="M 92,43 91,43 91,42 89,42 89,38 90,38 90,35 91,35 91,32 92,32 92,29 93,29 93,26 94,26 94,24 100,24 100,45 93,45 93,44 92,44 z" fill="#ffffff" fill-opacity="1.0" id="xffffff_r255_g255_b255_shape4"/>
    <path d="M 78,55 77,55 77,54 77,50 78,50 78,48 79,48 79,47 80,47 80,46 82,46 82,45 86,45 86,46 88,46 88,47 89,47 89,48 90,48 90,50 91,50 91,53 91,55 90,55 90,57 89,57 89,58 88,58 88,59 87,59 87,60 81,60 81,59 80,59 80,58 79,58 79,57 78,57 78,56 z" fill="#ffffff" fill-opacity="1.0" id="xffffff_r255_g255_b255_shape5"/>
    <path d="M 2,75 2,78 1,78 1,81 0,81 0,74 0,50 5,50 5,52 6,52 6,55 7,55 7,56 8,56 8,59 8,60 7,60 7,61 7,63 6,63 6,66 5,66 5,69 4,69 4,72 3,72 3,75 z" fill="#ffffff" fill-opacity="1.0" id="xffffff_r255_g255_b255_shape6"/>
    <path d="M 11,47 11,46 12,46 12,45 13,45 13,44 17,44 17,45 18,45 18,46 19,46 19,47 20,47 20,52 19,52 19,53 18,53 18,54 17,54 17,55 13,55 13,54 12,54 12,53 11,53 11,52 10,52 10,47 z" fill="#ffffff" fill-opacity="1.0" id="xffffff_r255_g255_b255_shape7"/>
  </g>
  <g id="x000000_r0_g0_b0">
    <path d="M 0,81 1,81 1,78 2,78 2,75 3,75 3,72 4,72 4,69 5,69 5,66 6,66 6,63 7,63 7,61 7,60 8,60 8,59 8,56 7,56 7,55 6,55 6,52 5,52 5,50 0,50 0,45 6,45 6,44 7,44 7,43 8,43 8,42 9,42 9,41 10,41 10,40 12,40 12,39 14,39 14,37 15,37 15,34 16,34 16,32 17,32 17,30 18,30 18,27 19,27 19,25 20,25 20,23 21,23 21,21 22,21 22,18 23,18 23,16 24,16 24,14 25,14 25,11 26,11 26,9 27,9 27,8 32,8 32,9 33,9 33,10 34,10 34,11 35,11 35,12 36,12 36,15 35,15 35,16 32,16 32,15 31,15 31,14 30,14 30,15 29,15 29,17 28,17 28,19 27,19 27,21 26,21 26,24 25,24 25,26 24,26 24,28 23,28 23,31 22,31 22,33 21,33 21,35 20,35 20,38 19,38 19,40 20,40 20,41 21,41 21,42 22,42 22,43 23,43 23,44 24,44 24,46 25,46 25,48 73,48 73,47 74,47 74,45 75,45 75,44 76,44 76,43 77,43 77,42 79,42 79,41 81,41 81,40 84,40 84,37 85,37 85,34 86,34 86,31 87,31 87,28 88,28 88,25 89,25 89,22 90,22 90,19 91,19 91,16 92,16 92,15 95,15 95,16 96,16 96,19 100,19 100,24 94,24 94,26 93,26 93,29 92,29 92,32 91,32 91,35 90,35 90,38 89,38 89,42 91,42 91,43 92,43 92,44 93,44 93,45 100,45 100,50 96,50 96,56 95,56 95,58 94,58 94,60 93,60 93,61 92,61 92,62 91,62 91,63 90,63 90,64 88,64 88,65 86,65 86,67 85,67 85,69 84,69 84,71 83,71 83,72 82,72 82,74 81,74 81,76 80,76 80,78 79,78 79,80 78,80 78,81 77,81 77,83 76,83 76,85 75,85 75,87 74,87 74,88 73,88 73,90 72,90 72,92 71,92 71,94 70,94 70,96 69,96 69,97 68,97 68,99 67,99 67,100 61,100 61,99 56,99 56,98 53,98 53,97 52,97 52,94 53,94 53,93 57,93 57,94 62,94 62,95 64,95 64,94 65,94 65,93 66,93 66,91 67,91 67,89 68,89 68,87 69,87 69,85 70,85 70,84 71,84 71,82 72,82 72,80 73,80 73,78 74,78 74,77 75,77 75,75 76,75 76,73 77,73 77,71 78,71 78,69 79,69 79,68 80,68 80,66 81,66 81,64 78,64 78,63 77,63 77,62 76,62 76,61 75,61 75,60 74,60 74,58 73,58 73,56 72,56 72,53 24,53 24,55 23,55 23,56 22,56 22,57 21,57 21,58 20,58 20,59 18,59 18,60 13,60 13,61 12,61 12,64 11,64 11,67 10,67 10,70 9,70 9,73 8,73 8,76 7,76 7,79 6,79 6,82 5,82 5,85 4,85 4,89 3,89 3,91 2,91 2,92 0,92 z M 82,46 80,46 80,47 79,47 79,48 78,48 78,50 77,50 77,55 78,55 78,57 79,57 79,58 80,58 80,59 81,59 81,60 85,60 87,60 87,59 88,59 88,58 89,58 89,57 90,57 90,55 91,55 91,50 90,50 90,48 89,48 89,47 88,47 88,46 86,46 86,45 82,45 z M 18,53 19,53 19,52 20,52 20,47 19,47 19,46 18,46 18,45 17,45 17,44 14,44 13,44 13,45 12,45 12,46 11,46 11,47 10,47 10,52 11,52 11,53 12,53 12,54 13,54 13,55 17,55 17,54 18,54 z" fill="#000000" fill-opacity="1.0" id="x000000_r0_g0_b0_shape1"/>
    <path d="M 64,83 64,82 68,82 68,84 67,84 67,85 64,85 64,84 62,84 62,83 z" fill="#000000" fill-opacity="1.0" id="x000000_r0_g0_b0_shape2"/>
    <path d="M 71,72 72,72 72,73 73,73 73,76 72,76 72,78 71,78 z" fill="#000000" fill-opacity="1.0" id="x000000_r0_g0_b0_shape3"/>
    <path d="M 82,30 81,30 81,27 82,27 z" fill="#000000" fill-opacity="1.0" id="x000000_r0_g0_b0_shape4"/>
    <path d="M 18,76 17,76 17,75 18,75 z" fill="#000000" fill-opacity="1.0" id="x000000_r0_g0_b0_shape5"/>
    <path d="M 69,80 70,80 70,81 69,81 z" fill="#000000" fill-opacity="1.0" id="x000000_r0_g0_b0_shape6"/>
  </g>
</svg>
