<?xml version="1.0" encoding="utf-8" ?>
<svg xmlns="http://www.w3.org/2000/svg" xmlns:ev="http://www.w3.org/2001/xml-events" xmlns:xlink="http://www.w3.org/1999/xlink" baseProfile="full" height="100px" version="1.1" viewBox="0 0 100 100" width="100px">
  <defs/>
  <g id="xffffff_r255_g255_b255">
    <path d="M 15,85 15,56 14,56 14,48 15,48 15,8 94,8 94,49 96,49 96,57 94,57 94,85 z M 81,61 81,60 80,60 80,59 79,59 79,58 77,58 77,57 76,57 76,56 75,56 75,55 74,55 74,51 71,51 69,51 69,49 66,49 66,48 65,48 65,47 64,47 64,46 63,46 62,46 62,45 61,45 61,44 60,44 60,43 59,43 59,42 58,42 57,42 57,41 56,41 56,40 55,40 55,39 54,39 54,38 53,38 52,38 52,37 51,37 51,36 50,36 50,35 49,35 49,34 48,34 47,34 47,33 46,33 46,32 45,32 45,31 44,31 44,30 43,30 42,30 42,29 41,29 41,28 40,28 40,27 39,27 39,26 38,26 37,26 37,25 36,25 36,24 35,24 35,23 34,23 34,22 33,22 32,22 32,21 31,21 31,20 30,20 30,19 29,19 29,18 28,18 27,18 27,17 26,17 26,16 25,16 25,15 22,15 22,16 21,16 21,20 21,48 22,48 22,56 21,56 21,71 22,71 22,72 26,72 47,72 90,72 90,71 91,71 91,68 90,68 90,67 89,67 89,66 87,66 87,65 86,65 86,64 85,64 85,63 84,63 84,62 82,62 82,61 z" fill="#ffffff" fill-opacity="1.0" id="xffffff_r255_g255_b255_shape1"/>
    <path d="M 0,100 0,54 10,54 10,70 10,90 11,90 60,90 99,90 99,87 99,54 100,54 100,100 z" fill="#ffffff" fill-opacity="1.0" id="xffffff_r255_g255_b255_shape2"/>
    <path d="M 26,23 27,23 27,24 28,24 28,25 29,25 29,26 31,26 31,27 32,27 32,28 33,28 33,29 34,29 34,30 36,30 36,31 37,31 37,32 38,32 38,33 39,33 39,34 41,34 41,35 42,35 42,36 43,36 43,37 44,37 44,38 46,38 46,39 47,39 47,40 48,40 48,41 49,41 49,42 51,42 51,43 52,43 52,44 53,44 53,45 54,45 54,46 56,46 56,47 57,47 57,48 58,48 58,49 63,49 63,52 65,52 65,54 66,54 66,55 67,55 67,56 68,56 68,57 69,57 69,58 71,58 71,59 72,59 72,60 73,60 73,61 74,61 74,62 76,62 76,63 77,63 77,64 78,64 78,65 79,65 79,66 81,66 81,67 68,67 67,67 26,67 z" fill="#ffffff" fill-opacity="1.0" id="xffffff_r255_g255_b255_shape3"/>
    <path d="M 70,0 100,0 100,49 99,49 99,3 10,3 10,23 10,49 0,49 0,31 0,0 z" fill="#ffffff" fill-opacity="1.0" id="xffffff_r255_g255_b255_shape4"/>
  </g>
  <g id="x000000_r0_g0_b0">
    <path d="M 99,49 100,49 100,54 99,54 99,90 10,90 10,54 0,54 0,49 10,49 10,3 99,3 z M 15,8 15,48 14,48 14,56 15,56 15,85 94,85 94,57 96,57 96,49 94,49 94,28 94,8 z" fill="#000000" fill-opacity="1.0" id="x000000_r0_g0_b0_shape1"/>
    <path d="M 21,56 22,56 22,48 21,48 21,16 22,16 22,15 25,15 25,16 26,16 26,17 27,17 27,18 29,18 29,19 30,19 30,20 31,20 31,21 32,21 32,22 34,22 34,23 35,23 35,24 36,24 36,25 37,25 37,26 39,26 39,27 40,27 40,28 41,28 41,29 42,29 42,30 44,30 44,31 45,31 45,32 46,32 46,33 47,33 47,34 49,34 49,35 50,35 50,36 51,36 51,37 52,37 52,38 54,38 54,39 55,39 55,40 56,40 56,41 57,41 57,42 59,42 59,43 60,43 60,44 61,44 61,45 62,45 62,46 64,46 64,47 65,47 65,48 66,48 66,49 69,49 69,51 71,51 74,51 74,55 75,55 75,56 76,56 76,57 77,57 77,58 79,58 79,59 80,59 80,60 81,60 81,61 82,61 82,62 84,62 84,63 85,63 85,64 86,64 86,65 87,65 87,66 89,66 89,67 90,67 90,68 91,68 91,71 90,71 90,72 77,72 48,72 22,72 22,71 21,71 z M 29,26 29,25 28,25 28,24 27,24 27,23 26,23 26,67 71,67 81,67 81,66 79,66 79,65 78,65 78,64 77,64 77,63 76,63 76,62 74,62 74,61 73,61 73,60 72,60 72,59 71,59 71,58 69,58 69,57 68,57 68,56 67,56 67,55 66,55 66,54 65,54 65,52 63,52 63,49 58,49 58,48 57,48 57,47 56,47 56,46 54,46 54,45 53,45 53,44 52,44 52,43 51,43 51,42 49,42 49,41 48,41 48,40 47,40 47,39 46,39 46,38 44,38 44,37 43,37 43,36 42,36 42,35 41,35 41,34 39,34 39,33 38,33 38,32 37,32 37,31 36,31 36,30 34,30 34,29 33,29 33,28 32,28 32,27 31,27 31,26 z" fill="#000000" fill-opacity="1.0" id="x000000_r0_g0_b0_shape2"/>
  </g>
</svg>
