<?xml version="1.0" encoding="utf-8" ?>
<svg xmlns="http://www.w3.org/2000/svg" xmlns:ev="http://www.w3.org/2001/xml-events" xmlns:xlink="http://www.w3.org/1999/xlink" baseProfile="full" height="100px" version="1.1" viewBox="0 0 100 100" width="100px">
  <defs/>
  <g id="xffffff_r255_g255_b255">
    <path d="M 17,81 17,16 86,16 86,81 z M 36,55 36,54 37,54 37,50 39,50 39,49 40,49 40,48 42,48 42,47 43,47 43,46 44,46 44,45 45,45 46,45 46,44 47,44 47,43 48,43 48,42 50,42 50,41 51,41 51,40 53,40 53,39 54,39 54,38 55,38 55,37 57,37 57,36 58,36 58,35 59,35 59,32 58,32 58,31 56,31 55,31 55,32 54,32 54,33 52,33 52,34 51,34 51,35 50,35 50,36 49,36 48,36 48,37 47,37 47,38 45,38 45,39 44,39 44,40 43,40 43,41 41,41 41,42 40,42 40,43 39,43 39,44 37,44 37,45 36,45 36,46 34,46 34,47 33,47 33,48 32,48 32,50 29,50 29,49 22,49 22,50 21,50 21,53 22,53 22,54 29,54 29,55 z M 74,51 74,50 75,50 75,47 74,47 74,46 54,46 54,47 53,47 53,50 54,50 54,51 z" fill="#ffffff" fill-opacity="1.0" id="xffffff_r255_g255_b255_shape1"/>
    <path d="M 91,86 91,50 100,50 100,100 0,100 0,50 12,50 12,86 z" fill="#ffffff" fill-opacity="1.0" id="xffffff_r255_g255_b255_shape2"/>
    <path d="M 12,11 12,45 0,45 0,15 0,0 100,0 100,45 91,45 91,11 z" fill="#ffffff" fill-opacity="1.0" id="xffffff_r255_g255_b255_shape3"/>
  </g>
  <g id="x000000_r0_g0_b0">
    <path d="M 91,11 91,45 100,45 100,50 91,50 91,86 41,86 12,86 12,85 12,50 0,50 0,45 12,45 12,11 31,11 z M 17,81 86,81 86,16 17,16 z" fill="#000000" fill-opacity="1.0" id="x000000_r0_g0_b0_shape1"/>
    <path d="M 58,32 59,32 59,35 58,35 58,36 57,36 57,37 55,37 55,38 54,38 54,39 53,39 53,40 51,40 51,41 50,41 50,42 48,42 48,43 47,43 47,44 46,44 46,45 44,45 44,46 43,46 43,47 42,47 42,48 40,48 40,49 39,49 39,50 37,50 37,54 36,54 36,55 29,55 29,54 22,54 22,53 21,53 21,52 21,50 22,50 22,49 29,49 29,50 32,50 32,48 33,48 33,47 34,47 34,46 36,46 36,45 37,45 37,44 39,44 39,43 40,43 40,42 41,42 41,41 43,41 43,40 44,40 44,39 45,39 45,38 47,38 47,37 48,37 48,36 50,36 50,35 51,35 51,34 52,34 52,33 54,33 54,32 55,32 55,31 58,31 z" fill="#000000" fill-opacity="1.0" id="x000000_r0_g0_b0_shape2"/>
    <path d="M 54,51 54,50 53,50 53,47 54,47 54,46 74,46 74,47 75,47 75,48 75,50 74,50 74,51 z" fill="#000000" fill-opacity="1.0" id="x000000_r0_g0_b0_shape3"/>
  </g>
</svg>
