<?xml version="1.0" encoding="utf-8" ?>
<svg xmlns="http://www.w3.org/2000/svg" xmlns:ev="http://www.w3.org/2001/xml-events" xmlns:xlink="http://www.w3.org/1999/xlink" baseProfile="full" height="100px" version="1.1" viewBox="0 0 100 100" width="100px">
  <defs/>
  <g id="xffffff_r255_g255_b255">
    <path d="M 76,43 76,44 75,44 75,45 74,45 74,47 73,47 73,48 69,48 63,48 63,47 62,47 62,46 61,46 61,45 62,45 62,44 63,44 63,43 64,43 64,41 65,41 65,40 66,40 66,39 67,39 67,38 67,37 68,37 68,36 69,36 69,35 70,35 70,34 71,34 71,33 71,32 72,32 72,31 73,31 73,30 74,30 74,29 76,29 76,30 78,30 78,31 80,31 81,31 81,30 82,30 82,27 81,27 81,26 79,26 79,25 77,25 77,23 76,23 76,22 73,22 73,23 72,23 72,24 71,24 71,26 70,26 70,27 69,27 69,28 68,28 68,29 67,29 67,31 66,31 66,32 65,32 65,33 64,33 64,34 63,34 63,36 62,36 62,37 61,37 61,38 60,38 60,40 59,40 59,41 58,41 58,42 54,42 54,41 48,41 48,39 47,39 47,36 46,36 46,34 45,34 45,32 44,32 44,30 43,30 43,26 44,26 44,23 43,23 43,22 37,22 37,23 36,23 36,27 35,27 35,28 34,28 34,29 33,29 33,30 32,30 32,33 33,33 33,34 36,34 36,33 37,33 37,32 38,32 38,31 39,31 39,33 40,33 40,35 41,35 41,37 42,37 42,40 43,40 43,42 44,42 44,43 42,43 42,44 41,44 41,45 40,45 40,46 39,46 39,47 38,47 38,48 33,48 25,48 25,46 24,46 24,44 23,44 23,43 22,43 22,42 21,42 21,41 20,41 20,40 19,40 19,38 20,38 20,35 21,35 21,33 22,33 22,31 23,31 23,28 24,28 24,26 25,26 25,24 26,24 26,21 27,21 27,19 28,19 28,17 29,17 29,15 30,15 30,14 31,14 31,15 32,15 32,16 35,16 35,15 36,15 36,12 35,12 35,11 34,11 34,10 33,10 33,9 32,9 32,8 27,8 27,9 26,9 26,11 25,11 25,14 24,14 24,16 23,16 23,18 22,18 22,21 21,21 21,23 20,23 20,25 19,25 19,27 18,27 18,30 17,30 17,32 16,32 16,34 15,34 15,37 14,37 14,39 12,39 12,40 10,40 10,41 9,41 9,42 8,42 8,43 7,43 7,44 6,44 6,45 4,45 0,45 0,0 23,0 100,0 100,19 96,19 96,16 95,16 95,15 92,15 92,16 91,16 91,19 90,19 90,22 89,22 89,25 88,25 88,28 87,28 87,31 86,31 86,34 85,34 85,37 84,37 84,40 81,40 81,41 79,41 79,42 77,42 77,43 z" fill="#ffffff" fill-opacity="1.0" id="xffffff_r255_g255_b255_shape1"/>
    <path d="M 32,76 33,76 33,75 34,75 34,74 35,74 35,73 36,73 36,72 37,72 37,71 38,71 38,70 38,69 39,69 39,68 40,68 40,67 41,67 41,66 42,66 42,65 43,65 43,64 43,63 43,62 44,62 44,63 47,63 47,64 49,64 52,64 52,66 53,66 53,68 54,68 54,70 55,70 55,72 56,72 56,74 57,74 57,75 58,75 58,76 58,77 59,77 59,78 59,79 60,79 60,80 60,81 61,81 61,82 61,83 62,83 62,84 64,84 64,85 66,85 67,85 67,84 68,84 68,82 69,82 69,81 70,81 70,79 71,79 71,78 72,78 72,76 73,76 73,73 72,73 72,72 69,72 69,73 68,73 68,75 67,75 67,76 66,76 66,78 64,78 64,76 63,76 63,74 62,74 62,72 61,72 61,70 60,70 60,69 59,69 59,67 58,67 58,65 57,65 57,62 59,62 59,61 60,61 60,60 61,60 61,59 62,59 62,58 63,58 63,56 64,56 64,53 72,53 72,56 73,56 73,58 74,58 74,60 75,60 75,61 76,61 76,62 77,62 77,63 78,63 78,64 81,64 81,66 80,66 80,68 79,68 79,69 78,69 78,71 77,71 77,73 76,73 76,75 75,75 75,77 74,77 74,78 73,78 73,80 72,80 72,82 71,82 71,84 70,84 70,85 69,85 69,87 68,87 68,89 67,89 67,91 66,91 66,93 65,93 65,94 64,94 64,95 62,95 62,94 57,94 57,93 53,93 53,94 52,94 52,97 53,97 53,98 56,98 56,99 61,99 61,100 46,100 27,100 0,100 0,92 2,92 2,91 3,91 3,89 4,89 4,85 5,85 5,82 6,82 6,79 7,79 7,76 8,76 8,73 9,73 9,70 10,70 10,67 11,67 11,64 12,64 12,61 13,61 13,60 18,60 18,59 20,59 20,58 21,58 21,57 22,57 22,56 23,56 23,55 24,55 24,53 37,53 37,55 38,55 38,58 39,58 39,59 40,59 40,60 41,60 41,61 39,61 39,62 38,62 38,63 37,63 37,64 36,64 36,65 35,65 35,67 34,67 34,68 33,68 33,69 32,69 32,70 31,70 31,71 30,71 30,72 29,72 29,73 28,73 28,74 27,74 27,75 26,75 26,77 25,77 25,78 24,78 24,77 23,77 23,76 22,76 22,75 21,75 21,74 18,74 18,75 17,75 17,78 18,78 18,79 19,79 19,80 20,80 20,85 21,85 21,86 24,86 24,85 25,85 25,84 26,84 26,83 27,83 27,82 28,82 28,81 29,81 29,79 30,79 30,78 31,78 31,77 32,77 z" fill="#ffffff" fill-opacity="1.0" id="xffffff_r255_g255_b255_shape2"/>
    <path d="M 67,100 67,99 68,99 68,97 69,97 69,96 70,96 70,94 71,94 71,92 72,92 72,90 73,90 73,88 74,88 74,87 75,87 75,85 76,85 76,83 77,83 77,81 78,81 78,80 79,80 79,78 80,78 80,76 81,76 81,74 82,74 82,72 83,72 83,71 84,71 84,69 85,69 85,67 86,67 86,65 88,65 88,64 90,64 90,63 91,63 91,62 92,62 92,61 93,61 93,60 94,60 94,58 95,58 95,56 96,56 96,50 100,50 100,59 100,100 z" fill="#ffffff" fill-opacity="1.0" id="xffffff_r255_g255_b255_shape3"/>
    <path d="M 92,43 91,43 91,42 89,42 89,38 90,38 90,35 91,35 91,32 92,32 92,29 93,29 93,26 94,26 94,24 100,24 100,45 93,45 93,44 92,44 z" fill="#ffffff" fill-opacity="1.0" id="xffffff_r255_g255_b255_shape4"/>
    <path d="M 56,48 57,48 57,49 58,49 58,50 59,50 59,55 58,55 58,56 57,56 57,57 56,57 56,58 54,58 54,59 50,59 47,59 47,58 45,58 45,57 44,57 44,56 43,56 43,55 42,55 42,51 43,51 43,49 44,49 44,48 45,48 45,47 47,47 47,46 54,46 54,47 56,47 z" fill="#ffffff" fill-opacity="1.0" id="xffffff_r255_g255_b255_shape5"/>
    <path d="M 78,55 77,55 77,54 77,50 78,50 78,48 79,48 79,47 80,47 80,46 82,46 82,45 86,45 86,46 88,46 88,47 89,47 89,48 90,48 90,50 91,50 91,53 91,55 90,55 90,57 89,57 89,58 88,58 88,59 87,59 87,60 81,60 81,59 80,59 80,58 79,58 79,57 78,57 78,56 z" fill="#ffffff" fill-opacity="1.0" id="xffffff_r255_g255_b255_shape6"/>
    <path d="M 2,75 2,78 1,78 1,81 0,81 0,74 0,50 5,50 5,52 6,52 6,55 7,55 7,56 8,56 8,59 8,60 7,60 7,61 7,63 6,63 6,66 5,66 5,69 4,69 4,72 3,72 3,75 z" fill="#ffffff" fill-opacity="1.0" id="xffffff_r255_g255_b255_shape7"/>
    <path d="M 11,47 11,46 12,46 12,45 13,45 13,44 17,44 17,45 18,45 18,46 19,46 19,47 20,47 20,52 19,52 19,53 18,53 18,54 17,54 17,55 13,55 13,54 12,54 12,53 11,53 11,52 10,52 10,47 z" fill="#ffffff" fill-opacity="1.0" id="xffffff_r255_g255_b255_shape8"/>
  </g>
  <g id="x000000_r0_g0_b0">
    <path d="M 36,73 35,73 35,74 34,74 34,75 33,75 33,76 32,76 32,77 31,77 31,78 30,78 30,79 29,79 29,80 29,81 28,81 28,82 27,82 27,83 26,83 26,84 25,84 25,85 24,85 24,86 23,86 22,86 21,86 21,85 20,85 20,80 19,80 19,79 18,79 18,78 17,78 17,75 18,75 18,74 21,74 21,75 22,75 22,76 23,76 23,77 24,77 24,78 25,78 25,77 26,77 26,75 27,75 27,74 28,74 28,73 29,73 29,72 30,72 30,71 31,71 31,70 32,70 32,69 33,69 33,68 34,68 34,67 35,67 35,65 36,65 36,64 37,64 37,63 38,63 38,62 39,62 39,61 41,61 41,60 40,60 40,59 39,59 39,58 38,58 38,55 37,55 37,53 24,53 24,55 23,55 23,56 22,56 22,57 21,57 21,58 20,58 20,59 18,59 18,60 13,60 13,61 12,61 12,64 11,64 11,67 10,67 10,70 9,70 9,73 8,73 8,76 7,76 7,79 6,79 6,82 5,82 5,85 4,85 4,89 3,89 3,91 2,91 2,92 0,92 0,81 1,81 1,78 2,78 2,75 3,75 3,72 4,72 4,69 5,69 5,66 6,66 6,63 7,63 7,60 8,60 8,56 7,56 7,55 6,55 6,52 5,52 5,50 0,50 0,45 6,45 6,44 7,44 7,43 8,43 8,42 9,42 9,41 10,41 10,40 12,40 12,39 14,39 14,37 15,37 15,34 16,34 16,32 17,32 17,30 18,30 18,27 19,27 19,25 20,25 20,23 21,23 21,21 22,21 22,18 23,18 23,16 24,16 24,14 25,14 25,11 26,11 26,9 27,9 27,8 32,8 32,9 33,9 33,10 34,10 34,11 35,11 35,12 36,12 36,15 35,15 35,16 32,16 32,15 31,15 31,14 30,14 30,15 29,15 29,17 28,17 28,19 27,19 27,21 26,21 26,24 25,24 25,26 24,26 24,28 23,28 23,31 22,31 22,33 21,33 21,35 20,35 20,38 19,38 19,40 20,40 20,41 21,41 21,42 22,42 22,43 23,43 23,44 24,44 24,46 25,46 25,48 26,48 38,48 38,47 39,47 39,46 40,46 40,45 41,45 41,44 42,44 42,43 44,43 44,42 43,42 43,40 42,40 42,37 41,37 41,35 40,35 40,33 39,33 39,31 38,31 38,32 37,32 37,33 36,33 36,34 33,34 33,33 32,33 32,30 33,30 33,29 34,29 34,28 35,28 35,27 36,27 36,23 37,23 37,22 43,22 43,23 44,23 44,26 43,26 43,30 44,30 44,32 45,32 45,34 46,34 46,36 47,36 47,39 48,39 48,41 54,41 54,42 58,42 58,41 59,41 59,40 60,40 60,38 61,38 61,37 62,37 62,36 63,36 63,34 64,34 64,33 65,33 65,32 66,32 66,31 67,31 67,29 68,29 68,28 69,28 69,27 70,27 70,26 71,26 71,24 72,24 72,23 73,23 73,22 76,22 76,23 77,23 77,25 79,25 79,26 81,26 81,27 82,27 82,30 81,30 81,31 78,31 78,30 76,30 76,29 74,29 74,30 73,30 73,31 72,31 72,32 71,32 71,34 70,34 70,35 69,35 69,36 68,36 68,37 67,37 67,39 66,39 66,40 65,40 65,41 64,41 64,43 63,43 63,44 62,44 62,45 61,45 61,46 62,46 62,47 63,47 63,48 73,48 73,47 74,47 74,45 75,45 75,44 76,44 76,43 77,43 77,42 79,42 79,41 81,41 81,40 84,40 84,37 85,37 85,34 86,34 86,31 87,31 87,28 88,28 88,25 89,25 89,22 90,22 90,19 91,19 91,16 92,16 92,15 95,15 95,16 96,16 96,19 100,19 100,24 94,24 94,26 93,26 93,29 92,29 92,32 91,32 91,35 90,35 90,38 89,38 89,42 91,42 91,43 92,43 92,44 93,44 93,45 100,45 100,48 100,50 96,50 96,51 96,56 95,56 95,58 94,58 94,60 93,60 93,61 92,61 92,62 91,62 91,63 90,63 90,64 88,64 88,65 86,65 86,67 85,67 85,69 84,69 84,71 83,71 83,72 82,72 82,74 81,74 81,76 80,76 80,78 79,78 79,80 78,80 78,81 77,81 77,83 76,83 76,85 75,85 75,87 74,87 74,88 73,88 73,90 72,90 72,92 71,92 71,94 70,94 70,96 69,96 69,97 68,97 68,99 67,99 67,100 61,100 61,99 56,99 56,98 53,98 53,97 52,97 52,94 53,94 53,93 57,93 57,94 62,94 62,95 64,95 64,94 65,94 65,93 66,93 66,91 67,91 67,89 68,89 68,87 69,87 69,85 70,85 70,84 71,84 71,82 72,82 72,80 73,80 73,78 74,78 74,77 75,77 75,75 76,75 76,73 77,73 77,71 78,71 78,69 79,69 79,68 80,68 80,66 81,66 81,64 78,64 78,63 77,63 77,62 76,62 76,61 75,61 75,60 74,60 74,58 73,58 73,56 72,56 72,53 69,53 64,53 64,56 63,56 63,58 62,58 62,59 61,59 61,60 60,60 60,61 59,61 59,62 57,62 57,65 58,65 58,67 59,67 59,69 60,69 60,70 61,70 61,72 62,72 62,74 63,74 63,76 64,76 64,78 66,78 66,76 67,76 67,75 68,75 68,73 69,73 69,72 72,72 72,73 73,73 73,76 72,76 72,78 71,78 71,79 70,79 70,81 69,81 69,82 68,82 68,84 67,84 67,85 64,85 64,84 62,84 62,83 61,83 61,81 60,81 60,79 59,79 59,77 58,77 58,75 57,75 57,74 56,74 56,72 55,72 55,70 54,70 54,68 53,68 53,66 52,66 52,64 47,64 47,63 44,63 44,62 43,62 43,65 42,65 42,66 41,66 41,67 40,67 40,68 39,68 39,69 38,69 38,71 37,71 37,72 36,72 z M 43,55 43,56 44,56 44,57 45,57 45,58 47,58 47,59 54,59 54,58 56,58 56,57 57,57 57,56 58,56 58,55 59,55 59,52 59,50 58,50 58,49 57,49 57,48 56,48 56,47 54,47 54,46 47,46 47,47 45,47 45,48 44,48 44,49 43,49 43,51 42,51 42,55 z M 80,58 80,59 81,59 81,60 87,60 87,59 88,59 88,58 89,58 89,57 90,57 90,55 91,55 91,50 90,50 90,48 89,48 89,47 88,47 88,46 86,46 86,45 82,45 82,46 80,46 80,47 79,47 79,48 78,48 78,50 77,50 77,55 78,55 78,57 79,57 79,58 z M 17,55 17,54 18,54 18,53 19,53 19,52 20,52 20,47 19,47 19,46 18,46 18,45 17,45 17,44 14,44 13,44 13,45 12,45 12,46 11,46 11,47 10,47 10,52 11,52 11,53 12,53 12,54 13,54 13,55 z" fill="#000000" fill-opacity="1.0" id="x000000_r0_g0_b0_shape1"/>
  </g>
</svg>
